%TF.GenerationSoftware,KiCad,Pcbnew,9.0.1*%
%TF.CreationDate,2025-04-21T22:05:37-04:00*%
%TF.ProjectId,nano_original,6e616e6f-5f6f-4726-9967-696e616c2e6b,rev?*%
%TF.SameCoordinates,Original*%
%TF.FileFunction,Copper,L2,Bot*%
%TF.FilePolarity,Positive*%
%FSLAX46Y46*%
G04 Gerber Fmt 4.6, Leading zero omitted, Abs format (unit mm)*
G04 Created by KiCad (PCBNEW 9.0.1) date 2025-04-21 22:05:37*
%MOMM*%
%LPD*%
G01*
G04 APERTURE LIST*
G04 Aperture macros list*
%AMRoundRect*
0 Rectangle with rounded corners*
0 $1 Rounding radius*
0 $2 $3 $4 $5 $6 $7 $8 $9 X,Y pos of 4 corners*
0 Add a 4 corners polygon primitive as box body*
4,1,4,$2,$3,$4,$5,$6,$7,$8,$9,$2,$3,0*
0 Add four circle primitives for the rounded corners*
1,1,$1+$1,$2,$3*
1,1,$1+$1,$4,$5*
1,1,$1+$1,$6,$7*
1,1,$1+$1,$8,$9*
0 Add four rect primitives between the rounded corners*
20,1,$1+$1,$2,$3,$4,$5,0*
20,1,$1+$1,$4,$5,$6,$7,0*
20,1,$1+$1,$6,$7,$8,$9,0*
20,1,$1+$1,$8,$9,$2,$3,0*%
G04 Aperture macros list end*
%TA.AperFunction,ComponentPad*%
%ADD10C,1.700000*%
%TD*%
%TA.AperFunction,ComponentPad*%
%ADD11R,1.700000X1.700000*%
%TD*%
%TA.AperFunction,SMDPad,CuDef*%
%ADD12RoundRect,0.375000X0.625000X0.375000X-0.625000X0.375000X-0.625000X-0.375000X0.625000X-0.375000X0*%
%TD*%
%TA.AperFunction,SMDPad,CuDef*%
%ADD13RoundRect,0.500000X0.500000X1.400000X-0.500000X1.400000X-0.500000X-1.400000X0.500000X-1.400000X0*%
%TD*%
%TA.AperFunction,SMDPad,CuDef*%
%ADD14RoundRect,0.250000X0.475000X-0.337500X0.475000X0.337500X-0.475000X0.337500X-0.475000X-0.337500X0*%
%TD*%
%TA.AperFunction,SMDPad,CuDef*%
%ADD15RoundRect,0.076200X0.558800X-0.304800X0.558800X0.304800X-0.558800X0.304800X-0.558800X-0.304800X0*%
%TD*%
%TA.AperFunction,SMDPad,CuDef*%
%ADD16RoundRect,0.127000X1.143000X-1.208000X1.143000X1.208000X-1.143000X1.208000X-1.143000X-1.208000X0*%
%TD*%
%TA.AperFunction,HeatsinkPad*%
%ADD17O,1.600000X0.900000*%
%TD*%
%TA.AperFunction,SMDPad,CuDef*%
%ADD18RoundRect,0.250000X0.445000X-0.545000X0.445000X0.545000X-0.445000X0.545000X-0.445000X-0.545000X0*%
%TD*%
%TA.AperFunction,SMDPad,CuDef*%
%ADD19RoundRect,0.250000X0.337500X0.475000X-0.337500X0.475000X-0.337500X-0.475000X0.337500X-0.475000X0*%
%TD*%
%TA.AperFunction,SMDPad,CuDef*%
%ADD20RoundRect,0.250000X-0.337500X-0.475000X0.337500X-0.475000X0.337500X0.475000X-0.337500X0.475000X0*%
%TD*%
%TA.AperFunction,SMDPad,CuDef*%
%ADD21R,0.760000X0.430000*%
%TD*%
%TA.AperFunction,SMDPad,CuDef*%
%ADD22RoundRect,0.237500X0.287500X0.237500X-0.287500X0.237500X-0.287500X-0.237500X0.287500X-0.237500X0*%
%TD*%
%TA.AperFunction,SMDPad,CuDef*%
%ADD23C,1.000000*%
%TD*%
%TA.AperFunction,SMDPad,CuDef*%
%ADD24R,0.400000X1.200000*%
%TD*%
%TA.AperFunction,SMDPad,CuDef*%
%ADD25RoundRect,0.250000X-0.545000X-0.445000X0.545000X-0.445000X0.545000X0.445000X-0.545000X0.445000X0*%
%TD*%
%TA.AperFunction,ViaPad*%
%ADD26C,0.812800*%
%TD*%
%TA.AperFunction,ViaPad*%
%ADD27C,0.800000*%
%TD*%
%TA.AperFunction,ViaPad*%
%ADD28C,0.600000*%
%TD*%
%TA.AperFunction,ViaPad*%
%ADD29C,0.906400*%
%TD*%
%TA.AperFunction,Conductor*%
%ADD30C,0.812800*%
%TD*%
%TA.AperFunction,Conductor*%
%ADD31C,0.200000*%
%TD*%
%TA.AperFunction,Conductor*%
%ADD32C,0.400000*%
%TD*%
%TA.AperFunction,Conductor*%
%ADD33C,0.304800*%
%TD*%
%TA.AperFunction,Conductor*%
%ADD34C,0.250000*%
%TD*%
%TA.AperFunction,Conductor*%
%ADD35C,0.254000*%
%TD*%
%TA.AperFunction,Conductor*%
%ADD36C,0.600000*%
%TD*%
%TA.AperFunction,Conductor*%
%ADD37C,0.609600*%
%TD*%
G04 APERTURE END LIST*
D10*
%TO.P,J2,15,Pin_15*%
%TO.N,/D12{slash}MISO*%
X62980000Y-75390000D03*
%TO.P,J2,14,Pin_14*%
%TO.N,/D11{slash}MOSI*%
X65520000Y-75390000D03*
%TO.P,J2,13,Pin_13*%
%TO.N,/D10*%
X68060000Y-75390000D03*
%TO.P,J2,12,Pin_12*%
%TO.N,/D9*%
X70600000Y-75390000D03*
%TO.P,J2,11,Pin_11*%
%TO.N,/D8*%
X73140000Y-75390000D03*
%TO.P,J2,10,Pin_10*%
%TO.N,/D7*%
X75680000Y-75390000D03*
%TO.P,J2,9,Pin_9*%
%TO.N,/D6*%
X78220000Y-75390000D03*
%TO.P,J2,8,Pin_8*%
%TO.N,/D5*%
X80760000Y-75390000D03*
%TO.P,J2,7,Pin_7*%
%TO.N,/D4*%
X83300000Y-75390000D03*
%TO.P,J2,6,Pin_6*%
%TO.N,/D3*%
X85840000Y-75390000D03*
%TO.P,J2,5,Pin_5*%
%TO.N,/D2*%
X88380000Y-75390000D03*
%TO.P,J2,4,Pin_4*%
%TO.N,GND*%
X90920000Y-75390000D03*
%TO.P,J2,3,Pin_3*%
%TO.N,/RESET*%
X93460000Y-75390000D03*
%TO.P,J2,2,Pin_2*%
%TO.N,/D0{slash}RX*%
X96000000Y-75390000D03*
D11*
%TO.P,J2,1,Pin_1*%
%TO.N,/D1{slash}TX*%
X98540000Y-75390000D03*
%TD*%
%TO.P,J3,1,Pin_1*%
%TO.N,VIN*%
X98540000Y-90630000D03*
D10*
%TO.P,J3,2,Pin_2*%
%TO.N,GND*%
X96000000Y-90630000D03*
%TO.P,J3,3,Pin_3*%
%TO.N,/RESET*%
X93460000Y-90630000D03*
%TO.P,J3,4,Pin_4*%
%TO.N,+5V*%
X90920000Y-90630000D03*
%TO.P,J3,5,Pin_5*%
%TO.N,/A7*%
X88380000Y-90630000D03*
%TO.P,J3,6,Pin_6*%
%TO.N,/A6*%
X85840000Y-90630000D03*
%TO.P,J3,7,Pin_7*%
%TO.N,/A5*%
X83300000Y-90630000D03*
%TO.P,J3,8,Pin_8*%
%TO.N,/A4*%
X80760000Y-90630000D03*
%TO.P,J3,9,Pin_9*%
%TO.N,/A3*%
X78220000Y-90630000D03*
%TO.P,J3,10,Pin_10*%
%TO.N,/A2*%
X75680000Y-90630000D03*
%TO.P,J3,11,Pin_11*%
%TO.N,/A1*%
X73140000Y-90630000D03*
%TO.P,J3,12,Pin_12*%
%TO.N,/A0*%
X70600000Y-90630000D03*
%TO.P,J3,13,Pin_13*%
%TO.N,/AREF*%
X68060000Y-90630000D03*
%TO.P,J3,14,Pin_14*%
%TO.N,+3.3V*%
X65520000Y-90630000D03*
%TO.P,J3,15,Pin_15*%
%TO.N,/D13{slash}SCK*%
X62980000Y-90630000D03*
%TD*%
D12*
%TO.P,U1,3,VI*%
%TO.N,VIN*%
X95300000Y-87700000D03*
D13*
%TO.P,U1,2,VO*%
%TO.N,+5V*%
X89000000Y-85400000D03*
D12*
X95300000Y-85400000D03*
%TO.P,U1,1,GND*%
%TO.N,GND*%
X95300000Y-83100000D03*
%TD*%
D14*
%TO.P,C1,1*%
%TO.N,+5V*%
X86725000Y-86125000D03*
%TO.P,C1,2*%
%TO.N,GND*%
X86725000Y-84050000D03*
%TD*%
D15*
%TO.P,D2,2,A*%
%TO.N,VUSB*%
X87725000Y-77799000D03*
D16*
%TO.P,D2,1,K*%
%TO.N,+5V*%
X87725000Y-80150000D03*
%TD*%
D11*
%TO.P,J4,1,Pin_1*%
%TO.N,/D12{slash}MISO*%
X100575000Y-85590000D03*
D10*
%TO.P,J4,2,Pin_2*%
%TO.N,+5V*%
X98035000Y-85590000D03*
%TO.P,J4,3,Pin_3*%
%TO.N,/D13{slash}SCK*%
X100575000Y-83050000D03*
%TO.P,J4,4,Pin_4*%
%TO.N,/D11{slash}MOSI*%
X98035000Y-83050000D03*
%TO.P,J4,5,Pin_5*%
%TO.N,/RESET*%
X100575000Y-80510000D03*
%TO.P,J4,6,Pin_6*%
%TO.N,GND*%
X98035000Y-80510000D03*
%TD*%
D17*
%TO.P,J1,6,Shield*%
%TO.N,GND*%
X60790000Y-79585000D03*
X60790000Y-86185000D03*
%TD*%
D18*
%TO.P,C5,1*%
%TO.N,VUSB*%
X60800000Y-84275000D03*
%TO.P,C5,2*%
%TO.N,GND*%
X60800000Y-81395000D03*
%TD*%
D19*
%TO.P,C8,1*%
%TO.N,/AREF*%
X67162500Y-87850000D03*
%TO.P,C8,2*%
%TO.N,GND*%
X65087500Y-87850000D03*
%TD*%
D20*
%TO.P,C7,1*%
%TO.N,+5V*%
X78600000Y-85575000D03*
%TO.P,C7,2*%
%TO.N,GND*%
X80675000Y-85575000D03*
%TD*%
D21*
%TO.P,RN1,1,R1.1*%
%TO.N,/D0{slash}RX*%
X83820000Y-85225000D03*
%TO.P,RN1,2,R2.1*%
%TO.N,/D1{slash}TX*%
X83820000Y-86025000D03*
%TO.P,RN1,3,R3.1*%
%TO.N,Net-(D1-A)*%
X83820000Y-86825000D03*
%TO.P,RN1,4,R4.1*%
%TO.N,/RESET*%
X83820000Y-87625000D03*
%TO.P,RN1,5,R4.2*%
%TO.N,+5V*%
X82300000Y-87625000D03*
%TO.P,RN1,6,R3.2*%
X82300000Y-86825000D03*
%TO.P,RN1,7,R2.2*%
%TO.N,/TX*%
X82300000Y-86025000D03*
%TO.P,RN1,8,R1.2*%
%TO.N,/RX*%
X82300000Y-85225000D03*
%TD*%
D22*
%TO.P,F1,1*%
%TO.N,Net-(J1-VBUS)*%
X62715000Y-87685000D03*
%TO.P,F1,2*%
%TO.N,VUSB*%
X60965000Y-87685000D03*
%TD*%
D19*
%TO.P,C9,1*%
%TO.N,Net-(U3-~{RESET}{slash}PC6)*%
X76900000Y-85575000D03*
%TO.P,C9,2*%
%TO.N,/RESET*%
X74825000Y-85575000D03*
%TD*%
D21*
%TO.P,RN2,1,R1.1*%
%TO.N,/D13{slash}SCK*%
X82030000Y-81025000D03*
%TO.P,RN2,2,R2.1*%
%TO.N,Net-(RN2B-R2.1)*%
X82030000Y-80225000D03*
%TO.P,RN2,3,R3.1*%
%TO.N,GND*%
X82030000Y-79425000D03*
%TO.P,RN2,4,R4.1*%
%TO.N,Net-(RN2D-R4.1)*%
X82030000Y-78625000D03*
%TO.P,RN2,5,R4.2*%
%TO.N,Net-(D4-K)*%
X83550000Y-78625000D03*
%TO.P,RN2,6,R3.2*%
%TO.N,GND*%
X83550000Y-79425000D03*
%TO.P,RN2,7,R2.2*%
%TO.N,Net-(D3-K)*%
X83550000Y-80225000D03*
%TO.P,RN2,8,R1.2*%
%TO.N,Net-(D5-A)*%
X83550000Y-81025000D03*
%TD*%
D14*
%TO.P,C2,1*%
%TO.N,+3.3V*%
X63650000Y-85475000D03*
%TO.P,C2,2*%
%TO.N,GND*%
X63650000Y-83400000D03*
%TD*%
D23*
%TO.P,TP1,1,1*%
%TO.N,Net-(J1-D+)*%
X60225000Y-77225000D03*
%TD*%
D14*
%TO.P,C4,1*%
%TO.N,+5V*%
X85225000Y-81525000D03*
%TO.P,C4,2*%
%TO.N,GND*%
X85225000Y-79450000D03*
%TD*%
D20*
%TO.P,C6,1*%
%TO.N,VUSB*%
X90225000Y-78275000D03*
%TO.P,C6,2*%
%TO.N,GND*%
X92300000Y-78275000D03*
%TD*%
D24*
%TO.P,U2,1,~{DTR}*%
%TO.N,unconnected-(U2-~{DTR}-Pad1)*%
X72190000Y-85700000D03*
%TO.P,U2,2,~{RTS}*%
%TO.N,unconnected-(U2-~{RTS}-Pad2)*%
X71555000Y-85700000D03*
%TO.P,U2,3,VCCIO*%
%TO.N,+5V*%
X70920000Y-85700000D03*
%TO.P,U2,4,RXD*%
%TO.N,/RX*%
X70285000Y-85700000D03*
%TO.P,U2,5,~{RI}*%
%TO.N,unconnected-(U2-~{RI}-Pad5)*%
X69650000Y-85700000D03*
%TO.P,U2,6,GND*%
%TO.N,GND*%
X69015000Y-85700000D03*
%TO.P,U2,7,~{DSR}*%
%TO.N,unconnected-(U2-~{DSR}-Pad7)*%
X68380000Y-85700000D03*
%TO.P,U2,8,~{DCD}*%
%TO.N,unconnected-(U2-~{DCD}-Pad8)*%
X67745000Y-85700000D03*
%TO.P,U2,9,~{CTS}*%
%TO.N,unconnected-(U2-~{CTS}-Pad9)*%
X67110000Y-85700000D03*
%TO.P,U2,10,CBUS2*%
%TO.N,unconnected-(U2-CBUS2-Pad10)*%
X66475000Y-85700000D03*
%TO.P,U2,11,USBDP*%
%TO.N,Net-(J1-D-)*%
X66475000Y-80500000D03*
%TO.P,U2,12,USBDM*%
%TO.N,Net-(J1-D+)*%
X67110000Y-80500000D03*
%TO.P,U2,13,3V3OUT*%
%TO.N,+3.3V*%
X67745000Y-80500000D03*
%TO.P,U2,14,~{RESET}*%
%TO.N,unconnected-(U2-~{RESET}-Pad14)*%
X68380000Y-80500000D03*
%TO.P,U2,15,VCC*%
%TO.N,+5V*%
X69015000Y-80500000D03*
%TO.P,U2,16,GND*%
%TO.N,GND*%
X69650000Y-80500000D03*
%TO.P,U2,17,CBUS1*%
%TO.N,Net-(RN2D-R4.1)*%
X70285000Y-80500000D03*
%TO.P,U2,18,CBUS0*%
%TO.N,Net-(RN2B-R2.1)*%
X70920000Y-80500000D03*
%TO.P,U2,19,CBUS3*%
%TO.N,unconnected-(U2-CBUS3-Pad19)*%
X71555000Y-80500000D03*
%TO.P,U2,20,TXD*%
%TO.N,/TX*%
X72190000Y-80500000D03*
%TD*%
D25*
%TO.P,C3,1*%
%TO.N,+5V*%
X91025000Y-80650000D03*
%TO.P,C3,2*%
%TO.N,GND*%
X93905000Y-80650000D03*
%TD*%
D26*
%TO.N,*%
X61862400Y-89182200D03*
D27*
%TO.N,/RESET*%
X92315707Y-83747377D03*
D28*
X97788084Y-78275000D03*
X78493651Y-86800000D03*
X83180002Y-87550000D03*
%TO.N,+5V*%
X89500000Y-82000000D03*
X85450000Y-87800000D03*
X79375000Y-86225000D03*
X77029778Y-80698703D03*
X80949265Y-87799265D03*
D29*
X70972500Y-84497500D03*
D28*
%TO.N,VUSB*%
X62133600Y-77900000D03*
X62040210Y-80285000D03*
%TO.N,/A7*%
X71906644Y-88823000D03*
%TO.N,/D1{slash}TX*%
X83675000Y-83050000D03*
%TO.N,/D0{slash}RX*%
X97086765Y-77486765D03*
X83625985Y-83861312D03*
%TO.N,/A6*%
X68572001Y-88350000D03*
%TO.N,/D13{slash}SCK*%
X70600000Y-83000000D03*
X94797885Y-78052115D03*
X78100735Y-83124265D03*
X82528215Y-82446785D03*
X81630180Y-81025000D03*
%TO.N,GND*%
X93400000Y-85125000D03*
X79150000Y-79950000D03*
X100250000Y-77725000D03*
X67250000Y-78950000D03*
X91400000Y-85225000D03*
X79800000Y-82900000D03*
X67975000Y-83825000D03*
X71573000Y-86826577D03*
X101000000Y-87850000D03*
X83300000Y-81846785D03*
X63240000Y-79685000D03*
X74664000Y-82825000D03*
X88299999Y-87979566D03*
X65150000Y-83775000D03*
X69800000Y-81750000D03*
X91150000Y-88000000D03*
X70325000Y-88375000D03*
X78038235Y-80561765D03*
X96775000Y-79700000D03*
X93300000Y-87850000D03*
%TO.N,Net-(D1-A)*%
X83820000Y-86825000D03*
%TO.N,Net-(D3-K)*%
X84424998Y-80474998D03*
%TO.N,Net-(D4-K)*%
X84745000Y-78225000D03*
%TO.N,Net-(J1-VBUS)*%
X64016182Y-81028685D03*
%TO.N,Net-(J1-D+)*%
X65890000Y-82110000D03*
%TO.N,Net-(U3-~{RESET}{slash}PC6)*%
X77712638Y-86566960D03*
%TO.N,Net-(J1-D-)*%
X65858080Y-80516920D03*
%TO.N,Net-(D5-A)*%
X84901000Y-86225000D03*
%TD*%
D30*
%TO.N,+5V*%
X90850000Y-80650000D02*
X91025000Y-80650000D01*
X89500000Y-82000000D02*
X90850000Y-80650000D01*
D31*
%TO.N,Net-(D5-A)*%
X84075000Y-82025000D02*
X84075000Y-81550000D01*
X84275000Y-82225000D02*
X84075000Y-82025000D01*
X84075000Y-81550000D02*
X83550000Y-81025000D01*
X84275000Y-82800057D02*
X84275000Y-82225000D01*
X84276000Y-82801057D02*
X84275000Y-82800057D01*
X84276000Y-83083900D02*
X84276000Y-82801057D01*
X84901000Y-83708900D02*
X84276000Y-83083900D01*
X84901000Y-86225000D02*
X84901000Y-83708900D01*
D32*
%TO.N,+5V*%
X86350000Y-81525000D02*
X85225000Y-81525000D01*
X87725000Y-80150000D02*
X86350000Y-81525000D01*
D31*
%TO.N,Net-(D4-K)*%
X84745000Y-78225000D02*
X84250000Y-78225000D01*
X83850000Y-78625000D02*
X83550000Y-78625000D01*
X84250000Y-78225000D02*
X83850000Y-78625000D01*
%TO.N,Net-(D3-K)*%
X84175000Y-80225000D02*
X83550000Y-80225000D01*
X84424998Y-80474998D02*
X84175000Y-80225000D01*
D33*
%TO.N,/AREF*%
X67094000Y-89664000D02*
X68060000Y-90630000D01*
X67094000Y-87918500D02*
X67094000Y-89664000D01*
X67162500Y-87850000D02*
X67094000Y-87918500D01*
X67162500Y-88212500D02*
X67162500Y-87850000D01*
X67100000Y-88275000D02*
X67162500Y-88212500D01*
D31*
%TO.N,/RESET*%
X97788084Y-78275000D02*
X96345000Y-78275000D01*
X76425000Y-87175000D02*
X74825000Y-85575000D01*
X78493651Y-86800000D02*
X78350000Y-86800000D01*
X83180002Y-87550000D02*
X83745000Y-87550000D01*
X98340000Y-78275000D02*
X100575000Y-80510000D01*
D34*
X92315000Y-83748084D02*
X92315000Y-89485000D01*
D31*
X96345000Y-78275000D02*
X93460000Y-75390000D01*
D34*
X92315000Y-89485000D02*
X93460000Y-90630000D01*
X92315707Y-83747377D02*
X92315000Y-83748084D01*
D31*
X97788084Y-78275000D02*
X98340000Y-78275000D01*
X78350000Y-86800000D02*
X77975000Y-87175000D01*
D34*
X92315707Y-83747377D02*
X92315000Y-83746670D01*
D31*
X77975000Y-87175000D02*
X76425000Y-87175000D01*
X83745000Y-87550000D02*
X83820000Y-87625000D01*
%TO.N,/RX*%
X79825000Y-88075000D02*
X73000000Y-88075000D01*
X72650000Y-87725000D02*
X71250000Y-87725000D01*
X81619000Y-86281000D02*
X79825000Y-88075000D01*
X81619000Y-85481000D02*
X81619000Y-86281000D01*
X81875000Y-85225000D02*
X81619000Y-85481000D01*
X73000000Y-88075000D02*
X72650000Y-87725000D01*
X70285000Y-86760000D02*
X70285000Y-85700000D01*
X82300000Y-85225000D02*
X81875000Y-85225000D01*
X71250000Y-87725000D02*
X70285000Y-86760000D01*
D35*
%TO.N,+5V*%
X70972500Y-84497500D02*
X69015000Y-82540000D01*
D36*
X80949265Y-87799265D02*
X82125735Y-87799265D01*
D30*
X89500000Y-89210000D02*
X90920000Y-90630000D01*
D35*
X78875000Y-85300000D02*
X78600000Y-85575000D01*
D30*
X89625000Y-86325000D02*
X89625000Y-85725000D01*
X88213400Y-80749400D02*
X87745000Y-80281000D01*
D37*
X78725000Y-85375000D02*
X77425000Y-84075000D01*
D36*
X82125735Y-87799265D02*
X82300000Y-87625000D01*
D35*
X69015000Y-82540000D02*
X69015000Y-80500000D01*
D37*
X79375000Y-86225000D02*
X78725000Y-85575000D01*
D30*
X89500000Y-85600000D02*
X89500000Y-82034500D01*
X89625000Y-85725000D02*
X89500000Y-85600000D01*
D37*
X71395000Y-84075000D02*
X70972500Y-84497500D01*
D32*
X70920000Y-85700000D02*
X70920000Y-84550000D01*
D37*
X77425000Y-84075000D02*
X71395000Y-84075000D01*
D32*
X70920000Y-84550000D02*
X70972500Y-84497500D01*
D37*
X78725000Y-85575000D02*
X78725000Y-85375000D01*
D30*
X89500000Y-86550000D02*
X89500000Y-89210000D01*
D32*
X82300000Y-87625000D02*
X82300000Y-86825000D01*
D35*
X78875000Y-82543925D02*
X78875000Y-85300000D01*
X77029778Y-80698703D02*
X78875000Y-82543925D01*
D30*
X89500000Y-82034500D02*
X89500000Y-82000000D01*
X89625000Y-86425000D02*
X89500000Y-86550000D01*
X89500000Y-82034500D02*
X87745000Y-80279500D01*
X89625000Y-86325000D02*
X89625000Y-86425000D01*
D32*
X86725000Y-81150000D02*
X87725000Y-80150000D01*
%TO.N,VUSB*%
X60800000Y-83725000D02*
X60800000Y-84275000D01*
X61040000Y-87685000D02*
X62000000Y-86725000D01*
X87396000Y-77470000D02*
X87725000Y-77799000D01*
X62000000Y-86725000D02*
X62000000Y-85492000D01*
X62000000Y-85492000D02*
X60800000Y-84292000D01*
X62133600Y-77891400D02*
X62555000Y-77470000D01*
X60800000Y-84292000D02*
X60800000Y-84275000D01*
X62024000Y-82501000D02*
X60800000Y-83725000D01*
X62024000Y-80301210D02*
X62024000Y-82501000D01*
D37*
X90225000Y-78275000D02*
X89881000Y-77931000D01*
X89881000Y-77931000D02*
X88083500Y-77931000D01*
D32*
X62555000Y-77470000D02*
X87396000Y-77470000D01*
X62040210Y-80285000D02*
X62024000Y-80301210D01*
D31*
%TO.N,/TX*%
X81029180Y-80329180D02*
X79977000Y-79277000D01*
X81029180Y-81796280D02*
X81029180Y-80329180D01*
X82770254Y-84470254D02*
X82770254Y-83537354D01*
X82825000Y-86025000D02*
X83100000Y-85750000D01*
X79977000Y-79277000D02*
X73413000Y-79277000D01*
X83100000Y-85750000D02*
X83100000Y-84800000D01*
X82770254Y-83537354D02*
X81029180Y-81796280D01*
X83100000Y-84800000D02*
X82770254Y-84470254D01*
X82300000Y-86025000D02*
X82825000Y-86025000D01*
X73413000Y-79277000D02*
X72190000Y-80500000D01*
D35*
%TO.N,/A7*%
X71906644Y-88823000D02*
X71906644Y-88830644D01*
X84038468Y-88995000D02*
X84468468Y-89425000D01*
X84468468Y-89425000D02*
X86375000Y-89425000D01*
X72071000Y-88995000D02*
X84038468Y-88995000D01*
X87580000Y-90630000D02*
X88380000Y-90630000D01*
X71906644Y-88830644D02*
X72071000Y-88995000D01*
X86375000Y-89425000D02*
X87580000Y-90630000D01*
D31*
%TO.N,/D1{slash}TX*%
X83675000Y-83050000D02*
X84500000Y-83875000D01*
X84050000Y-86025000D02*
X83820000Y-86025000D01*
X84500000Y-83875000D02*
X84500000Y-85575000D01*
X84500000Y-85575000D02*
X84050000Y-86025000D01*
%TO.N,/D0{slash}RX*%
X83625985Y-83970985D02*
X83820000Y-84165000D01*
X83820000Y-84165000D02*
X83820000Y-85225000D01*
X97245856Y-77327674D02*
X97245856Y-77016856D01*
X96000000Y-75771000D02*
X96000000Y-75390000D01*
X83625985Y-83861312D02*
X83625985Y-83970985D01*
X97086765Y-77486765D02*
X97245856Y-77327674D01*
X97245856Y-77016856D02*
X96000000Y-75771000D01*
D35*
%TO.N,/A6*%
X84649000Y-90249000D02*
X85459000Y-90249000D01*
X83850000Y-89450000D02*
X84649000Y-90249000D01*
X85459000Y-90249000D02*
X85840000Y-90630000D01*
X69025000Y-89450000D02*
X83850000Y-89450000D01*
X68572001Y-88297001D02*
X68572001Y-88350000D01*
X68572001Y-88997001D02*
X69025000Y-89450000D01*
X68572001Y-88350000D02*
X68572001Y-88997001D01*
D31*
%TO.N,/D11{slash}MOSI*%
X98035000Y-82960000D02*
X98035000Y-83050000D01*
X94196885Y-77371885D02*
X94196885Y-78322013D01*
X96857000Y-80982128D02*
X96857000Y-81782000D01*
X66671000Y-76541000D02*
X93366000Y-76541000D01*
X94196885Y-78322013D02*
X96857000Y-80982128D01*
X65520000Y-75390000D02*
X66671000Y-76541000D01*
X93366000Y-76541000D02*
X94196885Y-77371885D01*
X96857000Y-81782000D02*
X98035000Y-82960000D01*
%TO.N,/D13{slash}SCK*%
X95670770Y-78925000D02*
X98422900Y-78925000D01*
X82528215Y-82446785D02*
X82281430Y-82200000D01*
X81630180Y-81025000D02*
X82030000Y-81025000D01*
X94797885Y-78052115D02*
X95670770Y-78925000D01*
X81630180Y-81830180D02*
X81630180Y-81025000D01*
X78100735Y-83124265D02*
X77800000Y-83425000D01*
X99424000Y-79926100D02*
X99424000Y-81899000D01*
X71025000Y-83425000D02*
X70600000Y-83000000D01*
X77800000Y-83425000D02*
X71025000Y-83425000D01*
X82000000Y-82200000D02*
X81630180Y-81830180D01*
X99424000Y-81899000D02*
X100575000Y-83050000D01*
X98422900Y-78925000D02*
X99424000Y-79926100D01*
X82281430Y-82200000D02*
X82000000Y-82200000D01*
%TO.N,/D12{slash}MISO*%
X93768885Y-78461113D02*
X96456000Y-81148228D01*
X66262900Y-76700000D02*
X66504900Y-76942000D01*
X64290000Y-76700000D02*
X66262900Y-76700000D01*
X96825000Y-82317100D02*
X96825000Y-83625000D01*
X62980000Y-75390000D02*
X64290000Y-76700000D01*
X93161716Y-76942000D02*
X93768885Y-77549169D01*
X99260000Y-84275000D02*
X100575000Y-85590000D01*
X66504900Y-76942000D02*
X93161716Y-76942000D01*
X96456000Y-81948100D02*
X96825000Y-82317100D01*
X93768885Y-77549169D02*
X93768885Y-78461113D01*
X96825000Y-83625000D02*
X97475000Y-84275000D01*
X97475000Y-84275000D02*
X99260000Y-84275000D01*
X96456000Y-81148228D02*
X96456000Y-81948100D01*
D32*
%TO.N,GND*%
X63140000Y-79585000D02*
X63240000Y-79685000D01*
X60790000Y-79585000D02*
X63140000Y-79585000D01*
X60800000Y-79595000D02*
X60790000Y-79585000D01*
X60800000Y-81395000D02*
X60800000Y-79595000D01*
D31*
X78650000Y-79950000D02*
X78038235Y-80561765D01*
X79150000Y-79950000D02*
X78650000Y-79950000D01*
D33*
%TO.N,+3.3V*%
X63925000Y-86406250D02*
X63925000Y-86400000D01*
X65520000Y-90615000D02*
X65520000Y-90630000D01*
X63925000Y-86406250D02*
X63925000Y-89020000D01*
X63650000Y-86125000D02*
X63650000Y-85475000D01*
X63925000Y-89020000D02*
X65520000Y-90615000D01*
X67745000Y-82586250D02*
X63925000Y-86406250D01*
X67745000Y-80500000D02*
X67745000Y-82586250D01*
X63925000Y-86400000D02*
X63650000Y-86125000D01*
D34*
%TO.N,Net-(J1-VBUS)*%
X64016182Y-81028685D02*
X62550000Y-82494867D01*
X62550000Y-87520000D02*
X62715000Y-87685000D01*
X62550000Y-82494867D02*
X62550000Y-87520000D01*
%TO.N,Net-(J1-D+)*%
X65890000Y-82110000D02*
X66317000Y-82110000D01*
D31*
X61800000Y-78800000D02*
X63204943Y-78800000D01*
D34*
X67110000Y-81317000D02*
X67110000Y-80500000D01*
D31*
X63204943Y-78800000D02*
X65161599Y-80756656D01*
X65161599Y-80756656D02*
X65161599Y-81400877D01*
D34*
X66317000Y-82110000D02*
X67110000Y-81317000D01*
D31*
X65161599Y-81400877D02*
X65870722Y-82110000D01*
X60225000Y-77225000D02*
X61800000Y-78800000D01*
D34*
X65894700Y-82110000D02*
X65890000Y-82110000D01*
D31*
X65870722Y-82110000D02*
X65894700Y-82110000D01*
%TO.N,Net-(RN2D-R4.1)*%
X70285000Y-80500000D02*
X70285000Y-79700000D01*
X81880000Y-78475000D02*
X82030000Y-78625000D01*
X71510000Y-78475000D02*
X81880000Y-78475000D01*
X70285000Y-79700000D02*
X71510000Y-78475000D01*
%TO.N,Net-(RN2B-R2.1)*%
X71744000Y-78876000D02*
X80220000Y-78876000D01*
X81569000Y-80225000D02*
X82030000Y-80225000D01*
X70920000Y-80500000D02*
X70920000Y-79700000D01*
X80220000Y-78876000D02*
X81569000Y-80225000D01*
X70920000Y-79700000D02*
X71744000Y-78876000D01*
D34*
%TO.N,Net-(U3-~{RESET}{slash}PC6)*%
X77712638Y-86566960D02*
X77712638Y-86321652D01*
X77686500Y-86295514D02*
X77686500Y-86286500D01*
X77686500Y-86286500D02*
X76975000Y-85575000D01*
X77712638Y-86321652D02*
X77686500Y-86295514D01*
D31*
%TO.N,Net-(J1-D-)*%
X65858080Y-80516920D02*
X66458080Y-80516920D01*
X66458080Y-80516920D02*
X66475000Y-80500000D01*
D36*
%TO.N,VIN*%
X98540000Y-89340000D02*
X98540000Y-90630000D01*
X97100000Y-87900000D02*
X98540000Y-89340000D01*
X95325000Y-87900000D02*
X97100000Y-87900000D01*
D37*
%TO.N,+5V*%
X95335000Y-85590000D02*
X95325000Y-85600000D01*
X98035000Y-85590000D02*
X95335000Y-85590000D01*
D32*
X88350000Y-86275000D02*
X89025000Y-85600000D01*
X86775000Y-86325000D02*
X86725000Y-86275000D01*
D36*
X86725000Y-86850000D02*
X86725000Y-86275000D01*
X85450000Y-87800000D02*
X85775000Y-87800000D01*
X85775000Y-87800000D02*
X86725000Y-86850000D01*
D32*
X86725000Y-86275000D02*
X88350000Y-86275000D01*
%TD*%
%TA.AperFunction,Conductor*%
%TO.N,GND*%
G36*
X68606855Y-81347086D02*
G01*
X68648661Y-81395333D01*
X68658900Y-81442400D01*
X68658900Y-82586881D01*
X68683167Y-82677450D01*
X68730048Y-82758649D01*
X68730050Y-82758652D01*
X70265875Y-84294477D01*
X70296471Y-84350508D01*
X70296884Y-84396693D01*
X70290200Y-84430298D01*
X70290200Y-84564702D01*
X70316421Y-84696520D01*
X70323762Y-84714242D01*
X70330586Y-84777717D01*
X70302010Y-84834805D01*
X70247106Y-84867381D01*
X70219086Y-84870900D01*
X70062431Y-84870900D01*
X69989603Y-84885387D01*
X69945397Y-84885387D01*
X69872568Y-84870900D01*
X69872562Y-84870900D01*
X69427438Y-84870900D01*
X69427435Y-84870900D01*
X69427429Y-84870901D01*
X69397851Y-84876784D01*
X69334264Y-84871093D01*
X69315834Y-84861453D01*
X69314106Y-84860737D01*
X69240020Y-84846000D01*
X69205500Y-84846000D01*
X69205500Y-86553999D01*
X69240017Y-86553999D01*
X69314106Y-86539262D01*
X69324418Y-86534992D01*
X69324969Y-86536324D01*
X69373714Y-86521056D01*
X69397850Y-86523214D01*
X69427438Y-86529100D01*
X69427441Y-86529100D01*
X69842600Y-86529100D01*
X69903855Y-86547086D01*
X69945661Y-86595333D01*
X69955900Y-86642400D01*
X69955900Y-86803327D01*
X69978327Y-86887029D01*
X69990608Y-86908300D01*
X70021654Y-86962072D01*
X71047928Y-87988346D01*
X71122972Y-88031673D01*
X71206673Y-88054100D01*
X71293327Y-88054100D01*
X72466752Y-88054100D01*
X72528007Y-88072086D01*
X72546867Y-88087285D01*
X72797928Y-88338346D01*
X72854178Y-88370822D01*
X72869483Y-88379659D01*
X72872972Y-88381673D01*
X72956673Y-88404100D01*
X79868327Y-88404100D01*
X79952028Y-88381673D01*
X80027072Y-88338346D01*
X80317301Y-88048115D01*
X80373330Y-88017521D01*
X80437008Y-88022075D01*
X80488115Y-88060334D01*
X80495533Y-88071579D01*
X80525879Y-88124140D01*
X80624390Y-88222651D01*
X80675683Y-88252265D01*
X80745036Y-88292306D01*
X80745037Y-88292306D01*
X80745040Y-88292308D01*
X80879608Y-88328365D01*
X82195392Y-88328365D01*
X82195393Y-88328365D01*
X82329960Y-88292308D01*
X82350684Y-88280343D01*
X82450610Y-88222651D01*
X82549121Y-88124140D01*
X82549121Y-88124138D01*
X82558445Y-88114815D01*
X82558448Y-88114810D01*
X82570977Y-88102281D01*
X82627010Y-88071688D01*
X82651089Y-88069100D01*
X82702559Y-88069100D01*
X82702562Y-88069100D01*
X82769390Y-88055807D01*
X82816727Y-88024178D01*
X82877651Y-88005102D01*
X82936322Y-88020263D01*
X82975777Y-88043043D01*
X83110345Y-88079100D01*
X83249657Y-88079100D01*
X83249659Y-88079100D01*
X83317047Y-88061042D01*
X83368467Y-88059359D01*
X83417438Y-88069100D01*
X83417441Y-88069100D01*
X84222559Y-88069100D01*
X84222562Y-88069100D01*
X84289390Y-88055807D01*
X84365172Y-88005172D01*
X84415807Y-87929390D01*
X84429100Y-87862562D01*
X84429100Y-87387438D01*
X84415807Y-87320610D01*
X84393980Y-87287944D01*
X84374905Y-87227022D01*
X84391795Y-87165456D01*
X84393981Y-87162055D01*
X84396343Y-87158520D01*
X84415807Y-87129390D01*
X84429100Y-87062562D01*
X84429100Y-86759742D01*
X84447086Y-86698487D01*
X84495333Y-86656681D01*
X84558524Y-86647595D01*
X84599050Y-86661622D01*
X84672625Y-86704100D01*
X84696775Y-86718043D01*
X84831343Y-86754100D01*
X84970656Y-86754100D01*
X84970657Y-86754100D01*
X85105225Y-86718043D01*
X85225875Y-86648386D01*
X85324386Y-86549875D01*
X85394043Y-86429225D01*
X85430100Y-86294657D01*
X85430100Y-86155343D01*
X85427243Y-86144682D01*
X85414153Y-86095826D01*
X85394043Y-86020775D01*
X85393967Y-86020644D01*
X85337711Y-85923205D01*
X85324386Y-85900125D01*
X85263285Y-85839024D01*
X85232689Y-85782993D01*
X85230100Y-85758909D01*
X85230100Y-84435709D01*
X85746001Y-84435709D01*
X85752451Y-84495726D01*
X85752453Y-84495735D01*
X85803101Y-84631525D01*
X85803104Y-84631530D01*
X85889952Y-84747546D01*
X85889953Y-84747547D01*
X86005969Y-84834395D01*
X86005975Y-84834398D01*
X86141763Y-84885046D01*
X86201792Y-84891499D01*
X86534499Y-84891499D01*
X86534500Y-84891498D01*
X86534500Y-84240500D01*
X85746001Y-84240500D01*
X85746001Y-84435709D01*
X85230100Y-84435709D01*
X85230100Y-83680158D01*
X85230100Y-83665573D01*
X85229757Y-83664292D01*
X85746000Y-83664292D01*
X85746000Y-83859500D01*
X86534500Y-83859500D01*
X86534500Y-83208500D01*
X86201790Y-83208500D01*
X86141773Y-83214951D01*
X86141764Y-83214953D01*
X86005974Y-83265601D01*
X86005969Y-83265604D01*
X85889953Y-83352452D01*
X85889952Y-83352453D01*
X85803104Y-83468469D01*
X85803101Y-83468475D01*
X85752453Y-83604263D01*
X85746000Y-83664292D01*
X85229757Y-83664292D01*
X85227827Y-83657087D01*
X85207673Y-83581871D01*
X85185255Y-83543043D01*
X85164346Y-83506828D01*
X85103072Y-83445554D01*
X85099120Y-83441602D01*
X85099109Y-83441592D01*
X84638285Y-82980767D01*
X84625011Y-82956458D01*
X84609894Y-82933260D01*
X84608991Y-82927121D01*
X84607689Y-82924736D01*
X84605102Y-82901369D01*
X84605100Y-82901053D01*
X84605100Y-82757730D01*
X84604170Y-82754260D01*
X84604102Y-82743426D01*
X84604138Y-82743298D01*
X84604100Y-82742709D01*
X84604100Y-82454900D01*
X84622086Y-82393645D01*
X84670333Y-82351839D01*
X84717400Y-82341600D01*
X85745823Y-82341600D01*
X85745826Y-82341600D01*
X85802887Y-82335465D01*
X85931969Y-82287320D01*
X85931969Y-82287319D01*
X85931971Y-82287319D01*
X86008476Y-82230048D01*
X86042259Y-82204759D01*
X86111304Y-82112525D01*
X86124819Y-82094471D01*
X86124822Y-82094465D01*
X86149685Y-82027806D01*
X86161809Y-82011609D01*
X86170215Y-81993204D01*
X86180568Y-81986550D01*
X86187943Y-81976699D01*
X86206897Y-81969629D01*
X86223921Y-81958689D01*
X86243949Y-81955809D01*
X86247758Y-81954389D01*
X86255841Y-81954100D01*
X86286552Y-81954100D01*
X86286568Y-81954101D01*
X86293508Y-81954101D01*
X86406491Y-81954101D01*
X86406492Y-81954101D01*
X86495156Y-81930343D01*
X86515627Y-81924858D01*
X86613474Y-81868366D01*
X86693366Y-81788474D01*
X86693366Y-81788472D01*
X86702689Y-81779150D01*
X86702693Y-81779144D01*
X86734555Y-81747283D01*
X86790587Y-81716688D01*
X86814669Y-81714099D01*
X88233936Y-81714099D01*
X88295191Y-81732085D01*
X88314051Y-81747284D01*
X88831315Y-82264548D01*
X88861911Y-82320579D01*
X88864500Y-82344663D01*
X88864500Y-83157600D01*
X88846514Y-83218855D01*
X88798267Y-83260661D01*
X88751200Y-83270900D01*
X88451422Y-83270900D01*
X88451403Y-83270901D01*
X88351567Y-83281100D01*
X88351556Y-83281103D01*
X88189776Y-83334710D01*
X88124659Y-83374875D01*
X88050991Y-83420314D01*
X88044705Y-83424191D01*
X87924191Y-83544705D01*
X87924189Y-83544708D01*
X87890733Y-83598948D01*
X87843267Y-83641640D01*
X87780255Y-83651893D01*
X87721703Y-83626451D01*
X87688146Y-83579062D01*
X87646898Y-83468474D01*
X87646895Y-83468469D01*
X87560047Y-83352453D01*
X87560046Y-83352452D01*
X87444030Y-83265604D01*
X87444024Y-83265601D01*
X87308236Y-83214953D01*
X87248208Y-83208500D01*
X86915500Y-83208500D01*
X86915500Y-84891499D01*
X87248210Y-84891499D01*
X87308226Y-84885048D01*
X87308235Y-84885046D01*
X87444025Y-84834398D01*
X87444030Y-84834395D01*
X87560045Y-84747548D01*
X87566897Y-84738395D01*
X87618003Y-84700136D01*
X87681680Y-84695580D01*
X87737713Y-84726173D01*
X87768310Y-84782204D01*
X87770900Y-84806291D01*
X87770900Y-85410259D01*
X87752914Y-85471514D01*
X87704667Y-85513320D01*
X87641476Y-85522406D01*
X87583404Y-85495885D01*
X87566900Y-85478158D01*
X87542259Y-85445241D01*
X87542258Y-85445240D01*
X87431971Y-85362680D01*
X87343809Y-85329798D01*
X87302887Y-85314535D01*
X87245826Y-85308400D01*
X86204174Y-85308400D01*
X86147113Y-85314535D01*
X86018028Y-85362680D01*
X85907741Y-85445240D01*
X85907740Y-85445241D01*
X85825180Y-85555528D01*
X85785316Y-85662411D01*
X85777035Y-85684613D01*
X85770900Y-85741674D01*
X85770900Y-86508326D01*
X85777035Y-86565387D01*
X85788204Y-86595333D01*
X85825179Y-86694468D01*
X85897814Y-86791498D01*
X85920123Y-86851314D01*
X85906553Y-86913696D01*
X85887227Y-86939511D01*
X85589025Y-87237715D01*
X85532994Y-87268311D01*
X85508910Y-87270900D01*
X85380343Y-87270900D01*
X85245777Y-87306956D01*
X85245771Y-87306958D01*
X85125124Y-87376614D01*
X85026614Y-87475124D01*
X84956958Y-87595771D01*
X84956956Y-87595777D01*
X84920900Y-87730342D01*
X84920900Y-87869657D01*
X84956956Y-88004222D01*
X84956958Y-88004228D01*
X85020806Y-88114815D01*
X85026614Y-88124875D01*
X85125125Y-88223386D01*
X85175145Y-88252265D01*
X85245771Y-88293041D01*
X85245772Y-88293041D01*
X85245775Y-88293043D01*
X85380343Y-88329100D01*
X85844657Y-88329100D01*
X85844658Y-88329100D01*
X85979225Y-88293043D01*
X86001222Y-88280343D01*
X86099875Y-88223386D01*
X86198386Y-88124875D01*
X86198386Y-88124873D01*
X86207709Y-88115551D01*
X86207713Y-88115546D01*
X87040546Y-87282713D01*
X87040551Y-87282709D01*
X87049873Y-87273386D01*
X87049875Y-87273386D01*
X87148386Y-87174875D01*
X87218043Y-87054225D01*
X87228860Y-87013854D01*
X87262085Y-86959345D01*
X87298705Y-86937024D01*
X87302884Y-86935465D01*
X87302887Y-86935465D01*
X87431969Y-86887320D01*
X87431971Y-86887319D01*
X87480379Y-86851081D01*
X87542259Y-86804759D01*
X87566898Y-86771843D01*
X87618004Y-86733585D01*
X87681682Y-86729029D01*
X87737714Y-86759623D01*
X87768311Y-86815654D01*
X87770901Y-86839740D01*
X87770901Y-86848596D01*
X87781100Y-86948432D01*
X87781103Y-86948443D01*
X87834710Y-87110223D01*
X87834712Y-87110227D01*
X87834713Y-87110228D01*
X87924189Y-87255292D01*
X88044708Y-87375811D01*
X88189772Y-87465287D01*
X88189773Y-87465287D01*
X88189776Y-87465289D01*
X88298265Y-87501238D01*
X88351560Y-87518898D01*
X88351561Y-87518898D01*
X88351562Y-87518899D01*
X88398479Y-87523691D01*
X88451421Y-87529100D01*
X88751200Y-87529099D01*
X88812454Y-87547085D01*
X88854261Y-87595332D01*
X88864500Y-87642399D01*
X88864500Y-89272594D01*
X88888922Y-89395371D01*
X88888924Y-89395377D01*
X88921878Y-89474934D01*
X88928703Y-89538409D01*
X88900127Y-89595496D01*
X88845223Y-89628073D01*
X88782192Y-89626047D01*
X88688165Y-89595496D01*
X88632690Y-89577471D01*
X88632687Y-89577470D01*
X88632679Y-89577468D01*
X88479341Y-89553183D01*
X88464927Y-89550900D01*
X88295073Y-89550900D01*
X88280671Y-89553181D01*
X88127320Y-89577468D01*
X88127314Y-89577470D01*
X88127311Y-89577470D01*
X88127310Y-89577471D01*
X88071835Y-89595496D01*
X87965765Y-89629960D01*
X87965764Y-89629961D01*
X87814431Y-89707069D01*
X87677014Y-89806907D01*
X87677006Y-89806914D01*
X87556904Y-89927016D01*
X87555293Y-89928903D01*
X87554501Y-89929419D01*
X87553760Y-89930161D01*
X87553604Y-89930005D01*
X87501832Y-89963796D01*
X87437993Y-89964247D01*
X87389030Y-89935429D01*
X87037115Y-89583514D01*
X86593651Y-89140049D01*
X86512450Y-89093167D01*
X86421881Y-89068900D01*
X84662900Y-89068900D01*
X84601645Y-89050914D01*
X84582785Y-89035715D01*
X84257120Y-88710050D01*
X84257119Y-88710049D01*
X84175918Y-88663167D01*
X84085349Y-88638900D01*
X72476720Y-88638900D01*
X72415465Y-88620914D01*
X72378599Y-88582250D01*
X72330030Y-88498125D01*
X72231519Y-88399614D01*
X72213308Y-88389100D01*
X72110872Y-88329958D01*
X72110866Y-88329956D01*
X71976301Y-88293900D01*
X71836987Y-88293900D01*
X71702421Y-88329956D01*
X71702415Y-88329958D01*
X71581768Y-88399614D01*
X71483258Y-88498124D01*
X71413602Y-88618771D01*
X71413600Y-88618777D01*
X71378488Y-88749819D01*
X71377544Y-88753343D01*
X71377544Y-88892657D01*
X71383111Y-88913432D01*
X71393251Y-88951276D01*
X71391732Y-89015098D01*
X71355949Y-89067968D01*
X71297263Y-89093099D01*
X71283812Y-89093900D01*
X69219431Y-89093900D01*
X69158176Y-89075914D01*
X69139316Y-89060715D01*
X68961286Y-88882684D01*
X68947850Y-88858079D01*
X68932690Y-88834489D01*
X68931875Y-88828822D01*
X68930690Y-88826652D01*
X68928101Y-88802569D01*
X68928101Y-88789091D01*
X68946087Y-88727836D01*
X68961286Y-88708976D01*
X68995387Y-88674875D01*
X69065044Y-88554225D01*
X69101101Y-88419657D01*
X69101101Y-88280343D01*
X69089992Y-88238885D01*
X69085642Y-88222650D01*
X69065044Y-88145775D01*
X69063434Y-88142987D01*
X69013101Y-88055807D01*
X68995387Y-88025125D01*
X68896876Y-87926614D01*
X68887343Y-87921110D01*
X68776229Y-87856958D01*
X68776223Y-87856956D01*
X68641658Y-87820900D01*
X68502344Y-87820900D01*
X68367778Y-87856956D01*
X68367772Y-87856958D01*
X68247125Y-87926614D01*
X68172515Y-88001225D01*
X68116484Y-88031821D01*
X68052806Y-88027266D01*
X68001699Y-87989008D01*
X67979389Y-87929193D01*
X67979100Y-87921110D01*
X67979100Y-87329177D01*
X67979092Y-87329100D01*
X67972965Y-87272113D01*
X67924820Y-87143031D01*
X67924818Y-87143028D01*
X67924819Y-87143028D01*
X67842259Y-87032741D01*
X67842258Y-87032740D01*
X67731971Y-86950180D01*
X67611855Y-86905380D01*
X67602887Y-86902035D01*
X67545826Y-86895900D01*
X66779174Y-86895900D01*
X66722113Y-86902035D01*
X66593028Y-86950180D01*
X66482741Y-87032740D01*
X66482740Y-87032741D01*
X66400180Y-87143028D01*
X66362212Y-87244828D01*
X66352035Y-87272113D01*
X66345900Y-87329174D01*
X66345900Y-88370826D01*
X66352035Y-88427887D01*
X66400180Y-88556969D01*
X66400181Y-88556971D01*
X66400180Y-88556971D01*
X66482740Y-88667258D01*
X66482741Y-88667259D01*
X66593028Y-88749818D01*
X66593026Y-88749818D01*
X66593030Y-88749819D01*
X66593031Y-88749820D01*
X66638795Y-88766888D01*
X66689901Y-88805146D01*
X66712211Y-88864962D01*
X66712500Y-88873045D01*
X66712500Y-89714225D01*
X66738499Y-89811254D01*
X66751077Y-89833040D01*
X66751078Y-89833043D01*
X66751079Y-89833043D01*
X66788722Y-89898245D01*
X67022215Y-90131738D01*
X67052811Y-90187769D01*
X67049855Y-90246864D01*
X67007471Y-90377310D01*
X67007468Y-90377320D01*
X66980900Y-90545074D01*
X66980900Y-90714925D01*
X67007468Y-90882679D01*
X67007470Y-90882685D01*
X67007471Y-90882690D01*
X67015098Y-90906163D01*
X67059960Y-91044234D01*
X67059961Y-91044235D01*
X67137071Y-91195572D01*
X67236908Y-91332987D01*
X67236914Y-91332993D01*
X67310006Y-91406085D01*
X67340602Y-91462116D01*
X67336047Y-91525794D01*
X67297789Y-91576901D01*
X67237974Y-91599211D01*
X67229891Y-91599500D01*
X66350109Y-91599500D01*
X66288854Y-91581514D01*
X66247048Y-91533267D01*
X66237962Y-91470076D01*
X66264483Y-91412004D01*
X66269994Y-91406085D01*
X66343092Y-91332987D01*
X66442929Y-91195572D01*
X66520041Y-91044231D01*
X66572529Y-90882690D01*
X66572834Y-90880768D01*
X66599100Y-90714925D01*
X66599100Y-90545074D01*
X66572531Y-90377320D01*
X66572530Y-90377317D01*
X66572529Y-90377310D01*
X66520041Y-90215769D01*
X66442929Y-90064428D01*
X66343092Y-89927013D01*
X66222987Y-89806908D01*
X66085572Y-89707071D01*
X65934235Y-89629961D01*
X65934234Y-89629960D01*
X65932381Y-89629358D01*
X65772690Y-89577471D01*
X65772686Y-89577470D01*
X65772685Y-89577470D01*
X65772679Y-89577468D01*
X65619341Y-89553183D01*
X65604927Y-89550900D01*
X65435073Y-89550900D01*
X65420671Y-89553181D01*
X65267320Y-89577468D01*
X65267314Y-89577470D01*
X65267311Y-89577470D01*
X65267310Y-89577471D01*
X65148185Y-89616177D01*
X65084372Y-89618000D01*
X65033060Y-89588537D01*
X64412465Y-88967942D01*
X64381869Y-88911911D01*
X64386424Y-88848233D01*
X64424682Y-88797126D01*
X64484497Y-88774816D01*
X64532175Y-88781671D01*
X64641763Y-88822546D01*
X64701792Y-88828999D01*
X64896999Y-88828999D01*
X65278000Y-88828999D01*
X65473210Y-88828999D01*
X65533226Y-88822548D01*
X65533235Y-88822546D01*
X65669025Y-88771898D01*
X65669030Y-88771895D01*
X65785046Y-88685047D01*
X65785047Y-88685046D01*
X65871895Y-88569030D01*
X65871898Y-88569024D01*
X65922546Y-88433236D01*
X65929000Y-88373207D01*
X65929000Y-88040500D01*
X65278000Y-88040500D01*
X65278000Y-88828999D01*
X64896999Y-88828999D01*
X64897000Y-88828998D01*
X64897000Y-87659500D01*
X65278000Y-87659500D01*
X65928999Y-87659500D01*
X65928999Y-87326790D01*
X65922548Y-87266773D01*
X65922546Y-87266764D01*
X65871898Y-87130974D01*
X65871895Y-87130969D01*
X65785047Y-87014953D01*
X65785046Y-87014952D01*
X65669030Y-86928104D01*
X65669024Y-86928101D01*
X65533236Y-86877453D01*
X65473208Y-86871000D01*
X65278000Y-86871000D01*
X65278000Y-87659500D01*
X64897000Y-87659500D01*
X64897000Y-86871000D01*
X64701789Y-86871000D01*
X64641773Y-86877451D01*
X64641764Y-86877453D01*
X64505974Y-86928101D01*
X64505969Y-86928104D01*
X64487698Y-86941782D01*
X64427882Y-86964092D01*
X64365501Y-86950522D01*
X64320359Y-86905380D01*
X64306500Y-86851081D01*
X64306500Y-86611203D01*
X64324486Y-86549948D01*
X64339685Y-86531088D01*
X65852485Y-85018288D01*
X65908516Y-84987692D01*
X65972194Y-84992247D01*
X66023301Y-85030505D01*
X66045611Y-85090320D01*
X66045900Y-85098403D01*
X66045900Y-86322565D01*
X66059193Y-86389389D01*
X66059192Y-86389389D01*
X66068578Y-86403436D01*
X66109828Y-86465172D01*
X66185610Y-86515807D01*
X66252438Y-86529100D01*
X66252441Y-86529100D01*
X66697559Y-86529100D01*
X66697562Y-86529100D01*
X66764390Y-86515807D01*
X66764390Y-86515806D01*
X66770396Y-86514612D01*
X66814604Y-86514612D01*
X66820609Y-86515806D01*
X66820610Y-86515807D01*
X66887438Y-86529100D01*
X66887441Y-86529100D01*
X67332559Y-86529100D01*
X67332562Y-86529100D01*
X67399390Y-86515807D01*
X67399390Y-86515806D01*
X67405396Y-86514612D01*
X67449604Y-86514612D01*
X67455609Y-86515806D01*
X67455610Y-86515807D01*
X67522438Y-86529100D01*
X67522441Y-86529100D01*
X67967559Y-86529100D01*
X67967562Y-86529100D01*
X68034390Y-86515807D01*
X68034390Y-86515806D01*
X68040396Y-86514612D01*
X68084604Y-86514612D01*
X68090609Y-86515806D01*
X68090610Y-86515807D01*
X68157438Y-86529100D01*
X68157441Y-86529100D01*
X68602559Y-86529100D01*
X68602562Y-86529100D01*
X68632146Y-86523215D01*
X68695730Y-86528904D01*
X68714158Y-86538543D01*
X68715895Y-86539263D01*
X68789982Y-86553999D01*
X68824500Y-86553999D01*
X68824500Y-84846000D01*
X68789981Y-84846000D01*
X68715899Y-84860735D01*
X68705586Y-84865007D01*
X68705034Y-84863676D01*
X68656258Y-84878943D01*
X68632146Y-84876784D01*
X68602568Y-84870900D01*
X68602562Y-84870900D01*
X68157438Y-84870900D01*
X68157431Y-84870900D01*
X68084603Y-84885387D01*
X68040397Y-84885387D01*
X67967568Y-84870900D01*
X67967562Y-84870900D01*
X67522438Y-84870900D01*
X67522431Y-84870900D01*
X67449603Y-84885387D01*
X67405397Y-84885387D01*
X67332568Y-84870900D01*
X67332562Y-84870900D01*
X66887438Y-84870900D01*
X66887431Y-84870900D01*
X66814603Y-84885387D01*
X66770397Y-84885387D01*
X66697568Y-84870900D01*
X66697562Y-84870900D01*
X66273403Y-84870900D01*
X66212148Y-84852914D01*
X66170342Y-84804667D01*
X66161256Y-84741476D01*
X66187777Y-84683404D01*
X66193288Y-84677485D01*
X67121347Y-83749426D01*
X68050276Y-82820497D01*
X68100502Y-82733503D01*
X68126501Y-82636475D01*
X68126501Y-82536025D01*
X68126501Y-82529086D01*
X68126500Y-82529068D01*
X68126500Y-81442400D01*
X68144486Y-81381145D01*
X68192733Y-81339339D01*
X68239800Y-81329100D01*
X68545600Y-81329100D01*
X68606855Y-81347086D01*
G37*
%TD.AperFunction*%
%TA.AperFunction,Conductor*%
G36*
X97408855Y-74418486D02*
G01*
X97450661Y-74466733D01*
X97460900Y-74513800D01*
X97460900Y-76262565D01*
X97474193Y-76329389D01*
X97474192Y-76329389D01*
X97479755Y-76337715D01*
X97524828Y-76405172D01*
X97600610Y-76455807D01*
X97667438Y-76469100D01*
X97667441Y-76469100D01*
X99412559Y-76469100D01*
X99412562Y-76469100D01*
X99479390Y-76455807D01*
X99555172Y-76405172D01*
X99605807Y-76329390D01*
X99619100Y-76262562D01*
X99619100Y-75686678D01*
X99637086Y-75625423D01*
X99685333Y-75583617D01*
X99748524Y-75574531D01*
X99806596Y-75601052D01*
X99841111Y-75654758D01*
X99841839Y-75657354D01*
X99886588Y-75824360D01*
X99886590Y-75824366D01*
X99980148Y-76025000D01*
X100107124Y-76206340D01*
X100263660Y-76362876D01*
X100445000Y-76489852D01*
X100645634Y-76583410D01*
X100716911Y-76602508D01*
X100859457Y-76640704D01*
X100859463Y-76640705D01*
X100859467Y-76640706D01*
X101080000Y-76660000D01*
X101300533Y-76640706D01*
X101300537Y-76640704D01*
X101300542Y-76640704D01*
X101386875Y-76617570D01*
X101514366Y-76583410D01*
X101715000Y-76489852D01*
X101771216Y-76450488D01*
X101831707Y-76430089D01*
X101893626Y-76445632D01*
X101937314Y-76492183D01*
X101949500Y-76543300D01*
X101949500Y-89476699D01*
X101931514Y-89537954D01*
X101883267Y-89579760D01*
X101820076Y-89588846D01*
X101771215Y-89569509D01*
X101715004Y-89530150D01*
X101706104Y-89526000D01*
X101514366Y-89436590D01*
X101514364Y-89436589D01*
X101514360Y-89436588D01*
X101300542Y-89379295D01*
X101300530Y-89379293D01*
X101080000Y-89360000D01*
X100859469Y-89379293D01*
X100859457Y-89379295D01*
X100645639Y-89436588D01*
X100645635Y-89436589D01*
X100445001Y-89530147D01*
X100409625Y-89554918D01*
X100263660Y-89657124D01*
X100263658Y-89657125D01*
X100263655Y-89657128D01*
X100107128Y-89813655D01*
X100107125Y-89813658D01*
X100107124Y-89813660D01*
X100036360Y-89914721D01*
X99980147Y-89995001D01*
X99886589Y-90195635D01*
X99886588Y-90195639D01*
X99841839Y-90362645D01*
X99808612Y-90417158D01*
X99751188Y-90445052D01*
X99687799Y-90437473D01*
X99638571Y-90396826D01*
X99619132Y-90336017D01*
X99619100Y-90333321D01*
X99619100Y-89757440D01*
X99619099Y-89757434D01*
X99614627Y-89734951D01*
X99605807Y-89690610D01*
X99555172Y-89614828D01*
X99499258Y-89577468D01*
X99479389Y-89564192D01*
X99412565Y-89550900D01*
X99412562Y-89550900D01*
X99182400Y-89550900D01*
X99174463Y-89548569D01*
X99166276Y-89549747D01*
X99144313Y-89539716D01*
X99121145Y-89532914D01*
X99115727Y-89526661D01*
X99108204Y-89523226D01*
X99095150Y-89502914D01*
X99079339Y-89484667D01*
X99077248Y-89475059D01*
X99073689Y-89469520D01*
X99069100Y-89437600D01*
X99069100Y-89418797D01*
X99069101Y-89418784D01*
X99069101Y-89270343D01*
X99041478Y-89167254D01*
X99033043Y-89135775D01*
X99033042Y-89135774D01*
X99033042Y-89135772D01*
X99030230Y-89130902D01*
X99030229Y-89130901D01*
X99030228Y-89130899D01*
X98963386Y-89015125D01*
X98864875Y-88916614D01*
X98860923Y-88912662D01*
X98860912Y-88912652D01*
X97529846Y-87581586D01*
X97529844Y-87581583D01*
X97424875Y-87476614D01*
X97304228Y-87406958D01*
X97304222Y-87406956D01*
X97273652Y-87398765D01*
X97169658Y-87370900D01*
X97169657Y-87370900D01*
X96639717Y-87370900D01*
X96578462Y-87352914D01*
X96536656Y-87304667D01*
X96527386Y-87272392D01*
X96513551Y-87167298D01*
X96452681Y-87020343D01*
X96448544Y-87014952D01*
X96355850Y-86894152D01*
X96355847Y-86894149D01*
X96229659Y-86797320D01*
X96229655Y-86797318D01*
X96082703Y-86736449D01*
X95964598Y-86720900D01*
X95964596Y-86720900D01*
X94635404Y-86720900D01*
X94635401Y-86720900D01*
X94517296Y-86736449D01*
X94370344Y-86797318D01*
X94370340Y-86797320D01*
X94244152Y-86894149D01*
X94244149Y-86894152D01*
X94147320Y-87020340D01*
X94147318Y-87020344D01*
X94086449Y-87167296D01*
X94070900Y-87285401D01*
X94070900Y-88114598D01*
X94086449Y-88232703D01*
X94147318Y-88379655D01*
X94147320Y-88379659D01*
X94244149Y-88505847D01*
X94244152Y-88505850D01*
X94329217Y-88571124D01*
X94370343Y-88602681D01*
X94517298Y-88663551D01*
X94635404Y-88679100D01*
X94635410Y-88679100D01*
X95964590Y-88679100D01*
X95964596Y-88679100D01*
X96082702Y-88663551D01*
X96229657Y-88602681D01*
X96355849Y-88505849D01*
X96370378Y-88486913D01*
X96380728Y-88473427D01*
X96432286Y-88435780D01*
X96470614Y-88429100D01*
X96833910Y-88429100D01*
X96895165Y-88447086D01*
X96914025Y-88462285D01*
X97809225Y-89357485D01*
X97839821Y-89413516D01*
X97835266Y-89477194D01*
X97797008Y-89528301D01*
X97737193Y-89550611D01*
X97729110Y-89550900D01*
X97667434Y-89550900D01*
X97600610Y-89564192D01*
X97524828Y-89614828D01*
X97474192Y-89690610D01*
X97460900Y-89757434D01*
X97460900Y-91486200D01*
X97442914Y-91547455D01*
X97394667Y-91589261D01*
X97347600Y-91599500D01*
X96747022Y-91599500D01*
X96685767Y-91581514D01*
X96666907Y-91566315D01*
X96195227Y-91094635D01*
X96307007Y-91030099D01*
X96400099Y-90937007D01*
X96464635Y-90825227D01*
X96903744Y-91264336D01*
X96944228Y-91208617D01*
X96944230Y-91208613D01*
X97023114Y-91053794D01*
X97023115Y-91053792D01*
X97076816Y-90888516D01*
X97076818Y-90888510D01*
X97104000Y-90716885D01*
X97104000Y-90543114D01*
X97076818Y-90371489D01*
X97076816Y-90371483D01*
X97023115Y-90206207D01*
X97023114Y-90206205D01*
X96944227Y-90051379D01*
X96903744Y-89995662D01*
X96903744Y-89995661D01*
X96464634Y-90434771D01*
X96400099Y-90322993D01*
X96307007Y-90229901D01*
X96195226Y-90165364D01*
X96634337Y-89726254D01*
X96634336Y-89726253D01*
X96578620Y-89685773D01*
X96578620Y-89685772D01*
X96423794Y-89606885D01*
X96423792Y-89606884D01*
X96258516Y-89553183D01*
X96258510Y-89553181D01*
X96086886Y-89526000D01*
X95913114Y-89526000D01*
X95741489Y-89553181D01*
X95741483Y-89553183D01*
X95576207Y-89606884D01*
X95576205Y-89606885D01*
X95421378Y-89685774D01*
X95365661Y-89726254D01*
X95804772Y-90165365D01*
X95692993Y-90229901D01*
X95599901Y-90322993D01*
X95535365Y-90434772D01*
X95096254Y-89995661D01*
X95055774Y-90051378D01*
X94976885Y-90206205D01*
X94976884Y-90206207D01*
X94923183Y-90371483D01*
X94923181Y-90371489D01*
X94896000Y-90543114D01*
X94896000Y-90716885D01*
X94923181Y-90888510D01*
X94923183Y-90888516D01*
X94976884Y-91053792D01*
X94976885Y-91053794D01*
X95055772Y-91208620D01*
X95096253Y-91264336D01*
X95096254Y-91264337D01*
X95535364Y-90825226D01*
X95599901Y-90937007D01*
X95692993Y-91030099D01*
X95804772Y-91094634D01*
X95333091Y-91566315D01*
X95277059Y-91596911D01*
X95252976Y-91599500D01*
X94290109Y-91599500D01*
X94228854Y-91581514D01*
X94187048Y-91533267D01*
X94177962Y-91470076D01*
X94204483Y-91412004D01*
X94209994Y-91406085D01*
X94283092Y-91332987D01*
X94382929Y-91195572D01*
X94460041Y-91044231D01*
X94512529Y-90882690D01*
X94512834Y-90880768D01*
X94539100Y-90714925D01*
X94539100Y-90545076D01*
X94539100Y-90545074D01*
X94539100Y-90545073D01*
X94512529Y-90377310D01*
X94460041Y-90215769D01*
X94382929Y-90064428D01*
X94283092Y-89927013D01*
X94162987Y-89806908D01*
X94025572Y-89707071D01*
X93874235Y-89629961D01*
X93874234Y-89629960D01*
X93872381Y-89629358D01*
X93712690Y-89577471D01*
X93712686Y-89577470D01*
X93712685Y-89577470D01*
X93712679Y-89577468D01*
X93559341Y-89553183D01*
X93544927Y-89550900D01*
X93375073Y-89550900D01*
X93360671Y-89553181D01*
X93207320Y-89577468D01*
X93207310Y-89577471D01*
X93047617Y-89629358D01*
X92983803Y-89631181D01*
X92932491Y-89601718D01*
X92702285Y-89371512D01*
X92671689Y-89315481D01*
X92669100Y-89291397D01*
X92669100Y-84328419D01*
X92687086Y-84267164D01*
X92713238Y-84240549D01*
X92712430Y-84239564D01*
X92716728Y-84236035D01*
X92716735Y-84236031D01*
X92804361Y-84148405D01*
X92873208Y-84045368D01*
X92920631Y-83930879D01*
X92944807Y-83809338D01*
X92944807Y-83685416D01*
X92920631Y-83563875D01*
X92910124Y-83538509D01*
X94046001Y-83538509D01*
X94048806Y-83574180D01*
X94048807Y-83574183D01*
X94093142Y-83726788D01*
X94174045Y-83863584D01*
X94174047Y-83863587D01*
X94286412Y-83975952D01*
X94286415Y-83975954D01*
X94423208Y-84056855D01*
X94575821Y-84101192D01*
X94611493Y-84103999D01*
X95109499Y-84103999D01*
X95109500Y-84103998D01*
X95109500Y-83290500D01*
X94046001Y-83290500D01*
X94046001Y-83538509D01*
X92910124Y-83538509D01*
X92873208Y-83449386D01*
X92870646Y-83445552D01*
X92804364Y-83346353D01*
X92804358Y-83346346D01*
X92716737Y-83258725D01*
X92716730Y-83258719D01*
X92613705Y-83189880D01*
X92613699Y-83189877D01*
X92613700Y-83189877D01*
X92613698Y-83189876D01*
X92559729Y-83167521D01*
X92499213Y-83142454D01*
X92499211Y-83142453D01*
X92377671Y-83118277D01*
X92377668Y-83118277D01*
X92253746Y-83118277D01*
X92253742Y-83118277D01*
X92132202Y-83142453D01*
X92132200Y-83142454D01*
X92017714Y-83189877D01*
X92017708Y-83189880D01*
X91914683Y-83258719D01*
X91914676Y-83258725D01*
X91827055Y-83346346D01*
X91827049Y-83346353D01*
X91758210Y-83449378D01*
X91758207Y-83449384D01*
X91710784Y-83563870D01*
X91710783Y-83563872D01*
X91686607Y-83685412D01*
X91686607Y-83809341D01*
X91710783Y-83930881D01*
X91710784Y-83930883D01*
X91728201Y-83972929D01*
X91758206Y-84045368D01*
X91758207Y-84045369D01*
X91758210Y-84045375D01*
X91827049Y-84148400D01*
X91827055Y-84148407D01*
X91914678Y-84236030D01*
X91918984Y-84239564D01*
X91917408Y-84241483D01*
X91951480Y-84282244D01*
X91960900Y-84327475D01*
X91960900Y-89438378D01*
X91960899Y-89438382D01*
X91960899Y-89531618D01*
X91975860Y-89587450D01*
X91978217Y-89596249D01*
X91978218Y-89596253D01*
X91984888Y-89621145D01*
X91985031Y-89621678D01*
X91988723Y-89628073D01*
X92031649Y-89702423D01*
X92104032Y-89774806D01*
X92104038Y-89774811D01*
X92431718Y-90102491D01*
X92462314Y-90158522D01*
X92459358Y-90217617D01*
X92407471Y-90377310D01*
X92407468Y-90377320D01*
X92380900Y-90545074D01*
X92380900Y-90714925D01*
X92407468Y-90882679D01*
X92407470Y-90882685D01*
X92407471Y-90882690D01*
X92415098Y-90906163D01*
X92459960Y-91044234D01*
X92459961Y-91044235D01*
X92537071Y-91195572D01*
X92636908Y-91332987D01*
X92636914Y-91332993D01*
X92710006Y-91406085D01*
X92740602Y-91462116D01*
X92736047Y-91525794D01*
X92697789Y-91576901D01*
X92637974Y-91599211D01*
X92629891Y-91599500D01*
X91750109Y-91599500D01*
X91688854Y-91581514D01*
X91647048Y-91533267D01*
X91637962Y-91470076D01*
X91664483Y-91412004D01*
X91669994Y-91406085D01*
X91743092Y-91332987D01*
X91842929Y-91195572D01*
X91920041Y-91044231D01*
X91972529Y-90882690D01*
X91972834Y-90880768D01*
X91999100Y-90714925D01*
X91999100Y-90545074D01*
X91972531Y-90377320D01*
X91972530Y-90377317D01*
X91972529Y-90377310D01*
X91920041Y-90215769D01*
X91842929Y-90064428D01*
X91743092Y-89927013D01*
X91622987Y-89806908D01*
X91485572Y-89707071D01*
X91334235Y-89629961D01*
X91334234Y-89629960D01*
X91332381Y-89629358D01*
X91172690Y-89577471D01*
X91172686Y-89577470D01*
X91172685Y-89577470D01*
X91172679Y-89577468D01*
X91019341Y-89553183D01*
X91004927Y-89550900D01*
X90835073Y-89550900D01*
X90835069Y-89550900D01*
X90809700Y-89554918D01*
X90746386Y-89546736D01*
X90711861Y-89523128D01*
X90168685Y-88979952D01*
X90138089Y-88923921D01*
X90135500Y-88899837D01*
X90135500Y-87190651D01*
X90152368Y-87131172D01*
X90165287Y-87110228D01*
X90218898Y-86948440D01*
X90218898Y-86948437D01*
X90218899Y-86948437D01*
X90228580Y-86853666D01*
X90229100Y-86848579D01*
X90229099Y-86649754D01*
X90235798Y-86616100D01*
X90234462Y-86615695D01*
X90236075Y-86610374D01*
X90236078Y-86610369D01*
X90260500Y-86487591D01*
X90260500Y-86362409D01*
X90260500Y-86262409D01*
X90260500Y-85662409D01*
X90236078Y-85539631D01*
X90236076Y-85539628D01*
X90234462Y-85534305D01*
X90235791Y-85533901D01*
X90229099Y-85500245D01*
X90229099Y-83951422D01*
X90229098Y-83951403D01*
X90218899Y-83851567D01*
X90218898Y-83851565D01*
X90218898Y-83851560D01*
X90165287Y-83689772D01*
X90152367Y-83668825D01*
X90135500Y-83609347D01*
X90135500Y-82661493D01*
X94046000Y-82661493D01*
X94046000Y-82909500D01*
X95109500Y-82909500D01*
X95109500Y-82096000D01*
X94611490Y-82096000D01*
X94575819Y-82098806D01*
X94575816Y-82098807D01*
X94423211Y-82143142D01*
X94286415Y-82224045D01*
X94286412Y-82224047D01*
X94174047Y-82336412D01*
X94174045Y-82336415D01*
X94093144Y-82473208D01*
X94048807Y-82625821D01*
X94046000Y-82661493D01*
X90135500Y-82661493D01*
X90135500Y-82310163D01*
X90153486Y-82248908D01*
X90168685Y-82230048D01*
X90791448Y-81607285D01*
X90847479Y-81576689D01*
X90871563Y-81574100D01*
X91615823Y-81574100D01*
X91615826Y-81574100D01*
X91672887Y-81567965D01*
X91801969Y-81519820D01*
X91801969Y-81519819D01*
X91801971Y-81519819D01*
X91859267Y-81476928D01*
X91912259Y-81437259D01*
X91974586Y-81353999D01*
X91994819Y-81326971D01*
X92005720Y-81297744D01*
X92042965Y-81197887D01*
X92048844Y-81143209D01*
X92856001Y-81143209D01*
X92862451Y-81203226D01*
X92862453Y-81203235D01*
X92913101Y-81339025D01*
X92913104Y-81339030D01*
X92999952Y-81455046D01*
X92999953Y-81455047D01*
X93115969Y-81541895D01*
X93115975Y-81541898D01*
X93251763Y-81592546D01*
X93311792Y-81598999D01*
X93714499Y-81598999D01*
X94095500Y-81598999D01*
X94498210Y-81598999D01*
X94558226Y-81592548D01*
X94558235Y-81592546D01*
X94694025Y-81541898D01*
X94694030Y-81541895D01*
X94810046Y-81455047D01*
X94810047Y-81455046D01*
X94896895Y-81339030D01*
X94896898Y-81339024D01*
X94947546Y-81203236D01*
X94954000Y-81143207D01*
X94954000Y-80840500D01*
X94095500Y-80840500D01*
X94095500Y-81598999D01*
X93714499Y-81598999D01*
X93714500Y-81598998D01*
X93714500Y-80840500D01*
X92856001Y-80840500D01*
X92856001Y-81143209D01*
X92048844Y-81143209D01*
X92049100Y-81140826D01*
X92049100Y-80159174D01*
X92048844Y-80156792D01*
X92856000Y-80156792D01*
X92856000Y-80459500D01*
X93714500Y-80459500D01*
X93714500Y-79701000D01*
X93311790Y-79701000D01*
X93251773Y-79707451D01*
X93251764Y-79707453D01*
X93115974Y-79758101D01*
X93115969Y-79758104D01*
X92999953Y-79844952D01*
X92999952Y-79844953D01*
X92913104Y-79960969D01*
X92913101Y-79960975D01*
X92862453Y-80096763D01*
X92856000Y-80156792D01*
X92048844Y-80156792D01*
X92042965Y-80102113D01*
X91994820Y-79973031D01*
X91994818Y-79973028D01*
X91994819Y-79973028D01*
X91912259Y-79862741D01*
X91912258Y-79862740D01*
X91801971Y-79780180D01*
X91715914Y-79748083D01*
X91672887Y-79732035D01*
X91615826Y-79725900D01*
X90434174Y-79725900D01*
X90377113Y-79732035D01*
X90248028Y-79780180D01*
X90137741Y-79862740D01*
X90137740Y-79862741D01*
X90055180Y-79973028D01*
X90010235Y-80093534D01*
X90007035Y-80102113D01*
X90000901Y-80159171D01*
X90000900Y-80159177D01*
X90000900Y-80553437D01*
X89982914Y-80614692D01*
X89967715Y-80633552D01*
X89562865Y-81038402D01*
X89555604Y-81042366D01*
X89550648Y-81048988D01*
X89528028Y-81057424D01*
X89506834Y-81068998D01*
X89498582Y-81068407D01*
X89490833Y-81071298D01*
X89467239Y-81066165D01*
X89443156Y-81064443D01*
X89434884Y-81059127D01*
X89428451Y-81057728D01*
X89402635Y-81038402D01*
X89257284Y-80893051D01*
X89226688Y-80837020D01*
X89224099Y-80812936D01*
X89224099Y-78970288D01*
X89242085Y-78909033D01*
X89290332Y-78867227D01*
X89353523Y-78858141D01*
X89411595Y-78884662D01*
X89443555Y-78930694D01*
X89447580Y-78941484D01*
X89462680Y-78981969D01*
X89462680Y-78981971D01*
X89545240Y-79092258D01*
X89545241Y-79092259D01*
X89655528Y-79174819D01*
X89655531Y-79174820D01*
X89784613Y-79222965D01*
X89841674Y-79229100D01*
X89841677Y-79229100D01*
X90608323Y-79229100D01*
X90608326Y-79229100D01*
X90665387Y-79222965D01*
X90794469Y-79174820D01*
X90794469Y-79174819D01*
X90794471Y-79174819D01*
X90846028Y-79136224D01*
X90904759Y-79092259D01*
X90963281Y-79014082D01*
X90987319Y-78981971D01*
X90987320Y-78981969D01*
X91035465Y-78852887D01*
X91041344Y-78798209D01*
X91458501Y-78798209D01*
X91464951Y-78858226D01*
X91464953Y-78858235D01*
X91515601Y-78994025D01*
X91515604Y-78994030D01*
X91602452Y-79110046D01*
X91602453Y-79110047D01*
X91718469Y-79196895D01*
X91718475Y-79196898D01*
X91854263Y-79247546D01*
X91914292Y-79253999D01*
X92109499Y-79253999D01*
X92490500Y-79253999D01*
X92685710Y-79253999D01*
X92745726Y-79247548D01*
X92745735Y-79247546D01*
X92881525Y-79196898D01*
X92881530Y-79196895D01*
X92997546Y-79110047D01*
X92997547Y-79110046D01*
X93084395Y-78994030D01*
X93084398Y-78994024D01*
X93135046Y-78858236D01*
X93141500Y-78798207D01*
X93141500Y-78465500D01*
X92490500Y-78465500D01*
X92490500Y-79253999D01*
X92109499Y-79253999D01*
X92109500Y-79253998D01*
X92109500Y-78465500D01*
X91458501Y-78465500D01*
X91458501Y-78798209D01*
X91041344Y-78798209D01*
X91041600Y-78795826D01*
X91041600Y-77754174D01*
X91035465Y-77697113D01*
X90987320Y-77568031D01*
X90904759Y-77457741D01*
X90904757Y-77457740D01*
X90900684Y-77452298D01*
X90878375Y-77392482D01*
X90891945Y-77330101D01*
X90937087Y-77284959D01*
X90991386Y-77271100D01*
X91502511Y-77271100D01*
X91563766Y-77289086D01*
X91605572Y-77337333D01*
X91614658Y-77400524D01*
X91593212Y-77452298D01*
X91515604Y-77555969D01*
X91515601Y-77555975D01*
X91464953Y-77691763D01*
X91458500Y-77751792D01*
X91458500Y-78084500D01*
X93141499Y-78084500D01*
X93141499Y-77751790D01*
X93135048Y-77691773D01*
X93135047Y-77691768D01*
X93132051Y-77683735D01*
X93127496Y-77620057D01*
X93158091Y-77564025D01*
X93214122Y-77533429D01*
X93277800Y-77537982D01*
X93318322Y-77564024D01*
X93406600Y-77652302D01*
X93437196Y-77708333D01*
X93439785Y-77732417D01*
X93439785Y-78504440D01*
X93462212Y-78588142D01*
X93473966Y-78608500D01*
X93505539Y-78663185D01*
X94349940Y-79507586D01*
X94380536Y-79563616D01*
X94375981Y-79627294D01*
X94337723Y-79678401D01*
X94277908Y-79700711D01*
X94269825Y-79701000D01*
X94095500Y-79701000D01*
X94095500Y-80459500D01*
X94953999Y-80459500D01*
X94953999Y-80385174D01*
X94971985Y-80323919D01*
X95020232Y-80282113D01*
X95083423Y-80273027D01*
X95141495Y-80299548D01*
X95147414Y-80305059D01*
X96093715Y-81251360D01*
X96124311Y-81307391D01*
X96126900Y-81331475D01*
X96126900Y-81984324D01*
X96108914Y-82045579D01*
X96060667Y-82087385D01*
X96004711Y-82097275D01*
X95988509Y-82096000D01*
X95490500Y-82096000D01*
X95490500Y-84103999D01*
X95988510Y-84103999D01*
X96024180Y-84101193D01*
X96024183Y-84101192D01*
X96176788Y-84056857D01*
X96313584Y-83975954D01*
X96313587Y-83975952D01*
X96430998Y-83858542D01*
X96432979Y-83860523D01*
X96474145Y-83830779D01*
X96537891Y-83827301D01*
X96592056Y-83857474D01*
X97211654Y-84477072D01*
X97272928Y-84538346D01*
X97318576Y-84564701D01*
X97330051Y-84571326D01*
X97374105Y-84617530D01*
X97386187Y-84680217D01*
X97362459Y-84739484D01*
X97340000Y-84761105D01*
X97332017Y-84766904D01*
X97332006Y-84766914D01*
X97211914Y-84887006D01*
X97211910Y-84887010D01*
X97211908Y-84887013D01*
X97122991Y-85009397D01*
X97072438Y-85048380D01*
X97031331Y-85056100D01*
X96637769Y-85056100D01*
X96576514Y-85038114D01*
X96534708Y-84989867D01*
X96525438Y-84957589D01*
X96524357Y-84949380D01*
X96513551Y-84867298D01*
X96452681Y-84720343D01*
X96450453Y-84717440D01*
X96355850Y-84594152D01*
X96355847Y-84594149D01*
X96229659Y-84497320D01*
X96229655Y-84497318D01*
X96082703Y-84436449D01*
X95964598Y-84420900D01*
X95964596Y-84420900D01*
X94635404Y-84420900D01*
X94635401Y-84420900D01*
X94517296Y-84436449D01*
X94370344Y-84497318D01*
X94370340Y-84497320D01*
X94244152Y-84594149D01*
X94244149Y-84594152D01*
X94147320Y-84720340D01*
X94147318Y-84720344D01*
X94086449Y-84867296D01*
X94070900Y-84985401D01*
X94070900Y-85814598D01*
X94086449Y-85932703D01*
X94147318Y-86079655D01*
X94147320Y-86079659D01*
X94244149Y-86205847D01*
X94244152Y-86205850D01*
X94360709Y-86295289D01*
X94370343Y-86302681D01*
X94517298Y-86363551D01*
X94635404Y-86379100D01*
X94635410Y-86379100D01*
X95964590Y-86379100D01*
X95964596Y-86379100D01*
X96082702Y-86363551D01*
X96229657Y-86302681D01*
X96355849Y-86205849D01*
X96355851Y-86205847D01*
X96355852Y-86205846D01*
X96384719Y-86168227D01*
X96436278Y-86130580D01*
X96474605Y-86123900D01*
X97031331Y-86123900D01*
X97092586Y-86141886D01*
X97122990Y-86170601D01*
X97211908Y-86292987D01*
X97332013Y-86413092D01*
X97469428Y-86512929D01*
X97620769Y-86590041D01*
X97782310Y-86642529D01*
X97782317Y-86642530D01*
X97782320Y-86642531D01*
X97871662Y-86656681D01*
X97950073Y-86669100D01*
X97950074Y-86669100D01*
X98119926Y-86669100D01*
X98119927Y-86669100D01*
X98203856Y-86655807D01*
X98287679Y-86642531D01*
X98287680Y-86642530D01*
X98287690Y-86642529D01*
X98449231Y-86590041D01*
X98600572Y-86512929D01*
X98737987Y-86413092D01*
X98858092Y-86292987D01*
X98957929Y-86155572D01*
X99035041Y-86004231D01*
X99087529Y-85842690D01*
X99114100Y-85674927D01*
X99114100Y-85505073D01*
X99095003Y-85384500D01*
X99087531Y-85337320D01*
X99087530Y-85337317D01*
X99087529Y-85337310D01*
X99035041Y-85175769D01*
X98957929Y-85024428D01*
X98858092Y-84887013D01*
X98768594Y-84797515D01*
X98758897Y-84779758D01*
X98745648Y-84764467D01*
X98743896Y-84752286D01*
X98737998Y-84741484D01*
X98739441Y-84721302D01*
X98736562Y-84701276D01*
X98741675Y-84690080D01*
X98742553Y-84677806D01*
X98754677Y-84661609D01*
X98763083Y-84643204D01*
X98773436Y-84636550D01*
X98780811Y-84626699D01*
X98799765Y-84619629D01*
X98816789Y-84608689D01*
X98836817Y-84605809D01*
X98840626Y-84604389D01*
X98848709Y-84604100D01*
X99076752Y-84604100D01*
X99138007Y-84622086D01*
X99156867Y-84637285D01*
X99462715Y-84943133D01*
X99493311Y-84999164D01*
X99495900Y-85023248D01*
X99495900Y-86462565D01*
X99500879Y-86487594D01*
X99509135Y-86529100D01*
X99509193Y-86529389D01*
X99509192Y-86529389D01*
X99521017Y-86547086D01*
X99559828Y-86605172D01*
X99635610Y-86655807D01*
X99702438Y-86669100D01*
X99702441Y-86669100D01*
X101447559Y-86669100D01*
X101447562Y-86669100D01*
X101514390Y-86655807D01*
X101590172Y-86605172D01*
X101640807Y-86529390D01*
X101654100Y-86462562D01*
X101654100Y-84717438D01*
X101640807Y-84650610D01*
X101590172Y-84574828D01*
X101514390Y-84524193D01*
X101514389Y-84524192D01*
X101447565Y-84510900D01*
X101447562Y-84510900D01*
X100008248Y-84510900D01*
X99946993Y-84492914D01*
X99928133Y-84477715D01*
X99462073Y-84011655D01*
X99462072Y-84011654D01*
X99430356Y-83993342D01*
X99387029Y-83968327D01*
X99303327Y-83945900D01*
X98938709Y-83945900D01*
X98877454Y-83927914D01*
X98835648Y-83879667D01*
X98826562Y-83816476D01*
X98853083Y-83758404D01*
X98857696Y-83753449D01*
X98858080Y-83752998D01*
X98858092Y-83752987D01*
X98957929Y-83615572D01*
X99035041Y-83464231D01*
X99087529Y-83302690D01*
X99114100Y-83134927D01*
X99114100Y-82965073D01*
X99099069Y-82870170D01*
X99087531Y-82797320D01*
X99087530Y-82797317D01*
X99087529Y-82797310D01*
X99035041Y-82635769D01*
X98957929Y-82484428D01*
X98858092Y-82347013D01*
X98737987Y-82226908D01*
X98600572Y-82127071D01*
X98478762Y-82065006D01*
X98449235Y-82049961D01*
X98449234Y-82049960D01*
X98421630Y-82040991D01*
X98287690Y-81997471D01*
X98287686Y-81997470D01*
X98287685Y-81997470D01*
X98287679Y-81997468D01*
X98138687Y-81973871D01*
X98119927Y-81970900D01*
X97950073Y-81970900D01*
X97933199Y-81973572D01*
X97782320Y-81997468D01*
X97782310Y-81997471D01*
X97663861Y-82035957D01*
X97600046Y-82037780D01*
X97548735Y-82008317D01*
X97219285Y-81678867D01*
X97205848Y-81654260D01*
X97190689Y-81630672D01*
X97189874Y-81625007D01*
X97188689Y-81622836D01*
X97186100Y-81598752D01*
X97186100Y-81480221D01*
X97204086Y-81418966D01*
X97252333Y-81377160D01*
X97315524Y-81368074D01*
X97365996Y-81388560D01*
X97456370Y-81454221D01*
X97456377Y-81454225D01*
X97611205Y-81533114D01*
X97611207Y-81533115D01*
X97776483Y-81586816D01*
X97776489Y-81586818D01*
X97948114Y-81614000D01*
X98121886Y-81614000D01*
X98293510Y-81586818D01*
X98293516Y-81586816D01*
X98458792Y-81533115D01*
X98458794Y-81533114D01*
X98613613Y-81454230D01*
X98613617Y-81454228D01*
X98669336Y-81413744D01*
X98230227Y-80974635D01*
X98342007Y-80910099D01*
X98435099Y-80817007D01*
X98499635Y-80705227D01*
X98938744Y-81144336D01*
X98972711Y-81141663D01*
X99035188Y-81154788D01*
X99080651Y-81199607D01*
X99094900Y-81254614D01*
X99094900Y-81942327D01*
X99117327Y-82026029D01*
X99124112Y-82037780D01*
X99160654Y-82101072D01*
X99160655Y-82101073D01*
X99557388Y-82497806D01*
X99587984Y-82553837D01*
X99583429Y-82617515D01*
X99578229Y-82629348D01*
X99574963Y-82635757D01*
X99574960Y-82635765D01*
X99553803Y-82700879D01*
X99522970Y-82795776D01*
X99522470Y-82797314D01*
X99522468Y-82797320D01*
X99503032Y-82920042D01*
X99496743Y-82959754D01*
X99495900Y-82965074D01*
X99495900Y-83134925D01*
X99522468Y-83302679D01*
X99522470Y-83302685D01*
X99522471Y-83302690D01*
X99570133Y-83449378D01*
X99574960Y-83464234D01*
X99574961Y-83464235D01*
X99652071Y-83615572D01*
X99751908Y-83752987D01*
X99872013Y-83873092D01*
X100009428Y-83972929D01*
X100160769Y-84050041D01*
X100322310Y-84102529D01*
X100322317Y-84102530D01*
X100322320Y-84102531D01*
X100443181Y-84121673D01*
X100490073Y-84129100D01*
X100490074Y-84129100D01*
X100659926Y-84129100D01*
X100659927Y-84129100D01*
X100723770Y-84118988D01*
X100827679Y-84102531D01*
X100827680Y-84102530D01*
X100827690Y-84102529D01*
X100989231Y-84050041D01*
X101140572Y-83972929D01*
X101277987Y-83873092D01*
X101398092Y-83752987D01*
X101497929Y-83615572D01*
X101575041Y-83464231D01*
X101627529Y-83302690D01*
X101654100Y-83134927D01*
X101654100Y-82965073D01*
X101639069Y-82870170D01*
X101627531Y-82797320D01*
X101627530Y-82797317D01*
X101627529Y-82797310D01*
X101575041Y-82635769D01*
X101497929Y-82484428D01*
X101398092Y-82347013D01*
X101277987Y-82226908D01*
X101140572Y-82127071D01*
X101018762Y-82065006D01*
X100989235Y-82049961D01*
X100989234Y-82049960D01*
X100961630Y-82040991D01*
X100827690Y-81997471D01*
X100827686Y-81997470D01*
X100827685Y-81997470D01*
X100827679Y-81997468D01*
X100678687Y-81973871D01*
X100659927Y-81970900D01*
X100490073Y-81970900D01*
X100473199Y-81973572D01*
X100322320Y-81997468D01*
X100322314Y-81997470D01*
X100322311Y-81997470D01*
X100322310Y-81997471D01*
X100288930Y-82008317D01*
X100160765Y-82049960D01*
X100160757Y-82049963D01*
X100154348Y-82053229D01*
X100091603Y-82065006D01*
X100032451Y-82040991D01*
X100022806Y-82032388D01*
X99786285Y-81795867D01*
X99755689Y-81739836D01*
X99753100Y-81715752D01*
X99753100Y-81469059D01*
X99771086Y-81407804D01*
X99819333Y-81365998D01*
X99882524Y-81356912D01*
X99932991Y-81377395D01*
X100009428Y-81432929D01*
X100160769Y-81510041D01*
X100322310Y-81562529D01*
X100322317Y-81562530D01*
X100322320Y-81562531D01*
X100438300Y-81580900D01*
X100490073Y-81589100D01*
X100490074Y-81589100D01*
X100659926Y-81589100D01*
X100659927Y-81589100D01*
X100738287Y-81576689D01*
X100827679Y-81562531D01*
X100827680Y-81562530D01*
X100827690Y-81562529D01*
X100989231Y-81510041D01*
X101140572Y-81432929D01*
X101277987Y-81333092D01*
X101398092Y-81212987D01*
X101497929Y-81075572D01*
X101575041Y-80924231D01*
X101627529Y-80762690D01*
X101628531Y-80756368D01*
X101644045Y-80658413D01*
X101654100Y-80594927D01*
X101654100Y-80425073D01*
X101638079Y-80323919D01*
X101627531Y-80257320D01*
X101627530Y-80257317D01*
X101627529Y-80257310D01*
X101575041Y-80095769D01*
X101497929Y-79944428D01*
X101398092Y-79807013D01*
X101277987Y-79686908D01*
X101140572Y-79587071D01*
X101038911Y-79535272D01*
X100989235Y-79509961D01*
X100989234Y-79509960D01*
X100989231Y-79509959D01*
X100827690Y-79457471D01*
X100827686Y-79457470D01*
X100827685Y-79457470D01*
X100827679Y-79457468D01*
X100678687Y-79433871D01*
X100659927Y-79430900D01*
X100490073Y-79430900D01*
X100473199Y-79433572D01*
X100322320Y-79457468D01*
X100322314Y-79457470D01*
X100322311Y-79457470D01*
X100322310Y-79457471D01*
X100242497Y-79483404D01*
X100160765Y-79509960D01*
X100154352Y-79513228D01*
X100091607Y-79525008D01*
X100032455Y-79500995D01*
X100022806Y-79492389D01*
X99310845Y-78780428D01*
X98542072Y-78011654D01*
X98496913Y-77985581D01*
X98467029Y-77968327D01*
X98383327Y-77945900D01*
X98254175Y-77945900D01*
X98192920Y-77927914D01*
X98174060Y-77912715D01*
X98112959Y-77851614D01*
X97992312Y-77781958D01*
X97992306Y-77781956D01*
X97857741Y-77745900D01*
X97718427Y-77745900D01*
X97712750Y-77745900D01*
X97651495Y-77727914D01*
X97609689Y-77679667D01*
X97600603Y-77616476D01*
X97603310Y-77603277D01*
X97615865Y-77556422D01*
X97615865Y-77417108D01*
X97611421Y-77400524D01*
X97578817Y-77278841D01*
X97574956Y-77249517D01*
X97574956Y-76973530D01*
X97570705Y-76957662D01*
X97570705Y-76957661D01*
X97552530Y-76889832D01*
X97552529Y-76889827D01*
X97536669Y-76862359D01*
X97509202Y-76814784D01*
X97447928Y-76753510D01*
X97447925Y-76753508D01*
X97160527Y-76466110D01*
X96876499Y-76182081D01*
X96845903Y-76126050D01*
X96850458Y-76062372D01*
X96864949Y-76035374D01*
X96922929Y-75955572D01*
X97000041Y-75804231D01*
X97052529Y-75642690D01*
X97079100Y-75474927D01*
X97079100Y-75305073D01*
X97071257Y-75255555D01*
X97052531Y-75137320D01*
X97052530Y-75137317D01*
X97052529Y-75137310D01*
X97000041Y-74975769D01*
X96922929Y-74824428D01*
X96823092Y-74687013D01*
X96729994Y-74593915D01*
X96699398Y-74537884D01*
X96703953Y-74474206D01*
X96742211Y-74423099D01*
X96802026Y-74400789D01*
X96810109Y-74400500D01*
X97347600Y-74400500D01*
X97408855Y-74418486D01*
G37*
%TD.AperFunction*%
%TA.AperFunction,Conductor*%
G36*
X83898207Y-77917086D02*
G01*
X83940013Y-77965333D01*
X83949099Y-78028524D01*
X83922578Y-78086596D01*
X83917068Y-78092514D01*
X83861869Y-78147714D01*
X83805838Y-78178311D01*
X83781753Y-78180900D01*
X83147434Y-78180900D01*
X83080610Y-78194192D01*
X83004828Y-78244828D01*
X82954192Y-78320610D01*
X82940900Y-78387434D01*
X82940900Y-78862565D01*
X82954193Y-78929389D01*
X82954193Y-78929391D01*
X82961045Y-78939646D01*
X82963818Y-78948504D01*
X82969899Y-78955522D01*
X82973196Y-78978458D01*
X82980120Y-79000570D01*
X82977663Y-79009522D01*
X82978985Y-79018713D01*
X82965449Y-79054037D01*
X82963228Y-79062136D01*
X82961884Y-79063342D01*
X82961045Y-79065534D01*
X82930737Y-79110893D01*
X82930736Y-79110895D01*
X82916000Y-79184979D01*
X82916000Y-79234500D01*
X84231370Y-79234500D01*
X84249001Y-79239677D01*
X84267366Y-79240370D01*
X84281803Y-79249308D01*
X84292625Y-79252486D01*
X84298703Y-79259500D01*
X85034500Y-79259500D01*
X85034500Y-78730691D01*
X85052486Y-78669436D01*
X85067685Y-78650576D01*
X85109761Y-78608500D01*
X85168386Y-78549875D01*
X85238043Y-78429225D01*
X85274100Y-78294657D01*
X85274100Y-78155343D01*
X85243656Y-78041723D01*
X85245175Y-77977902D01*
X85280958Y-77925032D01*
X85339644Y-77899901D01*
X85353095Y-77899100D01*
X86747601Y-77899100D01*
X86808856Y-77917086D01*
X86850662Y-77965333D01*
X86860901Y-78012400D01*
X86860901Y-78149378D01*
X86863862Y-78174909D01*
X86909964Y-78279321D01*
X86909966Y-78279325D01*
X86990676Y-78360035D01*
X87010875Y-78368953D01*
X87059647Y-78410148D01*
X87078404Y-78471170D01*
X87061192Y-78532647D01*
X87013476Y-78575059D01*
X86965113Y-78585900D01*
X86548211Y-78585900D01*
X86478984Y-78595985D01*
X86372216Y-78648180D01*
X86288180Y-78732216D01*
X86273477Y-78762292D01*
X86230415Y-78809423D01*
X86168709Y-78825791D01*
X86107948Y-78806199D01*
X86080989Y-78780428D01*
X86060047Y-78752453D01*
X86060046Y-78752452D01*
X85944030Y-78665604D01*
X85944024Y-78665601D01*
X85808236Y-78614953D01*
X85748208Y-78608500D01*
X85415500Y-78608500D01*
X85415500Y-80291499D01*
X85748210Y-80291499D01*
X85808226Y-80285048D01*
X85808235Y-80285046D01*
X85944025Y-80234398D01*
X85944030Y-80234395D01*
X86044702Y-80159034D01*
X86104517Y-80136724D01*
X86166899Y-80150294D01*
X86212041Y-80195436D01*
X86225900Y-80249735D01*
X86225900Y-80756368D01*
X86207914Y-80817623D01*
X86159667Y-80859429D01*
X86096476Y-80868515D01*
X86044702Y-80847070D01*
X86035925Y-80840500D01*
X85939557Y-80768360D01*
X85931968Y-80762679D01*
X85851031Y-80732491D01*
X85802887Y-80714535D01*
X85745826Y-80708400D01*
X85745823Y-80708400D01*
X85057878Y-80708400D01*
X84996623Y-80690414D01*
X84954817Y-80642167D01*
X84944720Y-80589439D01*
X84945321Y-80577408D01*
X84954098Y-80544655D01*
X84954098Y-80405341D01*
X84953956Y-80404811D01*
X84954240Y-80399138D01*
X84963853Y-80371574D01*
X84972084Y-80343544D01*
X84974299Y-80341624D01*
X84975264Y-80338859D01*
X84998251Y-80320870D01*
X85020331Y-80301738D01*
X85023611Y-80301024D01*
X85025540Y-80299515D01*
X85026580Y-80299418D01*
X85034500Y-80291499D01*
X85034500Y-79640500D01*
X84198630Y-79640500D01*
X84180998Y-79635322D01*
X84162634Y-79634630D01*
X84150992Y-79626512D01*
X84137375Y-79622514D01*
X84128672Y-79615500D01*
X82916001Y-79615500D01*
X82916001Y-79665017D01*
X82930736Y-79739102D01*
X82930737Y-79739105D01*
X82961045Y-79784464D01*
X82963819Y-79793326D01*
X82969900Y-79800343D01*
X82973197Y-79823275D01*
X82980121Y-79845388D01*
X82977664Y-79854342D01*
X82978986Y-79863534D01*
X82965454Y-79898847D01*
X82963231Y-79906954D01*
X82961885Y-79908162D01*
X82961046Y-79910354D01*
X82954192Y-79920610D01*
X82940900Y-79987434D01*
X82940900Y-80462565D01*
X82954192Y-80529389D01*
X82976019Y-80562056D01*
X82978793Y-80570916D01*
X82984873Y-80577933D01*
X82988170Y-80600867D01*
X82995094Y-80622980D01*
X82992637Y-80631933D01*
X82993959Y-80641124D01*
X82980426Y-80676440D01*
X82978203Y-80684546D01*
X82976858Y-80685753D01*
X82976019Y-80687944D01*
X82954192Y-80720610D01*
X82940900Y-80787434D01*
X82940900Y-81262565D01*
X82947755Y-81297024D01*
X82954135Y-81329100D01*
X82954193Y-81329389D01*
X82954192Y-81329389D01*
X82963700Y-81343618D01*
X83004828Y-81405172D01*
X83080610Y-81455807D01*
X83147438Y-81469100D01*
X83481752Y-81469100D01*
X83508656Y-81476999D01*
X83536051Y-81482959D01*
X83540632Y-81486388D01*
X83543007Y-81487086D01*
X83561867Y-81502285D01*
X83712715Y-81653133D01*
X83743311Y-81709164D01*
X83745900Y-81733248D01*
X83745900Y-82068327D01*
X83768327Y-82152029D01*
X83784186Y-82179496D01*
X83811654Y-82227072D01*
X83811655Y-82227073D01*
X83912715Y-82328133D01*
X83926151Y-82352739D01*
X83941311Y-82376328D01*
X83942125Y-82381992D01*
X83943311Y-82384164D01*
X83945900Y-82408248D01*
X83945900Y-82427167D01*
X83927914Y-82488422D01*
X83879667Y-82530228D01*
X83816476Y-82539314D01*
X83803277Y-82536607D01*
X83791252Y-82533385D01*
X83744657Y-82520900D01*
X83605343Y-82520900D01*
X83470777Y-82556956D01*
X83470771Y-82556958D01*
X83350124Y-82626614D01*
X83251614Y-82725124D01*
X83181958Y-82845771D01*
X83181956Y-82845777D01*
X83145900Y-82980342D01*
X83145900Y-83119657D01*
X83156490Y-83159180D01*
X83154971Y-83223003D01*
X83119188Y-83275872D01*
X83060502Y-83301003D01*
X82997545Y-83290416D01*
X82966936Y-83268619D01*
X82777067Y-83078750D01*
X82746471Y-83022719D01*
X82751026Y-82959041D01*
X82789284Y-82907934D01*
X82800520Y-82900521D01*
X82853090Y-82870171D01*
X82951601Y-82771660D01*
X83021258Y-82651010D01*
X83057315Y-82516442D01*
X83057315Y-82377128D01*
X83021258Y-82242560D01*
X83012221Y-82226908D01*
X82968990Y-82152029D01*
X82951601Y-82121910D01*
X82853090Y-82023399D01*
X82809709Y-81998353D01*
X82732443Y-81953743D01*
X82732437Y-81953741D01*
X82597872Y-81917685D01*
X82481006Y-81917685D01*
X82424357Y-81902506D01*
X82408458Y-81893327D01*
X82324757Y-81870900D01*
X82183247Y-81870900D01*
X82156343Y-81863000D01*
X82128948Y-81857041D01*
X82124366Y-81853611D01*
X82121992Y-81852914D01*
X82103137Y-81837719D01*
X81992463Y-81727045D01*
X81961869Y-81671015D01*
X81959280Y-81646932D01*
X81959280Y-81582400D01*
X81977266Y-81521145D01*
X82025513Y-81479339D01*
X82072580Y-81469100D01*
X82432559Y-81469100D01*
X82432562Y-81469100D01*
X82499390Y-81455807D01*
X82575172Y-81405172D01*
X82625807Y-81329390D01*
X82639100Y-81262562D01*
X82639100Y-80787438D01*
X82625807Y-80720610D01*
X82603980Y-80687944D01*
X82601206Y-80679084D01*
X82595126Y-80672067D01*
X82591828Y-80649133D01*
X82584905Y-80627022D01*
X82587361Y-80618067D01*
X82586040Y-80608876D01*
X82595665Y-80587800D01*
X82601795Y-80565456D01*
X82603972Y-80562068D01*
X82625807Y-80529390D01*
X82639100Y-80462562D01*
X82639100Y-79987438D01*
X82625807Y-79920610D01*
X82618955Y-79910355D01*
X82616180Y-79901495D01*
X82610099Y-79894477D01*
X82606801Y-79871543D01*
X82599878Y-79849434D01*
X82602334Y-79840478D01*
X82601013Y-79831286D01*
X82610637Y-79810210D01*
X82616767Y-79787868D01*
X82618956Y-79784462D01*
X82649261Y-79739108D01*
X82649263Y-79739104D01*
X82663999Y-79665020D01*
X82664000Y-79665012D01*
X82664000Y-79615500D01*
X81471848Y-79615500D01*
X81410593Y-79597514D01*
X81391733Y-79582315D01*
X80806933Y-78997515D01*
X80776337Y-78941484D01*
X80780892Y-78877806D01*
X80819150Y-78826699D01*
X80878965Y-78804389D01*
X80887048Y-78804100D01*
X81316288Y-78804100D01*
X81377543Y-78822086D01*
X81419349Y-78870333D01*
X81422938Y-78879154D01*
X81425772Y-78887058D01*
X81434193Y-78929390D01*
X81448785Y-78951229D01*
X81453488Y-78964343D01*
X81454577Y-78982866D01*
X81460120Y-79000570D01*
X81456412Y-79014082D01*
X81457235Y-79028073D01*
X81448136Y-79044244D01*
X81443228Y-79062136D01*
X81441045Y-79065534D01*
X81410737Y-79110893D01*
X81410736Y-79110895D01*
X81396000Y-79184979D01*
X81396000Y-79234500D01*
X82663999Y-79234500D01*
X82663999Y-79184982D01*
X82649263Y-79110897D01*
X82649260Y-79110891D01*
X82618955Y-79065534D01*
X82616180Y-79056673D01*
X82610100Y-79049656D01*
X82606802Y-79026721D01*
X82599879Y-79004610D01*
X82602335Y-78995656D01*
X82601014Y-78986465D01*
X82610639Y-78965387D01*
X82616770Y-78943044D01*
X82618932Y-78939679D01*
X82625807Y-78929390D01*
X82639100Y-78862562D01*
X82639100Y-78387438D01*
X82625807Y-78320610D01*
X82575172Y-78244828D01*
X82499390Y-78194193D01*
X82499389Y-78194192D01*
X82432565Y-78180900D01*
X82432562Y-78180900D01*
X82059164Y-78180900D01*
X82014783Y-78169006D01*
X82013888Y-78171168D01*
X82007032Y-78168328D01*
X81923327Y-78145900D01*
X71553328Y-78145900D01*
X71466673Y-78145900D01*
X71382970Y-78168327D01*
X71338171Y-78194193D01*
X71307928Y-78211654D01*
X71307927Y-78211655D01*
X71307926Y-78211655D01*
X70021655Y-79497926D01*
X70021655Y-79497927D01*
X70021654Y-79497928D01*
X70011730Y-79515115D01*
X69978325Y-79572973D01*
X69977049Y-79576056D01*
X69975274Y-79578257D01*
X69974613Y-79579404D01*
X69974434Y-79579300D01*
X69936992Y-79625766D01*
X69876419Y-79645928D01*
X69872373Y-79646000D01*
X69840500Y-79646000D01*
X69840500Y-81353999D01*
X69875017Y-81353999D01*
X69949106Y-81339262D01*
X69959418Y-81334992D01*
X69959969Y-81336324D01*
X70008714Y-81321056D01*
X70032850Y-81323214D01*
X70062438Y-81329100D01*
X70062441Y-81329100D01*
X70507559Y-81329100D01*
X70507562Y-81329100D01*
X70574390Y-81315807D01*
X70574390Y-81315806D01*
X70580396Y-81314612D01*
X70624604Y-81314612D01*
X70630609Y-81315806D01*
X70630610Y-81315807D01*
X70697438Y-81329100D01*
X70697441Y-81329100D01*
X71142559Y-81329100D01*
X71142562Y-81329100D01*
X71209390Y-81315807D01*
X71209390Y-81315806D01*
X71215396Y-81314612D01*
X71259604Y-81314612D01*
X71265609Y-81315806D01*
X71265610Y-81315807D01*
X71332438Y-81329100D01*
X71332441Y-81329100D01*
X71777559Y-81329100D01*
X71777562Y-81329100D01*
X71844390Y-81315807D01*
X71844390Y-81315806D01*
X71850396Y-81314612D01*
X71894604Y-81314612D01*
X71900609Y-81315806D01*
X71900610Y-81315807D01*
X71967438Y-81329100D01*
X71967441Y-81329100D01*
X72412559Y-81329100D01*
X72412562Y-81329100D01*
X72479390Y-81315807D01*
X72555172Y-81265172D01*
X72605807Y-81189390D01*
X72619100Y-81122562D01*
X72619100Y-80583248D01*
X72637086Y-80521993D01*
X72652285Y-80503133D01*
X73516133Y-79639285D01*
X73572164Y-79608689D01*
X73596248Y-79606100D01*
X79793752Y-79606100D01*
X79855007Y-79624086D01*
X79873867Y-79639285D01*
X80666895Y-80432312D01*
X80697491Y-80488343D01*
X80700080Y-80512427D01*
X80700080Y-81839607D01*
X80722507Y-81923309D01*
X80733488Y-81942327D01*
X80765834Y-81998352D01*
X81587979Y-82820497D01*
X82407969Y-83640486D01*
X82438565Y-83696517D01*
X82441154Y-83720601D01*
X82441154Y-84513581D01*
X82463581Y-84597284D01*
X82471472Y-84610951D01*
X82486523Y-84672992D01*
X82465642Y-84733321D01*
X82415460Y-84772784D01*
X82373351Y-84780900D01*
X81897434Y-84780900D01*
X81830610Y-84794192D01*
X81754829Y-84844827D01*
X81754828Y-84844828D01*
X81741345Y-84865007D01*
X81699399Y-84927784D01*
X81698422Y-84931672D01*
X81685890Y-84945847D01*
X81678276Y-84956854D01*
X81673523Y-84961310D01*
X81672928Y-84961654D01*
X81669488Y-84965093D01*
X81668157Y-84966342D01*
X81641217Y-84979945D01*
X81614736Y-84994403D01*
X81612854Y-84994268D01*
X81611170Y-84995119D01*
X81581156Y-84991999D01*
X81551059Y-84989845D01*
X81549548Y-84988714D01*
X81547672Y-84988519D01*
X81524109Y-84969668D01*
X81499954Y-84951583D01*
X81498751Y-84949380D01*
X81497822Y-84948637D01*
X81496979Y-84946135D01*
X81484503Y-84923285D01*
X81459396Y-84855970D01*
X81459395Y-84855969D01*
X81372547Y-84739953D01*
X81372546Y-84739952D01*
X81256530Y-84653104D01*
X81256524Y-84653101D01*
X81120736Y-84602453D01*
X81060708Y-84596000D01*
X80865500Y-84596000D01*
X80865500Y-86522151D01*
X80847514Y-86583406D01*
X80832315Y-86602266D01*
X79721867Y-87712715D01*
X79665836Y-87743311D01*
X79641752Y-87745900D01*
X73183248Y-87745900D01*
X73121993Y-87727914D01*
X73103133Y-87712715D01*
X72852073Y-87461655D01*
X72852072Y-87461654D01*
X72811698Y-87438344D01*
X72777029Y-87418327D01*
X72693327Y-87395900D01*
X71433248Y-87395900D01*
X71371993Y-87377914D01*
X71353133Y-87362715D01*
X70712933Y-86722515D01*
X70682337Y-86666484D01*
X70686892Y-86602806D01*
X70725150Y-86551699D01*
X70784965Y-86529389D01*
X70793048Y-86529100D01*
X71142559Y-86529100D01*
X71142562Y-86529100D01*
X71209390Y-86515807D01*
X71209390Y-86515806D01*
X71215396Y-86514612D01*
X71259604Y-86514612D01*
X71265609Y-86515806D01*
X71265610Y-86515807D01*
X71332438Y-86529100D01*
X71332441Y-86529100D01*
X71777559Y-86529100D01*
X71777562Y-86529100D01*
X71844390Y-86515807D01*
X71844390Y-86515806D01*
X71850396Y-86514612D01*
X71894604Y-86514612D01*
X71900609Y-86515806D01*
X71900610Y-86515807D01*
X71967438Y-86529100D01*
X71967441Y-86529100D01*
X72412559Y-86529100D01*
X72412562Y-86529100D01*
X72479390Y-86515807D01*
X72555172Y-86465172D01*
X72605807Y-86389390D01*
X72619100Y-86322562D01*
X72619100Y-85077438D01*
X72605807Y-85010610D01*
X72555172Y-84934828D01*
X72492806Y-84893157D01*
X72479389Y-84884192D01*
X72412565Y-84870900D01*
X72412562Y-84870900D01*
X71967438Y-84870900D01*
X71967431Y-84870900D01*
X71894603Y-84885387D01*
X71878460Y-84883967D01*
X71862743Y-84887143D01*
X71850397Y-84885387D01*
X71777568Y-84870900D01*
X71777562Y-84870900D01*
X71725914Y-84870900D01*
X71664659Y-84852914D01*
X71622853Y-84804667D01*
X71613767Y-84741476D01*
X71621238Y-84714242D01*
X71625403Y-84704187D01*
X71628579Y-84696519D01*
X71628579Y-84696516D01*
X71630193Y-84691198D01*
X71632206Y-84691808D01*
X71636254Y-84684067D01*
X71640365Y-84666433D01*
X71650741Y-84656360D01*
X71657443Y-84643542D01*
X71673179Y-84634577D01*
X71686171Y-84621965D01*
X71700345Y-84619100D01*
X71712914Y-84611941D01*
X71738990Y-84608900D01*
X74030318Y-84608900D01*
X74091573Y-84626886D01*
X74133379Y-84675133D01*
X74142465Y-84738324D01*
X74121019Y-84790098D01*
X74062680Y-84868028D01*
X74018903Y-84985401D01*
X74014535Y-84997113D01*
X74008400Y-85054174D01*
X74008400Y-86095826D01*
X74014535Y-86152887D01*
X74062680Y-86281969D01*
X74062681Y-86281971D01*
X74062680Y-86281971D01*
X74145240Y-86392258D01*
X74145241Y-86392259D01*
X74255528Y-86474819D01*
X74255531Y-86474820D01*
X74384613Y-86522965D01*
X74441674Y-86529100D01*
X74441677Y-86529100D01*
X75208321Y-86529100D01*
X75208326Y-86529100D01*
X75249559Y-86524666D01*
X75312382Y-86536000D01*
X75341784Y-86557202D01*
X76161654Y-87377072D01*
X76222928Y-87438346D01*
X76297972Y-87481673D01*
X76381673Y-87504100D01*
X78018327Y-87504100D01*
X78102028Y-87481673D01*
X78177072Y-87438346D01*
X78269158Y-87346258D01*
X78325187Y-87315664D01*
X78378594Y-87316934D01*
X78423994Y-87329100D01*
X78423995Y-87329100D01*
X78563307Y-87329100D01*
X78563308Y-87329100D01*
X78697876Y-87293043D01*
X78818526Y-87223386D01*
X78917037Y-87124875D01*
X78986694Y-87004225D01*
X79022751Y-86869657D01*
X79022751Y-86831004D01*
X79040737Y-86769749D01*
X79088984Y-86727943D01*
X79152175Y-86718857D01*
X79165375Y-86721565D01*
X79168920Y-86722514D01*
X79168922Y-86722516D01*
X79304711Y-86758900D01*
X79445288Y-86758900D01*
X79445289Y-86758900D01*
X79581078Y-86722516D01*
X79702823Y-86652226D01*
X79802226Y-86552823D01*
X79848835Y-86472093D01*
X79895039Y-86428040D01*
X79957726Y-86415958D01*
X80014853Y-86438044D01*
X80093469Y-86496895D01*
X80093475Y-86496898D01*
X80229263Y-86547546D01*
X80289292Y-86553999D01*
X80484499Y-86553999D01*
X80484500Y-86553998D01*
X80484500Y-85765500D01*
X79833500Y-85765500D01*
X79832138Y-85766862D01*
X79776106Y-85797457D01*
X79712428Y-85792902D01*
X79671909Y-85766861D01*
X79449785Y-85544737D01*
X79419189Y-85488706D01*
X79416600Y-85464622D01*
X79416600Y-85054183D01*
X79416600Y-85054177D01*
X79416600Y-85054174D01*
X79416344Y-85051792D01*
X79833500Y-85051792D01*
X79833500Y-85384500D01*
X80484500Y-85384500D01*
X80484500Y-84596000D01*
X80289289Y-84596000D01*
X80229273Y-84602451D01*
X80229264Y-84602453D01*
X80093474Y-84653101D01*
X80093469Y-84653104D01*
X79977453Y-84739952D01*
X79977452Y-84739953D01*
X79890604Y-84855969D01*
X79890601Y-84855975D01*
X79839953Y-84991763D01*
X79833500Y-85051792D01*
X79416344Y-85051792D01*
X79410465Y-84997113D01*
X79362320Y-84868031D01*
X79337141Y-84834395D01*
X79279757Y-84757738D01*
X79276496Y-84755297D01*
X79274055Y-84752036D01*
X79274030Y-84752011D01*
X79274033Y-84752007D01*
X79238241Y-84704187D01*
X79231100Y-84664600D01*
X79231100Y-82497043D01*
X79219411Y-82453418D01*
X79206833Y-82406475D01*
X79159951Y-82325274D01*
X79093651Y-82258974D01*
X77592063Y-80757386D01*
X77561467Y-80701355D01*
X77558878Y-80677271D01*
X77558878Y-80629045D01*
X77543566Y-80571901D01*
X77522821Y-80494478D01*
X77519789Y-80489227D01*
X77482750Y-80425073D01*
X77453164Y-80373828D01*
X77354653Y-80275317D01*
X77314338Y-80252041D01*
X77234006Y-80205661D01*
X77234000Y-80205659D01*
X77099435Y-80169603D01*
X76960121Y-80169603D01*
X76825555Y-80205659D01*
X76825549Y-80205661D01*
X76704902Y-80275317D01*
X76606392Y-80373827D01*
X76536736Y-80494474D01*
X76536734Y-80494480D01*
X76500678Y-80629045D01*
X76500678Y-80768360D01*
X76536734Y-80902925D01*
X76536736Y-80902931D01*
X76592664Y-80999800D01*
X76606392Y-81023578D01*
X76704903Y-81122089D01*
X76741481Y-81143207D01*
X76825549Y-81191744D01*
X76825550Y-81191744D01*
X76825553Y-81191746D01*
X76960121Y-81227803D01*
X77008346Y-81227803D01*
X77069601Y-81245789D01*
X77088461Y-81260988D01*
X78229223Y-82401750D01*
X78259819Y-82457781D01*
X78255264Y-82521459D01*
X78217006Y-82572566D01*
X78157191Y-82594876D01*
X78149108Y-82595165D01*
X78031078Y-82595165D01*
X77896512Y-82631221D01*
X77896506Y-82631223D01*
X77775859Y-82700879D01*
X77677349Y-82799389D01*
X77607693Y-82920036D01*
X77607691Y-82920042D01*
X77583072Y-83011924D01*
X77549846Y-83066436D01*
X77492422Y-83094331D01*
X77473633Y-83095900D01*
X71242400Y-83095900D01*
X71181145Y-83077914D01*
X71139339Y-83029667D01*
X71129100Y-82982600D01*
X71129100Y-82930342D01*
X71099125Y-82818474D01*
X71093043Y-82795775D01*
X71023386Y-82675125D01*
X70924875Y-82576614D01*
X70917864Y-82572566D01*
X70804228Y-82506958D01*
X70804222Y-82506956D01*
X70669657Y-82470900D01*
X70530343Y-82470900D01*
X70395777Y-82506956D01*
X70395771Y-82506958D01*
X70275124Y-82576614D01*
X70176614Y-82675124D01*
X70106958Y-82795771D01*
X70106956Y-82795776D01*
X70087465Y-82868519D01*
X70054238Y-82923031D01*
X69996814Y-82950925D01*
X69933425Y-82943346D01*
X69897911Y-82919309D01*
X69404285Y-82425683D01*
X69373689Y-82369652D01*
X69371100Y-82345568D01*
X69371100Y-81467298D01*
X69389086Y-81406043D01*
X69437333Y-81364237D01*
X69452579Y-81360920D01*
X69459500Y-81353999D01*
X69459500Y-79646000D01*
X69424981Y-79646000D01*
X69350899Y-79660735D01*
X69340586Y-79665007D01*
X69340034Y-79663676D01*
X69291258Y-79678943D01*
X69267146Y-79676784D01*
X69237568Y-79670900D01*
X69237562Y-79670900D01*
X68792438Y-79670900D01*
X68792431Y-79670900D01*
X68719603Y-79685387D01*
X68675397Y-79685387D01*
X68602568Y-79670900D01*
X68602562Y-79670900D01*
X68157438Y-79670900D01*
X68157431Y-79670900D01*
X68084603Y-79685387D01*
X68040397Y-79685387D01*
X67967568Y-79670900D01*
X67967562Y-79670900D01*
X67522438Y-79670900D01*
X67522431Y-79670900D01*
X67449603Y-79685387D01*
X67405397Y-79685387D01*
X67332568Y-79670900D01*
X67332562Y-79670900D01*
X66887438Y-79670900D01*
X66887431Y-79670900D01*
X66814603Y-79685387D01*
X66770397Y-79685387D01*
X66697568Y-79670900D01*
X66697562Y-79670900D01*
X66252438Y-79670900D01*
X66252434Y-79670900D01*
X66185610Y-79684192D01*
X66109828Y-79734828D01*
X66059192Y-79810610D01*
X66045900Y-79877434D01*
X66045355Y-79882975D01*
X66043471Y-79882789D01*
X66027914Y-79935775D01*
X65979667Y-79977581D01*
X65932600Y-79987820D01*
X65788423Y-79987820D01*
X65653857Y-80023876D01*
X65653851Y-80023878D01*
X65533204Y-80093534D01*
X65434692Y-80192046D01*
X65372253Y-80300193D01*
X65326049Y-80344248D01*
X65263362Y-80356329D01*
X65204095Y-80332601D01*
X65194018Y-80323657D01*
X63407016Y-78536655D01*
X63407015Y-78536654D01*
X63360709Y-78509919D01*
X63331972Y-78493327D01*
X63248270Y-78470900D01*
X62584491Y-78470900D01*
X62523236Y-78452914D01*
X62481430Y-78404667D01*
X62472344Y-78341476D01*
X62498865Y-78283404D01*
X62504376Y-78277485D01*
X62556986Y-78224875D01*
X62626643Y-78104225D01*
X62655033Y-77998268D01*
X62662358Y-77985581D01*
X62665032Y-77973295D01*
X62684352Y-77947486D01*
X62699558Y-77932280D01*
X62755589Y-77901688D01*
X62779669Y-77899100D01*
X83836952Y-77899100D01*
X83898207Y-77917086D01*
G37*
%TD.AperFunction*%
%TA.AperFunction,Conductor*%
G36*
X59737996Y-79761168D02*
G01*
X59768476Y-79803436D01*
X59816123Y-79918468D01*
X59893169Y-80033775D01*
X59991224Y-80131830D01*
X60111159Y-80211968D01*
X60110039Y-80213644D01*
X60149120Y-80252041D01*
X60163240Y-80314301D01*
X60141459Y-80374311D01*
X60116131Y-80396467D01*
X60117462Y-80398244D01*
X59994953Y-80489952D01*
X59994952Y-80489953D01*
X59908104Y-80605969D01*
X59908101Y-80605975D01*
X59857453Y-80741763D01*
X59851000Y-80801792D01*
X59851000Y-81204500D01*
X60609500Y-81204500D01*
X60609500Y-80390241D01*
X60602968Y-80379186D01*
X60603042Y-80377200D01*
X60602089Y-80375454D01*
X60599500Y-80351370D01*
X60599500Y-79835000D01*
X60980500Y-79835000D01*
X60980500Y-80244758D01*
X60987032Y-80255814D01*
X60987374Y-80258564D01*
X60987911Y-80259546D01*
X60987760Y-80261654D01*
X60990500Y-80283630D01*
X60990500Y-82443999D01*
X61200632Y-82443999D01*
X61261887Y-82461985D01*
X61303693Y-82510232D01*
X61312779Y-82573423D01*
X61286258Y-82631495D01*
X61280747Y-82637414D01*
X60700446Y-83217715D01*
X60644415Y-83248311D01*
X60620331Y-83250900D01*
X60309174Y-83250900D01*
X60252113Y-83257035D01*
X60123028Y-83305180D01*
X60012741Y-83387740D01*
X60012740Y-83387741D01*
X59930180Y-83498028D01*
X59885693Y-83617305D01*
X59882035Y-83627113D01*
X59875900Y-83684174D01*
X59875900Y-84865826D01*
X59882035Y-84922887D01*
X59930180Y-85051969D01*
X59930181Y-85051971D01*
X59930180Y-85051971D01*
X60012740Y-85162258D01*
X60012741Y-85162259D01*
X60123028Y-85244819D01*
X60123031Y-85244820D01*
X60248295Y-85291541D01*
X60299401Y-85329798D01*
X60321711Y-85389614D01*
X60308141Y-85451995D01*
X60262999Y-85497138D01*
X60239713Y-85505589D01*
X60239972Y-85506441D01*
X60234651Y-85508054D01*
X60106531Y-85561123D01*
X59991224Y-85638169D01*
X59893169Y-85736224D01*
X59816123Y-85851532D01*
X59816119Y-85851539D01*
X59768475Y-85966563D01*
X59728417Y-86016272D01*
X59667844Y-86036433D01*
X59605986Y-86020644D01*
X59562484Y-85973920D01*
X59550500Y-85923205D01*
X59550500Y-81988209D01*
X59851001Y-81988209D01*
X59857451Y-82048226D01*
X59857453Y-82048235D01*
X59908101Y-82184025D01*
X59908104Y-82184030D01*
X59994952Y-82300046D01*
X59994953Y-82300047D01*
X60110969Y-82386895D01*
X60110975Y-82386898D01*
X60246763Y-82437546D01*
X60306792Y-82443999D01*
X60609499Y-82443999D01*
X60609500Y-82443998D01*
X60609500Y-81585500D01*
X59851001Y-81585500D01*
X59851001Y-81988209D01*
X59550500Y-81988209D01*
X59550500Y-79846794D01*
X59568486Y-79785539D01*
X59616733Y-79743733D01*
X59679924Y-79734647D01*
X59737996Y-79761168D01*
G37*
%TD.AperFunction*%
%TA.AperFunction,Conductor*%
G36*
X64684358Y-80753645D02*
G01*
X64714968Y-80775442D01*
X64799314Y-80859788D01*
X64829910Y-80915819D01*
X64832499Y-80939903D01*
X64832499Y-81444204D01*
X64854926Y-81527906D01*
X64857933Y-81533114D01*
X64898253Y-81602949D01*
X65125023Y-81829719D01*
X65327715Y-82032410D01*
X65358311Y-82088441D01*
X65360900Y-82112525D01*
X65360900Y-82179657D01*
X65396956Y-82314222D01*
X65396958Y-82314228D01*
X65442640Y-82393351D01*
X65466614Y-82434875D01*
X65565125Y-82533386D01*
X65605953Y-82556958D01*
X65685771Y-82603041D01*
X65685772Y-82603041D01*
X65685775Y-82603043D01*
X65820343Y-82639100D01*
X65959656Y-82639100D01*
X65959657Y-82639100D01*
X66094225Y-82603043D01*
X66214875Y-82533386D01*
X66250975Y-82497286D01*
X66307006Y-82466690D01*
X66311586Y-82465792D01*
X66321262Y-82464101D01*
X66363618Y-82464101D01*
X66438156Y-82444128D01*
X66453678Y-82439969D01*
X66534423Y-82393351D01*
X66600351Y-82327423D01*
X66600351Y-82327421D01*
X66609674Y-82318099D01*
X66609678Y-82318094D01*
X67170085Y-81757687D01*
X67226116Y-81727091D01*
X67289794Y-81731646D01*
X67340901Y-81769904D01*
X67363211Y-81829719D01*
X67363500Y-81837802D01*
X67363500Y-82381297D01*
X67345514Y-82442552D01*
X67330315Y-82461412D01*
X64765860Y-85025866D01*
X64709829Y-85056462D01*
X64646151Y-85051907D01*
X64595044Y-85013649D01*
X64579590Y-84985347D01*
X64549820Y-84905531D01*
X64549819Y-84905529D01*
X64549819Y-84905528D01*
X64467259Y-84795241D01*
X64467258Y-84795240D01*
X64356971Y-84712680D01*
X64262607Y-84677485D01*
X64227887Y-84664535D01*
X64170826Y-84658400D01*
X63129174Y-84658400D01*
X63086378Y-84663001D01*
X63072112Y-84664535D01*
X63056991Y-84670175D01*
X63029024Y-84672174D01*
X63001276Y-84676164D01*
X62997477Y-84674429D01*
X62993313Y-84674727D01*
X62968706Y-84661289D01*
X62943204Y-84649643D01*
X62940946Y-84646130D01*
X62937283Y-84644130D01*
X62923849Y-84619527D01*
X62908689Y-84595937D01*
X62907874Y-84590268D01*
X62906689Y-84588098D01*
X62904100Y-84564017D01*
X62904100Y-84337558D01*
X62922086Y-84276303D01*
X62970333Y-84234497D01*
X63033524Y-84225411D01*
X63057000Y-84231404D01*
X63066764Y-84235046D01*
X63126792Y-84241499D01*
X63459499Y-84241499D01*
X63840500Y-84241499D01*
X64173210Y-84241499D01*
X64233226Y-84235048D01*
X64233235Y-84235046D01*
X64369025Y-84184398D01*
X64369030Y-84184395D01*
X64485046Y-84097547D01*
X64485047Y-84097546D01*
X64571895Y-83981530D01*
X64571898Y-83981524D01*
X64622546Y-83845736D01*
X64629000Y-83785707D01*
X64629000Y-83590500D01*
X63840500Y-83590500D01*
X63840500Y-84241499D01*
X63459499Y-84241499D01*
X63459500Y-84241498D01*
X63459500Y-83209500D01*
X63840500Y-83209500D01*
X64628999Y-83209500D01*
X64628999Y-83014290D01*
X64622548Y-82954273D01*
X64622546Y-82954264D01*
X64571898Y-82818474D01*
X64571895Y-82818469D01*
X64485047Y-82702453D01*
X64485046Y-82702452D01*
X64369030Y-82615604D01*
X64369024Y-82615601D01*
X64233236Y-82564953D01*
X64173208Y-82558500D01*
X63840500Y-82558500D01*
X63840500Y-83209500D01*
X63459500Y-83209500D01*
X63459500Y-82558500D01*
X63260668Y-82558500D01*
X63199413Y-82540514D01*
X63157607Y-82492267D01*
X63148521Y-82429076D01*
X63175042Y-82371004D01*
X63180525Y-82365114D01*
X63954670Y-81590970D01*
X64010701Y-81560374D01*
X64034785Y-81557785D01*
X64085838Y-81557785D01*
X64085839Y-81557785D01*
X64220407Y-81521728D01*
X64341057Y-81452071D01*
X64439568Y-81353560D01*
X64509225Y-81232910D01*
X64545282Y-81098342D01*
X64545282Y-80959028D01*
X64525414Y-80884879D01*
X64526933Y-80821059D01*
X64562716Y-80768189D01*
X64621402Y-80743058D01*
X64684358Y-80753645D01*
G37*
%TD.AperFunction*%
%TA.AperFunction,Conductor*%
G36*
X63082950Y-79147086D02*
G01*
X63101810Y-79162285D01*
X64269423Y-80329898D01*
X64300019Y-80385929D01*
X64295464Y-80449607D01*
X64257206Y-80500714D01*
X64197391Y-80523024D01*
X64159984Y-80519452D01*
X64133766Y-80512427D01*
X64085839Y-80499585D01*
X63946525Y-80499585D01*
X63811959Y-80535641D01*
X63811953Y-80535643D01*
X63691306Y-80605299D01*
X63592796Y-80703809D01*
X63523140Y-80824456D01*
X63523138Y-80824462D01*
X63487082Y-80959027D01*
X63487082Y-81010082D01*
X63469096Y-81071337D01*
X63453897Y-81090197D01*
X62646515Y-81897579D01*
X62590484Y-81928175D01*
X62526806Y-81923620D01*
X62475699Y-81885362D01*
X62453389Y-81825547D01*
X62453100Y-81817464D01*
X62453100Y-80658413D01*
X62468279Y-80601763D01*
X62533253Y-80489225D01*
X62569310Y-80354657D01*
X62569310Y-80215343D01*
X62566715Y-80205660D01*
X62554262Y-80159183D01*
X62533253Y-80080775D01*
X62463596Y-79960125D01*
X62365085Y-79861614D01*
X62244438Y-79791958D01*
X62244432Y-79791956D01*
X62109867Y-79755900D01*
X61970553Y-79755900D01*
X61958026Y-79759256D01*
X61904431Y-79773616D01*
X61873487Y-79772878D01*
X61873487Y-79775500D01*
X61303054Y-79775500D01*
X61351940Y-79726614D01*
X61390000Y-79634728D01*
X61390000Y-79535272D01*
X61351940Y-79443386D01*
X61303054Y-79394500D01*
X61819899Y-79394500D01*
X61819899Y-79394499D01*
X61816945Y-79379653D01*
X61778053Y-79285757D01*
X61771229Y-79222283D01*
X61799806Y-79165195D01*
X61854710Y-79132619D01*
X61882729Y-79129100D01*
X63021695Y-79129100D01*
X63082950Y-79147086D01*
G37*
%TD.AperFunction*%
%TA.AperFunction,Conductor*%
G36*
X97673551Y-79272086D02*
G01*
X97715357Y-79320333D01*
X97724443Y-79383524D01*
X97697922Y-79441596D01*
X97647308Y-79475155D01*
X97611206Y-79486884D01*
X97611205Y-79486885D01*
X97456378Y-79565774D01*
X97400661Y-79606254D01*
X97839772Y-80045365D01*
X97727993Y-80109901D01*
X97634901Y-80202993D01*
X97570365Y-80314772D01*
X97131254Y-79875661D01*
X97090774Y-79931378D01*
X97011885Y-80086205D01*
X97011884Y-80086207D01*
X96958183Y-80251483D01*
X96958182Y-80251486D01*
X96942869Y-80348169D01*
X96915522Y-80405855D01*
X96861328Y-80439599D01*
X96797494Y-80438687D01*
X96750849Y-80410559D01*
X95787805Y-79447515D01*
X95757209Y-79391484D01*
X95761764Y-79327806D01*
X95800022Y-79276699D01*
X95859837Y-79254389D01*
X95867920Y-79254100D01*
X97612296Y-79254100D01*
X97673551Y-79272086D01*
G37*
%TD.AperFunction*%
%TA.AperFunction,Conductor*%
G36*
X59737996Y-77769507D02*
G01*
X59743915Y-77775018D01*
X59760223Y-77791326D01*
X59760230Y-77791332D01*
X59879634Y-77871115D01*
X59879636Y-77871116D01*
X59879642Y-77871120D01*
X59996849Y-77919669D01*
X60012324Y-77926079D01*
X60012326Y-77926080D01*
X60012327Y-77926080D01*
X60012329Y-77926081D01*
X60153190Y-77954100D01*
X60153193Y-77954100D01*
X60296807Y-77954100D01*
X60296810Y-77954100D01*
X60397452Y-77934081D01*
X60461039Y-77939771D01*
X60499671Y-77965089D01*
X60993098Y-78458516D01*
X61222168Y-78687585D01*
X61252764Y-78743616D01*
X61248209Y-78807294D01*
X61209951Y-78858401D01*
X61150136Y-78880711D01*
X61142053Y-78881000D01*
X60980500Y-78881000D01*
X60980500Y-79335000D01*
X60599500Y-79335000D01*
X60599500Y-78881000D01*
X60370658Y-78881000D01*
X60234650Y-78908055D01*
X60106531Y-78961123D01*
X59991224Y-79038169D01*
X59893169Y-79136224D01*
X59816123Y-79251532D01*
X59816119Y-79251539D01*
X59768475Y-79366563D01*
X59728417Y-79416272D01*
X59667844Y-79436433D01*
X59605986Y-79420644D01*
X59562484Y-79373920D01*
X59550500Y-79323205D01*
X59550500Y-77855133D01*
X59568486Y-77793878D01*
X59616733Y-77752072D01*
X59679924Y-77742986D01*
X59737996Y-77769507D01*
G37*
%TD.AperFunction*%
%TA.AperFunction,Conductor*%
G36*
X90231099Y-74418486D02*
G01*
X90272905Y-74466733D01*
X90274357Y-74474950D01*
X90724772Y-74925365D01*
X90612993Y-74989901D01*
X90519901Y-75082993D01*
X90455365Y-75194772D01*
X90016254Y-74755661D01*
X89975774Y-74811378D01*
X89896885Y-74966205D01*
X89896884Y-74966207D01*
X89843183Y-75131483D01*
X89843181Y-75131489D01*
X89816000Y-75303114D01*
X89816000Y-75476885D01*
X89843181Y-75648510D01*
X89843183Y-75648516D01*
X89896884Y-75813792D01*
X89896885Y-75813794D01*
X89975774Y-75968621D01*
X90021824Y-76032004D01*
X90043277Y-76092132D01*
X90028818Y-76154313D01*
X89983035Y-76198806D01*
X89930162Y-76211900D01*
X89339060Y-76211900D01*
X89277805Y-76193914D01*
X89235999Y-76145667D01*
X89226913Y-76082476D01*
X89247398Y-76032005D01*
X89257809Y-76017673D01*
X89302929Y-75955572D01*
X89380041Y-75804231D01*
X89432529Y-75642690D01*
X89459100Y-75474927D01*
X89459100Y-75305073D01*
X89451257Y-75255555D01*
X89432531Y-75137320D01*
X89432530Y-75137317D01*
X89432529Y-75137310D01*
X89380041Y-74975769D01*
X89302929Y-74824428D01*
X89203092Y-74687013D01*
X89109994Y-74593915D01*
X89079398Y-74537884D01*
X89083953Y-74474206D01*
X89122211Y-74423099D01*
X89182026Y-74400789D01*
X89190109Y-74400500D01*
X90169844Y-74400500D01*
X90231099Y-74418486D01*
G37*
%TD.AperFunction*%
%TA.AperFunction,Conductor*%
G36*
X92711146Y-74418486D02*
G01*
X92752952Y-74466733D01*
X92762038Y-74529924D01*
X92735517Y-74587996D01*
X92730006Y-74593915D01*
X92636914Y-74687006D01*
X92636907Y-74687014D01*
X92537069Y-74824431D01*
X92459961Y-74975764D01*
X92459960Y-74975765D01*
X92434922Y-75052825D01*
X92409363Y-75131489D01*
X92407470Y-75137314D01*
X92407468Y-75137320D01*
X92380900Y-75305074D01*
X92380900Y-75474925D01*
X92407468Y-75642679D01*
X92407470Y-75642685D01*
X92407471Y-75642690D01*
X92412236Y-75657354D01*
X92459960Y-75804234D01*
X92459961Y-75804235D01*
X92463593Y-75811364D01*
X92537071Y-75955572D01*
X92546552Y-75968621D01*
X92592602Y-76032005D01*
X92614055Y-76092133D01*
X92599595Y-76154314D01*
X92553813Y-76198807D01*
X92500940Y-76211900D01*
X91909838Y-76211900D01*
X91848583Y-76193914D01*
X91806777Y-76145667D01*
X91797691Y-76082476D01*
X91818176Y-76032004D01*
X91864225Y-75968621D01*
X91943114Y-75813794D01*
X91943115Y-75813792D01*
X91996816Y-75648516D01*
X91996818Y-75648510D01*
X92024000Y-75476885D01*
X92024000Y-75303114D01*
X91996818Y-75131489D01*
X91996816Y-75131483D01*
X91943115Y-74966207D01*
X91943114Y-74966205D01*
X91864227Y-74811379D01*
X91823744Y-74755662D01*
X91823744Y-74755661D01*
X91384634Y-75194771D01*
X91320099Y-75082993D01*
X91227007Y-74989901D01*
X91115226Y-74925364D01*
X91567655Y-74472936D01*
X91570327Y-74460215D01*
X91615145Y-74414751D01*
X91670155Y-74400500D01*
X92649891Y-74400500D01*
X92711146Y-74418486D01*
G37*
%TD.AperFunction*%
%TD*%
M02*
