%TF.GenerationSoftware,KiCad,Pcbnew,9.0.1*%
%TF.CreationDate,2025-04-21T22:05:37-04:00*%
%TF.ProjectId,nano_original,6e616e6f-5f6f-4726-9967-696e616c2e6b,rev?*%
%TF.SameCoordinates,Original*%
%TF.FileFunction,Paste,Top*%
%TF.FilePolarity,Positive*%
%FSLAX46Y46*%
G04 Gerber Fmt 4.6, Leading zero omitted, Abs format (unit mm)*
G04 Created by KiCad (PCBNEW 9.0.1) date 2025-04-21 22:05:37*
%MOMM*%
%LPD*%
G01*
G04 APERTURE LIST*
G04 Aperture macros list*
%AMRoundRect*
0 Rectangle with rounded corners*
0 $1 Rounding radius*
0 $2 $3 $4 $5 $6 $7 $8 $9 X,Y pos of 4 corners*
0 Add a 4 corners polygon primitive as box body*
4,1,4,$2,$3,$4,$5,$6,$7,$8,$9,$2,$3,0*
0 Add four circle primitives for the rounded corners*
1,1,$1+$1,$2,$3*
1,1,$1+$1,$4,$5*
1,1,$1+$1,$6,$7*
1,1,$1+$1,$8,$9*
0 Add four rect primitives between the rounded corners*
20,1,$1+$1,$2,$3,$4,$5,0*
20,1,$1+$1,$4,$5,$6,$7,0*
20,1,$1+$1,$6,$7,$8,$9,0*
20,1,$1+$1,$8,$9,$2,$3,0*%
%AMRotRect*
0 Rectangle, with rotation*
0 The origin of the aperture is its center*
0 $1 length*
0 $2 width*
0 $3 Rotation angle, in degrees counterclockwise*
0 Add horizontal line*
21,1,$1,$2,0,0,$3*%
G04 Aperture macros list end*
%ADD10RotRect,0.400000X1.900000X315.000000*%
%ADD11R,1.700000X0.900000*%
%ADD12RoundRect,0.250000X-0.325000X-0.450000X0.325000X-0.450000X0.325000X0.450000X-0.325000X0.450000X0*%
%ADD13RoundRect,0.250000X0.325000X0.450000X-0.325000X0.450000X-0.325000X-0.450000X0.325000X-0.450000X0*%
%ADD14RoundRect,0.100000X-0.575000X0.100000X-0.575000X-0.100000X0.575000X-0.100000X0.575000X0.100000X0*%
%ADD15O,1.600000X0.900000*%
%ADD16RoundRect,0.250000X-0.450000X0.550000X-0.450000X-0.550000X0.450000X-0.550000X0.450000X0.550000X0*%
%ADD17RoundRect,0.250000X-0.700000X0.700000X-0.700000X-0.700000X0.700000X-0.700000X0.700000X0.700000X0*%
%ADD18RoundRect,0.207500X0.000000X0.293449X-0.293449X0.000000X0.000000X-0.293449X0.293449X0.000000X0*%
%ADD19RoundRect,0.062500X0.220971X0.309359X-0.309359X-0.220971X-0.220971X-0.309359X0.309359X0.220971X0*%
%ADD20RoundRect,0.062500X-0.220971X0.309359X-0.309359X0.220971X0.220971X-0.309359X0.309359X-0.220971X0*%
G04 APERTURE END LIST*
D10*
%TO.C,Y1*%
X78575000Y-78400000D03*
X79423528Y-79248528D03*
X80272056Y-80097056D03*
%TD*%
D11*
%TO.C,SW1*%
X84125000Y-81425000D03*
X84125000Y-84825000D03*
%TD*%
D12*
%TO.C,D4*%
X87275000Y-78550000D03*
X89325000Y-78550000D03*
%TD*%
D13*
%TO.C,D1*%
X89275000Y-85000000D03*
X87225000Y-85000000D03*
%TD*%
%TO.C,D5*%
X89275000Y-87625000D03*
X87225000Y-87625000D03*
%TD*%
D12*
%TO.C,D3*%
X87300000Y-81500000D03*
X89350000Y-81500000D03*
%TD*%
D14*
%TO.C,J1*%
X63465000Y-81585000D03*
X63465000Y-82235000D03*
X63465000Y-82885000D03*
X63465000Y-83535000D03*
X63465000Y-84185000D03*
D15*
X60790000Y-79585000D03*
D16*
X63240000Y-79685000D03*
D17*
X60790000Y-81685000D03*
X60790000Y-84085000D03*
D16*
X63240000Y-86085000D03*
D15*
X60790000Y-86185000D03*
%TD*%
D18*
%TO.C,U3*%
X76120640Y-83060800D03*
X75392320Y-82332480D03*
X74664000Y-81604160D03*
X75392320Y-83789120D03*
X74664000Y-83060800D03*
X73935680Y-82332480D03*
X74664000Y-84517440D03*
X73935680Y-83789120D03*
X73207360Y-83060800D03*
D19*
X77625010Y-82574664D03*
X77271456Y-82221111D03*
X76917903Y-81867557D03*
X76564349Y-81514004D03*
X76210796Y-81160451D03*
X75857243Y-80806897D03*
X75503689Y-80453344D03*
X75150136Y-80099790D03*
D20*
X74177864Y-80099790D03*
X73824311Y-80453344D03*
X73470757Y-80806897D03*
X73117204Y-81160451D03*
X72763651Y-81514004D03*
X72410097Y-81867557D03*
X72056544Y-82221111D03*
X71702990Y-82574664D03*
D19*
X71702990Y-83546936D03*
X72056544Y-83900489D03*
X72410097Y-84254043D03*
X72763651Y-84607596D03*
X73117204Y-84961149D03*
X73470757Y-85314703D03*
X73824311Y-85668256D03*
X74177864Y-86021810D03*
D20*
X75150136Y-86021810D03*
X75503689Y-85668256D03*
X75857243Y-85314703D03*
X76210796Y-84961149D03*
X76564349Y-84607596D03*
X76917903Y-84254043D03*
X77271456Y-83900489D03*
X77625010Y-83546936D03*
%TD*%
M02*
