%TF.GenerationSoftware,KiCad,Pcbnew,9.0.1*%
%TF.CreationDate,2025-04-21T22:05:37-04:00*%
%TF.ProjectId,nano_original,6e616e6f-5f6f-4726-9967-696e616c2e6b,rev?*%
%TF.SameCoordinates,Original*%
%TF.FileFunction,Copper,L1,Top*%
%TF.FilePolarity,Positive*%
%FSLAX46Y46*%
G04 Gerber Fmt 4.6, Leading zero omitted, Abs format (unit mm)*
G04 Created by KiCad (PCBNEW 9.0.1) date 2025-04-21 22:05:37*
%MOMM*%
%LPD*%
G01*
G04 APERTURE LIST*
G04 Aperture macros list*
%AMRoundRect*
0 Rectangle with rounded corners*
0 $1 Rounding radius*
0 $2 $3 $4 $5 $6 $7 $8 $9 X,Y pos of 4 corners*
0 Add a 4 corners polygon primitive as box body*
4,1,4,$2,$3,$4,$5,$6,$7,$8,$9,$2,$3,0*
0 Add four circle primitives for the rounded corners*
1,1,$1+$1,$2,$3*
1,1,$1+$1,$4,$5*
1,1,$1+$1,$6,$7*
1,1,$1+$1,$8,$9*
0 Add four rect primitives between the rounded corners*
20,1,$1+$1,$2,$3,$4,$5,0*
20,1,$1+$1,$4,$5,$6,$7,0*
20,1,$1+$1,$6,$7,$8,$9,0*
20,1,$1+$1,$8,$9,$2,$3,0*%
%AMRotRect*
0 Rectangle, with rotation*
0 The origin of the aperture is its center*
0 $1 length*
0 $2 width*
0 $3 Rotation angle, in degrees counterclockwise*
0 Add horizontal line*
21,1,$1,$2,0,0,$3*%
G04 Aperture macros list end*
%TA.AperFunction,SMDPad,CuDef*%
%ADD10RotRect,0.400000X1.900000X315.000000*%
%TD*%
%TA.AperFunction,ComponentPad*%
%ADD11C,1.700000*%
%TD*%
%TA.AperFunction,ComponentPad*%
%ADD12R,1.700000X1.700000*%
%TD*%
%TA.AperFunction,SMDPad,CuDef*%
%ADD13R,1.700000X0.900000*%
%TD*%
%TA.AperFunction,SMDPad,CuDef*%
%ADD14RoundRect,0.250000X-0.325000X-0.450000X0.325000X-0.450000X0.325000X0.450000X-0.325000X0.450000X0*%
%TD*%
%TA.AperFunction,SMDPad,CuDef*%
%ADD15RoundRect,0.250000X0.325000X0.450000X-0.325000X0.450000X-0.325000X-0.450000X0.325000X-0.450000X0*%
%TD*%
%TA.AperFunction,SMDPad,CuDef*%
%ADD16C,1.000000*%
%TD*%
%TA.AperFunction,SMDPad,CuDef*%
%ADD17RoundRect,0.100000X-0.575000X0.100000X-0.575000X-0.100000X0.575000X-0.100000X0.575000X0.100000X0*%
%TD*%
%TA.AperFunction,HeatsinkPad*%
%ADD18O,1.600000X0.900000*%
%TD*%
%TA.AperFunction,SMDPad,CuDef*%
%ADD19RoundRect,0.250000X-0.450000X0.550000X-0.450000X-0.550000X0.450000X-0.550000X0.450000X0.550000X0*%
%TD*%
%TA.AperFunction,SMDPad,CuDef*%
%ADD20RoundRect,0.250000X-0.700000X0.700000X-0.700000X-0.700000X0.700000X-0.700000X0.700000X0.700000X0*%
%TD*%
%TA.AperFunction,SMDPad,CuDef*%
%ADD21RoundRect,0.062500X0.220971X0.309359X-0.309359X-0.220971X-0.220971X-0.309359X0.309359X0.220971X0*%
%TD*%
%TA.AperFunction,SMDPad,CuDef*%
%ADD22RoundRect,0.062500X-0.220971X0.309359X-0.309359X0.220971X0.220971X-0.309359X0.309359X-0.220971X0*%
%TD*%
%TA.AperFunction,HeatsinkPad*%
%ADD23RotRect,3.100000X3.100000X225.000000*%
%TD*%
%TA.AperFunction,ViaPad*%
%ADD24C,0.812800*%
%TD*%
%TA.AperFunction,ViaPad*%
%ADD25C,0.800000*%
%TD*%
%TA.AperFunction,ViaPad*%
%ADD26C,0.600000*%
%TD*%
%TA.AperFunction,ViaPad*%
%ADD27C,0.906400*%
%TD*%
%TA.AperFunction,Conductor*%
%ADD28C,0.200000*%
%TD*%
%TA.AperFunction,Conductor*%
%ADD29C,0.250000*%
%TD*%
%TA.AperFunction,Conductor*%
%ADD30C,0.254000*%
%TD*%
%TA.AperFunction,Conductor*%
%ADD31C,0.600000*%
%TD*%
%TA.AperFunction,Conductor*%
%ADD32C,0.609600*%
%TD*%
%TA.AperFunction,Conductor*%
%ADD33C,0.400000*%
%TD*%
G04 APERTURE END LIST*
D10*
%TO.P,Y1,1,1*%
%TO.N,Net-(U3-XTAL2{slash}PB7)*%
X78575000Y-78400000D03*
%TO.P,Y1,2,2*%
%TO.N,GND*%
X79423528Y-79248528D03*
%TO.P,Y1,3,3*%
%TO.N,Net-(U3-XTAL1{slash}PB6)*%
X80272056Y-80097056D03*
%TD*%
D11*
%TO.P,J2,15,Pin_15*%
%TO.N,/D12{slash}MISO*%
X62980000Y-75390000D03*
%TO.P,J2,14,Pin_14*%
%TO.N,/D11{slash}MOSI*%
X65520000Y-75390000D03*
%TO.P,J2,13,Pin_13*%
%TO.N,/D10*%
X68060000Y-75390000D03*
%TO.P,J2,12,Pin_12*%
%TO.N,/D9*%
X70600000Y-75390000D03*
%TO.P,J2,11,Pin_11*%
%TO.N,/D8*%
X73140000Y-75390000D03*
%TO.P,J2,10,Pin_10*%
%TO.N,/D7*%
X75680000Y-75390000D03*
%TO.P,J2,9,Pin_9*%
%TO.N,/D6*%
X78220000Y-75390000D03*
%TO.P,J2,8,Pin_8*%
%TO.N,/D5*%
X80760000Y-75390000D03*
%TO.P,J2,7,Pin_7*%
%TO.N,/D4*%
X83300000Y-75390000D03*
%TO.P,J2,6,Pin_6*%
%TO.N,/D3*%
X85840000Y-75390000D03*
%TO.P,J2,5,Pin_5*%
%TO.N,/D2*%
X88380000Y-75390000D03*
%TO.P,J2,4,Pin_4*%
%TO.N,GND*%
X90920000Y-75390000D03*
%TO.P,J2,3,Pin_3*%
%TO.N,/RESET*%
X93460000Y-75390000D03*
%TO.P,J2,2,Pin_2*%
%TO.N,/D0{slash}RX*%
X96000000Y-75390000D03*
D12*
%TO.P,J2,1,Pin_1*%
%TO.N,/D1{slash}TX*%
X98540000Y-75390000D03*
%TD*%
%TO.P,J3,1,Pin_1*%
%TO.N,VIN*%
X98540000Y-90630000D03*
D11*
%TO.P,J3,2,Pin_2*%
%TO.N,GND*%
X96000000Y-90630000D03*
%TO.P,J3,3,Pin_3*%
%TO.N,/RESET*%
X93460000Y-90630000D03*
%TO.P,J3,4,Pin_4*%
%TO.N,+5V*%
X90920000Y-90630000D03*
%TO.P,J3,5,Pin_5*%
%TO.N,/A7*%
X88380000Y-90630000D03*
%TO.P,J3,6,Pin_6*%
%TO.N,/A6*%
X85840000Y-90630000D03*
%TO.P,J3,7,Pin_7*%
%TO.N,/A5*%
X83300000Y-90630000D03*
%TO.P,J3,8,Pin_8*%
%TO.N,/A4*%
X80760000Y-90630000D03*
%TO.P,J3,9,Pin_9*%
%TO.N,/A3*%
X78220000Y-90630000D03*
%TO.P,J3,10,Pin_10*%
%TO.N,/A2*%
X75680000Y-90630000D03*
%TO.P,J3,11,Pin_11*%
%TO.N,/A1*%
X73140000Y-90630000D03*
%TO.P,J3,12,Pin_12*%
%TO.N,/A0*%
X70600000Y-90630000D03*
%TO.P,J3,13,Pin_13*%
%TO.N,/AREF*%
X68060000Y-90630000D03*
%TO.P,J3,14,Pin_14*%
%TO.N,+3.3V*%
X65520000Y-90630000D03*
%TO.P,J3,15,Pin_15*%
%TO.N,/D13{slash}SCK*%
X62980000Y-90630000D03*
%TD*%
D13*
%TO.P,SW1,1,1*%
%TO.N,GND*%
X84125000Y-81425000D03*
%TO.P,SW1,2,2*%
%TO.N,/RESET*%
X84125000Y-84825000D03*
%TD*%
D14*
%TO.P,D4,1,K*%
%TO.N,Net-(D4-K)*%
X87275000Y-78550000D03*
%TO.P,D4,2,A*%
%TO.N,+5V*%
X89325000Y-78550000D03*
%TD*%
D15*
%TO.P,D1,1,K*%
%TO.N,GND*%
X89275000Y-85000000D03*
%TO.P,D1,2,A*%
%TO.N,Net-(D1-A)*%
X87225000Y-85000000D03*
%TD*%
D12*
%TO.P,J4,1,Pin_1*%
%TO.N,/D12{slash}MISO*%
X100575000Y-85590000D03*
D11*
%TO.P,J4,2,Pin_2*%
%TO.N,+5V*%
X98035000Y-85590000D03*
%TO.P,J4,3,Pin_3*%
%TO.N,/D13{slash}SCK*%
X100575000Y-83050000D03*
%TO.P,J4,4,Pin_4*%
%TO.N,/D11{slash}MOSI*%
X98035000Y-83050000D03*
%TO.P,J4,5,Pin_5*%
%TO.N,/RESET*%
X100575000Y-80510000D03*
%TO.P,J4,6,Pin_6*%
%TO.N,GND*%
X98035000Y-80510000D03*
%TD*%
D15*
%TO.P,D5,1,K*%
%TO.N,GND*%
X89275000Y-87625000D03*
%TO.P,D5,2,A*%
%TO.N,Net-(D5-A)*%
X87225000Y-87625000D03*
%TD*%
D14*
%TO.P,D3,1,K*%
%TO.N,Net-(D3-K)*%
X87300000Y-81500000D03*
%TO.P,D3,2,A*%
%TO.N,+5V*%
X89350000Y-81500000D03*
%TD*%
D16*
%TO.P,TP2,1,1*%
%TO.N,Net-(J1-D-)*%
X60225000Y-77225000D03*
%TD*%
D17*
%TO.P,J1,1,VBUS*%
%TO.N,Net-(J1-VBUS)*%
X63465000Y-81585000D03*
%TO.P,J1,2,D-*%
%TO.N,Net-(J1-D-)*%
X63465000Y-82235000D03*
%TO.P,J1,3,D+*%
%TO.N,Net-(J1-D+)*%
X63465000Y-82885000D03*
%TO.P,J1,4,ID*%
%TO.N,unconnected-(J1-ID-Pad4)*%
X63465000Y-83535000D03*
%TO.P,J1,5,GND*%
%TO.N,GND*%
X63465000Y-84185000D03*
D18*
%TO.P,J1,6,Shield*%
X60790000Y-79585000D03*
D19*
X63240000Y-79685000D03*
D20*
X60790000Y-81685000D03*
X60790000Y-84085000D03*
D19*
X63240000Y-86085000D03*
D18*
X60790000Y-86185000D03*
%TD*%
D21*
%TO.P,U3,1,PD3*%
%TO.N,/D3*%
X77625010Y-82574664D03*
%TO.P,U3,2,PD4*%
%TO.N,/D4*%
X77271456Y-82221111D03*
%TO.P,U3,3,GND*%
%TO.N,GND*%
X76917903Y-81867557D03*
%TO.P,U3,4,VCC*%
%TO.N,+5V*%
X76564349Y-81514004D03*
%TO.P,U3,5,GND*%
%TO.N,GND*%
X76210796Y-81160451D03*
%TO.P,U3,6,VCC*%
%TO.N,+5V*%
X75857243Y-80806897D03*
%TO.P,U3,7,XTAL1/PB6*%
%TO.N,Net-(U3-XTAL1{slash}PB6)*%
X75503689Y-80453344D03*
%TO.P,U3,8,XTAL2/PB7*%
%TO.N,Net-(U3-XTAL2{slash}PB7)*%
X75150136Y-80099790D03*
D22*
%TO.P,U3,9,PD5*%
%TO.N,/D5*%
X74177864Y-80099790D03*
%TO.P,U3,10,PD6*%
%TO.N,/D6*%
X73824311Y-80453344D03*
%TO.P,U3,11,PD7*%
%TO.N,/D7*%
X73470757Y-80806897D03*
%TO.P,U3,12,PB0*%
%TO.N,/D8*%
X73117204Y-81160451D03*
%TO.P,U3,13,PB1*%
%TO.N,/D9*%
X72763651Y-81514004D03*
%TO.P,U3,14,PB2*%
%TO.N,/D10*%
X72410097Y-81867557D03*
%TO.P,U3,15,PB3*%
%TO.N,/D11{slash}MOSI*%
X72056544Y-82221111D03*
%TO.P,U3,16,PB4*%
%TO.N,/D12{slash}MISO*%
X71702990Y-82574664D03*
D21*
%TO.P,U3,17,PB5*%
%TO.N,/D13{slash}SCK*%
X71702990Y-83546936D03*
%TO.P,U3,18,AVCC*%
%TO.N,+5V*%
X72056544Y-83900489D03*
%TO.P,U3,19,ADC6*%
%TO.N,/A6*%
X72410097Y-84254043D03*
%TO.P,U3,20,AREF*%
%TO.N,/AREF*%
X72763651Y-84607596D03*
%TO.P,U3,21,GND*%
%TO.N,GND*%
X73117204Y-84961149D03*
%TO.P,U3,22,ADC7*%
%TO.N,/A7*%
X73470757Y-85314703D03*
%TO.P,U3,23,PC0*%
%TO.N,/A0*%
X73824311Y-85668256D03*
%TO.P,U3,24,PC1*%
%TO.N,/A1*%
X74177864Y-86021810D03*
D22*
%TO.P,U3,25,PC2*%
%TO.N,/A2*%
X75150136Y-86021810D03*
%TO.P,U3,26,PC3*%
%TO.N,/A3*%
X75503689Y-85668256D03*
%TO.P,U3,27,PC4*%
%TO.N,/A4*%
X75857243Y-85314703D03*
%TO.P,U3,28,PC5*%
%TO.N,/A5*%
X76210796Y-84961149D03*
%TO.P,U3,29,~{RESET}/PC6*%
%TO.N,Net-(U3-~{RESET}{slash}PC6)*%
X76564349Y-84607596D03*
%TO.P,U3,30,PD0*%
%TO.N,/D0{slash}RX*%
X76917903Y-84254043D03*
%TO.P,U3,31,PD1*%
%TO.N,/D1{slash}TX*%
X77271456Y-83900489D03*
%TO.P,U3,32,PD2*%
%TO.N,/D2*%
X77625010Y-83546936D03*
D23*
%TO.P,U3,33,GND*%
%TO.N,GND*%
X74664000Y-83060800D03*
%TD*%
D24*
%TO.N,*%
X61862400Y-89182200D03*
D25*
%TO.N,/RESET*%
X92315707Y-83747377D03*
D26*
X97788084Y-78275000D03*
X78493651Y-86800000D03*
X83180002Y-87550000D03*
%TO.N,+5V*%
X89500000Y-82000000D03*
X85450000Y-87800000D03*
X79375000Y-86225000D03*
X77029778Y-80698703D03*
X80949265Y-87799265D03*
D27*
X70972500Y-84497500D03*
D26*
%TO.N,VUSB*%
X62133600Y-77900000D03*
X62040210Y-80285000D03*
%TO.N,/A7*%
X71906644Y-88823000D03*
%TO.N,/D1{slash}TX*%
X83675000Y-83050000D03*
%TO.N,/D0{slash}RX*%
X97086765Y-77486765D03*
X83625985Y-83861312D03*
%TO.N,/A6*%
X68572001Y-88350000D03*
%TO.N,/D13{slash}SCK*%
X70600000Y-83000000D03*
X94797885Y-78052115D03*
X78100735Y-83124265D03*
X82528215Y-82446785D03*
X81630180Y-81025000D03*
%TO.N,GND*%
X93400000Y-85125000D03*
X79150000Y-79950000D03*
X100250000Y-77725000D03*
X67250000Y-78950000D03*
X91400000Y-85225000D03*
X79800000Y-82900000D03*
X67975000Y-83825000D03*
X71573000Y-86826577D03*
X101000000Y-87850000D03*
X83300000Y-81846785D03*
X63240000Y-79685000D03*
X74664000Y-82825000D03*
X88299999Y-87979566D03*
X65150000Y-83775000D03*
X69800000Y-81750000D03*
X91150000Y-88000000D03*
X70325000Y-88375000D03*
X78038235Y-80561765D03*
X96775000Y-79700000D03*
X93300000Y-87850000D03*
%TO.N,Net-(D1-A)*%
X83820000Y-86825000D03*
%TO.N,Net-(D3-K)*%
X84424998Y-80474998D03*
%TO.N,Net-(D4-K)*%
X84745000Y-78225000D03*
%TO.N,Net-(J1-VBUS)*%
X64016182Y-81028685D03*
%TO.N,Net-(J1-D+)*%
X65890000Y-82110000D03*
%TO.N,Net-(U3-~{RESET}{slash}PC6)*%
X77712638Y-86566960D03*
%TO.N,Net-(J1-D-)*%
X65858080Y-80516920D03*
%TO.N,Net-(D5-A)*%
X84901000Y-86225000D03*
%TD*%
D28*
%TO.N,Net-(D5-A)*%
X86651472Y-87675000D02*
X87225000Y-87675000D01*
X85437765Y-86761765D02*
X85738237Y-86761765D01*
X85738237Y-86761765D02*
X86651472Y-87675000D01*
X84901000Y-86225000D02*
X85437765Y-86761765D01*
%TO.N,Net-(D1-A)*%
X85677454Y-84450000D02*
X87225000Y-84450000D01*
X85276000Y-84851454D02*
X85677454Y-84450000D01*
X83820000Y-86155000D02*
X84399000Y-85576000D01*
X85276000Y-85576000D02*
X85276000Y-84851454D01*
X87225000Y-84450000D02*
X87225000Y-85000000D01*
X83820000Y-86825000D02*
X83820000Y-86155000D01*
X84399000Y-85576000D02*
X85276000Y-85576000D01*
%TO.N,Net-(D4-K)*%
X86875000Y-78150000D02*
X87275000Y-78550000D01*
X84820000Y-78150000D02*
X86875000Y-78150000D01*
X84745000Y-78225000D02*
X84820000Y-78150000D01*
%TO.N,Net-(D3-K)*%
X85074998Y-80474998D02*
X86100000Y-81500000D01*
X84424998Y-80474998D02*
X85074998Y-80474998D01*
X86100000Y-81500000D02*
X87300000Y-81500000D01*
%TO.N,/RESET*%
X83682600Y-85242400D02*
X84125000Y-84800000D01*
X79482600Y-85242400D02*
X83682600Y-85242400D01*
D29*
X85575000Y-83950000D02*
X84725000Y-84800000D01*
X92113084Y-83950000D02*
X85575000Y-83950000D01*
X92315707Y-83747377D02*
X92113084Y-83950000D01*
X84725000Y-84800000D02*
X84125000Y-84800000D01*
D30*
%TO.N,/AREF*%
X72754812Y-84616435D02*
X69425000Y-87946247D01*
X69425000Y-87946247D02*
X69425000Y-89265000D01*
X69425000Y-89265000D02*
X68060000Y-90630000D01*
D28*
%TO.N,/RESET*%
X81790200Y-87550000D02*
X79482600Y-85242400D01*
X78493651Y-86800000D02*
X78625000Y-86668651D01*
X78625000Y-86668651D02*
X78625000Y-85725000D01*
D29*
X92315707Y-82860277D02*
X96900984Y-78275000D01*
X92315707Y-83747377D02*
X92315707Y-82860277D01*
D28*
X83180002Y-87550000D02*
X81790200Y-87550000D01*
X78625000Y-85725000D02*
X79107600Y-85242400D01*
X79107600Y-85242400D02*
X79482600Y-85242400D01*
D29*
X96900984Y-78275000D02*
X97788084Y-78275000D01*
D30*
%TO.N,+5V*%
X76926879Y-81148121D02*
X76926879Y-81151474D01*
D31*
X82847216Y-88350000D02*
X82848216Y-88351000D01*
X85450000Y-87800000D02*
X86750000Y-89100000D01*
D30*
X77029778Y-80698703D02*
X77029778Y-80546020D01*
X77029778Y-80546020D02*
X76833758Y-80350000D01*
X76833758Y-80350000D02*
X76314140Y-80350000D01*
D32*
X94725000Y-88900000D02*
X92650000Y-88900000D01*
D30*
X76926879Y-81151474D02*
X76573188Y-81505165D01*
D31*
X86750000Y-89100000D02*
X89390000Y-89100000D01*
X84900000Y-88350000D02*
X85450000Y-87800000D01*
X82848216Y-88351000D02*
X83511788Y-88351000D01*
D33*
X89325000Y-78550000D02*
X89325000Y-81475000D01*
D32*
X92650000Y-88900000D02*
X90920000Y-90630000D01*
D28*
X89500000Y-81650000D02*
X89500000Y-82000000D01*
D31*
X83511788Y-88351000D02*
X83512788Y-88350000D01*
D32*
X80949265Y-87799265D02*
X79375000Y-86225000D01*
D30*
X76314140Y-80350000D02*
X75866082Y-80798058D01*
D31*
X89390000Y-89100000D02*
X90920000Y-90630000D01*
X81189523Y-87799265D02*
X81740258Y-88350000D01*
D30*
X77029778Y-80698703D02*
X77029778Y-81045222D01*
D32*
X98035000Y-85590000D02*
X94725000Y-88900000D01*
D31*
X80949265Y-87799265D02*
X81189523Y-87799265D01*
D28*
X89325000Y-81475000D02*
X89500000Y-81650000D01*
D31*
X81740258Y-88350000D02*
X82847216Y-88350000D01*
X83512788Y-88350000D02*
X84900000Y-88350000D01*
D30*
X70972500Y-84497500D02*
X71175000Y-84700000D01*
X71175000Y-84700000D02*
X71257033Y-84700000D01*
X71257033Y-84700000D02*
X72047705Y-83909328D01*
X77029778Y-81045222D02*
X76926879Y-81148121D01*
D33*
%TO.N,VUSB*%
X62150000Y-77916400D02*
X62133600Y-77900000D01*
X62139000Y-77905400D02*
X62133600Y-77900000D01*
X62133600Y-77891400D02*
X62133600Y-77900000D01*
X62040210Y-80285000D02*
X62139000Y-80186210D01*
X62139000Y-80186210D02*
X62139000Y-77905400D01*
D28*
%TO.N,/D3*%
X78469673Y-81730000D02*
X80038468Y-81730000D01*
X77633848Y-82565825D02*
X78469673Y-81730000D01*
X83155000Y-78613467D02*
X83155000Y-78071890D01*
X83155000Y-78071890D02*
X83171890Y-78055000D01*
X83171890Y-78055000D02*
X83175000Y-78055000D01*
X80038468Y-81730000D02*
X83155000Y-78613467D01*
X83175000Y-78055000D02*
X85840000Y-75390000D01*
D30*
%TO.N,/D5*%
X73970000Y-79891927D02*
X73970000Y-78649400D01*
X75527600Y-77091800D02*
X75528080Y-77092280D01*
X75528080Y-77092280D02*
X78498920Y-77092280D01*
X78498920Y-77092280D02*
X80201200Y-75390000D01*
X74169025Y-80090952D02*
X73970000Y-79891927D01*
X73970000Y-78649400D02*
X75527600Y-77091800D01*
X80201200Y-75390000D02*
X80760000Y-75390000D01*
%TO.N,/D6*%
X73470000Y-78489000D02*
X75324400Y-76634600D01*
X75324400Y-76634600D02*
X76975400Y-76634600D01*
X76975400Y-76634600D02*
X78220000Y-75390000D01*
X73470000Y-80099033D02*
X73470000Y-78489000D01*
X73815472Y-80444505D02*
X73470000Y-80099033D01*
D28*
%TO.N,/D4*%
X83300000Y-77283422D02*
X82700000Y-77883422D01*
X79850000Y-81275000D02*
X78217567Y-81275000D01*
X82700000Y-78425000D02*
X79850000Y-81275000D01*
X78217567Y-81275000D02*
X77280295Y-82212272D01*
X82700000Y-77883422D02*
X82700000Y-78425000D01*
X83300000Y-75390000D02*
X83300000Y-77283422D01*
D30*
%TO.N,/D7*%
X72970000Y-78300000D02*
X75680000Y-75590000D01*
X73461918Y-80798058D02*
X72970000Y-80306140D01*
X72970000Y-80306140D02*
X72970000Y-78300000D01*
X75680000Y-75390000D02*
X75680000Y-75590000D01*
%TO.N,/A7*%
X72200000Y-88529644D02*
X72200000Y-86585460D01*
X73470757Y-85314703D02*
X73461918Y-85323542D01*
X72200000Y-86585460D02*
X73470757Y-85314703D01*
X71906644Y-88823000D02*
X72200000Y-88529644D01*
D28*
%TO.N,/D1{slash}TX*%
X83675000Y-83050000D02*
X83676920Y-83048080D01*
X83676920Y-83048080D02*
X85192813Y-83048080D01*
X85198894Y-83042000D02*
X90683000Y-83042000D01*
X79992800Y-84357200D02*
X77728161Y-84357200D01*
X81301920Y-83048080D02*
X79992800Y-84357200D01*
X85192813Y-83048080D02*
X85198894Y-83042000D01*
X83673080Y-83048080D02*
X81301920Y-83048080D01*
X90683000Y-83042000D02*
X98335000Y-75390000D01*
X98335000Y-75390000D02*
X98540000Y-75390000D01*
X77728161Y-84357200D02*
X77280293Y-83909332D01*
X83675000Y-83050000D02*
X83673080Y-83048080D01*
%TO.N,/D0{slash}RX*%
X77478260Y-84814400D02*
X76926742Y-84262882D01*
X91076530Y-83497000D02*
X85387361Y-83497000D01*
X83605572Y-83861312D02*
X83529260Y-83785000D01*
X97086765Y-77486765D02*
X91076530Y-83497000D01*
X83529260Y-83785000D02*
X81211578Y-83785000D01*
X83702297Y-83785000D02*
X83625985Y-83861312D01*
X81211578Y-83785000D02*
X80182178Y-84814400D01*
X85099362Y-83785000D02*
X83702297Y-83785000D01*
X85387361Y-83497000D02*
X85099362Y-83785000D01*
X80182178Y-84814400D02*
X77478260Y-84814400D01*
X83625985Y-83861312D02*
X83605572Y-83861312D01*
D30*
%TO.N,/A6*%
X68572001Y-88297001D02*
X68572001Y-88092139D01*
X68572001Y-88092139D02*
X72401258Y-84262882D01*
%TO.N,/D11{slash}MOSI*%
X65520000Y-75390000D02*
X66739680Y-76609680D01*
X68618320Y-76609680D02*
X68618800Y-76609200D01*
X66739680Y-76609680D02*
X68618320Y-76609680D01*
X72047705Y-82212272D02*
X70970000Y-81134567D01*
X70970000Y-78960400D02*
X68618800Y-76609200D01*
X70970000Y-81134567D02*
X70970000Y-78960400D01*
%TO.N,/A3*%
X75512528Y-85677095D02*
X75970000Y-86134567D01*
X75970000Y-86134567D02*
X75970000Y-88380000D01*
X75970000Y-88380000D02*
X78220000Y-90630000D01*
%TO.N,/A0*%
X71245000Y-90630000D02*
X72670000Y-89205000D01*
X72670000Y-86822567D02*
X73815472Y-85677095D01*
X72670000Y-89205000D02*
X72670000Y-86822567D01*
X70600000Y-90630000D02*
X71245000Y-90630000D01*
%TO.N,/A4*%
X77795000Y-89425000D02*
X78775000Y-89425000D01*
X75866082Y-85323542D02*
X76470000Y-85927460D01*
X79980000Y-90630000D02*
X80760000Y-90630000D01*
X78775000Y-89425000D02*
X79980000Y-90630000D01*
X76470000Y-85927460D02*
X76470000Y-88100000D01*
X76470000Y-88100000D02*
X77795000Y-89425000D01*
%TO.N,/D10*%
X71426720Y-80884180D02*
X71426720Y-78756720D01*
X72401258Y-81858718D02*
X71426720Y-80884180D01*
X71426720Y-78756720D02*
X68060000Y-75390000D01*
D28*
%TO.N,/D13{slash}SCK*%
X85396785Y-82446785D02*
X85550000Y-82600000D01*
X84348943Y-82451000D02*
X84353158Y-82446785D01*
X81625000Y-81025000D02*
X80350000Y-82300000D01*
X85550000Y-82600000D02*
X90250000Y-82600000D01*
X90250000Y-82600000D02*
X94797885Y-78052115D01*
X83851057Y-82451000D02*
X84348943Y-82451000D01*
X63790000Y-90630000D02*
X65120000Y-89300000D01*
X80350000Y-82300000D02*
X78925000Y-82300000D01*
X69575000Y-84725000D02*
X70600000Y-83700000D01*
X83846842Y-82446785D02*
X83851057Y-82451000D01*
X70600000Y-83700000D02*
X71549927Y-83700000D01*
X69575000Y-86295000D02*
X69575000Y-84725000D01*
X66570000Y-89300000D02*
X69575000Y-86295000D01*
X65120000Y-89300000D02*
X66570000Y-89300000D01*
X84353158Y-82446785D02*
X85396785Y-82446785D01*
X78925000Y-82300000D02*
X78100735Y-83124265D01*
X71549927Y-83700000D02*
X71694152Y-83555775D01*
X71702990Y-83546936D02*
X71671936Y-83546936D01*
X70600000Y-83700000D02*
X70600000Y-83000000D01*
X62980000Y-90630000D02*
X63790000Y-90630000D01*
X82528215Y-82446785D02*
X83846842Y-82446785D01*
X81630180Y-81025000D02*
X81625000Y-81025000D01*
D30*
%TO.N,/D8*%
X72470000Y-80513247D02*
X72470000Y-78100000D01*
X73140000Y-75390000D02*
X73140000Y-77430000D01*
X73140000Y-77430000D02*
X72470000Y-78100000D01*
X73108365Y-81151612D02*
X72470000Y-80513247D01*
%TO.N,/D12{slash}MISO*%
X71694152Y-82565825D02*
X70470000Y-81341673D01*
X62980000Y-75390000D02*
X64656400Y-77066400D01*
X70470000Y-81341673D02*
X70470000Y-79197000D01*
X68339400Y-77066400D02*
X64656400Y-77066400D01*
X70470000Y-79197000D02*
X68339400Y-77066400D01*
%TO.N,/D9*%
X71970000Y-80720353D02*
X71970000Y-76760000D01*
X72754812Y-81505165D02*
X71970000Y-80720353D01*
X71970000Y-76760000D02*
X70600000Y-75390000D01*
%TO.N,/A1*%
X73140000Y-90630000D02*
X73140000Y-87059675D01*
X73140000Y-87059675D02*
X74169025Y-86030650D01*
%TO.N,/A2*%
X75469993Y-90419993D02*
X75469993Y-86341666D01*
X75680000Y-90630000D02*
X75469993Y-90419993D01*
X75469993Y-86341666D02*
X75158975Y-86030648D01*
D28*
%TO.N,/D2*%
X83725000Y-78241600D02*
X85306600Y-76660000D01*
X83725000Y-78700000D02*
X83725000Y-78241600D01*
X82275000Y-81425000D02*
X82275000Y-80150000D01*
X77633848Y-83555775D02*
X77978073Y-83900000D01*
X87110000Y-76660000D02*
X88380000Y-75390000D01*
X79800000Y-83900000D02*
X82275000Y-81425000D01*
X82275000Y-80150000D02*
X83725000Y-78700000D01*
X77978073Y-83900000D02*
X79800000Y-83900000D01*
X85306600Y-76660000D02*
X87110000Y-76660000D01*
D30*
%TO.N,/A5*%
X76970000Y-87870000D02*
X78050000Y-88950000D01*
X76970000Y-85720353D02*
X76970000Y-87870000D01*
X78050000Y-88950000D02*
X80775000Y-88950000D01*
X82455000Y-90630000D02*
X83300000Y-90630000D01*
X80775000Y-88950000D02*
X82455000Y-90630000D01*
X76219635Y-84969988D02*
X76970000Y-85720353D01*
D28*
%TO.N,GND*%
X67975000Y-83825000D02*
X67925000Y-83775000D01*
D30*
X76219635Y-81151612D02*
X74664000Y-82707247D01*
X74664000Y-83414353D02*
X74664000Y-83060800D01*
X74664000Y-82707247D02*
X74664000Y-82825000D01*
X74664000Y-82825000D02*
X74664000Y-83060800D01*
X75724660Y-83060800D02*
X74664000Y-83060800D01*
X73108365Y-84969988D02*
X74664000Y-83414353D01*
X76926742Y-81858718D02*
X75724660Y-83060800D01*
D29*
%TO.N,Net-(J1-VBUS)*%
X64016182Y-81028685D02*
X63465000Y-81579867D01*
X63465000Y-81579867D02*
X63465000Y-81585000D01*
%TO.N,Net-(J1-D+)*%
X65115000Y-82885000D02*
X63465000Y-82885000D01*
X65894700Y-82110000D02*
X65890000Y-82110000D01*
X65890000Y-82110000D02*
X65115000Y-82885000D01*
D28*
%TO.N,Net-(U3-XTAL2{slash}PB7)*%
X77950000Y-79050000D02*
X78600000Y-78400000D01*
X76199926Y-79050000D02*
X77950000Y-79050000D01*
X75150136Y-80099790D02*
X76199926Y-79050000D01*
%TO.N,Net-(U3-XTAL1{slash}PB6)*%
X78287178Y-79960765D02*
X78639235Y-80312822D01*
X79159500Y-80847000D02*
X79547112Y-80847000D01*
X78639235Y-80312822D02*
X78639235Y-80326735D01*
X76482033Y-79475000D02*
X77787500Y-79475000D01*
X79547112Y-80847000D02*
X80297056Y-80097056D01*
X75503689Y-80453344D02*
X76482033Y-79475000D01*
X78273265Y-79960765D02*
X78287178Y-79960765D01*
X77787500Y-79475000D02*
X78273265Y-79960765D01*
X78639235Y-80326735D02*
X79159500Y-80847000D01*
D29*
%TO.N,Net-(U3-~{RESET}{slash}PC6)*%
X77870000Y-85913247D02*
X76573188Y-84616435D01*
X77712638Y-86566960D02*
X77870000Y-86409598D01*
X77870000Y-86409598D02*
X77870000Y-85913247D01*
D28*
%TO.N,Net-(J1-D-)*%
X60225000Y-77225000D02*
X60312800Y-77137200D01*
D29*
X63340000Y-82235000D02*
X63315000Y-82210000D01*
X65862599Y-80521439D02*
X65862599Y-81087401D01*
X65862599Y-81087401D02*
X64715000Y-82235000D01*
D28*
X65858080Y-80516920D02*
X65862599Y-80521439D01*
X60312800Y-77137200D02*
X62478360Y-77137200D01*
X62478360Y-77137200D02*
X65858080Y-80516920D01*
D29*
X64715000Y-82235000D02*
X63465000Y-82235000D01*
%TD*%
%TA.AperFunction,Conductor*%
%TO.N,GND*%
G36*
X77665507Y-79822086D02*
G01*
X77684367Y-79837285D01*
X77852121Y-80005038D01*
X78009917Y-80162834D01*
X78009919Y-80162837D01*
X78071193Y-80224111D01*
X78100718Y-80241157D01*
X78109008Y-80248386D01*
X78110185Y-80250231D01*
X78114659Y-80253664D01*
X78346336Y-80485341D01*
X78364339Y-80508803D01*
X78375889Y-80528807D01*
X78375890Y-80528808D01*
X78599567Y-80752485D01*
X78630163Y-80808516D01*
X78625608Y-80872194D01*
X78587350Y-80923301D01*
X78527535Y-80945611D01*
X78519452Y-80945900D01*
X78174240Y-80945900D01*
X78090535Y-80968327D01*
X78015499Y-81011650D01*
X78015495Y-81011653D01*
X77590107Y-81437039D01*
X77588035Y-81438170D01*
X77586822Y-81440194D01*
X77560181Y-81453379D01*
X77534075Y-81467635D01*
X77531720Y-81467466D01*
X77529606Y-81468513D01*
X77502581Y-81469981D01*
X77492890Y-81469345D01*
X76519692Y-82442543D01*
X76536241Y-82455241D01*
X76625565Y-82487753D01*
X76676974Y-82525605D01*
X76692461Y-82553287D01*
X76709880Y-82598249D01*
X76725121Y-82617490D01*
X76875077Y-82767445D01*
X76894318Y-82782687D01*
X76969564Y-82811837D01*
X76987857Y-82825894D01*
X77008185Y-82836810D01*
X77014421Y-82846307D01*
X77020184Y-82850736D01*
X77027691Y-82862490D01*
X77031472Y-82869301D01*
X77063434Y-82951802D01*
X77078675Y-82971043D01*
X77099546Y-82991914D01*
X77107258Y-83005804D01*
X77110917Y-83022075D01*
X77118912Y-83036716D01*
X77117777Y-83052577D01*
X77121266Y-83068089D01*
X77115547Y-83083757D01*
X77114357Y-83100394D01*
X77103055Y-83117981D01*
X77099377Y-83128059D01*
X77093912Y-83132210D01*
X77088323Y-83140908D01*
X77078678Y-83150554D01*
X77063433Y-83169798D01*
X77034283Y-83245043D01*
X76995383Y-83295663D01*
X76969562Y-83309762D01*
X76894318Y-83338913D01*
X76894317Y-83338913D01*
X76894316Y-83338914D01*
X76875079Y-83354152D01*
X76875073Y-83354157D01*
X76725119Y-83504113D01*
X76709879Y-83523351D01*
X76680729Y-83598597D01*
X76641829Y-83649217D01*
X76616010Y-83663315D01*
X76540768Y-83692465D01*
X76540764Y-83692467D01*
X76521526Y-83707706D01*
X76521520Y-83707711D01*
X76371566Y-83857667D01*
X76356326Y-83876905D01*
X76327176Y-83952150D01*
X76288276Y-84002770D01*
X76262455Y-84016869D01*
X76187211Y-84046020D01*
X76187210Y-84046020D01*
X76187209Y-84046021D01*
X76167972Y-84061259D01*
X76167966Y-84061264D01*
X76018012Y-84211220D01*
X76002772Y-84230458D01*
X75973622Y-84305703D01*
X75934722Y-84356323D01*
X75908903Y-84370421D01*
X75833661Y-84399571D01*
X75833657Y-84399573D01*
X75814419Y-84414812D01*
X75814413Y-84414817D01*
X75664459Y-84564773D01*
X75649219Y-84584011D01*
X75620069Y-84659257D01*
X75581169Y-84709877D01*
X75555350Y-84723975D01*
X75480108Y-84753125D01*
X75480104Y-84753127D01*
X75460866Y-84768366D01*
X75460860Y-84768371D01*
X75310906Y-84918327D01*
X75295666Y-84937565D01*
X75266516Y-85012810D01*
X75227616Y-85063430D01*
X75201797Y-85077529D01*
X75167531Y-85090803D01*
X75126551Y-85106680D01*
X75126550Y-85106680D01*
X75126549Y-85106681D01*
X75107312Y-85121919D01*
X75107306Y-85121924D01*
X74957352Y-85271880D01*
X74942112Y-85291118D01*
X74912962Y-85366364D01*
X74898903Y-85384657D01*
X74887989Y-85404985D01*
X74878489Y-85411222D01*
X74874062Y-85416984D01*
X74862309Y-85424491D01*
X74855494Y-85428274D01*
X74772998Y-85460234D01*
X74753757Y-85475475D01*
X74732886Y-85496345D01*
X74718995Y-85504058D01*
X74702721Y-85507717D01*
X74688078Y-85515713D01*
X74672218Y-85514578D01*
X74656710Y-85518066D01*
X74641041Y-85512346D01*
X74624400Y-85511156D01*
X74606816Y-85499854D01*
X74596740Y-85496177D01*
X74592586Y-85490709D01*
X74583884Y-85485116D01*
X74574248Y-85475480D01*
X74555001Y-85460233D01*
X74479756Y-85431083D01*
X74429136Y-85392183D01*
X74415037Y-85366363D01*
X74385887Y-85291118D01*
X74370646Y-85271877D01*
X74220690Y-85121922D01*
X74212068Y-85115092D01*
X74201448Y-85106679D01*
X74201446Y-85106678D01*
X74126203Y-85077529D01*
X74075582Y-85038630D01*
X74061483Y-85012809D01*
X74059541Y-85007797D01*
X74032333Y-84937565D01*
X74017092Y-84918324D01*
X73867136Y-84768369D01*
X73847895Y-84753127D01*
X73847894Y-84753126D01*
X73802938Y-84735710D01*
X73752317Y-84696810D01*
X73737401Y-84668813D01*
X73704888Y-84579486D01*
X73692190Y-84562938D01*
X72711320Y-85543808D01*
X72710377Y-85556999D01*
X72704827Y-85565634D01*
X72703337Y-85572295D01*
X72695692Y-85579849D01*
X72684336Y-85597520D01*
X71981349Y-86300509D01*
X71915050Y-86366807D01*
X71915048Y-86366810D01*
X71868167Y-86448009D01*
X71843900Y-86538578D01*
X71843900Y-88205109D01*
X71825914Y-88266364D01*
X71777667Y-88308170D01*
X71759925Y-88314548D01*
X71702420Y-88329956D01*
X71702415Y-88329958D01*
X71581768Y-88399614D01*
X71483258Y-88498124D01*
X71413602Y-88618771D01*
X71413600Y-88618777D01*
X71377544Y-88753342D01*
X71377544Y-88892657D01*
X71413600Y-89027222D01*
X71413602Y-89027228D01*
X71419045Y-89036655D01*
X71483258Y-89147875D01*
X71581769Y-89246386D01*
X71702419Y-89316043D01*
X71791219Y-89339836D01*
X71845728Y-89373061D01*
X71873623Y-89430484D01*
X71866045Y-89493873D01*
X71842007Y-89529389D01*
X71513853Y-89857543D01*
X71457822Y-89888139D01*
X71394144Y-89883584D01*
X71353624Y-89857544D01*
X71302994Y-89806915D01*
X71302993Y-89806914D01*
X71302987Y-89806908D01*
X71165572Y-89707071D01*
X71014235Y-89629961D01*
X71014234Y-89629960D01*
X70992592Y-89622928D01*
X70852690Y-89577471D01*
X70852686Y-89577470D01*
X70852685Y-89577470D01*
X70852679Y-89577468D01*
X70699341Y-89553183D01*
X70684927Y-89550900D01*
X70515073Y-89550900D01*
X70500671Y-89553181D01*
X70347320Y-89577468D01*
X70347314Y-89577470D01*
X70347311Y-89577470D01*
X70347310Y-89577471D01*
X70294282Y-89594701D01*
X70185765Y-89629960D01*
X70185764Y-89629961D01*
X70034431Y-89707069D01*
X69897014Y-89806907D01*
X69897006Y-89806914D01*
X69776914Y-89927006D01*
X69776907Y-89927014D01*
X69729468Y-89992309D01*
X69682448Y-90057028D01*
X69677069Y-90064431D01*
X69599961Y-90215764D01*
X69599960Y-90215765D01*
X69588950Y-90249651D01*
X69549363Y-90371489D01*
X69547470Y-90377314D01*
X69547468Y-90377320D01*
X69520900Y-90545074D01*
X69520900Y-90714925D01*
X69547468Y-90882679D01*
X69547470Y-90882685D01*
X69547471Y-90882690D01*
X69561764Y-90926678D01*
X69599960Y-91044234D01*
X69599961Y-91044235D01*
X69677071Y-91195572D01*
X69776908Y-91332987D01*
X69776914Y-91332993D01*
X69850006Y-91406085D01*
X69880602Y-91462116D01*
X69876047Y-91525794D01*
X69837789Y-91576901D01*
X69777974Y-91599211D01*
X69769891Y-91599500D01*
X68890109Y-91599500D01*
X68828854Y-91581514D01*
X68787048Y-91533267D01*
X68777962Y-91470076D01*
X68804483Y-91412004D01*
X68809994Y-91406085D01*
X68883092Y-91332987D01*
X68982929Y-91195572D01*
X69060041Y-91044231D01*
X69112529Y-90882690D01*
X69113171Y-90878640D01*
X69139100Y-90714925D01*
X69139100Y-90545074D01*
X69135656Y-90523332D01*
X69128876Y-90480519D01*
X69112531Y-90377320D01*
X69112530Y-90377318D01*
X69112529Y-90377310D01*
X69061333Y-90219747D01*
X69059511Y-90155939D01*
X69088972Y-90104628D01*
X69709951Y-89483651D01*
X69756834Y-89402449D01*
X69781101Y-89311881D01*
X69781101Y-89218118D01*
X69781101Y-89211179D01*
X69781100Y-89211161D01*
X69781100Y-88140677D01*
X69799086Y-88079422D01*
X69814280Y-88060567D01*
X72480835Y-85394012D01*
X72488091Y-85390050D01*
X72493048Y-85383429D01*
X72515667Y-85374992D01*
X72536862Y-85363419D01*
X72538260Y-85363314D01*
X73028816Y-84872761D01*
X73515414Y-84386161D01*
X73498863Y-84373462D01*
X73409540Y-84340951D01*
X73358132Y-84303099D01*
X73342643Y-84275414D01*
X73342568Y-84275220D01*
X73325227Y-84230458D01*
X73309986Y-84211217D01*
X73160030Y-84061262D01*
X73145865Y-84050041D01*
X73140788Y-84046019D01*
X73140786Y-84046018D01*
X73065543Y-84016869D01*
X73014922Y-83977970D01*
X73000823Y-83952149D01*
X72992584Y-83930883D01*
X72971673Y-83876905D01*
X72956432Y-83857664D01*
X72806476Y-83707709D01*
X72787235Y-83692467D01*
X72787234Y-83692466D01*
X72711989Y-83663316D01*
X72661369Y-83624416D01*
X72647270Y-83598596D01*
X72618120Y-83523351D01*
X72602879Y-83504110D01*
X72452923Y-83354155D01*
X72443069Y-83346349D01*
X72433681Y-83338912D01*
X72433679Y-83338911D01*
X72358436Y-83309762D01*
X72340139Y-83295702D01*
X72319815Y-83284789D01*
X72313579Y-83275292D01*
X72307815Y-83270863D01*
X72300308Y-83259109D01*
X72296528Y-83252301D01*
X72264566Y-83169798D01*
X72249325Y-83150557D01*
X72228450Y-83129682D01*
X72220740Y-83115795D01*
X72217080Y-83099525D01*
X72209087Y-83084887D01*
X72210220Y-83069024D01*
X72206732Y-83053511D01*
X72212449Y-83037845D01*
X72213639Y-83021209D01*
X72224940Y-83003622D01*
X72228621Y-82993540D01*
X72234090Y-82989385D01*
X72239681Y-82980685D01*
X72249324Y-82971043D01*
X72264566Y-82951802D01*
X72293716Y-82876555D01*
X72332615Y-82825936D01*
X72358430Y-82811839D01*
X72433682Y-82782687D01*
X72452923Y-82767446D01*
X72602878Y-82617490D01*
X72618120Y-82598249D01*
X72647270Y-82523002D01*
X72686169Y-82472383D01*
X72711987Y-82458284D01*
X72787235Y-82429133D01*
X72806476Y-82413892D01*
X72956431Y-82263936D01*
X72971673Y-82244695D01*
X73000823Y-82169448D01*
X73039722Y-82118829D01*
X73065537Y-82104732D01*
X73140789Y-82075580D01*
X73160030Y-82060339D01*
X73309985Y-81910383D01*
X73325227Y-81891142D01*
X73354377Y-81815895D01*
X73393276Y-81765276D01*
X73419094Y-81751178D01*
X73494342Y-81722027D01*
X73513583Y-81706786D01*
X73663538Y-81556830D01*
X73678780Y-81537589D01*
X73707930Y-81462342D01*
X73746829Y-81411723D01*
X73772647Y-81397624D01*
X73847895Y-81368473D01*
X73867136Y-81353232D01*
X74017091Y-81203276D01*
X74032333Y-81184035D01*
X74061483Y-81108788D01*
X74100382Y-81058169D01*
X74126197Y-81044072D01*
X74201449Y-81014920D01*
X74220690Y-80999679D01*
X74370645Y-80849723D01*
X74385887Y-80830482D01*
X74415037Y-80755235D01*
X74429092Y-80736945D01*
X74440009Y-80716615D01*
X74449508Y-80710377D01*
X74453936Y-80704616D01*
X74465689Y-80697108D01*
X74472492Y-80693330D01*
X74555002Y-80661366D01*
X74574243Y-80646125D01*
X74595120Y-80625247D01*
X74609002Y-80617540D01*
X74625271Y-80613881D01*
X74639906Y-80605888D01*
X74655771Y-80607021D01*
X74671287Y-80603532D01*
X74686949Y-80609248D01*
X74703584Y-80610437D01*
X74721173Y-80621740D01*
X74731258Y-80625421D01*
X74735412Y-80630890D01*
X74744114Y-80636482D01*
X74753751Y-80646119D01*
X74753755Y-80646122D01*
X74753757Y-80646124D01*
X74764485Y-80654622D01*
X74772998Y-80661366D01*
X74773000Y-80661367D01*
X74848242Y-80690516D01*
X74898863Y-80729415D01*
X74912961Y-80755233D01*
X74942113Y-80830482D01*
X74957354Y-80849723D01*
X75107310Y-80999678D01*
X75126551Y-81014920D01*
X75201797Y-81044070D01*
X75252417Y-81082969D01*
X75266516Y-81108789D01*
X75270416Y-81118855D01*
X75295667Y-81184035D01*
X75310908Y-81203276D01*
X75460864Y-81353231D01*
X75472174Y-81362190D01*
X75480105Y-81368473D01*
X75480107Y-81368474D01*
X75525060Y-81385889D01*
X75575681Y-81424788D01*
X75590598Y-81452787D01*
X75623109Y-81542109D01*
X75635808Y-81558660D01*
X76042292Y-81152177D01*
X76049552Y-81148212D01*
X76054509Y-81141591D01*
X76077128Y-81133154D01*
X76098323Y-81121581D01*
X76106574Y-81122171D01*
X76114324Y-81119281D01*
X76137917Y-81124413D01*
X76162001Y-81126136D01*
X76170272Y-81131451D01*
X76176706Y-81132851D01*
X76202522Y-81152177D01*
X76219069Y-81168724D01*
X76249665Y-81224755D01*
X76245110Y-81288433D01*
X76219069Y-81328954D01*
X75812585Y-81735437D01*
X75829133Y-81748135D01*
X75918459Y-81780648D01*
X75969868Y-81818500D01*
X75985355Y-81846184D01*
X75997802Y-81878311D01*
X76002773Y-81891142D01*
X76018014Y-81910383D01*
X76167970Y-82060338D01*
X76187211Y-82075580D01*
X76232167Y-82092996D01*
X76282788Y-82131894D01*
X76297706Y-82159894D01*
X76330216Y-82249216D01*
X76342915Y-82265766D01*
X76829515Y-81779169D01*
X77318488Y-81290194D01*
X77320502Y-81281194D01*
X77319935Y-81263017D01*
X77327329Y-81250681D01*
X77330470Y-81236644D01*
X77331468Y-81234880D01*
X77361611Y-81182672D01*
X77378474Y-81119734D01*
X77407798Y-81068943D01*
X77453164Y-81023578D01*
X77522821Y-80902928D01*
X77558878Y-80768360D01*
X77558878Y-80629046D01*
X77557842Y-80625181D01*
X77536265Y-80544652D01*
X77522821Y-80494478D01*
X77519945Y-80489497D01*
X77453163Y-80373827D01*
X77354653Y-80275317D01*
X77234006Y-80205661D01*
X77234003Y-80205660D01*
X77207341Y-80198516D01*
X77156551Y-80169192D01*
X77052408Y-80065048D01*
X76966624Y-80015520D01*
X76922569Y-79969316D01*
X76910488Y-79906629D01*
X76934216Y-79847362D01*
X76986219Y-79810331D01*
X77023275Y-79804100D01*
X77604252Y-79804100D01*
X77665507Y-79822086D01*
G37*
%TD.AperFunction*%
%TA.AperFunction,Conductor*%
G36*
X99806596Y-75601052D02*
G01*
X99841111Y-75654758D01*
X99841839Y-75657354D01*
X99886588Y-75824360D01*
X99886589Y-75824364D01*
X99914392Y-75883986D01*
X99980148Y-76025000D01*
X100107124Y-76206340D01*
X100263660Y-76362876D01*
X100445000Y-76489852D01*
X100645634Y-76583410D01*
X100716911Y-76602508D01*
X100859457Y-76640704D01*
X100859463Y-76640705D01*
X100859467Y-76640706D01*
X101080000Y-76660000D01*
X101300533Y-76640706D01*
X101300537Y-76640704D01*
X101300542Y-76640704D01*
X101386875Y-76617570D01*
X101514366Y-76583410D01*
X101715000Y-76489852D01*
X101771216Y-76450488D01*
X101831707Y-76430089D01*
X101893626Y-76445632D01*
X101937314Y-76492183D01*
X101949500Y-76543300D01*
X101949500Y-89476699D01*
X101931514Y-89537954D01*
X101883267Y-89579760D01*
X101820076Y-89588846D01*
X101771215Y-89569509D01*
X101715004Y-89530150D01*
X101706104Y-89526000D01*
X101514366Y-89436590D01*
X101514364Y-89436589D01*
X101514360Y-89436588D01*
X101300542Y-89379295D01*
X101300530Y-89379293D01*
X101080000Y-89360000D01*
X100859469Y-89379293D01*
X100859457Y-89379295D01*
X100645639Y-89436588D01*
X100645635Y-89436589D01*
X100445001Y-89530147D01*
X100401529Y-89560587D01*
X100263660Y-89657124D01*
X100263658Y-89657125D01*
X100263655Y-89657128D01*
X100107128Y-89813655D01*
X100107125Y-89813658D01*
X100107124Y-89813660D01*
X100031169Y-89922134D01*
X99980147Y-89995001D01*
X99886589Y-90195635D01*
X99886588Y-90195639D01*
X99841839Y-90362645D01*
X99808612Y-90417158D01*
X99751188Y-90445052D01*
X99687799Y-90437473D01*
X99638571Y-90396826D01*
X99619132Y-90336017D01*
X99619100Y-90333321D01*
X99619100Y-89757440D01*
X99619099Y-89757434D01*
X99616700Y-89745373D01*
X99605807Y-89690610D01*
X99555172Y-89614828D01*
X99496646Y-89575723D01*
X99479389Y-89564192D01*
X99412565Y-89550900D01*
X99412562Y-89550900D01*
X97667438Y-89550900D01*
X97667434Y-89550900D01*
X97600610Y-89564192D01*
X97524828Y-89614828D01*
X97474192Y-89690610D01*
X97460900Y-89757434D01*
X97460900Y-91486200D01*
X97442914Y-91547455D01*
X97394667Y-91589261D01*
X97347600Y-91599500D01*
X96747022Y-91599500D01*
X96685767Y-91581514D01*
X96666907Y-91566315D01*
X96195227Y-91094635D01*
X96307007Y-91030099D01*
X96400099Y-90937007D01*
X96464635Y-90825227D01*
X96903744Y-91264336D01*
X96944228Y-91208617D01*
X96944230Y-91208613D01*
X97023114Y-91053794D01*
X97023115Y-91053792D01*
X97076816Y-90888516D01*
X97076818Y-90888510D01*
X97104000Y-90716885D01*
X97104000Y-90543114D01*
X97076818Y-90371489D01*
X97076816Y-90371483D01*
X97023115Y-90206207D01*
X97023114Y-90206205D01*
X96944227Y-90051379D01*
X96903744Y-89995662D01*
X96903744Y-89995661D01*
X96464634Y-90434771D01*
X96400099Y-90322993D01*
X96307007Y-90229901D01*
X96195226Y-90165364D01*
X96634337Y-89726254D01*
X96634336Y-89726253D01*
X96578620Y-89685773D01*
X96578620Y-89685772D01*
X96423794Y-89606885D01*
X96423792Y-89606884D01*
X96258516Y-89553183D01*
X96258510Y-89553181D01*
X96086886Y-89526000D01*
X95913114Y-89526000D01*
X95741489Y-89553181D01*
X95741483Y-89553183D01*
X95576207Y-89606884D01*
X95576205Y-89606885D01*
X95421378Y-89685774D01*
X95365661Y-89726254D01*
X95804772Y-90165365D01*
X95692993Y-90229901D01*
X95599901Y-90322993D01*
X95535365Y-90434772D01*
X95096254Y-89995661D01*
X95055774Y-90051378D01*
X94976885Y-90206205D01*
X94976884Y-90206207D01*
X94923183Y-90371483D01*
X94923181Y-90371489D01*
X94896000Y-90543114D01*
X94896000Y-90716885D01*
X94923181Y-90888510D01*
X94923183Y-90888516D01*
X94976884Y-91053792D01*
X94976885Y-91053794D01*
X95055772Y-91208620D01*
X95096253Y-91264336D01*
X95096254Y-91264337D01*
X95535364Y-90825226D01*
X95599901Y-90937007D01*
X95692993Y-91030099D01*
X95804772Y-91094634D01*
X95333091Y-91566315D01*
X95277059Y-91596911D01*
X95252976Y-91599500D01*
X94290109Y-91599500D01*
X94228854Y-91581514D01*
X94187048Y-91533267D01*
X94177962Y-91470076D01*
X94204483Y-91412004D01*
X94209994Y-91406085D01*
X94283092Y-91332987D01*
X94382929Y-91195572D01*
X94460041Y-91044231D01*
X94512529Y-90882690D01*
X94513171Y-90878640D01*
X94539100Y-90714925D01*
X94539100Y-90545076D01*
X94539100Y-90545074D01*
X94539100Y-90545073D01*
X94515620Y-90396826D01*
X94512531Y-90377320D01*
X94512530Y-90377317D01*
X94512529Y-90377310D01*
X94460041Y-90215769D01*
X94382929Y-90064428D01*
X94283092Y-89927013D01*
X94162987Y-89806908D01*
X94025572Y-89707071D01*
X93909935Y-89648151D01*
X93863522Y-89604316D01*
X93848176Y-89542348D01*
X93868769Y-89481919D01*
X93918763Y-89442217D01*
X93961372Y-89433900D01*
X94795288Y-89433900D01*
X94795289Y-89433900D01*
X94931078Y-89397516D01*
X95052822Y-89327226D01*
X97702823Y-86677223D01*
X97758852Y-86646629D01*
X97800658Y-86645435D01*
X97950073Y-86669100D01*
X97950076Y-86669100D01*
X98119926Y-86669100D01*
X98119927Y-86669100D01*
X98203856Y-86655807D01*
X98287679Y-86642531D01*
X98287680Y-86642530D01*
X98287690Y-86642529D01*
X98449231Y-86590041D01*
X98600572Y-86512929D01*
X98737987Y-86413092D01*
X98858092Y-86292987D01*
X98957929Y-86155572D01*
X99035041Y-86004231D01*
X99087529Y-85842690D01*
X99095517Y-85792259D01*
X99100785Y-85758996D01*
X99114100Y-85674927D01*
X99114100Y-85505073D01*
X99100148Y-85416984D01*
X99087531Y-85337320D01*
X99087530Y-85337317D01*
X99087529Y-85337310D01*
X99035041Y-85175769D01*
X98957929Y-85024428D01*
X98858092Y-84887013D01*
X98737987Y-84766908D01*
X98669891Y-84717434D01*
X99495900Y-84717434D01*
X99495900Y-86462565D01*
X99503372Y-86500125D01*
X99507020Y-86518468D01*
X99509193Y-86529389D01*
X99509192Y-86529389D01*
X99509193Y-86529390D01*
X99559828Y-86605172D01*
X99635610Y-86655807D01*
X99702438Y-86669100D01*
X99702441Y-86669100D01*
X101447559Y-86669100D01*
X101447562Y-86669100D01*
X101514390Y-86655807D01*
X101590172Y-86605172D01*
X101640807Y-86529390D01*
X101654100Y-86462562D01*
X101654100Y-84717438D01*
X101640807Y-84650610D01*
X101590172Y-84574828D01*
X101514390Y-84524193D01*
X101514389Y-84524192D01*
X101447565Y-84510900D01*
X101447562Y-84510900D01*
X99702438Y-84510900D01*
X99702434Y-84510900D01*
X99635610Y-84524192D01*
X99559828Y-84574828D01*
X99509192Y-84650610D01*
X99495900Y-84717434D01*
X98669891Y-84717434D01*
X98600572Y-84667071D01*
X98464957Y-84597972D01*
X98449235Y-84589961D01*
X98449234Y-84589960D01*
X98430925Y-84584011D01*
X98287690Y-84537471D01*
X98287686Y-84537470D01*
X98287685Y-84537470D01*
X98287679Y-84537468D01*
X98138687Y-84513871D01*
X98119927Y-84510900D01*
X97950073Y-84510900D01*
X97933199Y-84513572D01*
X97782320Y-84537468D01*
X97782314Y-84537470D01*
X97782311Y-84537470D01*
X97782310Y-84537471D01*
X97765934Y-84542792D01*
X97620765Y-84589960D01*
X97620764Y-84589961D01*
X97469431Y-84667069D01*
X97469428Y-84667070D01*
X97469428Y-84667071D01*
X97449331Y-84681672D01*
X97332014Y-84766907D01*
X97332006Y-84766914D01*
X97211914Y-84887006D01*
X97211907Y-84887014D01*
X97112069Y-85024431D01*
X97034961Y-85175764D01*
X97034960Y-85175765D01*
X97015046Y-85237054D01*
X96982600Y-85336915D01*
X96982470Y-85337314D01*
X96982468Y-85337320D01*
X96962312Y-85464587D01*
X96955900Y-85505073D01*
X96955900Y-85674927D01*
X96972237Y-85778072D01*
X96979564Y-85824337D01*
X96971382Y-85887651D01*
X96947774Y-85922176D01*
X94537037Y-88332915D01*
X94481006Y-88363511D01*
X94456922Y-88366100D01*
X92579711Y-88366100D01*
X92454633Y-88399614D01*
X92443924Y-88402483D01*
X92443916Y-88402486D01*
X92322175Y-88472775D01*
X91252176Y-89542774D01*
X91196145Y-89573370D01*
X91154337Y-89574564D01*
X91108536Y-89567310D01*
X91004927Y-89550900D01*
X90835073Y-89550900D01*
X90820659Y-89553183D01*
X90679800Y-89575492D01*
X90616486Y-89567310D01*
X90581962Y-89543702D01*
X89819846Y-88781586D01*
X89813387Y-88775127D01*
X89813386Y-88775125D01*
X89761932Y-88723671D01*
X89738504Y-88680764D01*
X89731339Y-88667643D01*
X89735894Y-88603965D01*
X89735894Y-88603964D01*
X89764534Y-88565706D01*
X89774152Y-88552858D01*
X89774152Y-88552857D01*
X89774153Y-88552857D01*
X89774155Y-88552856D01*
X89802457Y-88537402D01*
X89844027Y-88521897D01*
X89844030Y-88521895D01*
X89960046Y-88435047D01*
X89960047Y-88435046D01*
X90046895Y-88319030D01*
X90046898Y-88319024D01*
X90097546Y-88183236D01*
X90104000Y-88123207D01*
X90104000Y-87815500D01*
X88446001Y-87815500D01*
X88446001Y-88123209D01*
X88452451Y-88183226D01*
X88452453Y-88183235D01*
X88503101Y-88319025D01*
X88503104Y-88319030D01*
X88556008Y-88389702D01*
X88578318Y-88449518D01*
X88564748Y-88511899D01*
X88519606Y-88557041D01*
X88465307Y-88570900D01*
X88003589Y-88570900D01*
X87942334Y-88552914D01*
X87900528Y-88504667D01*
X87891442Y-88441476D01*
X87912888Y-88389702D01*
X87974819Y-88306971D01*
X87980210Y-88292517D01*
X88022965Y-88177887D01*
X88029100Y-88120826D01*
X88029100Y-87129174D01*
X88028844Y-87126792D01*
X88446000Y-87126792D01*
X88446000Y-87434500D01*
X89084500Y-87434500D01*
X89465500Y-87434500D01*
X90103999Y-87434500D01*
X90103999Y-87126790D01*
X90097548Y-87066773D01*
X90097546Y-87066764D01*
X90046898Y-86930974D01*
X90046895Y-86930969D01*
X89960047Y-86814953D01*
X89960046Y-86814952D01*
X89844030Y-86728104D01*
X89844024Y-86728101D01*
X89708236Y-86677453D01*
X89648208Y-86671000D01*
X89465500Y-86671000D01*
X89465500Y-87434500D01*
X89084500Y-87434500D01*
X89084500Y-86671000D01*
X88901789Y-86671000D01*
X88841773Y-86677451D01*
X88841764Y-86677453D01*
X88705974Y-86728101D01*
X88705969Y-86728104D01*
X88589953Y-86814952D01*
X88589952Y-86814953D01*
X88503104Y-86930969D01*
X88503101Y-86930975D01*
X88452453Y-87066763D01*
X88446000Y-87126792D01*
X88028844Y-87126792D01*
X88022965Y-87072113D01*
X87974820Y-86943031D01*
X87974818Y-86943028D01*
X87974819Y-86943028D01*
X87892259Y-86832741D01*
X87892258Y-86832740D01*
X87781971Y-86750180D01*
X87667665Y-86707547D01*
X87652887Y-86702035D01*
X87595826Y-86695900D01*
X86854174Y-86695900D01*
X86797113Y-86702035D01*
X86668028Y-86750180D01*
X86557741Y-86832740D01*
X86514895Y-86889975D01*
X86463788Y-86928232D01*
X86400110Y-86932785D01*
X86344080Y-86902190D01*
X85940310Y-86498420D01*
X85940309Y-86498419D01*
X85878209Y-86462565D01*
X85865266Y-86455092D01*
X85781564Y-86432665D01*
X85621012Y-86432665D01*
X85594110Y-86424765D01*
X85566712Y-86418806D01*
X85562129Y-86415375D01*
X85559757Y-86414679D01*
X85540902Y-86399485D01*
X85463283Y-86321865D01*
X85432689Y-86265835D01*
X85430100Y-86241752D01*
X85430100Y-86155342D01*
X85405363Y-86063023D01*
X85394043Y-86020775D01*
X85393967Y-86020644D01*
X85393139Y-86019208D01*
X85392778Y-86017723D01*
X85391199Y-86013909D01*
X85391793Y-86013662D01*
X85378088Y-85957167D01*
X85398969Y-85896838D01*
X85434610Y-85864439D01*
X85440017Y-85861317D01*
X85478072Y-85839346D01*
X85539346Y-85778072D01*
X85582673Y-85703028D01*
X85605100Y-85619327D01*
X85605100Y-85034702D01*
X85612999Y-85007797D01*
X85618959Y-84980403D01*
X85622388Y-84975821D01*
X85623086Y-84973447D01*
X85638285Y-84954587D01*
X85780587Y-84812285D01*
X85836618Y-84781689D01*
X85860702Y-84779100D01*
X86307600Y-84779100D01*
X86368855Y-84797086D01*
X86410661Y-84845333D01*
X86420900Y-84892400D01*
X86420900Y-85495826D01*
X86427035Y-85552887D01*
X86475180Y-85681969D01*
X86475181Y-85681971D01*
X86475180Y-85681971D01*
X86557740Y-85792258D01*
X86557741Y-85792259D01*
X86668028Y-85874819D01*
X86681749Y-85879936D01*
X86797113Y-85922965D01*
X86854174Y-85929100D01*
X86854177Y-85929100D01*
X87595823Y-85929100D01*
X87595826Y-85929100D01*
X87652887Y-85922965D01*
X87781969Y-85874820D01*
X87781969Y-85874819D01*
X87781971Y-85874819D01*
X87849407Y-85824337D01*
X87892259Y-85792259D01*
X87962737Y-85698110D01*
X87974819Y-85681971D01*
X87976644Y-85677079D01*
X88022965Y-85552887D01*
X88028844Y-85498209D01*
X88446001Y-85498209D01*
X88452451Y-85558226D01*
X88452453Y-85558235D01*
X88503101Y-85694025D01*
X88503104Y-85694030D01*
X88589952Y-85810046D01*
X88589953Y-85810047D01*
X88705969Y-85896895D01*
X88705975Y-85896898D01*
X88841763Y-85947546D01*
X88901792Y-85953999D01*
X89084499Y-85953999D01*
X89465500Y-85953999D01*
X89648210Y-85953999D01*
X89708226Y-85947548D01*
X89708235Y-85947546D01*
X89844025Y-85896898D01*
X89844030Y-85896895D01*
X89960046Y-85810047D01*
X89960047Y-85810046D01*
X90046895Y-85694030D01*
X90046898Y-85694024D01*
X90097546Y-85558236D01*
X90104000Y-85498207D01*
X90104000Y-85190500D01*
X89465500Y-85190500D01*
X89465500Y-85953999D01*
X89084499Y-85953999D01*
X89084500Y-85953998D01*
X89084500Y-85190500D01*
X88446001Y-85190500D01*
X88446001Y-85498209D01*
X88028844Y-85498209D01*
X88029100Y-85495826D01*
X88029100Y-84504174D01*
X88022965Y-84447113D01*
X88022964Y-84447111D01*
X88022964Y-84447108D01*
X88022101Y-84443456D01*
X88022257Y-84440535D01*
X88022207Y-84440066D01*
X88022283Y-84440057D01*
X88023236Y-84422274D01*
X88020217Y-84401276D01*
X88024913Y-84390993D01*
X88025518Y-84379707D01*
X88037925Y-84362501D01*
X88046738Y-84343204D01*
X88056247Y-84337092D01*
X88062858Y-84327925D01*
X88082597Y-84320158D01*
X88100444Y-84308689D01*
X88118256Y-84306128D01*
X88122265Y-84304551D01*
X88132364Y-84304100D01*
X88341790Y-84304100D01*
X88403045Y-84322086D01*
X88444851Y-84370333D01*
X88453937Y-84433524D01*
X88452557Y-84440798D01*
X88446000Y-84501792D01*
X88446000Y-84809500D01*
X90103999Y-84809500D01*
X90103999Y-84501790D01*
X90096790Y-84434715D01*
X90098425Y-84434539D01*
X90101362Y-84379713D01*
X90138699Y-84327929D01*
X90198105Y-84304552D01*
X90208210Y-84304100D01*
X91993301Y-84304100D01*
X92036660Y-84312725D01*
X92132200Y-84352299D01*
X92132202Y-84352300D01*
X92132203Y-84352300D01*
X92132205Y-84352301D01*
X92253746Y-84376477D01*
X92253749Y-84376477D01*
X92377665Y-84376477D01*
X92377668Y-84376477D01*
X92499209Y-84352301D01*
X92613698Y-84304878D01*
X92716735Y-84236031D01*
X92804361Y-84148405D01*
X92873208Y-84045368D01*
X92920631Y-83930879D01*
X92944807Y-83809338D01*
X92944807Y-83685416D01*
X92920631Y-83563875D01*
X92873208Y-83449386D01*
X92866826Y-83439835D01*
X92804364Y-83346353D01*
X92804363Y-83346352D01*
X92804361Y-83346349D01*
X92716735Y-83258723D01*
X92716734Y-83258722D01*
X92716732Y-83258720D01*
X92712433Y-83255192D01*
X92713120Y-83254354D01*
X92708911Y-83252432D01*
X92695328Y-83231297D01*
X92679217Y-83212015D01*
X92677435Y-83203455D01*
X92674396Y-83198726D01*
X92669807Y-83166806D01*
X92669807Y-83053880D01*
X92687793Y-82992625D01*
X92702992Y-82973765D01*
X92711684Y-82965073D01*
X96955900Y-82965073D01*
X96955900Y-83134927D01*
X96956857Y-83140969D01*
X96982468Y-83302679D01*
X96982470Y-83302685D01*
X96982471Y-83302690D01*
X97027738Y-83442007D01*
X97034960Y-83464234D01*
X97034961Y-83464235D01*
X97112071Y-83615572D01*
X97211908Y-83752987D01*
X97332013Y-83873092D01*
X97469428Y-83972929D01*
X97620769Y-84050041D01*
X97782310Y-84102529D01*
X97782317Y-84102530D01*
X97782320Y-84102531D01*
X97903829Y-84121775D01*
X97950073Y-84129100D01*
X97950074Y-84129100D01*
X98119926Y-84129100D01*
X98119927Y-84129100D01*
X98198287Y-84116689D01*
X98287679Y-84102531D01*
X98287680Y-84102530D01*
X98287690Y-84102529D01*
X98449231Y-84050041D01*
X98600572Y-83972929D01*
X98737987Y-83873092D01*
X98858092Y-83752987D01*
X98957929Y-83615572D01*
X99035041Y-83464231D01*
X99087529Y-83302690D01*
X99088030Y-83299530D01*
X99099797Y-83225235D01*
X99114100Y-83134927D01*
X99114100Y-82965073D01*
X99495900Y-82965073D01*
X99495900Y-83134927D01*
X99496857Y-83140969D01*
X99522468Y-83302679D01*
X99522470Y-83302685D01*
X99522471Y-83302690D01*
X99567738Y-83442007D01*
X99574960Y-83464234D01*
X99574961Y-83464235D01*
X99652071Y-83615572D01*
X99751908Y-83752987D01*
X99872013Y-83873092D01*
X100009428Y-83972929D01*
X100160769Y-84050041D01*
X100322310Y-84102529D01*
X100322317Y-84102530D01*
X100322320Y-84102531D01*
X100443829Y-84121775D01*
X100490073Y-84129100D01*
X100490074Y-84129100D01*
X100659926Y-84129100D01*
X100659927Y-84129100D01*
X100738287Y-84116689D01*
X100827679Y-84102531D01*
X100827680Y-84102530D01*
X100827690Y-84102529D01*
X100989231Y-84050041D01*
X101140572Y-83972929D01*
X101277987Y-83873092D01*
X101398092Y-83752987D01*
X101497929Y-83615572D01*
X101575041Y-83464231D01*
X101627529Y-83302690D01*
X101628030Y-83299530D01*
X101639797Y-83225235D01*
X101654100Y-83134927D01*
X101654100Y-82965073D01*
X101646775Y-82918829D01*
X101627531Y-82797320D01*
X101627530Y-82797317D01*
X101627529Y-82797310D01*
X101575041Y-82635769D01*
X101497929Y-82484428D01*
X101398092Y-82347013D01*
X101277987Y-82226908D01*
X101140572Y-82127071D01*
X100989235Y-82049961D01*
X100989234Y-82049960D01*
X100955241Y-82038915D01*
X100827690Y-81997471D01*
X100827686Y-81997470D01*
X100827685Y-81997470D01*
X100827679Y-81997468D01*
X100678687Y-81973871D01*
X100659927Y-81970900D01*
X100490073Y-81970900D01*
X100473199Y-81973572D01*
X100322320Y-81997468D01*
X100322314Y-81997470D01*
X100322311Y-81997470D01*
X100322310Y-81997471D01*
X100260110Y-82017681D01*
X100160765Y-82049960D01*
X100160764Y-82049961D01*
X100009431Y-82127069D01*
X100009428Y-82127070D01*
X100009428Y-82127071D01*
X99989601Y-82141476D01*
X99872014Y-82226907D01*
X99872006Y-82226914D01*
X99751914Y-82347006D01*
X99751907Y-82347014D01*
X99730028Y-82377128D01*
X99670782Y-82458675D01*
X99652069Y-82484431D01*
X99574961Y-82635764D01*
X99574960Y-82635765D01*
X99573035Y-82641689D01*
X99522971Y-82795773D01*
X99522470Y-82797314D01*
X99522468Y-82797320D01*
X99502311Y-82924594D01*
X99495900Y-82965073D01*
X99114100Y-82965073D01*
X99106775Y-82918829D01*
X99087531Y-82797320D01*
X99087530Y-82797317D01*
X99087529Y-82797310D01*
X99035041Y-82635769D01*
X98957929Y-82484428D01*
X98858092Y-82347013D01*
X98737987Y-82226908D01*
X98600572Y-82127071D01*
X98449235Y-82049961D01*
X98449234Y-82049960D01*
X98415241Y-82038915D01*
X98287690Y-81997471D01*
X98287686Y-81997470D01*
X98287685Y-81997470D01*
X98287679Y-81997468D01*
X98138687Y-81973871D01*
X98119927Y-81970900D01*
X97950073Y-81970900D01*
X97933199Y-81973572D01*
X97782320Y-81997468D01*
X97782314Y-81997470D01*
X97782311Y-81997470D01*
X97782310Y-81997471D01*
X97720110Y-82017681D01*
X97620765Y-82049960D01*
X97620764Y-82049961D01*
X97469431Y-82127069D01*
X97469428Y-82127070D01*
X97469428Y-82127071D01*
X97449601Y-82141476D01*
X97332014Y-82226907D01*
X97332006Y-82226914D01*
X97211914Y-82347006D01*
X97211907Y-82347014D01*
X97190028Y-82377128D01*
X97130782Y-82458675D01*
X97112069Y-82484431D01*
X97034961Y-82635764D01*
X97034960Y-82635765D01*
X97033035Y-82641689D01*
X96982971Y-82795773D01*
X96982470Y-82797314D01*
X96982468Y-82797320D01*
X96962311Y-82924594D01*
X96955900Y-82965073D01*
X92711684Y-82965073D01*
X95253643Y-80423114D01*
X96931000Y-80423114D01*
X96931000Y-80596885D01*
X96958181Y-80768510D01*
X96958183Y-80768516D01*
X97011884Y-80933792D01*
X97011885Y-80933794D01*
X97090772Y-81088620D01*
X97131253Y-81144336D01*
X97131254Y-81144337D01*
X97570364Y-80705226D01*
X97634901Y-80817007D01*
X97727993Y-80910099D01*
X97839772Y-80974634D01*
X97400661Y-81413744D01*
X97456379Y-81454226D01*
X97456379Y-81454227D01*
X97611205Y-81533114D01*
X97611207Y-81533115D01*
X97776483Y-81586816D01*
X97776489Y-81586818D01*
X97948114Y-81614000D01*
X98121886Y-81614000D01*
X98293510Y-81586818D01*
X98293516Y-81586816D01*
X98458792Y-81533115D01*
X98458794Y-81533114D01*
X98613613Y-81454230D01*
X98613617Y-81454228D01*
X98669336Y-81413744D01*
X98230227Y-80974635D01*
X98342007Y-80910099D01*
X98435099Y-80817007D01*
X98499635Y-80705227D01*
X98938744Y-81144336D01*
X98979228Y-81088617D01*
X98979230Y-81088613D01*
X99058114Y-80933794D01*
X99058115Y-80933792D01*
X99111816Y-80768516D01*
X99111818Y-80768510D01*
X99139000Y-80596885D01*
X99139000Y-80425073D01*
X99495900Y-80425073D01*
X99495900Y-80594927D01*
X99498902Y-80613881D01*
X99522468Y-80762679D01*
X99522470Y-80762685D01*
X99522471Y-80762690D01*
X99566561Y-80898384D01*
X99574960Y-80924234D01*
X99574961Y-80924235D01*
X99652071Y-81075572D01*
X99751908Y-81212987D01*
X99872013Y-81333092D01*
X100009428Y-81432929D01*
X100160769Y-81510041D01*
X100322310Y-81562529D01*
X100322317Y-81562530D01*
X100322320Y-81562531D01*
X100438300Y-81580900D01*
X100490073Y-81589100D01*
X100490074Y-81589100D01*
X100659926Y-81589100D01*
X100659927Y-81589100D01*
X100752127Y-81574497D01*
X100827679Y-81562531D01*
X100827680Y-81562530D01*
X100827690Y-81562529D01*
X100989231Y-81510041D01*
X101140572Y-81432929D01*
X101277987Y-81333092D01*
X101398092Y-81212987D01*
X101497929Y-81075572D01*
X101575041Y-80924231D01*
X101627529Y-80762690D01*
X101628710Y-80755237D01*
X101651098Y-80613881D01*
X101654100Y-80594927D01*
X101654100Y-80425073D01*
X101641138Y-80343234D01*
X101627531Y-80257320D01*
X101627530Y-80257317D01*
X101627529Y-80257310D01*
X101575041Y-80095769D01*
X101497929Y-79944428D01*
X101398092Y-79807013D01*
X101277987Y-79686908D01*
X101140572Y-79587071D01*
X100989235Y-79509961D01*
X100989234Y-79509960D01*
X100989231Y-79509959D01*
X100827690Y-79457471D01*
X100827686Y-79457470D01*
X100827685Y-79457470D01*
X100827679Y-79457468D01*
X100674341Y-79433183D01*
X100659927Y-79430900D01*
X100490073Y-79430900D01*
X100475671Y-79433181D01*
X100322320Y-79457468D01*
X100322314Y-79457470D01*
X100322311Y-79457470D01*
X100322310Y-79457471D01*
X100313139Y-79460451D01*
X100160765Y-79509960D01*
X100160764Y-79509961D01*
X100009431Y-79587069D01*
X99872014Y-79686907D01*
X99872006Y-79686914D01*
X99751914Y-79807006D01*
X99751907Y-79807014D01*
X99652069Y-79944431D01*
X99574961Y-80095764D01*
X99574960Y-80095765D01*
X99557298Y-80150123D01*
X99524363Y-80251489D01*
X99522470Y-80257314D01*
X99522468Y-80257320D01*
X99504016Y-80373828D01*
X99495900Y-80425073D01*
X99139000Y-80425073D01*
X99139000Y-80423114D01*
X99111818Y-80251489D01*
X99111816Y-80251483D01*
X99058115Y-80086207D01*
X99058114Y-80086205D01*
X98979227Y-79931379D01*
X98938744Y-79875662D01*
X98938744Y-79875661D01*
X98499634Y-80314771D01*
X98435099Y-80202993D01*
X98342007Y-80109901D01*
X98230226Y-80045364D01*
X98669337Y-79606254D01*
X98669336Y-79606253D01*
X98613620Y-79565773D01*
X98613620Y-79565772D01*
X98458794Y-79486885D01*
X98458792Y-79486884D01*
X98293516Y-79433183D01*
X98293510Y-79433181D01*
X98121886Y-79406000D01*
X97948114Y-79406000D01*
X97776489Y-79433181D01*
X97776483Y-79433183D01*
X97611207Y-79486884D01*
X97611205Y-79486885D01*
X97456378Y-79565774D01*
X97400661Y-79606254D01*
X97839772Y-80045365D01*
X97727993Y-80109901D01*
X97634901Y-80202993D01*
X97570365Y-80314772D01*
X97131254Y-79875661D01*
X97090774Y-79931378D01*
X97011885Y-80086205D01*
X97011884Y-80086207D01*
X96958183Y-80251483D01*
X96958181Y-80251489D01*
X96931000Y-80423114D01*
X95253643Y-80423114D01*
X97014472Y-78662285D01*
X97070503Y-78631689D01*
X97094587Y-78629100D01*
X97346993Y-78629100D01*
X97408248Y-78647086D01*
X97427108Y-78662285D01*
X97463209Y-78698386D01*
X97502205Y-78720900D01*
X97583855Y-78768041D01*
X97583856Y-78768041D01*
X97583859Y-78768043D01*
X97718427Y-78804100D01*
X97857740Y-78804100D01*
X97857741Y-78804100D01*
X97992309Y-78768043D01*
X98112959Y-78698386D01*
X98211470Y-78599875D01*
X98281127Y-78479225D01*
X98317184Y-78344657D01*
X98317184Y-78205343D01*
X98314705Y-78196093D01*
X98293190Y-78115797D01*
X98281127Y-78070775D01*
X98280025Y-78068867D01*
X98249335Y-78015709D01*
X98211470Y-77950125D01*
X98112959Y-77851614D01*
X98096472Y-77842095D01*
X97992312Y-77781958D01*
X97992306Y-77781956D01*
X97857741Y-77745900D01*
X97718427Y-77745900D01*
X97712750Y-77745900D01*
X97651495Y-77727914D01*
X97609689Y-77679667D01*
X97600603Y-77616476D01*
X97603310Y-77603277D01*
X97605469Y-77595219D01*
X97615865Y-77556422D01*
X97615865Y-77417108D01*
X97610873Y-77398479D01*
X97601905Y-77365007D01*
X97579808Y-77282540D01*
X97510151Y-77161890D01*
X97411640Y-77063379D01*
X97359081Y-77033034D01*
X97315027Y-76986831D01*
X97302945Y-76924145D01*
X97326672Y-76864877D01*
X97335607Y-76854809D01*
X97688133Y-76502285D01*
X97744165Y-76471689D01*
X97768248Y-76469100D01*
X99412559Y-76469100D01*
X99412562Y-76469100D01*
X99479390Y-76455807D01*
X99555172Y-76405172D01*
X99605807Y-76329390D01*
X99619100Y-76262562D01*
X99619100Y-75686678D01*
X99637086Y-75625423D01*
X99685333Y-75583617D01*
X99748524Y-75574531D01*
X99806596Y-75601052D01*
G37*
%TD.AperFunction*%
%TA.AperFunction,Conductor*%
G36*
X61817450Y-75487871D02*
G01*
X61831423Y-75487095D01*
X61847581Y-75496253D01*
X61865475Y-75501231D01*
X61874788Y-75511674D01*
X61886963Y-75518575D01*
X61895604Y-75535016D01*
X61907966Y-75548877D01*
X61915217Y-75572328D01*
X61916666Y-75575085D01*
X61917492Y-75579686D01*
X61927469Y-75642681D01*
X61927470Y-75642685D01*
X61927471Y-75642690D01*
X61941764Y-75686678D01*
X61979960Y-75804234D01*
X61979961Y-75804235D01*
X62057071Y-75955572D01*
X62156908Y-76092987D01*
X62277013Y-76213092D01*
X62414428Y-76312929D01*
X62565769Y-76390041D01*
X62727310Y-76442529D01*
X62727317Y-76442530D01*
X62727320Y-76442531D01*
X62848829Y-76461775D01*
X62895073Y-76469100D01*
X62895074Y-76469100D01*
X63064926Y-76469100D01*
X63064927Y-76469100D01*
X63148856Y-76455807D01*
X63232679Y-76442531D01*
X63232680Y-76442530D01*
X63232690Y-76442529D01*
X63390248Y-76391334D01*
X63454061Y-76389512D01*
X63505373Y-76418975D01*
X64371449Y-77285051D01*
X64437749Y-77351351D01*
X64461402Y-77365007D01*
X64518949Y-77398233D01*
X64519868Y-77398479D01*
X64527583Y-77400546D01*
X64609519Y-77422501D01*
X64703281Y-77422501D01*
X64703285Y-77422500D01*
X68144968Y-77422500D01*
X68206223Y-77440486D01*
X68225083Y-77455685D01*
X70080715Y-79311316D01*
X70111311Y-79367347D01*
X70113900Y-79391431D01*
X70113900Y-81294792D01*
X70113900Y-81388554D01*
X70138167Y-81479123D01*
X70185049Y-81560324D01*
X70829392Y-82204667D01*
X70970462Y-82345736D01*
X71001058Y-82401767D01*
X70996503Y-82465445D01*
X70958245Y-82516552D01*
X70898430Y-82538862D01*
X70836048Y-82525292D01*
X70833698Y-82523972D01*
X70804232Y-82506960D01*
X70804226Y-82506957D01*
X70804225Y-82506957D01*
X70804223Y-82506956D01*
X70804222Y-82506956D01*
X70669657Y-82470900D01*
X70530343Y-82470900D01*
X70395777Y-82506956D01*
X70395771Y-82506958D01*
X70275124Y-82576614D01*
X70176614Y-82675124D01*
X70106958Y-82795771D01*
X70106956Y-82795777D01*
X70070900Y-82930342D01*
X70070900Y-83069657D01*
X70106956Y-83204222D01*
X70106958Y-83204228D01*
X70176614Y-83324875D01*
X70237715Y-83385976D01*
X70251151Y-83410582D01*
X70266311Y-83434171D01*
X70267125Y-83439835D01*
X70268311Y-83442007D01*
X70270900Y-83466091D01*
X70270900Y-83516752D01*
X70252914Y-83578007D01*
X70237715Y-83596867D01*
X69311655Y-84522926D01*
X69311655Y-84522927D01*
X69311654Y-84522928D01*
X69310924Y-84524193D01*
X69268327Y-84597970D01*
X69245900Y-84681672D01*
X69245900Y-86111752D01*
X69227914Y-86173007D01*
X69212715Y-86191867D01*
X66466867Y-88937715D01*
X66410836Y-88968311D01*
X66386752Y-88970900D01*
X65076673Y-88970900D01*
X64992970Y-88993327D01*
X64938034Y-89025045D01*
X64917928Y-89036654D01*
X64917927Y-89036655D01*
X64917926Y-89036655D01*
X63991355Y-89963225D01*
X63935324Y-89993821D01*
X63871646Y-89989266D01*
X63820539Y-89951008D01*
X63819636Y-89949784D01*
X63803092Y-89927013D01*
X63682987Y-89806908D01*
X63545572Y-89707071D01*
X63394235Y-89629961D01*
X63394234Y-89629960D01*
X63372592Y-89622928D01*
X63232690Y-89577471D01*
X63232686Y-89577470D01*
X63232685Y-89577470D01*
X63232679Y-89577468D01*
X63079341Y-89553183D01*
X63064927Y-89550900D01*
X62895073Y-89550900D01*
X62880671Y-89553181D01*
X62727320Y-89577468D01*
X62727310Y-89577471D01*
X62567275Y-89629469D01*
X62503461Y-89631292D01*
X62448791Y-89598324D01*
X62420623Y-89541034D01*
X62427589Y-89478355D01*
X62442558Y-89442217D01*
X62473478Y-89367569D01*
X62497900Y-89244791D01*
X62497900Y-89119609D01*
X62473478Y-88996831D01*
X62473477Y-88996828D01*
X62473475Y-88996822D01*
X62425577Y-88881186D01*
X62425570Y-88881172D01*
X62356028Y-88777096D01*
X62356022Y-88777089D01*
X62267510Y-88688577D01*
X62267503Y-88688571D01*
X62163427Y-88619029D01*
X62163413Y-88619022D01*
X62047777Y-88571124D01*
X62047771Y-88571122D01*
X61924994Y-88546700D01*
X61924991Y-88546700D01*
X61799809Y-88546700D01*
X61799805Y-88546700D01*
X61677028Y-88571122D01*
X61677022Y-88571124D01*
X61561386Y-88619022D01*
X61561372Y-88619029D01*
X61457296Y-88688571D01*
X61457289Y-88688577D01*
X61368777Y-88777089D01*
X61368771Y-88777096D01*
X61299229Y-88881172D01*
X61299222Y-88881186D01*
X61251324Y-88996822D01*
X61251322Y-88996828D01*
X61226900Y-89119605D01*
X61226900Y-89244794D01*
X61251322Y-89367571D01*
X61251322Y-89367572D01*
X61269451Y-89411339D01*
X61276275Y-89474814D01*
X61247698Y-89531902D01*
X61192794Y-89564477D01*
X61128994Y-89562198D01*
X61099788Y-89547505D01*
X61075002Y-89530149D01*
X60874364Y-89436589D01*
X60874360Y-89436588D01*
X60660542Y-89379295D01*
X60660530Y-89379293D01*
X60440000Y-89360000D01*
X60219469Y-89379293D01*
X60219457Y-89379295D01*
X60005639Y-89436588D01*
X60005635Y-89436589D01*
X59804998Y-89530149D01*
X59761529Y-89560587D01*
X59737418Y-89577470D01*
X59728786Y-89583514D01*
X59668293Y-89603915D01*
X59606373Y-89588372D01*
X59562686Y-89541821D01*
X59550500Y-89490704D01*
X59550500Y-86446794D01*
X59568486Y-86385539D01*
X59616733Y-86343733D01*
X59679924Y-86334647D01*
X59737996Y-86361168D01*
X59768476Y-86403436D01*
X59816123Y-86518468D01*
X59893169Y-86633775D01*
X59991224Y-86731830D01*
X60106531Y-86808876D01*
X60234650Y-86861944D01*
X60370658Y-86888999D01*
X60370665Y-86889000D01*
X60599500Y-86889000D01*
X60599500Y-86435000D01*
X60980500Y-86435000D01*
X60980500Y-86889000D01*
X61209335Y-86889000D01*
X61209341Y-86888999D01*
X61345349Y-86861944D01*
X61473468Y-86808876D01*
X61588775Y-86731830D01*
X61637396Y-86683209D01*
X62286001Y-86683209D01*
X62292451Y-86743226D01*
X62292453Y-86743235D01*
X62343101Y-86879025D01*
X62343104Y-86879030D01*
X62429952Y-86995046D01*
X62429953Y-86995047D01*
X62545969Y-87081895D01*
X62545975Y-87081898D01*
X62681763Y-87132546D01*
X62741792Y-87138999D01*
X63049499Y-87138999D01*
X63430500Y-87138999D01*
X63738210Y-87138999D01*
X63798226Y-87132548D01*
X63798235Y-87132546D01*
X63934025Y-87081898D01*
X63934030Y-87081895D01*
X64050046Y-86995047D01*
X64050047Y-86995046D01*
X64136895Y-86879030D01*
X64136898Y-86879024D01*
X64187546Y-86743236D01*
X64194000Y-86683207D01*
X64194000Y-86275500D01*
X63430500Y-86275500D01*
X63430500Y-87138999D01*
X63049499Y-87138999D01*
X63049500Y-87138998D01*
X63049500Y-86275500D01*
X62286001Y-86275500D01*
X62286001Y-86683209D01*
X61637396Y-86683209D01*
X61686830Y-86633775D01*
X61763876Y-86518468D01*
X61816946Y-86390344D01*
X61819899Y-86375500D01*
X61303054Y-86375500D01*
X61351940Y-86326614D01*
X61390000Y-86234728D01*
X61390000Y-86135272D01*
X61351940Y-86043386D01*
X61303054Y-85994500D01*
X61819899Y-85994500D01*
X61819899Y-85994499D01*
X61816946Y-85979655D01*
X61763876Y-85851531D01*
X61686830Y-85736224D01*
X61588776Y-85638170D01*
X61588769Y-85638164D01*
X61505960Y-85582833D01*
X61338404Y-85505070D01*
X61317569Y-85486792D01*
X62286000Y-85486792D01*
X62286000Y-85894500D01*
X63049500Y-85894500D01*
X63430500Y-85894500D01*
X64193999Y-85894500D01*
X64193999Y-85486790D01*
X64187548Y-85426773D01*
X64187546Y-85426764D01*
X64136898Y-85290974D01*
X64136895Y-85290969D01*
X64050047Y-85174953D01*
X64050046Y-85174952D01*
X63934030Y-85088104D01*
X63934024Y-85088101D01*
X63798236Y-85037453D01*
X63738208Y-85031000D01*
X63430500Y-85031000D01*
X63430500Y-85894500D01*
X63049500Y-85894500D01*
X63049500Y-85031000D01*
X62741790Y-85031000D01*
X62681773Y-85037451D01*
X62681764Y-85037453D01*
X62545974Y-85088101D01*
X62545969Y-85088104D01*
X62429953Y-85174952D01*
X62429952Y-85174953D01*
X62343104Y-85290969D01*
X62343101Y-85290975D01*
X62292453Y-85426763D01*
X62286000Y-85486792D01*
X61317569Y-85486792D01*
X61316116Y-85485517D01*
X61293033Y-85466916D01*
X61292258Y-85464587D01*
X61290413Y-85462969D01*
X61282234Y-85434472D01*
X61272872Y-85406343D01*
X61273478Y-85403964D01*
X61272802Y-85401606D01*
X61281325Y-85373221D01*
X61288660Y-85344485D01*
X61290457Y-85342811D01*
X61291163Y-85340462D01*
X61313677Y-85321193D01*
X61335385Y-85300983D01*
X61338019Y-85300360D01*
X61339665Y-85298952D01*
X61349989Y-85297531D01*
X61386100Y-85288999D01*
X61538210Y-85288999D01*
X61598226Y-85282548D01*
X61598235Y-85282546D01*
X61734025Y-85231898D01*
X61734030Y-85231895D01*
X61850046Y-85145047D01*
X61850047Y-85145046D01*
X61936895Y-85029030D01*
X61936898Y-85029024D01*
X61987546Y-84893236D01*
X61994000Y-84833207D01*
X61994000Y-84375500D01*
X62544290Y-84375500D01*
X62546025Y-84387409D01*
X62597913Y-84493546D01*
X62681451Y-84577084D01*
X62787597Y-84628976D01*
X62856401Y-84639000D01*
X63274500Y-84639000D01*
X63655500Y-84639000D01*
X64073599Y-84639000D01*
X64142402Y-84628976D01*
X64248548Y-84577084D01*
X64332086Y-84493546D01*
X64383974Y-84387409D01*
X64385710Y-84375500D01*
X63655500Y-84375500D01*
X63655500Y-84639000D01*
X63274500Y-84639000D01*
X63274500Y-84375500D01*
X62544290Y-84375500D01*
X61994000Y-84375500D01*
X61994000Y-84275500D01*
X60980500Y-84275500D01*
X60980500Y-85288999D01*
X60996385Y-85304884D01*
X61026981Y-85360915D01*
X61022426Y-85424593D01*
X60996386Y-85465113D01*
X60980500Y-85480999D01*
X60980500Y-85935000D01*
X60599500Y-85935000D01*
X60599500Y-85481000D01*
X60583614Y-85465114D01*
X60553018Y-85409083D01*
X60557573Y-85345405D01*
X60583615Y-85304883D01*
X60599500Y-85288998D01*
X60599500Y-83894500D01*
X60980500Y-83894500D01*
X61993999Y-83894500D01*
X61993999Y-83336790D01*
X61987548Y-83276773D01*
X61987546Y-83276764D01*
X61936898Y-83140974D01*
X61936895Y-83140969D01*
X61850047Y-83024953D01*
X61850046Y-83024952D01*
X61784254Y-82975701D01*
X61745996Y-82924594D01*
X61741441Y-82860916D01*
X61772037Y-82804885D01*
X61784254Y-82794299D01*
X61850046Y-82745047D01*
X61850047Y-82745046D01*
X61936895Y-82629030D01*
X61936898Y-82629024D01*
X61987546Y-82493236D01*
X61994000Y-82433207D01*
X61994000Y-81875500D01*
X60980500Y-81875500D01*
X60980500Y-83894500D01*
X60599500Y-83894500D01*
X60599500Y-80481000D01*
X60583615Y-80465115D01*
X60553019Y-80409084D01*
X60557574Y-80345406D01*
X60583615Y-80304885D01*
X60599500Y-80289000D01*
X60599500Y-79835000D01*
X60980500Y-79835000D01*
X60980500Y-80289000D01*
X60996385Y-80304885D01*
X61026981Y-80360916D01*
X61022426Y-80424594D01*
X60996385Y-80465115D01*
X60980500Y-80481000D01*
X60980500Y-81494500D01*
X61993999Y-81494500D01*
X61993999Y-80936787D01*
X61993837Y-80933768D01*
X61993999Y-80933759D01*
X61993999Y-80933756D01*
X61994061Y-80933756D01*
X61995338Y-80933687D01*
X62005633Y-80876672D01*
X62049141Y-80829953D01*
X62102532Y-80815309D01*
X62102501Y-80815070D01*
X62104240Y-80814840D01*
X62106942Y-80814100D01*
X62109866Y-80814100D01*
X62109867Y-80814100D01*
X62244435Y-80778043D01*
X62365085Y-80708386D01*
X62388255Y-80685215D01*
X62444282Y-80654622D01*
X62507960Y-80659175D01*
X62536266Y-80674630D01*
X62545977Y-80681899D01*
X62545976Y-80681899D01*
X62681763Y-80732546D01*
X62741792Y-80738999D01*
X63049499Y-80738999D01*
X63049500Y-80738998D01*
X63049500Y-78631000D01*
X62741790Y-78631000D01*
X62693507Y-78636190D01*
X62630681Y-78624853D01*
X62583958Y-78581349D01*
X62568100Y-78523539D01*
X62568100Y-78235983D01*
X62569529Y-78228729D01*
X62568708Y-78224264D01*
X62573046Y-78210886D01*
X62576574Y-78192990D01*
X62579467Y-78185934D01*
X62626643Y-78104225D01*
X62652389Y-78008135D01*
X62655131Y-78001452D01*
X62670739Y-77981944D01*
X62683744Y-77960609D01*
X62690396Y-77957377D01*
X62695016Y-77951604D01*
X62718693Y-77943631D01*
X62741168Y-77932714D01*
X62748510Y-77933591D01*
X62755519Y-77931232D01*
X62779750Y-77937327D01*
X62804557Y-77940293D01*
X62812254Y-77945503D01*
X62817431Y-77946805D01*
X62823078Y-77952828D01*
X62840072Y-77964330D01*
X63397315Y-78521573D01*
X63427911Y-78577604D01*
X63430500Y-78601688D01*
X63430500Y-79494500D01*
X64193998Y-79494500D01*
X64202004Y-79486494D01*
X64258035Y-79455898D01*
X64321713Y-79460451D01*
X64362235Y-79486493D01*
X65295795Y-80420053D01*
X65326391Y-80476084D01*
X65328980Y-80500168D01*
X65328980Y-80586577D01*
X65365036Y-80721142D01*
X65365038Y-80721148D01*
X65434694Y-80841795D01*
X65440948Y-80848049D01*
X65471544Y-80904080D01*
X65466989Y-80967758D01*
X65440948Y-81008279D01*
X64601512Y-81847715D01*
X64576905Y-81861151D01*
X64553317Y-81876311D01*
X64547652Y-81877125D01*
X64545481Y-81878311D01*
X64521397Y-81880900D01*
X64477580Y-81880900D01*
X64416325Y-81862914D01*
X64374519Y-81814667D01*
X64365249Y-81752811D01*
X64365865Y-81748135D01*
X64369100Y-81723563D01*
X64369099Y-81470958D01*
X64387085Y-81409705D01*
X64402285Y-81390843D01*
X64439564Y-81353564D01*
X64439564Y-81353563D01*
X64439568Y-81353560D01*
X64509225Y-81232910D01*
X64545282Y-81098342D01*
X64545282Y-80959028D01*
X64542857Y-80949979D01*
X64529033Y-80898384D01*
X64509225Y-80824460D01*
X64507809Y-80822008D01*
X64458698Y-80736945D01*
X64439568Y-80703810D01*
X64341057Y-80605299D01*
X64220407Y-80535642D01*
X64220405Y-80535641D01*
X64217318Y-80533859D01*
X64173263Y-80487655D01*
X64161181Y-80424969D01*
X64167812Y-80396142D01*
X64187546Y-80343234D01*
X64194000Y-80283207D01*
X64194000Y-79875500D01*
X63430500Y-79875500D01*
X63430500Y-80738999D01*
X63443001Y-80751500D01*
X63444640Y-80752581D01*
X63459638Y-80756985D01*
X63470737Y-80769794D01*
X63484884Y-80779125D01*
X63491207Y-80793418D01*
X63501444Y-80805232D01*
X63503856Y-80822008D01*
X63510713Y-80837507D01*
X63509264Y-80859620D01*
X63510530Y-80868423D01*
X63510330Y-80869754D01*
X63509393Y-80875758D01*
X63487082Y-80959028D01*
X63487082Y-81018857D01*
X63485729Y-81027535D01*
X63475716Y-81048787D01*
X63469096Y-81071335D01*
X63459462Y-81083289D01*
X63458521Y-81085287D01*
X63457171Y-81086131D01*
X63453897Y-81090195D01*
X63421377Y-81122715D01*
X63365346Y-81153311D01*
X63341262Y-81155900D01*
X62851445Y-81155900D01*
X62851428Y-81155902D01*
X62803511Y-81162209D01*
X62803510Y-81162209D01*
X62698325Y-81211257D01*
X62698323Y-81211258D01*
X62616258Y-81293323D01*
X62616257Y-81293325D01*
X62567211Y-81398506D01*
X62567210Y-81398509D01*
X62560900Y-81446437D01*
X62560900Y-81723554D01*
X62560902Y-81723571D01*
X62567209Y-81771488D01*
X62567210Y-81771492D01*
X62609469Y-81862119D01*
X62619055Y-81925235D01*
X62609469Y-81957881D01*
X62567212Y-82048503D01*
X62567210Y-82048509D01*
X62560900Y-82096437D01*
X62560900Y-82373554D01*
X62560902Y-82373571D01*
X62567209Y-82421488D01*
X62567210Y-82421492D01*
X62609469Y-82512119D01*
X62619055Y-82575235D01*
X62609469Y-82607881D01*
X62567212Y-82698503D01*
X62567210Y-82698509D01*
X62560900Y-82746437D01*
X62560900Y-83023554D01*
X62560902Y-83023571D01*
X62567209Y-83071488D01*
X62567210Y-83071492D01*
X62609469Y-83162119D01*
X62619055Y-83225235D01*
X62609469Y-83257881D01*
X62567212Y-83348503D01*
X62567210Y-83348509D01*
X62560900Y-83396437D01*
X62560900Y-83673554D01*
X62560902Y-83673571D01*
X62567209Y-83721488D01*
X62567209Y-83721489D01*
X62596317Y-83783912D01*
X62605903Y-83847029D01*
X62595420Y-83881555D01*
X62546025Y-83982592D01*
X62544290Y-83994500D01*
X64385710Y-83994500D01*
X64383974Y-83982591D01*
X64334580Y-83881556D01*
X64323835Y-83818626D01*
X64333679Y-83783918D01*
X64362790Y-83721491D01*
X64369100Y-83673563D01*
X64369099Y-83396438D01*
X64366564Y-83377180D01*
X64365249Y-83367185D01*
X64375088Y-83304107D01*
X64417467Y-83256362D01*
X64477580Y-83239100D01*
X65068378Y-83239100D01*
X65068382Y-83239101D01*
X65161618Y-83239101D01*
X65240978Y-83217836D01*
X65248773Y-83215747D01*
X65248775Y-83215747D01*
X65251675Y-83214970D01*
X65251675Y-83214969D01*
X65251678Y-83214969D01*
X65332423Y-83168351D01*
X65398351Y-83102423D01*
X65398351Y-83102421D01*
X65407674Y-83093099D01*
X65407677Y-83093094D01*
X65828488Y-82672285D01*
X65884520Y-82641689D01*
X65908603Y-82639100D01*
X65959656Y-82639100D01*
X65959657Y-82639100D01*
X66094225Y-82603043D01*
X66214875Y-82533386D01*
X66313386Y-82434875D01*
X66383043Y-82314225D01*
X66419100Y-82179657D01*
X66419100Y-82040343D01*
X66418717Y-82038915D01*
X66400493Y-81970900D01*
X66383043Y-81905775D01*
X66377014Y-81895333D01*
X66330442Y-81814667D01*
X66313386Y-81785125D01*
X66214875Y-81686614D01*
X66133628Y-81639706D01*
X66094228Y-81616958D01*
X66094226Y-81616957D01*
X66078397Y-81612716D01*
X66073660Y-81609828D01*
X66068130Y-81609433D01*
X66046725Y-81593410D01*
X66023885Y-81579487D01*
X66021461Y-81574497D01*
X66017023Y-81571175D01*
X66007678Y-81546122D01*
X65995992Y-81522062D01*
X65996650Y-81516554D01*
X65994713Y-81511360D01*
X66000396Y-81485231D01*
X66003573Y-81458673D01*
X66007405Y-81453010D01*
X66008283Y-81448978D01*
X66027605Y-81423166D01*
X66070693Y-81380078D01*
X66070698Y-81380075D01*
X66080020Y-81370752D01*
X66080022Y-81370752D01*
X66145950Y-81304824D01*
X66192568Y-81224079D01*
X66200808Y-81193327D01*
X66216700Y-81134019D01*
X66216700Y-81040783D01*
X66216700Y-81033844D01*
X66216699Y-81033826D01*
X66216699Y-80953492D01*
X66234685Y-80892237D01*
X66249884Y-80873377D01*
X66263641Y-80859620D01*
X66281466Y-80841795D01*
X66351123Y-80721145D01*
X66387180Y-80586577D01*
X66387180Y-80447263D01*
X66386562Y-80444958D01*
X66364778Y-80363656D01*
X66351123Y-80312695D01*
X66281466Y-80192045D01*
X66182955Y-80093534D01*
X66160856Y-80080775D01*
X66062308Y-80023878D01*
X66062302Y-80023876D01*
X65927737Y-79987820D01*
X65841328Y-79987820D01*
X65780073Y-79969834D01*
X65761213Y-79954635D01*
X62680433Y-76873855D01*
X62680432Y-76873854D01*
X62647428Y-76854799D01*
X62605389Y-76830527D01*
X62521687Y-76808100D01*
X60896410Y-76808100D01*
X60835155Y-76790114D01*
X60793349Y-76741867D01*
X60784263Y-76678676D01*
X60810784Y-76620604D01*
X60864490Y-76586089D01*
X60867085Y-76585361D01*
X60868049Y-76585102D01*
X60874366Y-76583410D01*
X61075000Y-76489852D01*
X61256340Y-76362876D01*
X61412876Y-76206340D01*
X61539852Y-76025000D01*
X61633410Y-75824366D01*
X61677610Y-75659408D01*
X61690704Y-75610542D01*
X61690704Y-75610538D01*
X61690706Y-75610533D01*
X61692718Y-75587536D01*
X61699483Y-75570239D01*
X61701864Y-75551820D01*
X61710876Y-75541114D01*
X61715974Y-75528082D01*
X61731016Y-75517188D01*
X61742978Y-75502980D01*
X61756346Y-75498846D01*
X61767681Y-75490639D01*
X61786227Y-75489607D01*
X61803970Y-75484122D01*
X61817450Y-75487871D01*
G37*
%TD.AperFunction*%
%TA.AperFunction,Conductor*%
G36*
X80393207Y-82647086D02*
G01*
X80435013Y-82695333D01*
X80444099Y-82758524D01*
X80417578Y-82816596D01*
X80412067Y-82822515D01*
X79696867Y-83537715D01*
X79640836Y-83568311D01*
X79616752Y-83570900D01*
X78650064Y-83570900D01*
X78588809Y-83552914D01*
X78547003Y-83504667D01*
X78537917Y-83441476D01*
X78551943Y-83400950D01*
X78554555Y-83396426D01*
X78593778Y-83328490D01*
X78629835Y-83193922D01*
X78629835Y-83107513D01*
X78647821Y-83046258D01*
X78663020Y-83027398D01*
X79028133Y-82662285D01*
X79084164Y-82631689D01*
X79108248Y-82629100D01*
X80331952Y-82629100D01*
X80393207Y-82647086D01*
G37*
%TD.AperFunction*%
%TA.AperFunction,Conductor*%
G36*
X90231099Y-74418486D02*
G01*
X90272905Y-74466733D01*
X90274357Y-74474950D01*
X90724772Y-74925365D01*
X90612993Y-74989901D01*
X90519901Y-75082993D01*
X90455365Y-75194772D01*
X90016254Y-74755661D01*
X89975774Y-74811378D01*
X89896885Y-74966205D01*
X89896884Y-74966207D01*
X89843183Y-75131483D01*
X89843181Y-75131489D01*
X89816000Y-75303114D01*
X89816000Y-75476885D01*
X89843181Y-75648510D01*
X89843183Y-75648516D01*
X89896884Y-75813792D01*
X89896885Y-75813794D01*
X89975772Y-75968620D01*
X90016253Y-76024336D01*
X90016254Y-76024337D01*
X90455364Y-75585226D01*
X90519901Y-75697007D01*
X90612993Y-75790099D01*
X90724772Y-75854634D01*
X90285661Y-76293744D01*
X90341379Y-76334226D01*
X90341379Y-76334227D01*
X90496205Y-76413114D01*
X90496207Y-76413115D01*
X90661483Y-76466816D01*
X90661489Y-76466818D01*
X90833114Y-76494000D01*
X91006886Y-76494000D01*
X91178510Y-76466818D01*
X91178516Y-76466816D01*
X91343792Y-76413115D01*
X91343794Y-76413114D01*
X91498613Y-76334230D01*
X91498617Y-76334228D01*
X91554336Y-76293744D01*
X91115227Y-75854635D01*
X91227007Y-75790099D01*
X91320099Y-75697007D01*
X91384635Y-75585227D01*
X91823744Y-76024336D01*
X91864228Y-75968617D01*
X91864230Y-75968613D01*
X91943114Y-75813794D01*
X91943115Y-75813792D01*
X91996816Y-75648516D01*
X91996818Y-75648510D01*
X92024000Y-75476885D01*
X92024000Y-75303114D01*
X91996818Y-75131489D01*
X91996816Y-75131483D01*
X91943115Y-74966207D01*
X91943114Y-74966205D01*
X91864227Y-74811379D01*
X91823744Y-74755662D01*
X91823744Y-74755661D01*
X91384634Y-75194771D01*
X91320099Y-75082993D01*
X91227007Y-74989901D01*
X91115226Y-74925364D01*
X91567655Y-74472936D01*
X91570327Y-74460215D01*
X91615145Y-74414751D01*
X91670155Y-74400500D01*
X92649891Y-74400500D01*
X92711146Y-74418486D01*
X92752952Y-74466733D01*
X92762038Y-74529924D01*
X92735517Y-74587996D01*
X92730006Y-74593915D01*
X92636914Y-74687006D01*
X92636907Y-74687014D01*
X92537069Y-74824431D01*
X92459961Y-74975764D01*
X92459960Y-74975765D01*
X92434922Y-75052825D01*
X92409363Y-75131489D01*
X92407470Y-75137314D01*
X92407468Y-75137320D01*
X92383572Y-75288199D01*
X92380900Y-75305073D01*
X92380900Y-75474927D01*
X92382827Y-75487095D01*
X92407468Y-75642679D01*
X92407470Y-75642685D01*
X92407471Y-75642690D01*
X92421764Y-75686678D01*
X92459960Y-75804234D01*
X92459961Y-75804235D01*
X92537071Y-75955572D01*
X92636908Y-76092987D01*
X92757013Y-76213092D01*
X92894428Y-76312929D01*
X93045769Y-76390041D01*
X93207310Y-76442529D01*
X93207317Y-76442530D01*
X93207320Y-76442531D01*
X93328829Y-76461775D01*
X93375073Y-76469100D01*
X93375074Y-76469100D01*
X93544926Y-76469100D01*
X93544927Y-76469100D01*
X93628856Y-76455807D01*
X93712679Y-76442531D01*
X93712680Y-76442530D01*
X93712690Y-76442529D01*
X93874231Y-76390041D01*
X94025572Y-76312929D01*
X94162987Y-76213092D01*
X94283092Y-76092987D01*
X94382929Y-75955572D01*
X94460041Y-75804231D01*
X94512529Y-75642690D01*
X94539100Y-75474927D01*
X94539100Y-75305073D01*
X94531257Y-75255555D01*
X94512531Y-75137320D01*
X94512530Y-75137317D01*
X94512529Y-75137310D01*
X94460041Y-74975769D01*
X94382929Y-74824428D01*
X94283092Y-74687013D01*
X94189994Y-74593915D01*
X94159398Y-74537884D01*
X94163953Y-74474206D01*
X94202211Y-74423099D01*
X94262026Y-74400789D01*
X94270109Y-74400500D01*
X95189891Y-74400500D01*
X95251146Y-74418486D01*
X95292952Y-74466733D01*
X95302038Y-74529924D01*
X95275517Y-74587996D01*
X95270006Y-74593915D01*
X95176914Y-74687006D01*
X95176907Y-74687014D01*
X95077069Y-74824431D01*
X94999961Y-74975764D01*
X94999960Y-74975765D01*
X94974922Y-75052825D01*
X94949363Y-75131489D01*
X94947470Y-75137314D01*
X94947468Y-75137320D01*
X94923572Y-75288199D01*
X94920900Y-75305073D01*
X94920900Y-75474927D01*
X94922827Y-75487095D01*
X94947468Y-75642679D01*
X94947470Y-75642685D01*
X94947471Y-75642690D01*
X94961764Y-75686678D01*
X94999960Y-75804234D01*
X94999961Y-75804235D01*
X95077071Y-75955572D01*
X95176908Y-76092987D01*
X95297013Y-76213092D01*
X95434428Y-76312929D01*
X95585769Y-76390041D01*
X95747310Y-76442529D01*
X95747317Y-76442530D01*
X95747320Y-76442531D01*
X95868829Y-76461775D01*
X95915073Y-76469100D01*
X95915074Y-76469100D01*
X96084926Y-76469100D01*
X96084927Y-76469100D01*
X96168856Y-76455807D01*
X96252679Y-76442531D01*
X96252680Y-76442530D01*
X96252690Y-76442529D01*
X96414231Y-76390041D01*
X96565572Y-76312929D01*
X96702987Y-76213092D01*
X96823092Y-76092987D01*
X96922929Y-75955572D01*
X97000041Y-75804231D01*
X97052529Y-75642690D01*
X97079100Y-75474927D01*
X97079100Y-75305073D01*
X97071257Y-75255555D01*
X97052531Y-75137320D01*
X97052530Y-75137317D01*
X97052529Y-75137310D01*
X97000041Y-74975769D01*
X96922929Y-74824428D01*
X96823092Y-74687013D01*
X96729994Y-74593915D01*
X96699398Y-74537884D01*
X96703953Y-74474206D01*
X96742211Y-74423099D01*
X96802026Y-74400789D01*
X96810109Y-74400500D01*
X97347600Y-74400500D01*
X97408855Y-74418486D01*
X97450661Y-74466733D01*
X97460900Y-74513800D01*
X97460900Y-75751751D01*
X97442914Y-75813006D01*
X97427715Y-75831866D01*
X95439538Y-77820042D01*
X95383507Y-77850638D01*
X95319829Y-77846083D01*
X95268722Y-77807825D01*
X95261302Y-77796576D01*
X95221272Y-77727241D01*
X95122760Y-77628729D01*
X95002113Y-77559073D01*
X95002107Y-77559071D01*
X94867542Y-77523015D01*
X94728228Y-77523015D01*
X94593662Y-77559071D01*
X94593656Y-77559073D01*
X94473009Y-77628729D01*
X94374499Y-77727239D01*
X94304843Y-77847886D01*
X94304841Y-77847892D01*
X94268785Y-77982457D01*
X94268785Y-78068867D01*
X94250799Y-78130122D01*
X94235600Y-78148982D01*
X90347515Y-82037067D01*
X90291484Y-82067663D01*
X90227806Y-82063108D01*
X90176699Y-82024850D01*
X90154389Y-81965035D01*
X90154100Y-81956952D01*
X90154100Y-81004177D01*
X90154092Y-81004098D01*
X90147965Y-80947113D01*
X90099820Y-80818031D01*
X90099818Y-80818028D01*
X90099819Y-80818028D01*
X90017259Y-80707741D01*
X90017258Y-80707740D01*
X89906971Y-80625180D01*
X89831107Y-80596885D01*
X89827805Y-80595653D01*
X89776699Y-80557395D01*
X89754389Y-80497580D01*
X89754100Y-80489497D01*
X89754100Y-79551178D01*
X89772086Y-79489923D01*
X89820333Y-79448117D01*
X89827794Y-79445025D01*
X89881969Y-79424820D01*
X89903716Y-79408541D01*
X89909228Y-79404413D01*
X89992259Y-79342259D01*
X90041870Y-79275985D01*
X90074819Y-79231971D01*
X90074820Y-79231969D01*
X90122965Y-79102887D01*
X90129100Y-79045826D01*
X90129100Y-78054174D01*
X90122965Y-77997113D01*
X90074820Y-77868031D01*
X90074818Y-77868028D01*
X90074819Y-77868028D01*
X89992259Y-77757741D01*
X89992258Y-77757740D01*
X89881971Y-77675180D01*
X89777593Y-77636250D01*
X89752887Y-77627035D01*
X89695826Y-77620900D01*
X88954174Y-77620900D01*
X88904126Y-77626281D01*
X88897113Y-77627035D01*
X88768028Y-77675180D01*
X88657741Y-77757740D01*
X88657740Y-77757741D01*
X88575180Y-77868028D01*
X88532693Y-77981944D01*
X88527035Y-77997113D01*
X88520900Y-78054174D01*
X88520900Y-79045826D01*
X88527035Y-79102887D01*
X88575180Y-79231969D01*
X88575181Y-79231971D01*
X88575180Y-79231971D01*
X88657740Y-79342258D01*
X88657741Y-79342259D01*
X88768028Y-79424818D01*
X88768026Y-79424818D01*
X88768030Y-79424819D01*
X88768031Y-79424820D01*
X88822195Y-79445021D01*
X88873301Y-79483279D01*
X88895611Y-79543095D01*
X88895900Y-79551178D01*
X88895900Y-80508146D01*
X88877914Y-80569401D01*
X88829667Y-80611207D01*
X88822201Y-80614299D01*
X88793031Y-80625180D01*
X88793030Y-80625180D01*
X88793029Y-80625181D01*
X88793025Y-80625183D01*
X88682741Y-80707740D01*
X88682740Y-80707741D01*
X88600180Y-80818028D01*
X88560568Y-80924234D01*
X88552035Y-80947113D01*
X88546384Y-80999679D01*
X88545900Y-81004177D01*
X88545900Y-81995822D01*
X88552035Y-82052887D01*
X88576323Y-82118007D01*
X88580877Y-82181685D01*
X88550280Y-82237716D01*
X88494249Y-82268311D01*
X88470166Y-82270900D01*
X88179834Y-82270900D01*
X88118579Y-82252914D01*
X88076773Y-82204667D01*
X88067687Y-82141476D01*
X88073677Y-82118007D01*
X88084170Y-82089873D01*
X88097965Y-82052887D01*
X88104100Y-81995826D01*
X88104100Y-81004174D01*
X88097965Y-80947113D01*
X88049820Y-80818031D01*
X88049818Y-80818028D01*
X88049819Y-80818028D01*
X87967259Y-80707741D01*
X87967258Y-80707740D01*
X87856971Y-80625180D01*
X87770914Y-80593083D01*
X87727887Y-80577035D01*
X87670826Y-80570900D01*
X86929174Y-80570900D01*
X86883358Y-80575826D01*
X86872113Y-80577035D01*
X86743028Y-80625180D01*
X86632741Y-80707740D01*
X86632740Y-80707741D01*
X86550180Y-80818028D01*
X86510568Y-80924234D01*
X86502035Y-80947113D01*
X86496384Y-80999679D01*
X86495900Y-81004177D01*
X86495900Y-81057600D01*
X86493569Y-81065536D01*
X86494747Y-81073724D01*
X86484716Y-81095686D01*
X86477914Y-81118855D01*
X86471661Y-81124272D01*
X86468226Y-81131796D01*
X86447914Y-81144849D01*
X86429667Y-81160661D01*
X86420059Y-81162751D01*
X86414520Y-81166311D01*
X86382600Y-81170900D01*
X86283248Y-81170900D01*
X86221993Y-81152914D01*
X86203133Y-81137715D01*
X85277071Y-80211653D01*
X85277070Y-80211652D01*
X85236069Y-80187980D01*
X85202027Y-80168325D01*
X85118325Y-80145898D01*
X84891089Y-80145898D01*
X84829834Y-80127912D01*
X84810974Y-80112713D01*
X84749873Y-80051612D01*
X84629226Y-79981956D01*
X84629220Y-79981954D01*
X84494655Y-79945898D01*
X84355341Y-79945898D01*
X84220775Y-79981954D01*
X84220769Y-79981956D01*
X84100122Y-80051612D01*
X84001612Y-80150122D01*
X83931956Y-80270769D01*
X83931954Y-80270775D01*
X83898363Y-80396142D01*
X83895898Y-80405341D01*
X83895898Y-80544655D01*
X83904574Y-80577035D01*
X83904934Y-80578377D01*
X83903414Y-80642200D01*
X83867630Y-80695069D01*
X83808944Y-80720199D01*
X83795494Y-80721000D01*
X83249982Y-80721000D01*
X83175897Y-80735736D01*
X83175891Y-80735738D01*
X83091876Y-80791874D01*
X83035737Y-80875893D01*
X83035736Y-80875895D01*
X83021000Y-80949979D01*
X83021000Y-81234500D01*
X85237373Y-81234500D01*
X85274954Y-81213978D01*
X85338632Y-81218531D01*
X85379155Y-81244573D01*
X85836654Y-81702072D01*
X85897928Y-81763346D01*
X85972972Y-81806673D01*
X86056673Y-81829100D01*
X86382600Y-81829100D01*
X86443855Y-81847086D01*
X86485661Y-81895333D01*
X86494212Y-81922917D01*
X86495900Y-81932586D01*
X86495900Y-81995826D01*
X86502035Y-82052887D01*
X86529977Y-82127804D01*
X86531778Y-82138117D01*
X86529315Y-82159857D01*
X86530877Y-82181685D01*
X86525788Y-82191003D01*
X86524594Y-82201552D01*
X86510766Y-82218512D01*
X86500280Y-82237716D01*
X86490962Y-82242803D01*
X86484254Y-82251032D01*
X86463455Y-82257823D01*
X86444249Y-82268311D01*
X86425003Y-82270379D01*
X86423567Y-82270849D01*
X86422713Y-82270626D01*
X86420166Y-82270900D01*
X85733248Y-82270900D01*
X85671993Y-82252914D01*
X85653133Y-82237715D01*
X85598858Y-82183440D01*
X85598857Y-82183439D01*
X85558012Y-82159857D01*
X85523814Y-82140112D01*
X85440112Y-82117685D01*
X85323760Y-82117685D01*
X85262505Y-82099699D01*
X85220699Y-82051452D01*
X85211613Y-81988261D01*
X85212637Y-81982282D01*
X85228999Y-81900022D01*
X85229000Y-81900012D01*
X85229000Y-81615500D01*
X83021001Y-81615500D01*
X83021001Y-81900014D01*
X83021730Y-81903681D01*
X83016035Y-81967267D01*
X82976867Y-82017681D01*
X82916661Y-82038915D01*
X82854533Y-82024229D01*
X82853955Y-82023898D01*
X82732443Y-81953743D01*
X82732437Y-81953741D01*
X82597872Y-81917685D01*
X82521263Y-81917685D01*
X82460008Y-81899699D01*
X82418202Y-81851452D01*
X82409116Y-81788261D01*
X82435637Y-81730189D01*
X82441148Y-81724270D01*
X82484953Y-81680465D01*
X82538346Y-81627072D01*
X82581673Y-81552028D01*
X82604101Y-81468327D01*
X82604101Y-81381672D01*
X82604101Y-81374733D01*
X82604100Y-81374715D01*
X82604100Y-80333248D01*
X82622086Y-80271993D01*
X82637285Y-80253133D01*
X83311594Y-79578824D01*
X83988346Y-78902072D01*
X84031673Y-78827028D01*
X84054100Y-78743327D01*
X84054100Y-78656673D01*
X84054100Y-78509368D01*
X84072086Y-78448113D01*
X84120333Y-78406307D01*
X84183524Y-78397221D01*
X84241596Y-78423742D01*
X84265519Y-78452716D01*
X84321614Y-78549875D01*
X84420125Y-78648386D01*
X84434479Y-78656673D01*
X84540771Y-78718041D01*
X84540772Y-78718041D01*
X84540775Y-78718043D01*
X84675343Y-78754100D01*
X84814656Y-78754100D01*
X84814657Y-78754100D01*
X84949225Y-78718043D01*
X85069875Y-78648386D01*
X85168386Y-78549875D01*
X85176541Y-78535749D01*
X85222745Y-78491695D01*
X85274662Y-78479100D01*
X86357600Y-78479100D01*
X86418855Y-78497086D01*
X86460661Y-78545333D01*
X86470900Y-78592400D01*
X86470900Y-79045826D01*
X86477035Y-79102887D01*
X86525180Y-79231969D01*
X86525181Y-79231971D01*
X86525180Y-79231971D01*
X86607740Y-79342258D01*
X86607741Y-79342259D01*
X86718028Y-79424819D01*
X86718031Y-79424820D01*
X86847113Y-79472965D01*
X86904174Y-79479100D01*
X86904177Y-79479100D01*
X87645823Y-79479100D01*
X87645826Y-79479100D01*
X87702887Y-79472965D01*
X87831969Y-79424820D01*
X87831969Y-79424819D01*
X87831971Y-79424819D01*
X87901113Y-79373060D01*
X87942259Y-79342259D01*
X87991870Y-79275985D01*
X88024819Y-79231971D01*
X88024820Y-79231969D01*
X88072965Y-79102887D01*
X88079100Y-79045826D01*
X88079100Y-78054174D01*
X88072965Y-77997113D01*
X88024820Y-77868031D01*
X88024818Y-77868028D01*
X88024819Y-77868028D01*
X87942259Y-77757741D01*
X87942258Y-77757740D01*
X87831971Y-77675180D01*
X87727593Y-77636250D01*
X87702887Y-77627035D01*
X87645826Y-77620900D01*
X86904174Y-77620900D01*
X86854126Y-77626281D01*
X86847113Y-77627035D01*
X86718028Y-77675180D01*
X86607742Y-77757739D01*
X86594448Y-77775499D01*
X86543341Y-77813757D01*
X86503747Y-77820900D01*
X85133469Y-77820900D01*
X85079858Y-77807413D01*
X85070819Y-77802558D01*
X85069875Y-77801614D01*
X84949225Y-77731957D01*
X84929567Y-77726689D01*
X84917982Y-77720467D01*
X84904239Y-77706913D01*
X84887756Y-77696866D01*
X84881965Y-77684944D01*
X84872529Y-77675638D01*
X84868295Y-77656802D01*
X84859862Y-77639441D01*
X84861435Y-77626281D01*
X84858529Y-77613351D01*
X84865149Y-77595219D01*
X84867441Y-77576052D01*
X84877661Y-77560952D01*
X84880425Y-77553383D01*
X84885280Y-77549695D01*
X84891475Y-77540542D01*
X85409733Y-77022285D01*
X85465764Y-76991689D01*
X85489848Y-76989100D01*
X87153327Y-76989100D01*
X87237028Y-76966673D01*
X87312072Y-76923346D01*
X87827807Y-76407608D01*
X87883836Y-76377014D01*
X87947514Y-76381568D01*
X87959358Y-76386775D01*
X87965759Y-76390036D01*
X87965769Y-76390041D01*
X88127310Y-76442529D01*
X88127317Y-76442530D01*
X88127320Y-76442531D01*
X88248829Y-76461775D01*
X88295073Y-76469100D01*
X88295074Y-76469100D01*
X88464926Y-76469100D01*
X88464927Y-76469100D01*
X88548856Y-76455807D01*
X88632679Y-76442531D01*
X88632680Y-76442530D01*
X88632690Y-76442529D01*
X88794231Y-76390041D01*
X88945572Y-76312929D01*
X89082987Y-76213092D01*
X89203092Y-76092987D01*
X89302929Y-75955572D01*
X89380041Y-75804231D01*
X89432529Y-75642690D01*
X89459100Y-75474927D01*
X89459100Y-75305073D01*
X89432529Y-75137310D01*
X89380041Y-74975769D01*
X89302929Y-74824428D01*
X89203092Y-74687013D01*
X89109994Y-74593915D01*
X89079398Y-74537884D01*
X89083953Y-74474206D01*
X89122211Y-74423099D01*
X89182026Y-74400789D01*
X89190109Y-74400500D01*
X90169844Y-74400500D01*
X90231099Y-74418486D01*
G37*
%TD.AperFunction*%
%TA.AperFunction,Conductor*%
G36*
X82551146Y-74418486D02*
G01*
X82592952Y-74466733D01*
X82602038Y-74529924D01*
X82575517Y-74587996D01*
X82570006Y-74593915D01*
X82476914Y-74687006D01*
X82476907Y-74687014D01*
X82377069Y-74824431D01*
X82299961Y-74975764D01*
X82299960Y-74975765D01*
X82274922Y-75052825D01*
X82249363Y-75131489D01*
X82247470Y-75137314D01*
X82247468Y-75137320D01*
X82223572Y-75288199D01*
X82220900Y-75305073D01*
X82220900Y-75474927D01*
X82222827Y-75487095D01*
X82247468Y-75642679D01*
X82247470Y-75642685D01*
X82247471Y-75642690D01*
X82261764Y-75686678D01*
X82299960Y-75804234D01*
X82299961Y-75804235D01*
X82377071Y-75955572D01*
X82476908Y-76092987D01*
X82597013Y-76213092D01*
X82734428Y-76312929D01*
X82885769Y-76390041D01*
X82892606Y-76392262D01*
X82945305Y-76428292D01*
X82970161Y-76487095D01*
X82970900Y-76500018D01*
X82970900Y-77100174D01*
X82952914Y-77161429D01*
X82937715Y-77180289D01*
X82436655Y-77681348D01*
X82436655Y-77681349D01*
X82436654Y-77681350D01*
X82427696Y-77696866D01*
X82393327Y-77756392D01*
X82370900Y-77840094D01*
X82370900Y-78241752D01*
X82352914Y-78303007D01*
X82337715Y-78321867D01*
X81331156Y-79328426D01*
X81275125Y-79359022D01*
X81211447Y-79354467D01*
X81170926Y-79328426D01*
X80948428Y-79105928D01*
X80891775Y-79068075D01*
X80820166Y-79053831D01*
X80802386Y-79050295D01*
X80802385Y-79050295D01*
X80712995Y-79068076D01*
X80712994Y-79068076D01*
X80656346Y-79105927D01*
X80656339Y-79105933D01*
X79350210Y-80412062D01*
X79342949Y-80416026D01*
X79337993Y-80422648D01*
X79315373Y-80431084D01*
X79294179Y-80442658D01*
X79285927Y-80442067D01*
X79278178Y-80444958D01*
X79254584Y-80439825D01*
X79230501Y-80438103D01*
X79222229Y-80432787D01*
X79215796Y-80431388D01*
X79189980Y-80412062D01*
X79126128Y-80348210D01*
X79095532Y-80292179D01*
X79100087Y-80228501D01*
X79126128Y-80187980D01*
X79609850Y-79704258D01*
X79154119Y-79248527D01*
X79692935Y-79248527D01*
X79879257Y-79434849D01*
X80433992Y-78880114D01*
X80433997Y-78880107D01*
X80475962Y-78817306D01*
X80475964Y-78817301D01*
X80495677Y-78718198D01*
X80495677Y-78718197D01*
X80475964Y-78619094D01*
X80433993Y-78556280D01*
X80433993Y-78556279D01*
X80409588Y-78531874D01*
X79692935Y-79248527D01*
X79154119Y-79248527D01*
X78967798Y-79062206D01*
X78484075Y-79545928D01*
X78476814Y-79549892D01*
X78471857Y-79556515D01*
X78449236Y-79564951D01*
X78428044Y-79576524D01*
X78419791Y-79575933D01*
X78412042Y-79578824D01*
X78388448Y-79573691D01*
X78364366Y-79571969D01*
X78356095Y-79566653D01*
X78349660Y-79565254D01*
X78323850Y-79545932D01*
X78259991Y-79482074D01*
X78229397Y-79426043D01*
X78233952Y-79362365D01*
X78259991Y-79321847D01*
X78789041Y-78792797D01*
X79237205Y-78792797D01*
X79423528Y-78979120D01*
X80140180Y-78262468D01*
X80115776Y-78238064D01*
X80052964Y-78196092D01*
X80052962Y-78196091D01*
X79953859Y-78176379D01*
X79953857Y-78176379D01*
X79854754Y-78196091D01*
X79854750Y-78196093D01*
X79791943Y-78238059D01*
X79237205Y-78792797D01*
X78789041Y-78792797D01*
X79566125Y-78015714D01*
X79603980Y-77959060D01*
X79621761Y-77869670D01*
X79603980Y-77780280D01*
X79566127Y-77723627D01*
X79251372Y-77408872D01*
X79194719Y-77371019D01*
X79123110Y-77356775D01*
X79105330Y-77353239D01*
X79105329Y-77353239D01*
X79017560Y-77370697D01*
X78953974Y-77365007D01*
X78903558Y-77325842D01*
X78882319Y-77265638D01*
X78897001Y-77203508D01*
X78915339Y-77179462D01*
X79889246Y-76205554D01*
X79945277Y-76174959D01*
X80008955Y-76179514D01*
X80049476Y-76205555D01*
X80057013Y-76213092D01*
X80194428Y-76312929D01*
X80345769Y-76390041D01*
X80507310Y-76442529D01*
X80507317Y-76442530D01*
X80507320Y-76442531D01*
X80628829Y-76461775D01*
X80675073Y-76469100D01*
X80675074Y-76469100D01*
X80844926Y-76469100D01*
X80844927Y-76469100D01*
X80928856Y-76455807D01*
X81012679Y-76442531D01*
X81012680Y-76442530D01*
X81012690Y-76442529D01*
X81174231Y-76390041D01*
X81325572Y-76312929D01*
X81462987Y-76213092D01*
X81583092Y-76092987D01*
X81682929Y-75955572D01*
X81760041Y-75804231D01*
X81812529Y-75642690D01*
X81839100Y-75474927D01*
X81839100Y-75305073D01*
X81831257Y-75255555D01*
X81812531Y-75137320D01*
X81812530Y-75137317D01*
X81812529Y-75137310D01*
X81760041Y-74975769D01*
X81682929Y-74824428D01*
X81583092Y-74687013D01*
X81489994Y-74593915D01*
X81459398Y-74537884D01*
X81463953Y-74474206D01*
X81502211Y-74423099D01*
X81562026Y-74400789D01*
X81570109Y-74400500D01*
X82489891Y-74400500D01*
X82551146Y-74418486D01*
G37*
%TD.AperFunction*%
%TA.AperFunction,Conductor*%
G36*
X61638058Y-77484286D02*
G01*
X61679864Y-77532533D01*
X61688950Y-77595724D01*
X61674923Y-77636250D01*
X61640561Y-77695766D01*
X61640556Y-77695777D01*
X61604500Y-77830342D01*
X61604500Y-77969657D01*
X61640556Y-78104222D01*
X61640558Y-78104228D01*
X61694721Y-78198040D01*
X61709900Y-78254690D01*
X61709900Y-78907132D01*
X61691914Y-78968387D01*
X61643667Y-79010193D01*
X61580476Y-79019279D01*
X61533655Y-79001338D01*
X61473472Y-78961125D01*
X61473469Y-78961124D01*
X61345349Y-78908055D01*
X61209341Y-78881000D01*
X60980500Y-78881000D01*
X60980500Y-79335000D01*
X60599500Y-79335000D01*
X60599500Y-78881000D01*
X60370658Y-78881000D01*
X60234650Y-78908055D01*
X60106531Y-78961123D01*
X59991224Y-79038169D01*
X59893169Y-79136224D01*
X59816123Y-79251532D01*
X59816119Y-79251539D01*
X59768475Y-79366563D01*
X59728417Y-79416272D01*
X59667844Y-79436433D01*
X59605986Y-79420644D01*
X59562484Y-79373920D01*
X59550500Y-79323205D01*
X59550500Y-77855133D01*
X59568486Y-77793878D01*
X59616733Y-77752072D01*
X59679924Y-77742986D01*
X59737996Y-77769507D01*
X59743915Y-77775018D01*
X59760223Y-77791326D01*
X59760230Y-77791332D01*
X59879634Y-77871115D01*
X59879636Y-77871116D01*
X59879642Y-77871120D01*
X59996849Y-77919669D01*
X60012324Y-77926079D01*
X60012326Y-77926080D01*
X60012327Y-77926080D01*
X60012329Y-77926081D01*
X60153190Y-77954100D01*
X60153193Y-77954100D01*
X60296807Y-77954100D01*
X60296810Y-77954100D01*
X60437671Y-77926081D01*
X60570358Y-77871120D01*
X60689774Y-77791329D01*
X60791329Y-77689774D01*
X60871120Y-77570358D01*
X60885251Y-77536241D01*
X60925309Y-77486533D01*
X60985883Y-77466372D01*
X60989927Y-77466300D01*
X61576803Y-77466300D01*
X61638058Y-77484286D01*
G37*
%TD.AperFunction*%
%TD*%
M02*
