%TF.GenerationSoftware,KiCad,Pcbnew,9.0.1*%
%TF.CreationDate,2025-05-07T00:20:05-04:00*%
%TF.ProjectId,nano-shield,6e616e6f-2d73-4686-9965-6c642e6b6963,rev?*%
%TF.SameCoordinates,Original*%
%TF.FileFunction,Legend,Top*%
%TF.FilePolarity,Positive*%
%FSLAX46Y46*%
G04 Gerber Fmt 4.6, Leading zero omitted, Abs format (unit mm)*
G04 Created by KiCad (PCBNEW 9.0.1) date 2025-05-07 00:20:05*
%MOMM*%
%LPD*%
G01*
G04 APERTURE LIST*
G04 Aperture macros list*
%AMRoundRect*
0 Rectangle with rounded corners*
0 $1 Rounding radius*
0 $2 $3 $4 $5 $6 $7 $8 $9 X,Y pos of 4 corners*
0 Add a 4 corners polygon primitive as box body*
4,1,4,$2,$3,$4,$5,$6,$7,$8,$9,$2,$3,0*
0 Add four circle primitives for the rounded corners*
1,1,$1+$1,$2,$3*
1,1,$1+$1,$4,$5*
1,1,$1+$1,$6,$7*
1,1,$1+$1,$8,$9*
0 Add four rect primitives between the rounded corners*
20,1,$1+$1,$2,$3,$4,$5,0*
20,1,$1+$1,$4,$5,$6,$7,0*
20,1,$1+$1,$6,$7,$8,$9,0*
20,1,$1+$1,$8,$9,$2,$3,0*%
G04 Aperture macros list end*
%ADD10C,0.150000*%
%ADD11C,0.040000*%
%ADD12C,0.100000*%
%ADD13C,0.075000*%
%ADD14C,0.175000*%
%ADD15C,0.160000*%
%ADD16C,0.375000*%
%ADD17C,0.200000*%
%ADD18C,0.140000*%
%ADD19C,0.250000*%
%ADD20C,0.120000*%
%ADD21R,1.700000X1.700000*%
%ADD22C,1.700000*%
%ADD23RoundRect,0.250000X-0.337500X-0.475000X0.337500X-0.475000X0.337500X0.475000X-0.337500X0.475000X0*%
%ADD24RoundRect,0.250000X-0.450000X0.350000X-0.450000X-0.350000X0.450000X-0.350000X0.450000X0.350000X0*%
%ADD25R,1.600000X1.600000*%
%ADD26O,1.600000X1.600000*%
%ADD27C,3.200000*%
%ADD28RoundRect,0.250000X-0.475000X0.337500X-0.475000X-0.337500X0.475000X-0.337500X0.475000X0.337500X0*%
%ADD29R,1.600000X1.000000*%
%ADD30RoundRect,0.250001X0.949999X0.949999X-0.949999X0.949999X-0.949999X-0.949999X0.949999X-0.949999X0*%
%ADD31C,2.400000*%
%ADD32RoundRect,0.250000X0.450000X-0.350000X0.450000X0.350000X-0.450000X0.350000X-0.450000X-0.350000X0*%
%ADD33RoundRect,0.250000X-0.550000X1.500000X-0.550000X-1.500000X0.550000X-1.500000X0.550000X1.500000X0*%
%ADD34R,3.500000X3.500000*%
%ADD35RoundRect,0.750000X-0.750000X-1.000000X0.750000X-1.000000X0.750000X1.000000X-0.750000X1.000000X0*%
%ADD36RoundRect,0.875000X-0.875000X-0.875000X0.875000X-0.875000X0.875000X0.875000X-0.875000X0.875000X0*%
%ADD37RoundRect,0.250000X-0.300000X0.300000X-0.300000X-0.300000X0.300000X-0.300000X0.300000X0.300000X0*%
%ADD38RoundRect,0.250001X0.949999X-0.949999X0.949999X0.949999X-0.949999X0.949999X-0.949999X-0.949999X0*%
G04 APERTURE END LIST*
D10*
X107750000Y-99825000D02*
X107250000Y-100325000D01*
X114150000Y-104150000D02*
X113650000Y-103650000D01*
X160250000Y-102700000D02*
X160250000Y-98200000D01*
X107750000Y-101050000D02*
X107750000Y-99825000D01*
D11*
X107050000Y-99675000D02*
X107490000Y-99675000D01*
X107650000Y-99675000D02*
X108090000Y-99675000D01*
X108250000Y-99675000D02*
X108450000Y-99675000D01*
X108450000Y-99675000D02*
X108450000Y-100115000D01*
X108450000Y-100275000D02*
X108450000Y-100715000D01*
X108450000Y-100875000D02*
X108450000Y-101200000D01*
X108450000Y-101200000D02*
X108010000Y-101200000D01*
X107850000Y-101200000D02*
X107410000Y-101200000D01*
X107250000Y-101200000D02*
X107050000Y-101200000D01*
X107050000Y-101200000D02*
X107050000Y-100760000D01*
X107050000Y-100600000D02*
X107050000Y-100160000D01*
X107050000Y-100000000D02*
X107050000Y-99675000D01*
D10*
X107450000Y-104150000D02*
X114150000Y-104150000D01*
D12*
X107050000Y-99675000D02*
X114550000Y-99675000D01*
X114550000Y-101225000D01*
X107050000Y-101225000D01*
X107050000Y-99675000D01*
D10*
X153150000Y-103750000D02*
X153650000Y-103250000D01*
X153150000Y-103750000D02*
X153650000Y-104250000D01*
D12*
X113650000Y-103650000D02*
X114150000Y-104150000D01*
D10*
X160250000Y-98200000D02*
X159750000Y-98700000D01*
X114150000Y-104150000D02*
X113650000Y-104650000D01*
D12*
X107050000Y-101400000D02*
X114550000Y-101400000D01*
X114550000Y-104850000D01*
X107050000Y-104850000D01*
X107050000Y-101400000D01*
D10*
X159150000Y-103750000D02*
X153150000Y-103750000D01*
D11*
X107050000Y-101375000D02*
X107490000Y-101375000D01*
X107650000Y-101375000D02*
X108090000Y-101375000D01*
X108250000Y-101375000D02*
X108690000Y-101375000D01*
X108850000Y-101375000D02*
X109290000Y-101375000D01*
X109450000Y-101375000D02*
X109890000Y-101375000D01*
X110050000Y-101375000D02*
X110490000Y-101375000D01*
X110650000Y-101375000D02*
X111090000Y-101375000D01*
X111250000Y-101375000D02*
X111690000Y-101375000D01*
X111850000Y-101375000D02*
X112290000Y-101375000D01*
X112450000Y-101375000D02*
X112890000Y-101375000D01*
X113050000Y-101375000D02*
X113490000Y-101375000D01*
X113650000Y-101375000D02*
X114090000Y-101375000D01*
X114250000Y-101375000D02*
X114550000Y-101375000D01*
X114550000Y-101375000D02*
X114550000Y-101815000D01*
X114550000Y-101975000D02*
X114550000Y-102415000D01*
X114550000Y-102575000D02*
X114550000Y-103015000D01*
X114550000Y-103175000D02*
X114550000Y-103450000D01*
X114550000Y-103450000D02*
X114110000Y-103450000D01*
X113950000Y-103450000D02*
X113510000Y-103450000D01*
X113350000Y-103450000D02*
X112910000Y-103450000D01*
X112750000Y-103450000D02*
X112310000Y-103450000D01*
X112150000Y-103450000D02*
X111710000Y-103450000D01*
X111550000Y-103450000D02*
X111110000Y-103450000D01*
X110950000Y-103450000D02*
X110510000Y-103450000D01*
X110350000Y-103450000D02*
X109910000Y-103450000D01*
X109750000Y-103450000D02*
X109310000Y-103450000D01*
X109150000Y-103450000D02*
X108710000Y-103450000D01*
X108550000Y-103450000D02*
X108110000Y-103450000D01*
X107950000Y-103450000D02*
X107510000Y-103450000D01*
X107350000Y-103450000D02*
X107050000Y-103450000D01*
X107050000Y-103450000D02*
X107050000Y-103010000D01*
X107050000Y-102850000D02*
X107050000Y-102410000D01*
X107050000Y-102250000D02*
X107050000Y-101810000D01*
X107050000Y-101650000D02*
X107050000Y-101375000D01*
D10*
X160250000Y-98200000D02*
X160750000Y-98700000D01*
X107750000Y-99825000D02*
X108250000Y-100325000D01*
D12*
X107250000Y-100325000D02*
X107750000Y-99825000D01*
D13*
X157513627Y-63898195D02*
X157613627Y-63098195D01*
X157946960Y-63098195D02*
X158042198Y-63098195D01*
X158042198Y-63098195D02*
X158085056Y-63136290D01*
X158085056Y-63136290D02*
X158123151Y-63212480D01*
X158123151Y-63212480D02*
X158127913Y-63364861D01*
X158127913Y-63364861D02*
X158094579Y-63631528D01*
X158094579Y-63631528D02*
X158051722Y-63783909D01*
X158051722Y-63783909D02*
X157994579Y-63860100D01*
X157994579Y-63860100D02*
X157942198Y-63898195D01*
X157942198Y-63898195D02*
X157846960Y-63898195D01*
X157846960Y-63898195D02*
X157804103Y-63860100D01*
X157804103Y-63860100D02*
X157766008Y-63783909D01*
X157766008Y-63783909D02*
X157761246Y-63631528D01*
X157761246Y-63631528D02*
X157794579Y-63364861D01*
X157794579Y-63364861D02*
X157837437Y-63212480D01*
X157837437Y-63212480D02*
X157894579Y-63136290D01*
X157894579Y-63136290D02*
X157946960Y-63098195D01*
D14*
X114665131Y-61318519D02*
X115098464Y-61318519D01*
X115098464Y-61318519D02*
X114865131Y-61699471D01*
X114865131Y-61699471D02*
X114965131Y-61699471D01*
X114965131Y-61699471D02*
X115031797Y-61747090D01*
X115031797Y-61747090D02*
X115065131Y-61794709D01*
X115065131Y-61794709D02*
X115098464Y-61889947D01*
X115098464Y-61889947D02*
X115098464Y-62128042D01*
X115098464Y-62128042D02*
X115065131Y-62223280D01*
X115065131Y-62223280D02*
X115031797Y-62270900D01*
X115031797Y-62270900D02*
X114965131Y-62318519D01*
X114965131Y-62318519D02*
X114765131Y-62318519D01*
X114765131Y-62318519D02*
X114698464Y-62270900D01*
X114698464Y-62270900D02*
X114665131Y-62223280D01*
X115298464Y-61318519D02*
X115531798Y-62318519D01*
X115531798Y-62318519D02*
X115765131Y-61318519D01*
X115931798Y-61318519D02*
X116365131Y-61318519D01*
X116365131Y-61318519D02*
X116131798Y-61699471D01*
X116131798Y-61699471D02*
X116231798Y-61699471D01*
X116231798Y-61699471D02*
X116298464Y-61747090D01*
X116298464Y-61747090D02*
X116331798Y-61794709D01*
X116331798Y-61794709D02*
X116365131Y-61889947D01*
X116365131Y-61889947D02*
X116365131Y-62128042D01*
X116365131Y-62128042D02*
X116331798Y-62223280D01*
X116331798Y-62223280D02*
X116298464Y-62270900D01*
X116298464Y-62270900D02*
X116231798Y-62318519D01*
X116231798Y-62318519D02*
X116031798Y-62318519D01*
X116031798Y-62318519D02*
X115965131Y-62270900D01*
X115965131Y-62270900D02*
X115931798Y-62223280D01*
X117165131Y-62032804D02*
X117498464Y-62032804D01*
X117098464Y-62318519D02*
X117331798Y-61318519D01*
X117331798Y-61318519D02*
X117565131Y-62318519D01*
X118198464Y-62318519D02*
X117965131Y-61842328D01*
X117798464Y-62318519D02*
X117798464Y-61318519D01*
X117798464Y-61318519D02*
X118065131Y-61318519D01*
X118065131Y-61318519D02*
X118131798Y-61366138D01*
X118131798Y-61366138D02*
X118165131Y-61413757D01*
X118165131Y-61413757D02*
X118198464Y-61508995D01*
X118198464Y-61508995D02*
X118198464Y-61651852D01*
X118198464Y-61651852D02*
X118165131Y-61747090D01*
X118165131Y-61747090D02*
X118131798Y-61794709D01*
X118131798Y-61794709D02*
X118065131Y-61842328D01*
X118065131Y-61842328D02*
X117798464Y-61842328D01*
X118498464Y-61794709D02*
X118731798Y-61794709D01*
X118831798Y-62318519D02*
X118498464Y-62318519D01*
X118498464Y-62318519D02*
X118498464Y-61318519D01*
X118498464Y-61318519D02*
X118831798Y-61318519D01*
X119365131Y-61794709D02*
X119131797Y-61794709D01*
X119131797Y-62318519D02*
X119131797Y-61318519D01*
X119131797Y-61318519D02*
X119465131Y-61318519D01*
D15*
X151607643Y-96771680D02*
X151721929Y-96819299D01*
X151721929Y-96819299D02*
X151912405Y-96819299D01*
X151912405Y-96819299D02*
X151988596Y-96771680D01*
X151988596Y-96771680D02*
X152026691Y-96724060D01*
X152026691Y-96724060D02*
X152064786Y-96628822D01*
X152064786Y-96628822D02*
X152064786Y-96533584D01*
X152064786Y-96533584D02*
X152026691Y-96438346D01*
X152026691Y-96438346D02*
X151988596Y-96390727D01*
X151988596Y-96390727D02*
X151912405Y-96343108D01*
X151912405Y-96343108D02*
X151760024Y-96295489D01*
X151760024Y-96295489D02*
X151683834Y-96247870D01*
X151683834Y-96247870D02*
X151645739Y-96200251D01*
X151645739Y-96200251D02*
X151607643Y-96105013D01*
X151607643Y-96105013D02*
X151607643Y-96009775D01*
X151607643Y-96009775D02*
X151645739Y-95914537D01*
X151645739Y-95914537D02*
X151683834Y-95866918D01*
X151683834Y-95866918D02*
X151760024Y-95819299D01*
X151760024Y-95819299D02*
X151950501Y-95819299D01*
X151950501Y-95819299D02*
X152064786Y-95866918D01*
X152407644Y-96819299D02*
X152407644Y-95819299D01*
X152407644Y-95819299D02*
X152598120Y-95819299D01*
X152598120Y-95819299D02*
X152712406Y-95866918D01*
X152712406Y-95866918D02*
X152788596Y-95962156D01*
X152788596Y-95962156D02*
X152826691Y-96057394D01*
X152826691Y-96057394D02*
X152864787Y-96247870D01*
X152864787Y-96247870D02*
X152864787Y-96390727D01*
X152864787Y-96390727D02*
X152826691Y-96581203D01*
X152826691Y-96581203D02*
X152788596Y-96676441D01*
X152788596Y-96676441D02*
X152712406Y-96771680D01*
X152712406Y-96771680D02*
X152598120Y-96819299D01*
X152598120Y-96819299D02*
X152407644Y-96819299D01*
X153169548Y-96533584D02*
X153550501Y-96533584D01*
X153093358Y-96819299D02*
X153360025Y-95819299D01*
X153360025Y-95819299D02*
X153626691Y-96819299D01*
D13*
X146389818Y-86056705D02*
X146329103Y-86542419D01*
X146329103Y-86542419D02*
X146345770Y-86599562D01*
X146345770Y-86599562D02*
X146366008Y-86628134D01*
X146366008Y-86628134D02*
X146410056Y-86656705D01*
X146410056Y-86656705D02*
X146505294Y-86656705D01*
X146505294Y-86656705D02*
X146556484Y-86628134D01*
X146556484Y-86628134D02*
X146583865Y-86599562D01*
X146583865Y-86599562D02*
X146614818Y-86542419D01*
X146614818Y-86542419D02*
X146675532Y-86056705D01*
X146836247Y-86485276D02*
X147074342Y-86485276D01*
X146767199Y-86656705D02*
X147008866Y-86056705D01*
X147008866Y-86056705D02*
X147100532Y-86656705D01*
X147552913Y-86656705D02*
X147421961Y-86370991D01*
X147267199Y-86656705D02*
X147342199Y-86056705D01*
X147342199Y-86056705D02*
X147532675Y-86056705D01*
X147532675Y-86056705D02*
X147576723Y-86085276D01*
X147576723Y-86085276D02*
X147596961Y-86113848D01*
X147596961Y-86113848D02*
X147613627Y-86170991D01*
X147613627Y-86170991D02*
X147602913Y-86256705D01*
X147602913Y-86256705D02*
X147571961Y-86313848D01*
X147571961Y-86313848D02*
X147544580Y-86342419D01*
X147544580Y-86342419D02*
X147493389Y-86370991D01*
X147493389Y-86370991D02*
X147302913Y-86370991D01*
X147770770Y-86056705D02*
X148056484Y-86056705D01*
X147838627Y-86656705D02*
X147913627Y-86056705D01*
X148410055Y-86656705D02*
X148124341Y-86656705D01*
X148267198Y-86656705D02*
X148342198Y-86056705D01*
X148342198Y-86056705D02*
X148283865Y-86142419D01*
X148283865Y-86142419D02*
X148229103Y-86199562D01*
X148229103Y-86199562D02*
X148177913Y-86228134D01*
X148652912Y-86428134D02*
X149033865Y-86428134D01*
X149318389Y-86056705D02*
X149257674Y-86542419D01*
X149257674Y-86542419D02*
X149274341Y-86599562D01*
X149274341Y-86599562D02*
X149294579Y-86628134D01*
X149294579Y-86628134D02*
X149338627Y-86656705D01*
X149338627Y-86656705D02*
X149433865Y-86656705D01*
X149433865Y-86656705D02*
X149485055Y-86628134D01*
X149485055Y-86628134D02*
X149512436Y-86599562D01*
X149512436Y-86599562D02*
X149543389Y-86542419D01*
X149543389Y-86542419D02*
X149604103Y-86056705D01*
X149764818Y-86485276D02*
X150002913Y-86485276D01*
X149695770Y-86656705D02*
X149937437Y-86056705D01*
X149937437Y-86056705D02*
X150029103Y-86656705D01*
X150481484Y-86656705D02*
X150350532Y-86370991D01*
X150195770Y-86656705D02*
X150270770Y-86056705D01*
X150270770Y-86056705D02*
X150461246Y-86056705D01*
X150461246Y-86056705D02*
X150505294Y-86085276D01*
X150505294Y-86085276D02*
X150525532Y-86113848D01*
X150525532Y-86113848D02*
X150542198Y-86170991D01*
X150542198Y-86170991D02*
X150531484Y-86256705D01*
X150531484Y-86256705D02*
X150500532Y-86313848D01*
X150500532Y-86313848D02*
X150473151Y-86342419D01*
X150473151Y-86342419D02*
X150421960Y-86370991D01*
X150421960Y-86370991D02*
X150231484Y-86370991D01*
X150699341Y-86056705D02*
X150985055Y-86056705D01*
X150767198Y-86656705D02*
X150842198Y-86056705D01*
X151338626Y-86656705D02*
X151052912Y-86656705D01*
X151195769Y-86656705D02*
X151270769Y-86056705D01*
X151270769Y-86056705D02*
X151212436Y-86142419D01*
X151212436Y-86142419D02*
X151157674Y-86199562D01*
X151157674Y-86199562D02*
X151106484Y-86228134D01*
X146600532Y-87622671D02*
X146469580Y-87336957D01*
X146314818Y-87622671D02*
X146389818Y-87022671D01*
X146389818Y-87022671D02*
X146580294Y-87022671D01*
X146580294Y-87022671D02*
X146624342Y-87051242D01*
X146624342Y-87051242D02*
X146644580Y-87079814D01*
X146644580Y-87079814D02*
X146661246Y-87136957D01*
X146661246Y-87136957D02*
X146650532Y-87222671D01*
X146650532Y-87222671D02*
X146619580Y-87279814D01*
X146619580Y-87279814D02*
X146592199Y-87308385D01*
X146592199Y-87308385D02*
X146541008Y-87336957D01*
X146541008Y-87336957D02*
X146350532Y-87336957D01*
X146854103Y-87308385D02*
X147020770Y-87308385D01*
X147052913Y-87622671D02*
X146814818Y-87622671D01*
X146814818Y-87622671D02*
X146889818Y-87022671D01*
X146889818Y-87022671D02*
X147127913Y-87022671D01*
X147246961Y-87594100D02*
X147314818Y-87622671D01*
X147314818Y-87622671D02*
X147433865Y-87622671D01*
X147433865Y-87622671D02*
X147485056Y-87594100D01*
X147485056Y-87594100D02*
X147512437Y-87565528D01*
X147512437Y-87565528D02*
X147543389Y-87508385D01*
X147543389Y-87508385D02*
X147550532Y-87451242D01*
X147550532Y-87451242D02*
X147533865Y-87394100D01*
X147533865Y-87394100D02*
X147513627Y-87365528D01*
X147513627Y-87365528D02*
X147469580Y-87336957D01*
X147469580Y-87336957D02*
X147377913Y-87308385D01*
X147377913Y-87308385D02*
X147333865Y-87279814D01*
X147333865Y-87279814D02*
X147313627Y-87251242D01*
X147313627Y-87251242D02*
X147296961Y-87194100D01*
X147296961Y-87194100D02*
X147304103Y-87136957D01*
X147304103Y-87136957D02*
X147335056Y-87079814D01*
X147335056Y-87079814D02*
X147362437Y-87051242D01*
X147362437Y-87051242D02*
X147413627Y-87022671D01*
X147413627Y-87022671D02*
X147532675Y-87022671D01*
X147532675Y-87022671D02*
X147600532Y-87051242D01*
X147782674Y-87308385D02*
X147949341Y-87308385D01*
X147981484Y-87622671D02*
X147743389Y-87622671D01*
X147743389Y-87622671D02*
X147818389Y-87022671D01*
X147818389Y-87022671D02*
X148056484Y-87022671D01*
X148199341Y-87022671D02*
X148485055Y-87022671D01*
X148267198Y-87622671D02*
X148342198Y-87022671D01*
X149032674Y-87022671D02*
X148971959Y-87508385D01*
X148971959Y-87508385D02*
X148988626Y-87565528D01*
X148988626Y-87565528D02*
X149008864Y-87594100D01*
X149008864Y-87594100D02*
X149052912Y-87622671D01*
X149052912Y-87622671D02*
X149148150Y-87622671D01*
X149148150Y-87622671D02*
X149199340Y-87594100D01*
X149199340Y-87594100D02*
X149226721Y-87565528D01*
X149226721Y-87565528D02*
X149257674Y-87508385D01*
X149257674Y-87508385D02*
X149318388Y-87022671D01*
X149479103Y-87451242D02*
X149717198Y-87451242D01*
X149410055Y-87622671D02*
X149651722Y-87022671D01*
X149651722Y-87022671D02*
X149743388Y-87622671D01*
X150195769Y-87622671D02*
X150064817Y-87336957D01*
X149910055Y-87622671D02*
X149985055Y-87022671D01*
X149985055Y-87022671D02*
X150175531Y-87022671D01*
X150175531Y-87022671D02*
X150219579Y-87051242D01*
X150219579Y-87051242D02*
X150239817Y-87079814D01*
X150239817Y-87079814D02*
X150256483Y-87136957D01*
X150256483Y-87136957D02*
X150245769Y-87222671D01*
X150245769Y-87222671D02*
X150214817Y-87279814D01*
X150214817Y-87279814D02*
X150187436Y-87308385D01*
X150187436Y-87308385D02*
X150136245Y-87336957D01*
X150136245Y-87336957D02*
X149945769Y-87336957D01*
X150413626Y-87022671D02*
X150699340Y-87022671D01*
X150481483Y-87622671D02*
X150556483Y-87022671D01*
X150835054Y-87079814D02*
X150862435Y-87051242D01*
X150862435Y-87051242D02*
X150913626Y-87022671D01*
X150913626Y-87022671D02*
X151032673Y-87022671D01*
X151032673Y-87022671D02*
X151076721Y-87051242D01*
X151076721Y-87051242D02*
X151096959Y-87079814D01*
X151096959Y-87079814D02*
X151113626Y-87136957D01*
X151113626Y-87136957D02*
X151106483Y-87194100D01*
X151106483Y-87194100D02*
X151071959Y-87279814D01*
X151071959Y-87279814D02*
X150743388Y-87622671D01*
X150743388Y-87622671D02*
X151052911Y-87622671D01*
D15*
X157502882Y-71374060D02*
X157464786Y-71421680D01*
X157464786Y-71421680D02*
X157350501Y-71469299D01*
X157350501Y-71469299D02*
X157274310Y-71469299D01*
X157274310Y-71469299D02*
X157160024Y-71421680D01*
X157160024Y-71421680D02*
X157083834Y-71326441D01*
X157083834Y-71326441D02*
X157045739Y-71231203D01*
X157045739Y-71231203D02*
X157007643Y-71040727D01*
X157007643Y-71040727D02*
X157007643Y-70897870D01*
X157007643Y-70897870D02*
X157045739Y-70707394D01*
X157045739Y-70707394D02*
X157083834Y-70612156D01*
X157083834Y-70612156D02*
X157160024Y-70516918D01*
X157160024Y-70516918D02*
X157274310Y-70469299D01*
X157274310Y-70469299D02*
X157350501Y-70469299D01*
X157350501Y-70469299D02*
X157464786Y-70516918D01*
X157464786Y-70516918D02*
X157502882Y-70564537D01*
X157807643Y-71421680D02*
X157921929Y-71469299D01*
X157921929Y-71469299D02*
X158112405Y-71469299D01*
X158112405Y-71469299D02*
X158188596Y-71421680D01*
X158188596Y-71421680D02*
X158226691Y-71374060D01*
X158226691Y-71374060D02*
X158264786Y-71278822D01*
X158264786Y-71278822D02*
X158264786Y-71183584D01*
X158264786Y-71183584D02*
X158226691Y-71088346D01*
X158226691Y-71088346D02*
X158188596Y-71040727D01*
X158188596Y-71040727D02*
X158112405Y-70993108D01*
X158112405Y-70993108D02*
X157960024Y-70945489D01*
X157960024Y-70945489D02*
X157883834Y-70897870D01*
X157883834Y-70897870D02*
X157845739Y-70850251D01*
X157845739Y-70850251D02*
X157807643Y-70755013D01*
X157807643Y-70755013D02*
X157807643Y-70659775D01*
X157807643Y-70659775D02*
X157845739Y-70564537D01*
X157845739Y-70564537D02*
X157883834Y-70516918D01*
X157883834Y-70516918D02*
X157960024Y-70469299D01*
X157960024Y-70469299D02*
X158150501Y-70469299D01*
X158150501Y-70469299D02*
X158264786Y-70516918D01*
X137245739Y-62369299D02*
X137245739Y-61369299D01*
X137245739Y-61369299D02*
X137436215Y-61369299D01*
X137436215Y-61369299D02*
X137550501Y-61416918D01*
X137550501Y-61416918D02*
X137626691Y-61512156D01*
X137626691Y-61512156D02*
X137664786Y-61607394D01*
X137664786Y-61607394D02*
X137702882Y-61797870D01*
X137702882Y-61797870D02*
X137702882Y-61940727D01*
X137702882Y-61940727D02*
X137664786Y-62131203D01*
X137664786Y-62131203D02*
X137626691Y-62226441D01*
X137626691Y-62226441D02*
X137550501Y-62321680D01*
X137550501Y-62321680D02*
X137436215Y-62369299D01*
X137436215Y-62369299D02*
X137245739Y-62369299D01*
X137969548Y-61369299D02*
X138502882Y-61369299D01*
X138502882Y-61369299D02*
X138160024Y-62369299D01*
X139417168Y-62369299D02*
X139417168Y-61369299D01*
X139417168Y-61369299D02*
X139607644Y-61369299D01*
X139607644Y-61369299D02*
X139721930Y-61416918D01*
X139721930Y-61416918D02*
X139798120Y-61512156D01*
X139798120Y-61512156D02*
X139836215Y-61607394D01*
X139836215Y-61607394D02*
X139874311Y-61797870D01*
X139874311Y-61797870D02*
X139874311Y-61940727D01*
X139874311Y-61940727D02*
X139836215Y-62131203D01*
X139836215Y-62131203D02*
X139798120Y-62226441D01*
X139798120Y-62226441D02*
X139721930Y-62321680D01*
X139721930Y-62321680D02*
X139607644Y-62369299D01*
X139607644Y-62369299D02*
X139417168Y-62369299D01*
X140560025Y-61369299D02*
X140407644Y-61369299D01*
X140407644Y-61369299D02*
X140331453Y-61416918D01*
X140331453Y-61416918D02*
X140293358Y-61464537D01*
X140293358Y-61464537D02*
X140217168Y-61607394D01*
X140217168Y-61607394D02*
X140179072Y-61797870D01*
X140179072Y-61797870D02*
X140179072Y-62178822D01*
X140179072Y-62178822D02*
X140217168Y-62274060D01*
X140217168Y-62274060D02*
X140255263Y-62321680D01*
X140255263Y-62321680D02*
X140331453Y-62369299D01*
X140331453Y-62369299D02*
X140483834Y-62369299D01*
X140483834Y-62369299D02*
X140560025Y-62321680D01*
X140560025Y-62321680D02*
X140598120Y-62274060D01*
X140598120Y-62274060D02*
X140636215Y-62178822D01*
X140636215Y-62178822D02*
X140636215Y-61940727D01*
X140636215Y-61940727D02*
X140598120Y-61845489D01*
X140598120Y-61845489D02*
X140560025Y-61797870D01*
X140560025Y-61797870D02*
X140483834Y-61750251D01*
X140483834Y-61750251D02*
X140331453Y-61750251D01*
X140331453Y-61750251D02*
X140255263Y-61797870D01*
X140255263Y-61797870D02*
X140217168Y-61845489D01*
X140217168Y-61845489D02*
X140179072Y-61940727D01*
X141588597Y-62369299D02*
X141588597Y-61369299D01*
X141588597Y-61369299D02*
X141779073Y-61369299D01*
X141779073Y-61369299D02*
X141893359Y-61416918D01*
X141893359Y-61416918D02*
X141969549Y-61512156D01*
X141969549Y-61512156D02*
X142007644Y-61607394D01*
X142007644Y-61607394D02*
X142045740Y-61797870D01*
X142045740Y-61797870D02*
X142045740Y-61940727D01*
X142045740Y-61940727D02*
X142007644Y-62131203D01*
X142007644Y-62131203D02*
X141969549Y-62226441D01*
X141969549Y-62226441D02*
X141893359Y-62321680D01*
X141893359Y-62321680D02*
X141779073Y-62369299D01*
X141779073Y-62369299D02*
X141588597Y-62369299D01*
X142769549Y-61369299D02*
X142388597Y-61369299D01*
X142388597Y-61369299D02*
X142350501Y-61845489D01*
X142350501Y-61845489D02*
X142388597Y-61797870D01*
X142388597Y-61797870D02*
X142464787Y-61750251D01*
X142464787Y-61750251D02*
X142655263Y-61750251D01*
X142655263Y-61750251D02*
X142731454Y-61797870D01*
X142731454Y-61797870D02*
X142769549Y-61845489D01*
X142769549Y-61845489D02*
X142807644Y-61940727D01*
X142807644Y-61940727D02*
X142807644Y-62178822D01*
X142807644Y-62178822D02*
X142769549Y-62274060D01*
X142769549Y-62274060D02*
X142731454Y-62321680D01*
X142731454Y-62321680D02*
X142655263Y-62369299D01*
X142655263Y-62369299D02*
X142464787Y-62369299D01*
X142464787Y-62369299D02*
X142388597Y-62321680D01*
X142388597Y-62321680D02*
X142350501Y-62274060D01*
X143760026Y-62369299D02*
X143760026Y-61369299D01*
X143760026Y-61369299D02*
X143950502Y-61369299D01*
X143950502Y-61369299D02*
X144064788Y-61416918D01*
X144064788Y-61416918D02*
X144140978Y-61512156D01*
X144140978Y-61512156D02*
X144179073Y-61607394D01*
X144179073Y-61607394D02*
X144217169Y-61797870D01*
X144217169Y-61797870D02*
X144217169Y-61940727D01*
X144217169Y-61940727D02*
X144179073Y-62131203D01*
X144179073Y-62131203D02*
X144140978Y-62226441D01*
X144140978Y-62226441D02*
X144064788Y-62321680D01*
X144064788Y-62321680D02*
X143950502Y-62369299D01*
X143950502Y-62369299D02*
X143760026Y-62369299D01*
X144902883Y-61702632D02*
X144902883Y-62369299D01*
X144712407Y-61321680D02*
X144521930Y-62035965D01*
X144521930Y-62035965D02*
X145017169Y-62035965D01*
D12*
X108081833Y-103183609D02*
X107915167Y-102945514D01*
X107796119Y-103183609D02*
X107796119Y-102683609D01*
X107796119Y-102683609D02*
X107986595Y-102683609D01*
X107986595Y-102683609D02*
X108034214Y-102707419D01*
X108034214Y-102707419D02*
X108058024Y-102731228D01*
X108058024Y-102731228D02*
X108081833Y-102778847D01*
X108081833Y-102778847D02*
X108081833Y-102850276D01*
X108081833Y-102850276D02*
X108058024Y-102897895D01*
X108058024Y-102897895D02*
X108034214Y-102921704D01*
X108034214Y-102921704D02*
X107986595Y-102945514D01*
X107986595Y-102945514D02*
X107796119Y-102945514D01*
X108510405Y-103183609D02*
X108510405Y-102921704D01*
X108510405Y-102921704D02*
X108486595Y-102874085D01*
X108486595Y-102874085D02*
X108438976Y-102850276D01*
X108438976Y-102850276D02*
X108343738Y-102850276D01*
X108343738Y-102850276D02*
X108296119Y-102874085D01*
X108510405Y-103159800D02*
X108462786Y-103183609D01*
X108462786Y-103183609D02*
X108343738Y-103183609D01*
X108343738Y-103183609D02*
X108296119Y-103159800D01*
X108296119Y-103159800D02*
X108272310Y-103112180D01*
X108272310Y-103112180D02*
X108272310Y-103064561D01*
X108272310Y-103064561D02*
X108296119Y-103016942D01*
X108296119Y-103016942D02*
X108343738Y-102993133D01*
X108343738Y-102993133D02*
X108462786Y-102993133D01*
X108462786Y-102993133D02*
X108510405Y-102969323D01*
X108677072Y-102850276D02*
X108867548Y-102850276D01*
X108748500Y-102683609D02*
X108748500Y-103112180D01*
X108748500Y-103112180D02*
X108772310Y-103159800D01*
X108772310Y-103159800D02*
X108819929Y-103183609D01*
X108819929Y-103183609D02*
X108867548Y-103183609D01*
X109224690Y-103159800D02*
X109177071Y-103183609D01*
X109177071Y-103183609D02*
X109081833Y-103183609D01*
X109081833Y-103183609D02*
X109034214Y-103159800D01*
X109034214Y-103159800D02*
X109010405Y-103112180D01*
X109010405Y-103112180D02*
X109010405Y-102921704D01*
X109010405Y-102921704D02*
X109034214Y-102874085D01*
X109034214Y-102874085D02*
X109081833Y-102850276D01*
X109081833Y-102850276D02*
X109177071Y-102850276D01*
X109177071Y-102850276D02*
X109224690Y-102874085D01*
X109224690Y-102874085D02*
X109248500Y-102921704D01*
X109248500Y-102921704D02*
X109248500Y-102969323D01*
X109248500Y-102969323D02*
X109010405Y-103016942D01*
X109677071Y-103183609D02*
X109677071Y-102683609D01*
X109677071Y-103159800D02*
X109629452Y-103183609D01*
X109629452Y-103183609D02*
X109534214Y-103183609D01*
X109534214Y-103183609D02*
X109486595Y-103159800D01*
X109486595Y-103159800D02*
X109462785Y-103135990D01*
X109462785Y-103135990D02*
X109438976Y-103088371D01*
X109438976Y-103088371D02*
X109438976Y-102945514D01*
X109438976Y-102945514D02*
X109462785Y-102897895D01*
X109462785Y-102897895D02*
X109486595Y-102874085D01*
X109486595Y-102874085D02*
X109534214Y-102850276D01*
X109534214Y-102850276D02*
X109629452Y-102850276D01*
X109629452Y-102850276D02*
X109677071Y-102874085D01*
X109915166Y-103135990D02*
X109938976Y-103159800D01*
X109938976Y-103159800D02*
X109915166Y-103183609D01*
X109915166Y-103183609D02*
X109891357Y-103159800D01*
X109891357Y-103159800D02*
X109915166Y-103135990D01*
X109915166Y-103135990D02*
X109915166Y-103183609D01*
X109915166Y-102874085D02*
X109938976Y-102897895D01*
X109938976Y-102897895D02*
X109915166Y-102921704D01*
X109915166Y-102921704D02*
X109891357Y-102897895D01*
X109891357Y-102897895D02*
X109915166Y-102874085D01*
X109915166Y-102874085D02*
X109915166Y-102921704D01*
X111129451Y-102683609D02*
X111034213Y-102683609D01*
X111034213Y-102683609D02*
X110986594Y-102707419D01*
X110986594Y-102707419D02*
X110962784Y-102731228D01*
X110962784Y-102731228D02*
X110915165Y-102802657D01*
X110915165Y-102802657D02*
X110891356Y-102897895D01*
X110891356Y-102897895D02*
X110891356Y-103088371D01*
X110891356Y-103088371D02*
X110915165Y-103135990D01*
X110915165Y-103135990D02*
X110938975Y-103159800D01*
X110938975Y-103159800D02*
X110986594Y-103183609D01*
X110986594Y-103183609D02*
X111081832Y-103183609D01*
X111081832Y-103183609D02*
X111129451Y-103159800D01*
X111129451Y-103159800D02*
X111153260Y-103135990D01*
X111153260Y-103135990D02*
X111177070Y-103088371D01*
X111177070Y-103088371D02*
X111177070Y-102969323D01*
X111177070Y-102969323D02*
X111153260Y-102921704D01*
X111153260Y-102921704D02*
X111129451Y-102897895D01*
X111129451Y-102897895D02*
X111081832Y-102874085D01*
X111081832Y-102874085D02*
X110986594Y-102874085D01*
X110986594Y-102874085D02*
X110938975Y-102897895D01*
X110938975Y-102897895D02*
X110915165Y-102921704D01*
X110915165Y-102921704D02*
X110891356Y-102969323D01*
X111772307Y-102993133D02*
X112153260Y-102993133D01*
X113034212Y-103183609D02*
X112748498Y-103183609D01*
X112891355Y-103183609D02*
X112891355Y-102683609D01*
X112891355Y-102683609D02*
X112843736Y-102755038D01*
X112843736Y-102755038D02*
X112796117Y-102802657D01*
X112796117Y-102802657D02*
X112748498Y-102826466D01*
X113224688Y-102731228D02*
X113248497Y-102707419D01*
X113248497Y-102707419D02*
X113296116Y-102683609D01*
X113296116Y-102683609D02*
X113415164Y-102683609D01*
X113415164Y-102683609D02*
X113462783Y-102707419D01*
X113462783Y-102707419D02*
X113486592Y-102731228D01*
X113486592Y-102731228D02*
X113510402Y-102778847D01*
X113510402Y-102778847D02*
X113510402Y-102826466D01*
X113510402Y-102826466D02*
X113486592Y-102897895D01*
X113486592Y-102897895D02*
X113200878Y-103183609D01*
X113200878Y-103183609D02*
X113510402Y-103183609D01*
X113653259Y-102683609D02*
X113819925Y-103183609D01*
X113819925Y-103183609D02*
X113986592Y-102683609D01*
D16*
X111877662Y-76603441D02*
X112830043Y-76603441D01*
X111687186Y-77032012D02*
X112353852Y-75532012D01*
X112353852Y-75532012D02*
X113020519Y-77032012D01*
X113687186Y-77032012D02*
X113687186Y-76032012D01*
X113687186Y-76317726D02*
X113782424Y-76174869D01*
X113782424Y-76174869D02*
X113877662Y-76103441D01*
X113877662Y-76103441D02*
X114068138Y-76032012D01*
X114068138Y-76032012D02*
X114258615Y-76032012D01*
X115782424Y-77032012D02*
X115782424Y-75532012D01*
X115782424Y-76960584D02*
X115591948Y-77032012D01*
X115591948Y-77032012D02*
X115210995Y-77032012D01*
X115210995Y-77032012D02*
X115020519Y-76960584D01*
X115020519Y-76960584D02*
X114925281Y-76889155D01*
X114925281Y-76889155D02*
X114830043Y-76746298D01*
X114830043Y-76746298D02*
X114830043Y-76317726D01*
X114830043Y-76317726D02*
X114925281Y-76174869D01*
X114925281Y-76174869D02*
X115020519Y-76103441D01*
X115020519Y-76103441D02*
X115210995Y-76032012D01*
X115210995Y-76032012D02*
X115591948Y-76032012D01*
X115591948Y-76032012D02*
X115782424Y-76103441D01*
X117591948Y-76032012D02*
X117591948Y-77032012D01*
X116734805Y-76032012D02*
X116734805Y-76817726D01*
X116734805Y-76817726D02*
X116830043Y-76960584D01*
X116830043Y-76960584D02*
X117020519Y-77032012D01*
X117020519Y-77032012D02*
X117306234Y-77032012D01*
X117306234Y-77032012D02*
X117496710Y-76960584D01*
X117496710Y-76960584D02*
X117591948Y-76889155D01*
X118544329Y-77032012D02*
X118544329Y-76032012D01*
X118544329Y-75532012D02*
X118449091Y-75603441D01*
X118449091Y-75603441D02*
X118544329Y-75674869D01*
X118544329Y-75674869D02*
X118639567Y-75603441D01*
X118639567Y-75603441D02*
X118544329Y-75532012D01*
X118544329Y-75532012D02*
X118544329Y-75674869D01*
X119496710Y-76032012D02*
X119496710Y-77032012D01*
X119496710Y-76174869D02*
X119591948Y-76103441D01*
X119591948Y-76103441D02*
X119782424Y-76032012D01*
X119782424Y-76032012D02*
X120068139Y-76032012D01*
X120068139Y-76032012D02*
X120258615Y-76103441D01*
X120258615Y-76103441D02*
X120353853Y-76246298D01*
X120353853Y-76246298D02*
X120353853Y-77032012D01*
X121591948Y-77032012D02*
X121401472Y-76960584D01*
X121401472Y-76960584D02*
X121306234Y-76889155D01*
X121306234Y-76889155D02*
X121210996Y-76746298D01*
X121210996Y-76746298D02*
X121210996Y-76317726D01*
X121210996Y-76317726D02*
X121306234Y-76174869D01*
X121306234Y-76174869D02*
X121401472Y-76103441D01*
X121401472Y-76103441D02*
X121591948Y-76032012D01*
X121591948Y-76032012D02*
X121877663Y-76032012D01*
X121877663Y-76032012D02*
X122068139Y-76103441D01*
X122068139Y-76103441D02*
X122163377Y-76174869D01*
X122163377Y-76174869D02*
X122258615Y-76317726D01*
X122258615Y-76317726D02*
X122258615Y-76746298D01*
X122258615Y-76746298D02*
X122163377Y-76889155D01*
X122163377Y-76889155D02*
X122068139Y-76960584D01*
X122068139Y-76960584D02*
X121877663Y-77032012D01*
X121877663Y-77032012D02*
X121591948Y-77032012D01*
X124639568Y-77032012D02*
X124639568Y-75532012D01*
X124639568Y-75532012D02*
X125782425Y-77032012D01*
X125782425Y-77032012D02*
X125782425Y-75532012D01*
X127591949Y-77032012D02*
X127591949Y-76246298D01*
X127591949Y-76246298D02*
X127496711Y-76103441D01*
X127496711Y-76103441D02*
X127306235Y-76032012D01*
X127306235Y-76032012D02*
X126925282Y-76032012D01*
X126925282Y-76032012D02*
X126734806Y-76103441D01*
X127591949Y-76960584D02*
X127401473Y-77032012D01*
X127401473Y-77032012D02*
X126925282Y-77032012D01*
X126925282Y-77032012D02*
X126734806Y-76960584D01*
X126734806Y-76960584D02*
X126639568Y-76817726D01*
X126639568Y-76817726D02*
X126639568Y-76674869D01*
X126639568Y-76674869D02*
X126734806Y-76532012D01*
X126734806Y-76532012D02*
X126925282Y-76460584D01*
X126925282Y-76460584D02*
X127401473Y-76460584D01*
X127401473Y-76460584D02*
X127591949Y-76389155D01*
X128544330Y-76032012D02*
X128544330Y-77032012D01*
X128544330Y-76174869D02*
X128639568Y-76103441D01*
X128639568Y-76103441D02*
X128830044Y-76032012D01*
X128830044Y-76032012D02*
X129115759Y-76032012D01*
X129115759Y-76032012D02*
X129306235Y-76103441D01*
X129306235Y-76103441D02*
X129401473Y-76246298D01*
X129401473Y-76246298D02*
X129401473Y-77032012D01*
X130639568Y-77032012D02*
X130449092Y-76960584D01*
X130449092Y-76960584D02*
X130353854Y-76889155D01*
X130353854Y-76889155D02*
X130258616Y-76746298D01*
X130258616Y-76746298D02*
X130258616Y-76317726D01*
X130258616Y-76317726D02*
X130353854Y-76174869D01*
X130353854Y-76174869D02*
X130449092Y-76103441D01*
X130449092Y-76103441D02*
X130639568Y-76032012D01*
X130639568Y-76032012D02*
X130925283Y-76032012D01*
X130925283Y-76032012D02*
X131115759Y-76103441D01*
X131115759Y-76103441D02*
X131210997Y-76174869D01*
X131210997Y-76174869D02*
X131306235Y-76317726D01*
X131306235Y-76317726D02*
X131306235Y-76746298D01*
X131306235Y-76746298D02*
X131210997Y-76889155D01*
X131210997Y-76889155D02*
X131115759Y-76960584D01*
X131115759Y-76960584D02*
X130925283Y-77032012D01*
X130925283Y-77032012D02*
X130639568Y-77032012D01*
X111972900Y-78661214D02*
X112639567Y-78661214D01*
X112925281Y-79446928D02*
X111972900Y-79446928D01*
X111972900Y-79446928D02*
X111972900Y-77946928D01*
X111972900Y-77946928D02*
X112925281Y-77946928D01*
X113591948Y-79446928D02*
X114639567Y-78446928D01*
X113591948Y-78446928D02*
X114639567Y-79446928D01*
X115401472Y-78446928D02*
X115401472Y-79946928D01*
X115401472Y-78518357D02*
X115591948Y-78446928D01*
X115591948Y-78446928D02*
X115972901Y-78446928D01*
X115972901Y-78446928D02*
X116163377Y-78518357D01*
X116163377Y-78518357D02*
X116258615Y-78589785D01*
X116258615Y-78589785D02*
X116353853Y-78732642D01*
X116353853Y-78732642D02*
X116353853Y-79161214D01*
X116353853Y-79161214D02*
X116258615Y-79304071D01*
X116258615Y-79304071D02*
X116163377Y-79375500D01*
X116163377Y-79375500D02*
X115972901Y-79446928D01*
X115972901Y-79446928D02*
X115591948Y-79446928D01*
X115591948Y-79446928D02*
X115401472Y-79375500D01*
X118068139Y-79446928D02*
X118068139Y-78661214D01*
X118068139Y-78661214D02*
X117972901Y-78518357D01*
X117972901Y-78518357D02*
X117782425Y-78446928D01*
X117782425Y-78446928D02*
X117401472Y-78446928D01*
X117401472Y-78446928D02*
X117210996Y-78518357D01*
X118068139Y-79375500D02*
X117877663Y-79446928D01*
X117877663Y-79446928D02*
X117401472Y-79446928D01*
X117401472Y-79446928D02*
X117210996Y-79375500D01*
X117210996Y-79375500D02*
X117115758Y-79232642D01*
X117115758Y-79232642D02*
X117115758Y-79089785D01*
X117115758Y-79089785D02*
X117210996Y-78946928D01*
X117210996Y-78946928D02*
X117401472Y-78875500D01*
X117401472Y-78875500D02*
X117877663Y-78875500D01*
X117877663Y-78875500D02*
X118068139Y-78804071D01*
X119020520Y-78446928D02*
X119020520Y-79446928D01*
X119020520Y-78589785D02*
X119115758Y-78518357D01*
X119115758Y-78518357D02*
X119306234Y-78446928D01*
X119306234Y-78446928D02*
X119591949Y-78446928D01*
X119591949Y-78446928D02*
X119782425Y-78518357D01*
X119782425Y-78518357D02*
X119877663Y-78661214D01*
X119877663Y-78661214D02*
X119877663Y-79446928D01*
X120734806Y-79375500D02*
X120925282Y-79446928D01*
X120925282Y-79446928D02*
X121306234Y-79446928D01*
X121306234Y-79446928D02*
X121496711Y-79375500D01*
X121496711Y-79375500D02*
X121591949Y-79232642D01*
X121591949Y-79232642D02*
X121591949Y-79161214D01*
X121591949Y-79161214D02*
X121496711Y-79018357D01*
X121496711Y-79018357D02*
X121306234Y-78946928D01*
X121306234Y-78946928D02*
X121020520Y-78946928D01*
X121020520Y-78946928D02*
X120830044Y-78875500D01*
X120830044Y-78875500D02*
X120734806Y-78732642D01*
X120734806Y-78732642D02*
X120734806Y-78661214D01*
X120734806Y-78661214D02*
X120830044Y-78518357D01*
X120830044Y-78518357D02*
X121020520Y-78446928D01*
X121020520Y-78446928D02*
X121306234Y-78446928D01*
X121306234Y-78446928D02*
X121496711Y-78518357D01*
X122449092Y-79446928D02*
X122449092Y-78446928D01*
X122449092Y-77946928D02*
X122353854Y-78018357D01*
X122353854Y-78018357D02*
X122449092Y-78089785D01*
X122449092Y-78089785D02*
X122544330Y-78018357D01*
X122544330Y-78018357D02*
X122449092Y-77946928D01*
X122449092Y-77946928D02*
X122449092Y-78089785D01*
X123687187Y-79446928D02*
X123496711Y-79375500D01*
X123496711Y-79375500D02*
X123401473Y-79304071D01*
X123401473Y-79304071D02*
X123306235Y-79161214D01*
X123306235Y-79161214D02*
X123306235Y-78732642D01*
X123306235Y-78732642D02*
X123401473Y-78589785D01*
X123401473Y-78589785D02*
X123496711Y-78518357D01*
X123496711Y-78518357D02*
X123687187Y-78446928D01*
X123687187Y-78446928D02*
X123972902Y-78446928D01*
X123972902Y-78446928D02*
X124163378Y-78518357D01*
X124163378Y-78518357D02*
X124258616Y-78589785D01*
X124258616Y-78589785D02*
X124353854Y-78732642D01*
X124353854Y-78732642D02*
X124353854Y-79161214D01*
X124353854Y-79161214D02*
X124258616Y-79304071D01*
X124258616Y-79304071D02*
X124163378Y-79375500D01*
X124163378Y-79375500D02*
X123972902Y-79446928D01*
X123972902Y-79446928D02*
X123687187Y-79446928D01*
X125210997Y-78446928D02*
X125210997Y-79446928D01*
X125210997Y-78589785D02*
X125306235Y-78518357D01*
X125306235Y-78518357D02*
X125496711Y-78446928D01*
X125496711Y-78446928D02*
X125782426Y-78446928D01*
X125782426Y-78446928D02*
X125972902Y-78518357D01*
X125972902Y-78518357D02*
X126068140Y-78661214D01*
X126068140Y-78661214D02*
X126068140Y-79446928D01*
X129210998Y-78661214D02*
X129496712Y-78732642D01*
X129496712Y-78732642D02*
X129591950Y-78804071D01*
X129591950Y-78804071D02*
X129687188Y-78946928D01*
X129687188Y-78946928D02*
X129687188Y-79161214D01*
X129687188Y-79161214D02*
X129591950Y-79304071D01*
X129591950Y-79304071D02*
X129496712Y-79375500D01*
X129496712Y-79375500D02*
X129306236Y-79446928D01*
X129306236Y-79446928D02*
X128544331Y-79446928D01*
X128544331Y-79446928D02*
X128544331Y-77946928D01*
X128544331Y-77946928D02*
X129210998Y-77946928D01*
X129210998Y-77946928D02*
X129401474Y-78018357D01*
X129401474Y-78018357D02*
X129496712Y-78089785D01*
X129496712Y-78089785D02*
X129591950Y-78232642D01*
X129591950Y-78232642D02*
X129591950Y-78375500D01*
X129591950Y-78375500D02*
X129496712Y-78518357D01*
X129496712Y-78518357D02*
X129401474Y-78589785D01*
X129401474Y-78589785D02*
X129210998Y-78661214D01*
X129210998Y-78661214D02*
X128544331Y-78661214D01*
X130830045Y-79446928D02*
X130639569Y-79375500D01*
X130639569Y-79375500D02*
X130544331Y-79304071D01*
X130544331Y-79304071D02*
X130449093Y-79161214D01*
X130449093Y-79161214D02*
X130449093Y-78732642D01*
X130449093Y-78732642D02*
X130544331Y-78589785D01*
X130544331Y-78589785D02*
X130639569Y-78518357D01*
X130639569Y-78518357D02*
X130830045Y-78446928D01*
X130830045Y-78446928D02*
X131115760Y-78446928D01*
X131115760Y-78446928D02*
X131306236Y-78518357D01*
X131306236Y-78518357D02*
X131401474Y-78589785D01*
X131401474Y-78589785D02*
X131496712Y-78732642D01*
X131496712Y-78732642D02*
X131496712Y-79161214D01*
X131496712Y-79161214D02*
X131401474Y-79304071D01*
X131401474Y-79304071D02*
X131306236Y-79375500D01*
X131306236Y-79375500D02*
X131115760Y-79446928D01*
X131115760Y-79446928D02*
X130830045Y-79446928D01*
X133210998Y-79446928D02*
X133210998Y-78661214D01*
X133210998Y-78661214D02*
X133115760Y-78518357D01*
X133115760Y-78518357D02*
X132925284Y-78446928D01*
X132925284Y-78446928D02*
X132544331Y-78446928D01*
X132544331Y-78446928D02*
X132353855Y-78518357D01*
X133210998Y-79375500D02*
X133020522Y-79446928D01*
X133020522Y-79446928D02*
X132544331Y-79446928D01*
X132544331Y-79446928D02*
X132353855Y-79375500D01*
X132353855Y-79375500D02*
X132258617Y-79232642D01*
X132258617Y-79232642D02*
X132258617Y-79089785D01*
X132258617Y-79089785D02*
X132353855Y-78946928D01*
X132353855Y-78946928D02*
X132544331Y-78875500D01*
X132544331Y-78875500D02*
X133020522Y-78875500D01*
X133020522Y-78875500D02*
X133210998Y-78804071D01*
X134163379Y-79446928D02*
X134163379Y-78446928D01*
X134163379Y-78732642D02*
X134258617Y-78589785D01*
X134258617Y-78589785D02*
X134353855Y-78518357D01*
X134353855Y-78518357D02*
X134544331Y-78446928D01*
X134544331Y-78446928D02*
X134734808Y-78446928D01*
X136258617Y-79446928D02*
X136258617Y-77946928D01*
X136258617Y-79375500D02*
X136068141Y-79446928D01*
X136068141Y-79446928D02*
X135687188Y-79446928D01*
X135687188Y-79446928D02*
X135496712Y-79375500D01*
X135496712Y-79375500D02*
X135401474Y-79304071D01*
X135401474Y-79304071D02*
X135306236Y-79161214D01*
X135306236Y-79161214D02*
X135306236Y-78732642D01*
X135306236Y-78732642D02*
X135401474Y-78589785D01*
X135401474Y-78589785D02*
X135496712Y-78518357D01*
X135496712Y-78518357D02*
X135687188Y-78446928D01*
X135687188Y-78446928D02*
X136068141Y-78446928D01*
X136068141Y-78446928D02*
X136258617Y-78518357D01*
D15*
X151019299Y-79804260D02*
X150019299Y-79804260D01*
X150019299Y-79804260D02*
X150019299Y-79613784D01*
X150019299Y-79613784D02*
X150066918Y-79499498D01*
X150066918Y-79499498D02*
X150162156Y-79423308D01*
X150162156Y-79423308D02*
X150257394Y-79385213D01*
X150257394Y-79385213D02*
X150447870Y-79347117D01*
X150447870Y-79347117D02*
X150590727Y-79347117D01*
X150590727Y-79347117D02*
X150781203Y-79385213D01*
X150781203Y-79385213D02*
X150876441Y-79423308D01*
X150876441Y-79423308D02*
X150971680Y-79499498D01*
X150971680Y-79499498D02*
X151019299Y-79613784D01*
X151019299Y-79613784D02*
X151019299Y-79804260D01*
X150019299Y-79118546D02*
X150019299Y-78661403D01*
X151019299Y-78889975D02*
X150019299Y-78889975D01*
X151019299Y-77937593D02*
X150543108Y-78204260D01*
X151019299Y-78394736D02*
X150019299Y-78394736D01*
X150019299Y-78394736D02*
X150019299Y-78089974D01*
X150019299Y-78089974D02*
X150066918Y-78013784D01*
X150066918Y-78013784D02*
X150114537Y-77975689D01*
X150114537Y-77975689D02*
X150209775Y-77937593D01*
X150209775Y-77937593D02*
X150352632Y-77937593D01*
X150352632Y-77937593D02*
X150447870Y-77975689D01*
X150447870Y-77975689D02*
X150495489Y-78013784D01*
X150495489Y-78013784D02*
X150543108Y-78089974D01*
X150543108Y-78089974D02*
X150543108Y-78394736D01*
D13*
X157113627Y-61348195D02*
X157213627Y-60548195D01*
X157351722Y-61348195D02*
X157451722Y-60548195D01*
X157451722Y-60548195D02*
X157637437Y-61348195D01*
X157637437Y-61348195D02*
X157737437Y-60548195D01*
X157904104Y-60548195D02*
X158189818Y-60548195D01*
X157946961Y-61348195D02*
X158046961Y-60548195D01*
D17*
X144067219Y-75106993D02*
X144067219Y-75487945D01*
X144067219Y-75487945D02*
X144543409Y-75526041D01*
X144543409Y-75526041D02*
X144495790Y-75487945D01*
X144495790Y-75487945D02*
X144448171Y-75411755D01*
X144448171Y-75411755D02*
X144448171Y-75221279D01*
X144448171Y-75221279D02*
X144495790Y-75145088D01*
X144495790Y-75145088D02*
X144543409Y-75106993D01*
X144543409Y-75106993D02*
X144638647Y-75068898D01*
X144638647Y-75068898D02*
X144876742Y-75068898D01*
X144876742Y-75068898D02*
X144971980Y-75106993D01*
X144971980Y-75106993D02*
X145019600Y-75145088D01*
X145019600Y-75145088D02*
X145067219Y-75221279D01*
X145067219Y-75221279D02*
X145067219Y-75411755D01*
X145067219Y-75411755D02*
X145019600Y-75487945D01*
X145019600Y-75487945D02*
X144971980Y-75526041D01*
X144067219Y-74840326D02*
X145067219Y-74573659D01*
X145067219Y-74573659D02*
X144067219Y-74306993D01*
X144400552Y-72821279D02*
X144686266Y-73430802D01*
X144686266Y-73430802D02*
X144971980Y-72821279D01*
X144686266Y-72440326D02*
X144686266Y-71830803D01*
X144400552Y-71449850D02*
X144686266Y-70840327D01*
X144686266Y-70840327D02*
X144971980Y-71449850D01*
X144067219Y-69926041D02*
X144067219Y-69430803D01*
X144067219Y-69430803D02*
X144448171Y-69697469D01*
X144448171Y-69697469D02*
X144448171Y-69583184D01*
X144448171Y-69583184D02*
X144495790Y-69506993D01*
X144495790Y-69506993D02*
X144543409Y-69468898D01*
X144543409Y-69468898D02*
X144638647Y-69430803D01*
X144638647Y-69430803D02*
X144876742Y-69430803D01*
X144876742Y-69430803D02*
X144971980Y-69468898D01*
X144971980Y-69468898D02*
X145019600Y-69506993D01*
X145019600Y-69506993D02*
X145067219Y-69583184D01*
X145067219Y-69583184D02*
X145067219Y-69811755D01*
X145067219Y-69811755D02*
X145019600Y-69887946D01*
X145019600Y-69887946D02*
X144971980Y-69926041D01*
X144067219Y-69202231D02*
X145067219Y-68935564D01*
X145067219Y-68935564D02*
X144067219Y-68668898D01*
X144067219Y-68478422D02*
X144067219Y-67983184D01*
X144067219Y-67983184D02*
X144448171Y-68249850D01*
X144448171Y-68249850D02*
X144448171Y-68135565D01*
X144448171Y-68135565D02*
X144495790Y-68059374D01*
X144495790Y-68059374D02*
X144543409Y-68021279D01*
X144543409Y-68021279D02*
X144638647Y-67983184D01*
X144638647Y-67983184D02*
X144876742Y-67983184D01*
X144876742Y-67983184D02*
X144971980Y-68021279D01*
X144971980Y-68021279D02*
X145019600Y-68059374D01*
X145019600Y-68059374D02*
X145067219Y-68135565D01*
X145067219Y-68135565D02*
X145067219Y-68364136D01*
X145067219Y-68364136D02*
X145019600Y-68440327D01*
X145019600Y-68440327D02*
X144971980Y-68478422D01*
X107730400Y-60980951D02*
X107682780Y-61095237D01*
X107682780Y-61095237D02*
X107682780Y-61285713D01*
X107682780Y-61285713D02*
X107730400Y-61361904D01*
X107730400Y-61361904D02*
X107778019Y-61399999D01*
X107778019Y-61399999D02*
X107873257Y-61438094D01*
X107873257Y-61438094D02*
X107968495Y-61438094D01*
X107968495Y-61438094D02*
X108063733Y-61399999D01*
X108063733Y-61399999D02*
X108111352Y-61361904D01*
X108111352Y-61361904D02*
X108158971Y-61285713D01*
X108158971Y-61285713D02*
X108206590Y-61133332D01*
X108206590Y-61133332D02*
X108254209Y-61057142D01*
X108254209Y-61057142D02*
X108301828Y-61019047D01*
X108301828Y-61019047D02*
X108397066Y-60980951D01*
X108397066Y-60980951D02*
X108492304Y-60980951D01*
X108492304Y-60980951D02*
X108587542Y-61019047D01*
X108587542Y-61019047D02*
X108635161Y-61057142D01*
X108635161Y-61057142D02*
X108682780Y-61133332D01*
X108682780Y-61133332D02*
X108682780Y-61323809D01*
X108682780Y-61323809D02*
X108635161Y-61438094D01*
X108206590Y-61780952D02*
X108206590Y-62047618D01*
X107682780Y-62161904D02*
X107682780Y-61780952D01*
X107682780Y-61780952D02*
X108682780Y-61780952D01*
X108682780Y-61780952D02*
X108682780Y-62161904D01*
X107682780Y-62961905D02*
X108158971Y-62695238D01*
X107682780Y-62504762D02*
X108682780Y-62504762D01*
X108682780Y-62504762D02*
X108682780Y-62809524D01*
X108682780Y-62809524D02*
X108635161Y-62885714D01*
X108635161Y-62885714D02*
X108587542Y-62923809D01*
X108587542Y-62923809D02*
X108492304Y-62961905D01*
X108492304Y-62961905D02*
X108349447Y-62961905D01*
X108349447Y-62961905D02*
X108254209Y-62923809D01*
X108254209Y-62923809D02*
X108206590Y-62885714D01*
X108206590Y-62885714D02*
X108158971Y-62809524D01*
X108158971Y-62809524D02*
X108158971Y-62504762D01*
X108682780Y-63190476D02*
X107682780Y-63457143D01*
X107682780Y-63457143D02*
X108682780Y-63723809D01*
X108682780Y-64142857D02*
X108682780Y-64295238D01*
X108682780Y-64295238D02*
X108635161Y-64371428D01*
X108635161Y-64371428D02*
X108539923Y-64447619D01*
X108539923Y-64447619D02*
X108349447Y-64485714D01*
X108349447Y-64485714D02*
X108016114Y-64485714D01*
X108016114Y-64485714D02*
X107825638Y-64447619D01*
X107825638Y-64447619D02*
X107730400Y-64371428D01*
X107730400Y-64371428D02*
X107682780Y-64295238D01*
X107682780Y-64295238D02*
X107682780Y-64142857D01*
X107682780Y-64142857D02*
X107730400Y-64066666D01*
X107730400Y-64066666D02*
X107825638Y-63990476D01*
X107825638Y-63990476D02*
X108016114Y-63952380D01*
X108016114Y-63952380D02*
X108349447Y-63952380D01*
X108349447Y-63952380D02*
X108539923Y-63990476D01*
X108539923Y-63990476D02*
X108635161Y-64066666D01*
X108635161Y-64066666D02*
X108682780Y-64142857D01*
X107682780Y-66047619D02*
X108682780Y-66047619D01*
X108682780Y-66047619D02*
X108682780Y-66352381D01*
X108682780Y-66352381D02*
X108635161Y-66428571D01*
X108635161Y-66428571D02*
X108587542Y-66466666D01*
X108587542Y-66466666D02*
X108492304Y-66504762D01*
X108492304Y-66504762D02*
X108349447Y-66504762D01*
X108349447Y-66504762D02*
X108254209Y-66466666D01*
X108254209Y-66466666D02*
X108206590Y-66428571D01*
X108206590Y-66428571D02*
X108158971Y-66352381D01*
X108158971Y-66352381D02*
X108158971Y-66047619D01*
X108682780Y-66771428D02*
X107682780Y-66961904D01*
X107682780Y-66961904D02*
X108397066Y-67114285D01*
X108397066Y-67114285D02*
X107682780Y-67266666D01*
X107682780Y-67266666D02*
X108682780Y-67457143D01*
X107682780Y-68219048D02*
X108158971Y-67952381D01*
X107682780Y-67761905D02*
X108682780Y-67761905D01*
X108682780Y-67761905D02*
X108682780Y-68066667D01*
X108682780Y-68066667D02*
X108635161Y-68142857D01*
X108635161Y-68142857D02*
X108587542Y-68180952D01*
X108587542Y-68180952D02*
X108492304Y-68219048D01*
X108492304Y-68219048D02*
X108349447Y-68219048D01*
X108349447Y-68219048D02*
X108254209Y-68180952D01*
X108254209Y-68180952D02*
X108206590Y-68142857D01*
X108206590Y-68142857D02*
X108158971Y-68066667D01*
X108158971Y-68066667D02*
X108158971Y-67761905D01*
D13*
X154298195Y-82536372D02*
X154945814Y-82617324D01*
X154945814Y-82617324D02*
X155022004Y-82603038D01*
X155022004Y-82603038D02*
X155060100Y-82583991D01*
X155060100Y-82583991D02*
X155098195Y-82541134D01*
X155098195Y-82541134D02*
X155098195Y-82445896D01*
X155098195Y-82445896D02*
X155060100Y-82393515D01*
X155060100Y-82393515D02*
X155022004Y-82364943D01*
X155022004Y-82364943D02*
X154945814Y-82331610D01*
X154945814Y-82331610D02*
X154298195Y-82250658D01*
X154869623Y-82107800D02*
X154869623Y-81869705D01*
X155098195Y-82183990D02*
X154298195Y-81917324D01*
X154298195Y-81917324D02*
X155098195Y-81850657D01*
X155098195Y-81398277D02*
X154717242Y-81517324D01*
X155098195Y-81683991D02*
X154298195Y-81583991D01*
X154298195Y-81583991D02*
X154298195Y-81393515D01*
X154298195Y-81393515D02*
X154336290Y-81350657D01*
X154336290Y-81350657D02*
X154374385Y-81331610D01*
X154374385Y-81331610D02*
X154450576Y-81317324D01*
X154450576Y-81317324D02*
X154564861Y-81331610D01*
X154564861Y-81331610D02*
X154641052Y-81364943D01*
X154641052Y-81364943D02*
X154679147Y-81393515D01*
X154679147Y-81393515D02*
X154717242Y-81445896D01*
X154717242Y-81445896D02*
X154717242Y-81636372D01*
X154298195Y-81155419D02*
X154298195Y-80869705D01*
X155098195Y-81112562D02*
X154298195Y-81012562D01*
X155098195Y-80541134D02*
X155098195Y-80826848D01*
X155098195Y-80683991D02*
X154298195Y-80583991D01*
X154298195Y-80583991D02*
X154412480Y-80645896D01*
X154412480Y-80645896D02*
X154488671Y-80703039D01*
X154488671Y-80703039D02*
X154526766Y-80755420D01*
X159460003Y-58834909D02*
X159769527Y-58834909D01*
X159769527Y-58834909D02*
X159579051Y-59025385D01*
X159579051Y-59025385D02*
X159650479Y-59025385D01*
X159650479Y-59025385D02*
X159695122Y-59049195D01*
X159695122Y-59049195D02*
X159715955Y-59073004D01*
X159715955Y-59073004D02*
X159733812Y-59120623D01*
X159733812Y-59120623D02*
X159718931Y-59239671D01*
X159718931Y-59239671D02*
X159689170Y-59287290D01*
X159689170Y-59287290D02*
X159662384Y-59311100D01*
X159662384Y-59311100D02*
X159611789Y-59334909D01*
X159611789Y-59334909D02*
X159468931Y-59334909D01*
X159468931Y-59334909D02*
X159424289Y-59311100D01*
X159424289Y-59311100D02*
X159403455Y-59287290D01*
X162620714Y-58882528D02*
X162647500Y-58858719D01*
X162647500Y-58858719D02*
X162698095Y-58834909D01*
X162698095Y-58834909D02*
X162817143Y-58834909D01*
X162817143Y-58834909D02*
X162861785Y-58858719D01*
X162861785Y-58858719D02*
X162882619Y-58882528D01*
X162882619Y-58882528D02*
X162900476Y-58930147D01*
X162900476Y-58930147D02*
X162894524Y-58977766D01*
X162894524Y-58977766D02*
X162861785Y-59049195D01*
X162861785Y-59049195D02*
X162540357Y-59334909D01*
X162540357Y-59334909D02*
X162849881Y-59334909D01*
X165992735Y-59334909D02*
X165707020Y-59334909D01*
X165849878Y-59334909D02*
X165912378Y-58834909D01*
X165912378Y-58834909D02*
X165855830Y-58906338D01*
X165855830Y-58906338D02*
X165802259Y-58953957D01*
X165802259Y-58953957D02*
X165751663Y-58977766D01*
D15*
X148045739Y-62319299D02*
X148045739Y-61319299D01*
X148045739Y-61319299D02*
X148236215Y-61319299D01*
X148236215Y-61319299D02*
X148350501Y-61366918D01*
X148350501Y-61366918D02*
X148426691Y-61462156D01*
X148426691Y-61462156D02*
X148464786Y-61557394D01*
X148464786Y-61557394D02*
X148502882Y-61747870D01*
X148502882Y-61747870D02*
X148502882Y-61890727D01*
X148502882Y-61890727D02*
X148464786Y-62081203D01*
X148464786Y-62081203D02*
X148426691Y-62176441D01*
X148426691Y-62176441D02*
X148350501Y-62271680D01*
X148350501Y-62271680D02*
X148236215Y-62319299D01*
X148236215Y-62319299D02*
X148045739Y-62319299D01*
X148769548Y-61319299D02*
X149264786Y-61319299D01*
X149264786Y-61319299D02*
X148998120Y-61700251D01*
X148998120Y-61700251D02*
X149112405Y-61700251D01*
X149112405Y-61700251D02*
X149188596Y-61747870D01*
X149188596Y-61747870D02*
X149226691Y-61795489D01*
X149226691Y-61795489D02*
X149264786Y-61890727D01*
X149264786Y-61890727D02*
X149264786Y-62128822D01*
X149264786Y-62128822D02*
X149226691Y-62224060D01*
X149226691Y-62224060D02*
X149188596Y-62271680D01*
X149188596Y-62271680D02*
X149112405Y-62319299D01*
X149112405Y-62319299D02*
X148883834Y-62319299D01*
X148883834Y-62319299D02*
X148807643Y-62271680D01*
X148807643Y-62271680D02*
X148769548Y-62224060D01*
X150217168Y-62319299D02*
X150217168Y-61319299D01*
X150217168Y-61319299D02*
X150407644Y-61319299D01*
X150407644Y-61319299D02*
X150521930Y-61366918D01*
X150521930Y-61366918D02*
X150598120Y-61462156D01*
X150598120Y-61462156D02*
X150636215Y-61557394D01*
X150636215Y-61557394D02*
X150674311Y-61747870D01*
X150674311Y-61747870D02*
X150674311Y-61890727D01*
X150674311Y-61890727D02*
X150636215Y-62081203D01*
X150636215Y-62081203D02*
X150598120Y-62176441D01*
X150598120Y-62176441D02*
X150521930Y-62271680D01*
X150521930Y-62271680D02*
X150407644Y-62319299D01*
X150407644Y-62319299D02*
X150217168Y-62319299D01*
X150979072Y-61414537D02*
X151017168Y-61366918D01*
X151017168Y-61366918D02*
X151093358Y-61319299D01*
X151093358Y-61319299D02*
X151283834Y-61319299D01*
X151283834Y-61319299D02*
X151360025Y-61366918D01*
X151360025Y-61366918D02*
X151398120Y-61414537D01*
X151398120Y-61414537D02*
X151436215Y-61509775D01*
X151436215Y-61509775D02*
X151436215Y-61605013D01*
X151436215Y-61605013D02*
X151398120Y-61747870D01*
X151398120Y-61747870D02*
X150940977Y-62319299D01*
X150940977Y-62319299D02*
X151436215Y-62319299D01*
X152388597Y-62319299D02*
X152388597Y-61319299D01*
X152388597Y-61319299D02*
X152579073Y-61319299D01*
X152579073Y-61319299D02*
X152693359Y-61366918D01*
X152693359Y-61366918D02*
X152769549Y-61462156D01*
X152769549Y-61462156D02*
X152807644Y-61557394D01*
X152807644Y-61557394D02*
X152845740Y-61747870D01*
X152845740Y-61747870D02*
X152845740Y-61890727D01*
X152845740Y-61890727D02*
X152807644Y-62081203D01*
X152807644Y-62081203D02*
X152769549Y-62176441D01*
X152769549Y-62176441D02*
X152693359Y-62271680D01*
X152693359Y-62271680D02*
X152579073Y-62319299D01*
X152579073Y-62319299D02*
X152388597Y-62319299D01*
X153607644Y-62319299D02*
X153150501Y-62319299D01*
X153379073Y-62319299D02*
X153379073Y-61319299D01*
X153379073Y-61319299D02*
X153302882Y-61462156D01*
X153302882Y-61462156D02*
X153226692Y-61557394D01*
X153226692Y-61557394D02*
X153150501Y-61605013D01*
X154560026Y-62319299D02*
X154560026Y-61319299D01*
X154560026Y-61319299D02*
X154750502Y-61319299D01*
X154750502Y-61319299D02*
X154864788Y-61366918D01*
X154864788Y-61366918D02*
X154940978Y-61462156D01*
X154940978Y-61462156D02*
X154979073Y-61557394D01*
X154979073Y-61557394D02*
X155017169Y-61747870D01*
X155017169Y-61747870D02*
X155017169Y-61890727D01*
X155017169Y-61890727D02*
X154979073Y-62081203D01*
X154979073Y-62081203D02*
X154940978Y-62176441D01*
X154940978Y-62176441D02*
X154864788Y-62271680D01*
X154864788Y-62271680D02*
X154750502Y-62319299D01*
X154750502Y-62319299D02*
X154560026Y-62319299D01*
X155512407Y-61319299D02*
X155588597Y-61319299D01*
X155588597Y-61319299D02*
X155664788Y-61366918D01*
X155664788Y-61366918D02*
X155702883Y-61414537D01*
X155702883Y-61414537D02*
X155740978Y-61509775D01*
X155740978Y-61509775D02*
X155779073Y-61700251D01*
X155779073Y-61700251D02*
X155779073Y-61938346D01*
X155779073Y-61938346D02*
X155740978Y-62128822D01*
X155740978Y-62128822D02*
X155702883Y-62224060D01*
X155702883Y-62224060D02*
X155664788Y-62271680D01*
X155664788Y-62271680D02*
X155588597Y-62319299D01*
X155588597Y-62319299D02*
X155512407Y-62319299D01*
X155512407Y-62319299D02*
X155436216Y-62271680D01*
X155436216Y-62271680D02*
X155398121Y-62224060D01*
X155398121Y-62224060D02*
X155360026Y-62128822D01*
X155360026Y-62128822D02*
X155321930Y-61938346D01*
X155321930Y-61938346D02*
X155321930Y-61700251D01*
X155321930Y-61700251D02*
X155360026Y-61509775D01*
X155360026Y-61509775D02*
X155398121Y-61414537D01*
X155398121Y-61414537D02*
X155436216Y-61366918D01*
X155436216Y-61366918D02*
X155512407Y-61319299D01*
X155695739Y-77169299D02*
X155695739Y-76169299D01*
X155695739Y-76169299D02*
X155962405Y-76883584D01*
X155962405Y-76883584D02*
X156229072Y-76169299D01*
X156229072Y-76169299D02*
X156229072Y-77169299D01*
X156610025Y-77169299D02*
X156610025Y-76169299D01*
X156952881Y-77121680D02*
X157067167Y-77169299D01*
X157067167Y-77169299D02*
X157257643Y-77169299D01*
X157257643Y-77169299D02*
X157333834Y-77121680D01*
X157333834Y-77121680D02*
X157371929Y-77074060D01*
X157371929Y-77074060D02*
X157410024Y-76978822D01*
X157410024Y-76978822D02*
X157410024Y-76883584D01*
X157410024Y-76883584D02*
X157371929Y-76788346D01*
X157371929Y-76788346D02*
X157333834Y-76740727D01*
X157333834Y-76740727D02*
X157257643Y-76693108D01*
X157257643Y-76693108D02*
X157105262Y-76645489D01*
X157105262Y-76645489D02*
X157029072Y-76597870D01*
X157029072Y-76597870D02*
X156990977Y-76550251D01*
X156990977Y-76550251D02*
X156952881Y-76455013D01*
X156952881Y-76455013D02*
X156952881Y-76359775D01*
X156952881Y-76359775D02*
X156990977Y-76264537D01*
X156990977Y-76264537D02*
X157029072Y-76216918D01*
X157029072Y-76216918D02*
X157105262Y-76169299D01*
X157105262Y-76169299D02*
X157295739Y-76169299D01*
X157295739Y-76169299D02*
X157410024Y-76216918D01*
X157905263Y-76169299D02*
X158057644Y-76169299D01*
X158057644Y-76169299D02*
X158133834Y-76216918D01*
X158133834Y-76216918D02*
X158210025Y-76312156D01*
X158210025Y-76312156D02*
X158248120Y-76502632D01*
X158248120Y-76502632D02*
X158248120Y-76835965D01*
X158248120Y-76835965D02*
X158210025Y-77026441D01*
X158210025Y-77026441D02*
X158133834Y-77121680D01*
X158133834Y-77121680D02*
X158057644Y-77169299D01*
X158057644Y-77169299D02*
X157905263Y-77169299D01*
X157905263Y-77169299D02*
X157829072Y-77121680D01*
X157829072Y-77121680D02*
X157752882Y-77026441D01*
X157752882Y-77026441D02*
X157714786Y-76835965D01*
X157714786Y-76835965D02*
X157714786Y-76502632D01*
X157714786Y-76502632D02*
X157752882Y-76312156D01*
X157752882Y-76312156D02*
X157829072Y-76216918D01*
X157829072Y-76216918D02*
X157905263Y-76169299D01*
X151657643Y-93921680D02*
X151771929Y-93969299D01*
X151771929Y-93969299D02*
X151962405Y-93969299D01*
X151962405Y-93969299D02*
X152038596Y-93921680D01*
X152038596Y-93921680D02*
X152076691Y-93874060D01*
X152076691Y-93874060D02*
X152114786Y-93778822D01*
X152114786Y-93778822D02*
X152114786Y-93683584D01*
X152114786Y-93683584D02*
X152076691Y-93588346D01*
X152076691Y-93588346D02*
X152038596Y-93540727D01*
X152038596Y-93540727D02*
X151962405Y-93493108D01*
X151962405Y-93493108D02*
X151810024Y-93445489D01*
X151810024Y-93445489D02*
X151733834Y-93397870D01*
X151733834Y-93397870D02*
X151695739Y-93350251D01*
X151695739Y-93350251D02*
X151657643Y-93255013D01*
X151657643Y-93255013D02*
X151657643Y-93159775D01*
X151657643Y-93159775D02*
X151695739Y-93064537D01*
X151695739Y-93064537D02*
X151733834Y-93016918D01*
X151733834Y-93016918D02*
X151810024Y-92969299D01*
X151810024Y-92969299D02*
X152000501Y-92969299D01*
X152000501Y-92969299D02*
X152114786Y-93016918D01*
X152914787Y-93874060D02*
X152876691Y-93921680D01*
X152876691Y-93921680D02*
X152762406Y-93969299D01*
X152762406Y-93969299D02*
X152686215Y-93969299D01*
X152686215Y-93969299D02*
X152571929Y-93921680D01*
X152571929Y-93921680D02*
X152495739Y-93826441D01*
X152495739Y-93826441D02*
X152457644Y-93731203D01*
X152457644Y-93731203D02*
X152419548Y-93540727D01*
X152419548Y-93540727D02*
X152419548Y-93397870D01*
X152419548Y-93397870D02*
X152457644Y-93207394D01*
X152457644Y-93207394D02*
X152495739Y-93112156D01*
X152495739Y-93112156D02*
X152571929Y-93016918D01*
X152571929Y-93016918D02*
X152686215Y-92969299D01*
X152686215Y-92969299D02*
X152762406Y-92969299D01*
X152762406Y-92969299D02*
X152876691Y-93016918D01*
X152876691Y-93016918D02*
X152914787Y-93064537D01*
X153638596Y-93969299D02*
X153257644Y-93969299D01*
X153257644Y-93969299D02*
X153257644Y-92969299D01*
X124197643Y-95463584D02*
X124578596Y-95463584D01*
X124121453Y-95749299D02*
X124388120Y-94749299D01*
X124388120Y-94749299D02*
X124654786Y-95749299D01*
X125073834Y-94749299D02*
X125150024Y-94749299D01*
X125150024Y-94749299D02*
X125226215Y-94796918D01*
X125226215Y-94796918D02*
X125264310Y-94844537D01*
X125264310Y-94844537D02*
X125302405Y-94939775D01*
X125302405Y-94939775D02*
X125340500Y-95130251D01*
X125340500Y-95130251D02*
X125340500Y-95368346D01*
X125340500Y-95368346D02*
X125302405Y-95558822D01*
X125302405Y-95558822D02*
X125264310Y-95654060D01*
X125264310Y-95654060D02*
X125226215Y-95701680D01*
X125226215Y-95701680D02*
X125150024Y-95749299D01*
X125150024Y-95749299D02*
X125073834Y-95749299D01*
X125073834Y-95749299D02*
X124997643Y-95701680D01*
X124997643Y-95701680D02*
X124959548Y-95654060D01*
X124959548Y-95654060D02*
X124921453Y-95558822D01*
X124921453Y-95558822D02*
X124883357Y-95368346D01*
X124883357Y-95368346D02*
X124883357Y-95130251D01*
X124883357Y-95130251D02*
X124921453Y-94939775D01*
X124921453Y-94939775D02*
X124959548Y-94844537D01*
X124959548Y-94844537D02*
X124997643Y-94796918D01*
X124997643Y-94796918D02*
X125073834Y-94749299D01*
X126864310Y-95463584D02*
X127245263Y-95463584D01*
X126788120Y-95749299D02*
X127054787Y-94749299D01*
X127054787Y-94749299D02*
X127321453Y-95749299D01*
X128007167Y-95749299D02*
X127550024Y-95749299D01*
X127778596Y-95749299D02*
X127778596Y-94749299D01*
X127778596Y-94749299D02*
X127702405Y-94892156D01*
X127702405Y-94892156D02*
X127626215Y-94987394D01*
X127626215Y-94987394D02*
X127550024Y-95035013D01*
X129530977Y-95463584D02*
X129911930Y-95463584D01*
X129454787Y-95749299D02*
X129721454Y-94749299D01*
X129721454Y-94749299D02*
X129988120Y-95749299D01*
X130216691Y-94844537D02*
X130254787Y-94796918D01*
X130254787Y-94796918D02*
X130330977Y-94749299D01*
X130330977Y-94749299D02*
X130521453Y-94749299D01*
X130521453Y-94749299D02*
X130597644Y-94796918D01*
X130597644Y-94796918D02*
X130635739Y-94844537D01*
X130635739Y-94844537D02*
X130673834Y-94939775D01*
X130673834Y-94939775D02*
X130673834Y-95035013D01*
X130673834Y-95035013D02*
X130635739Y-95177870D01*
X130635739Y-95177870D02*
X130178596Y-95749299D01*
X130178596Y-95749299D02*
X130673834Y-95749299D01*
X132197644Y-95463584D02*
X132578597Y-95463584D01*
X132121454Y-95749299D02*
X132388121Y-94749299D01*
X132388121Y-94749299D02*
X132654787Y-95749299D01*
X132845263Y-94749299D02*
X133340501Y-94749299D01*
X133340501Y-94749299D02*
X133073835Y-95130251D01*
X133073835Y-95130251D02*
X133188120Y-95130251D01*
X133188120Y-95130251D02*
X133264311Y-95177870D01*
X133264311Y-95177870D02*
X133302406Y-95225489D01*
X133302406Y-95225489D02*
X133340501Y-95320727D01*
X133340501Y-95320727D02*
X133340501Y-95558822D01*
X133340501Y-95558822D02*
X133302406Y-95654060D01*
X133302406Y-95654060D02*
X133264311Y-95701680D01*
X133264311Y-95701680D02*
X133188120Y-95749299D01*
X133188120Y-95749299D02*
X132959549Y-95749299D01*
X132959549Y-95749299D02*
X132883358Y-95701680D01*
X132883358Y-95701680D02*
X132845263Y-95654060D01*
X134864311Y-95463584D02*
X135245264Y-95463584D01*
X134788121Y-95749299D02*
X135054788Y-94749299D01*
X135054788Y-94749299D02*
X135321454Y-95749299D01*
X135930978Y-95082632D02*
X135930978Y-95749299D01*
X135740502Y-94701680D02*
X135550025Y-95415965D01*
X135550025Y-95415965D02*
X136045264Y-95415965D01*
X137530978Y-95463584D02*
X137911931Y-95463584D01*
X137454788Y-95749299D02*
X137721455Y-94749299D01*
X137721455Y-94749299D02*
X137988121Y-95749299D01*
X138635740Y-94749299D02*
X138254788Y-94749299D01*
X138254788Y-94749299D02*
X138216692Y-95225489D01*
X138216692Y-95225489D02*
X138254788Y-95177870D01*
X138254788Y-95177870D02*
X138330978Y-95130251D01*
X138330978Y-95130251D02*
X138521454Y-95130251D01*
X138521454Y-95130251D02*
X138597645Y-95177870D01*
X138597645Y-95177870D02*
X138635740Y-95225489D01*
X138635740Y-95225489D02*
X138673835Y-95320727D01*
X138673835Y-95320727D02*
X138673835Y-95558822D01*
X138673835Y-95558822D02*
X138635740Y-95654060D01*
X138635740Y-95654060D02*
X138597645Y-95701680D01*
X138597645Y-95701680D02*
X138521454Y-95749299D01*
X138521454Y-95749299D02*
X138330978Y-95749299D01*
X138330978Y-95749299D02*
X138254788Y-95701680D01*
X138254788Y-95701680D02*
X138216692Y-95654060D01*
X140197645Y-95463584D02*
X140578598Y-95463584D01*
X140121455Y-95749299D02*
X140388122Y-94749299D01*
X140388122Y-94749299D02*
X140654788Y-95749299D01*
X141264312Y-94749299D02*
X141111931Y-94749299D01*
X141111931Y-94749299D02*
X141035740Y-94796918D01*
X141035740Y-94796918D02*
X140997645Y-94844537D01*
X140997645Y-94844537D02*
X140921455Y-94987394D01*
X140921455Y-94987394D02*
X140883359Y-95177870D01*
X140883359Y-95177870D02*
X140883359Y-95558822D01*
X140883359Y-95558822D02*
X140921455Y-95654060D01*
X140921455Y-95654060D02*
X140959550Y-95701680D01*
X140959550Y-95701680D02*
X141035740Y-95749299D01*
X141035740Y-95749299D02*
X141188121Y-95749299D01*
X141188121Y-95749299D02*
X141264312Y-95701680D01*
X141264312Y-95701680D02*
X141302407Y-95654060D01*
X141302407Y-95654060D02*
X141340502Y-95558822D01*
X141340502Y-95558822D02*
X141340502Y-95320727D01*
X141340502Y-95320727D02*
X141302407Y-95225489D01*
X141302407Y-95225489D02*
X141264312Y-95177870D01*
X141264312Y-95177870D02*
X141188121Y-95130251D01*
X141188121Y-95130251D02*
X141035740Y-95130251D01*
X141035740Y-95130251D02*
X140959550Y-95177870D01*
X140959550Y-95177870D02*
X140921455Y-95225489D01*
X140921455Y-95225489D02*
X140883359Y-95320727D01*
X142864312Y-95463584D02*
X143245265Y-95463584D01*
X142788122Y-95749299D02*
X143054789Y-94749299D01*
X143054789Y-94749299D02*
X143321455Y-95749299D01*
X143511931Y-94749299D02*
X144045265Y-94749299D01*
X144045265Y-94749299D02*
X143702407Y-95749299D01*
X157395739Y-66769299D02*
X157395739Y-65769299D01*
X157929072Y-65769299D02*
X158081453Y-65769299D01*
X158081453Y-65769299D02*
X158157643Y-65816918D01*
X158157643Y-65816918D02*
X158233834Y-65912156D01*
X158233834Y-65912156D02*
X158271929Y-66102632D01*
X158271929Y-66102632D02*
X158271929Y-66435965D01*
X158271929Y-66435965D02*
X158233834Y-66626441D01*
X158233834Y-66626441D02*
X158157643Y-66721680D01*
X158157643Y-66721680D02*
X158081453Y-66769299D01*
X158081453Y-66769299D02*
X157929072Y-66769299D01*
X157929072Y-66769299D02*
X157852881Y-66721680D01*
X157852881Y-66721680D02*
X157776691Y-66626441D01*
X157776691Y-66626441D02*
X157738595Y-66435965D01*
X157738595Y-66435965D02*
X157738595Y-66102632D01*
X157738595Y-66102632D02*
X157776691Y-65912156D01*
X157776691Y-65912156D02*
X157852881Y-65816918D01*
X157852881Y-65816918D02*
X157929072Y-65769299D01*
D12*
X154242856Y-102421371D02*
X154099999Y-102421371D01*
X154099999Y-102421371D02*
X154099999Y-101564228D01*
X154099999Y-101564228D02*
X154242856Y-101564228D01*
X154728571Y-101621371D02*
X154614285Y-101621371D01*
X154614285Y-101621371D02*
X154557142Y-101649942D01*
X154557142Y-101649942D02*
X154528571Y-101678514D01*
X154528571Y-101678514D02*
X154471428Y-101764228D01*
X154471428Y-101764228D02*
X154442856Y-101878514D01*
X154442856Y-101878514D02*
X154442856Y-102107085D01*
X154442856Y-102107085D02*
X154471428Y-102164228D01*
X154471428Y-102164228D02*
X154499999Y-102192800D01*
X154499999Y-102192800D02*
X154557142Y-102221371D01*
X154557142Y-102221371D02*
X154671428Y-102221371D01*
X154671428Y-102221371D02*
X154728571Y-102192800D01*
X154728571Y-102192800D02*
X154757142Y-102164228D01*
X154757142Y-102164228D02*
X154785713Y-102107085D01*
X154785713Y-102107085D02*
X154785713Y-101964228D01*
X154785713Y-101964228D02*
X154757142Y-101907085D01*
X154757142Y-101907085D02*
X154728571Y-101878514D01*
X154728571Y-101878514D02*
X154671428Y-101849942D01*
X154671428Y-101849942D02*
X154557142Y-101849942D01*
X154557142Y-101849942D02*
X154499999Y-101878514D01*
X154499999Y-101878514D02*
X154471428Y-101907085D01*
X154471428Y-101907085D02*
X154442856Y-101964228D01*
X155128571Y-101878514D02*
X155071428Y-101849942D01*
X155071428Y-101849942D02*
X155042857Y-101821371D01*
X155042857Y-101821371D02*
X155014285Y-101764228D01*
X155014285Y-101764228D02*
X155014285Y-101735657D01*
X155014285Y-101735657D02*
X155042857Y-101678514D01*
X155042857Y-101678514D02*
X155071428Y-101649942D01*
X155071428Y-101649942D02*
X155128571Y-101621371D01*
X155128571Y-101621371D02*
X155242857Y-101621371D01*
X155242857Y-101621371D02*
X155300000Y-101649942D01*
X155300000Y-101649942D02*
X155328571Y-101678514D01*
X155328571Y-101678514D02*
X155357142Y-101735657D01*
X155357142Y-101735657D02*
X155357142Y-101764228D01*
X155357142Y-101764228D02*
X155328571Y-101821371D01*
X155328571Y-101821371D02*
X155300000Y-101849942D01*
X155300000Y-101849942D02*
X155242857Y-101878514D01*
X155242857Y-101878514D02*
X155128571Y-101878514D01*
X155128571Y-101878514D02*
X155071428Y-101907085D01*
X155071428Y-101907085D02*
X155042857Y-101935657D01*
X155042857Y-101935657D02*
X155014285Y-101992800D01*
X155014285Y-101992800D02*
X155014285Y-102107085D01*
X155014285Y-102107085D02*
X155042857Y-102164228D01*
X155042857Y-102164228D02*
X155071428Y-102192800D01*
X155071428Y-102192800D02*
X155128571Y-102221371D01*
X155128571Y-102221371D02*
X155242857Y-102221371D01*
X155242857Y-102221371D02*
X155300000Y-102192800D01*
X155300000Y-102192800D02*
X155328571Y-102164228D01*
X155328571Y-102164228D02*
X155357142Y-102107085D01*
X155357142Y-102107085D02*
X155357142Y-101992800D01*
X155357142Y-101992800D02*
X155328571Y-101935657D01*
X155328571Y-101935657D02*
X155300000Y-101907085D01*
X155300000Y-101907085D02*
X155242857Y-101878514D01*
X155614286Y-102221371D02*
X155614286Y-101821371D01*
X155614286Y-101878514D02*
X155642857Y-101849942D01*
X155642857Y-101849942D02*
X155700000Y-101821371D01*
X155700000Y-101821371D02*
X155785714Y-101821371D01*
X155785714Y-101821371D02*
X155842857Y-101849942D01*
X155842857Y-101849942D02*
X155871429Y-101907085D01*
X155871429Y-101907085D02*
X155871429Y-102221371D01*
X155871429Y-101907085D02*
X155900000Y-101849942D01*
X155900000Y-101849942D02*
X155957143Y-101821371D01*
X155957143Y-101821371D02*
X156042857Y-101821371D01*
X156042857Y-101821371D02*
X156100000Y-101849942D01*
X156100000Y-101849942D02*
X156128571Y-101907085D01*
X156128571Y-101907085D02*
X156128571Y-102221371D01*
X156414286Y-102221371D02*
X156414286Y-101821371D01*
X156414286Y-101878514D02*
X156442857Y-101849942D01*
X156442857Y-101849942D02*
X156500000Y-101821371D01*
X156500000Y-101821371D02*
X156585714Y-101821371D01*
X156585714Y-101821371D02*
X156642857Y-101849942D01*
X156642857Y-101849942D02*
X156671429Y-101907085D01*
X156671429Y-101907085D02*
X156671429Y-102221371D01*
X156671429Y-101907085D02*
X156700000Y-101849942D01*
X156700000Y-101849942D02*
X156757143Y-101821371D01*
X156757143Y-101821371D02*
X156842857Y-101821371D01*
X156842857Y-101821371D02*
X156900000Y-101849942D01*
X156900000Y-101849942D02*
X156928571Y-101907085D01*
X156928571Y-101907085D02*
X156928571Y-102221371D01*
X157157143Y-102421371D02*
X157300000Y-102421371D01*
X157300000Y-102421371D02*
X157300000Y-101564228D01*
X157300000Y-101564228D02*
X157157143Y-101564228D01*
D15*
X150069299Y-74818546D02*
X150069299Y-74361403D01*
X151069299Y-74589975D02*
X150069299Y-74589975D01*
X150069299Y-74170927D02*
X151069299Y-73637593D01*
X150069299Y-73637593D02*
X151069299Y-74170927D01*
X152014786Y-90166918D02*
X151938596Y-90119299D01*
X151938596Y-90119299D02*
X151824310Y-90119299D01*
X151824310Y-90119299D02*
X151710024Y-90166918D01*
X151710024Y-90166918D02*
X151633834Y-90262156D01*
X151633834Y-90262156D02*
X151595739Y-90357394D01*
X151595739Y-90357394D02*
X151557643Y-90547870D01*
X151557643Y-90547870D02*
X151557643Y-90690727D01*
X151557643Y-90690727D02*
X151595739Y-90881203D01*
X151595739Y-90881203D02*
X151633834Y-90976441D01*
X151633834Y-90976441D02*
X151710024Y-91071680D01*
X151710024Y-91071680D02*
X151824310Y-91119299D01*
X151824310Y-91119299D02*
X151900501Y-91119299D01*
X151900501Y-91119299D02*
X152014786Y-91071680D01*
X152014786Y-91071680D02*
X152052882Y-91024060D01*
X152052882Y-91024060D02*
X152052882Y-90690727D01*
X152052882Y-90690727D02*
X151900501Y-90690727D01*
X152395739Y-91119299D02*
X152395739Y-90119299D01*
X152395739Y-90119299D02*
X152852882Y-91119299D01*
X152852882Y-91119299D02*
X152852882Y-90119299D01*
X153233834Y-91119299D02*
X153233834Y-90119299D01*
X153233834Y-90119299D02*
X153424310Y-90119299D01*
X153424310Y-90119299D02*
X153538596Y-90166918D01*
X153538596Y-90166918D02*
X153614786Y-90262156D01*
X153614786Y-90262156D02*
X153652881Y-90357394D01*
X153652881Y-90357394D02*
X153690977Y-90547870D01*
X153690977Y-90547870D02*
X153690977Y-90690727D01*
X153690977Y-90690727D02*
X153652881Y-90881203D01*
X153652881Y-90881203D02*
X153614786Y-90976441D01*
X153614786Y-90976441D02*
X153538596Y-91071680D01*
X153538596Y-91071680D02*
X153424310Y-91119299D01*
X153424310Y-91119299D02*
X153233834Y-91119299D01*
X145214786Y-102636918D02*
X145138596Y-102589299D01*
X145138596Y-102589299D02*
X145024310Y-102589299D01*
X145024310Y-102589299D02*
X144910024Y-102636918D01*
X144910024Y-102636918D02*
X144833834Y-102732156D01*
X144833834Y-102732156D02*
X144795739Y-102827394D01*
X144795739Y-102827394D02*
X144757643Y-103017870D01*
X144757643Y-103017870D02*
X144757643Y-103160727D01*
X144757643Y-103160727D02*
X144795739Y-103351203D01*
X144795739Y-103351203D02*
X144833834Y-103446441D01*
X144833834Y-103446441D02*
X144910024Y-103541680D01*
X144910024Y-103541680D02*
X145024310Y-103589299D01*
X145024310Y-103589299D02*
X145100501Y-103589299D01*
X145100501Y-103589299D02*
X145214786Y-103541680D01*
X145214786Y-103541680D02*
X145252882Y-103494060D01*
X145252882Y-103494060D02*
X145252882Y-103160727D01*
X145252882Y-103160727D02*
X145100501Y-103160727D01*
X145595739Y-103589299D02*
X145595739Y-102589299D01*
X145595739Y-102589299D02*
X146052882Y-103589299D01*
X146052882Y-103589299D02*
X146052882Y-102589299D01*
X146433834Y-103589299D02*
X146433834Y-102589299D01*
X146433834Y-102589299D02*
X146624310Y-102589299D01*
X146624310Y-102589299D02*
X146738596Y-102636918D01*
X146738596Y-102636918D02*
X146814786Y-102732156D01*
X146814786Y-102732156D02*
X146852881Y-102827394D01*
X146852881Y-102827394D02*
X146890977Y-103017870D01*
X146890977Y-103017870D02*
X146890977Y-103160727D01*
X146890977Y-103160727D02*
X146852881Y-103351203D01*
X146852881Y-103351203D02*
X146814786Y-103446441D01*
X146814786Y-103446441D02*
X146738596Y-103541680D01*
X146738596Y-103541680D02*
X146624310Y-103589299D01*
X146624310Y-103589299D02*
X146433834Y-103589299D01*
D12*
X158921371Y-102157143D02*
X158921371Y-102300000D01*
X158921371Y-102300000D02*
X158064228Y-102300000D01*
X158064228Y-102300000D02*
X158064228Y-102157143D01*
X158121371Y-101642857D02*
X158121371Y-101928571D01*
X158121371Y-101928571D02*
X158407085Y-101957143D01*
X158407085Y-101957143D02*
X158378514Y-101928571D01*
X158378514Y-101928571D02*
X158349942Y-101871429D01*
X158349942Y-101871429D02*
X158349942Y-101728571D01*
X158349942Y-101728571D02*
X158378514Y-101671429D01*
X158378514Y-101671429D02*
X158407085Y-101642857D01*
X158407085Y-101642857D02*
X158464228Y-101614286D01*
X158464228Y-101614286D02*
X158607085Y-101614286D01*
X158607085Y-101614286D02*
X158664228Y-101642857D01*
X158664228Y-101642857D02*
X158692800Y-101671429D01*
X158692800Y-101671429D02*
X158721371Y-101728571D01*
X158721371Y-101728571D02*
X158721371Y-101871429D01*
X158721371Y-101871429D02*
X158692800Y-101928571D01*
X158692800Y-101928571D02*
X158664228Y-101957143D01*
X158121371Y-101414285D02*
X158121371Y-101042857D01*
X158121371Y-101042857D02*
X158349942Y-101242857D01*
X158349942Y-101242857D02*
X158349942Y-101157142D01*
X158349942Y-101157142D02*
X158378514Y-101100000D01*
X158378514Y-101100000D02*
X158407085Y-101071428D01*
X158407085Y-101071428D02*
X158464228Y-101042857D01*
X158464228Y-101042857D02*
X158607085Y-101042857D01*
X158607085Y-101042857D02*
X158664228Y-101071428D01*
X158664228Y-101071428D02*
X158692800Y-101100000D01*
X158692800Y-101100000D02*
X158721371Y-101157142D01*
X158721371Y-101157142D02*
X158721371Y-101328571D01*
X158721371Y-101328571D02*
X158692800Y-101385714D01*
X158692800Y-101385714D02*
X158664228Y-101414285D01*
X158721371Y-100785713D02*
X158321371Y-100785713D01*
X158378514Y-100785713D02*
X158349942Y-100757142D01*
X158349942Y-100757142D02*
X158321371Y-100699999D01*
X158321371Y-100699999D02*
X158321371Y-100614285D01*
X158321371Y-100614285D02*
X158349942Y-100557142D01*
X158349942Y-100557142D02*
X158407085Y-100528571D01*
X158407085Y-100528571D02*
X158721371Y-100528571D01*
X158407085Y-100528571D02*
X158349942Y-100499999D01*
X158349942Y-100499999D02*
X158321371Y-100442856D01*
X158321371Y-100442856D02*
X158321371Y-100357142D01*
X158321371Y-100357142D02*
X158349942Y-100299999D01*
X158349942Y-100299999D02*
X158407085Y-100271428D01*
X158407085Y-100271428D02*
X158721371Y-100271428D01*
X158721371Y-99985713D02*
X158321371Y-99985713D01*
X158378514Y-99985713D02*
X158349942Y-99957142D01*
X158349942Y-99957142D02*
X158321371Y-99899999D01*
X158321371Y-99899999D02*
X158321371Y-99814285D01*
X158321371Y-99814285D02*
X158349942Y-99757142D01*
X158349942Y-99757142D02*
X158407085Y-99728571D01*
X158407085Y-99728571D02*
X158721371Y-99728571D01*
X158407085Y-99728571D02*
X158349942Y-99699999D01*
X158349942Y-99699999D02*
X158321371Y-99642856D01*
X158321371Y-99642856D02*
X158321371Y-99557142D01*
X158321371Y-99557142D02*
X158349942Y-99499999D01*
X158349942Y-99499999D02*
X158407085Y-99471428D01*
X158407085Y-99471428D02*
X158721371Y-99471428D01*
X158921371Y-99242856D02*
X158921371Y-99099999D01*
X158921371Y-99099999D02*
X158064228Y-99099999D01*
X158064228Y-99099999D02*
X158064228Y-99242856D01*
D15*
X150019299Y-72768546D02*
X151019299Y-72501879D01*
X151019299Y-72501879D02*
X150019299Y-72235213D01*
X150924060Y-71511403D02*
X150971680Y-71549499D01*
X150971680Y-71549499D02*
X151019299Y-71663784D01*
X151019299Y-71663784D02*
X151019299Y-71739975D01*
X151019299Y-71739975D02*
X150971680Y-71854261D01*
X150971680Y-71854261D02*
X150876441Y-71930451D01*
X150876441Y-71930451D02*
X150781203Y-71968546D01*
X150781203Y-71968546D02*
X150590727Y-72006642D01*
X150590727Y-72006642D02*
X150447870Y-72006642D01*
X150447870Y-72006642D02*
X150257394Y-71968546D01*
X150257394Y-71968546D02*
X150162156Y-71930451D01*
X150162156Y-71930451D02*
X150066918Y-71854261D01*
X150066918Y-71854261D02*
X150019299Y-71739975D01*
X150019299Y-71739975D02*
X150019299Y-71663784D01*
X150019299Y-71663784D02*
X150066918Y-71549499D01*
X150066918Y-71549499D02*
X150114537Y-71511403D01*
X150924060Y-70711403D02*
X150971680Y-70749499D01*
X150971680Y-70749499D02*
X151019299Y-70863784D01*
X151019299Y-70863784D02*
X151019299Y-70939975D01*
X151019299Y-70939975D02*
X150971680Y-71054261D01*
X150971680Y-71054261D02*
X150876441Y-71130451D01*
X150876441Y-71130451D02*
X150781203Y-71168546D01*
X150781203Y-71168546D02*
X150590727Y-71206642D01*
X150590727Y-71206642D02*
X150447870Y-71206642D01*
X150447870Y-71206642D02*
X150257394Y-71168546D01*
X150257394Y-71168546D02*
X150162156Y-71130451D01*
X150162156Y-71130451D02*
X150066918Y-71054261D01*
X150066918Y-71054261D02*
X150019299Y-70939975D01*
X150019299Y-70939975D02*
X150019299Y-70863784D01*
X150019299Y-70863784D02*
X150066918Y-70749499D01*
X150066918Y-70749499D02*
X150114537Y-70711403D01*
X120095739Y-62269299D02*
X120095739Y-61269299D01*
X120095739Y-61269299D02*
X120286215Y-61269299D01*
X120286215Y-61269299D02*
X120400501Y-61316918D01*
X120400501Y-61316918D02*
X120476691Y-61412156D01*
X120476691Y-61412156D02*
X120514786Y-61507394D01*
X120514786Y-61507394D02*
X120552882Y-61697870D01*
X120552882Y-61697870D02*
X120552882Y-61840727D01*
X120552882Y-61840727D02*
X120514786Y-62031203D01*
X120514786Y-62031203D02*
X120476691Y-62126441D01*
X120476691Y-62126441D02*
X120400501Y-62221680D01*
X120400501Y-62221680D02*
X120286215Y-62269299D01*
X120286215Y-62269299D02*
X120095739Y-62269299D01*
X121314786Y-62269299D02*
X120857643Y-62269299D01*
X121086215Y-62269299D02*
X121086215Y-61269299D01*
X121086215Y-61269299D02*
X121010024Y-61412156D01*
X121010024Y-61412156D02*
X120933834Y-61507394D01*
X120933834Y-61507394D02*
X120857643Y-61555013D01*
X121581453Y-61269299D02*
X122076691Y-61269299D01*
X122076691Y-61269299D02*
X121810025Y-61650251D01*
X121810025Y-61650251D02*
X121924310Y-61650251D01*
X121924310Y-61650251D02*
X122000501Y-61697870D01*
X122000501Y-61697870D02*
X122038596Y-61745489D01*
X122038596Y-61745489D02*
X122076691Y-61840727D01*
X122076691Y-61840727D02*
X122076691Y-62078822D01*
X122076691Y-62078822D02*
X122038596Y-62174060D01*
X122038596Y-62174060D02*
X122000501Y-62221680D01*
X122000501Y-62221680D02*
X121924310Y-62269299D01*
X121924310Y-62269299D02*
X121695739Y-62269299D01*
X121695739Y-62269299D02*
X121619548Y-62221680D01*
X121619548Y-62221680D02*
X121581453Y-62174060D01*
X123029073Y-62269299D02*
X123029073Y-61269299D01*
X123029073Y-61269299D02*
X123219549Y-61269299D01*
X123219549Y-61269299D02*
X123333835Y-61316918D01*
X123333835Y-61316918D02*
X123410025Y-61412156D01*
X123410025Y-61412156D02*
X123448120Y-61507394D01*
X123448120Y-61507394D02*
X123486216Y-61697870D01*
X123486216Y-61697870D02*
X123486216Y-61840727D01*
X123486216Y-61840727D02*
X123448120Y-62031203D01*
X123448120Y-62031203D02*
X123410025Y-62126441D01*
X123410025Y-62126441D02*
X123333835Y-62221680D01*
X123333835Y-62221680D02*
X123219549Y-62269299D01*
X123219549Y-62269299D02*
X123029073Y-62269299D01*
X124248120Y-62269299D02*
X123790977Y-62269299D01*
X124019549Y-62269299D02*
X124019549Y-61269299D01*
X124019549Y-61269299D02*
X123943358Y-61412156D01*
X123943358Y-61412156D02*
X123867168Y-61507394D01*
X123867168Y-61507394D02*
X123790977Y-61555013D01*
X124552882Y-61364537D02*
X124590978Y-61316918D01*
X124590978Y-61316918D02*
X124667168Y-61269299D01*
X124667168Y-61269299D02*
X124857644Y-61269299D01*
X124857644Y-61269299D02*
X124933835Y-61316918D01*
X124933835Y-61316918D02*
X124971930Y-61364537D01*
X124971930Y-61364537D02*
X125010025Y-61459775D01*
X125010025Y-61459775D02*
X125010025Y-61555013D01*
X125010025Y-61555013D02*
X124971930Y-61697870D01*
X124971930Y-61697870D02*
X124514787Y-62269299D01*
X124514787Y-62269299D02*
X125010025Y-62269299D01*
X156614786Y-83866918D02*
X156538596Y-83819299D01*
X156538596Y-83819299D02*
X156424310Y-83819299D01*
X156424310Y-83819299D02*
X156310024Y-83866918D01*
X156310024Y-83866918D02*
X156233834Y-83962156D01*
X156233834Y-83962156D02*
X156195739Y-84057394D01*
X156195739Y-84057394D02*
X156157643Y-84247870D01*
X156157643Y-84247870D02*
X156157643Y-84390727D01*
X156157643Y-84390727D02*
X156195739Y-84581203D01*
X156195739Y-84581203D02*
X156233834Y-84676441D01*
X156233834Y-84676441D02*
X156310024Y-84771680D01*
X156310024Y-84771680D02*
X156424310Y-84819299D01*
X156424310Y-84819299D02*
X156500501Y-84819299D01*
X156500501Y-84819299D02*
X156614786Y-84771680D01*
X156614786Y-84771680D02*
X156652882Y-84724060D01*
X156652882Y-84724060D02*
X156652882Y-84390727D01*
X156652882Y-84390727D02*
X156500501Y-84390727D01*
X156995739Y-84819299D02*
X156995739Y-83819299D01*
X156995739Y-83819299D02*
X157452882Y-84819299D01*
X157452882Y-84819299D02*
X157452882Y-83819299D01*
X157833834Y-84819299D02*
X157833834Y-83819299D01*
X157833834Y-83819299D02*
X158024310Y-83819299D01*
X158024310Y-83819299D02*
X158138596Y-83866918D01*
X158138596Y-83866918D02*
X158214786Y-83962156D01*
X158214786Y-83962156D02*
X158252881Y-84057394D01*
X158252881Y-84057394D02*
X158290977Y-84247870D01*
X158290977Y-84247870D02*
X158290977Y-84390727D01*
X158290977Y-84390727D02*
X158252881Y-84581203D01*
X158252881Y-84581203D02*
X158214786Y-84676441D01*
X158214786Y-84676441D02*
X158138596Y-84771680D01*
X158138596Y-84771680D02*
X158024310Y-84819299D01*
X158024310Y-84819299D02*
X157833834Y-84819299D01*
D13*
X154363627Y-72598195D02*
X154463627Y-71798195D01*
X154463627Y-71798195D02*
X154582675Y-71798195D01*
X154582675Y-71798195D02*
X154649342Y-71836290D01*
X154649342Y-71836290D02*
X154687437Y-71912480D01*
X154687437Y-71912480D02*
X154701722Y-71988671D01*
X154701722Y-71988671D02*
X154706484Y-72141052D01*
X154706484Y-72141052D02*
X154692199Y-72255338D01*
X154692199Y-72255338D02*
X154649342Y-72407719D01*
X154649342Y-72407719D02*
X154616008Y-72483909D01*
X154616008Y-72483909D02*
X154558865Y-72560100D01*
X154558865Y-72560100D02*
X154482675Y-72598195D01*
X154482675Y-72598195D02*
X154363627Y-72598195D01*
X154992199Y-72141052D02*
X154949342Y-72102957D01*
X154949342Y-72102957D02*
X154930294Y-72064861D01*
X154930294Y-72064861D02*
X154916008Y-71988671D01*
X154916008Y-71988671D02*
X154920770Y-71950576D01*
X154920770Y-71950576D02*
X154954103Y-71874385D01*
X154954103Y-71874385D02*
X154982675Y-71836290D01*
X154982675Y-71836290D02*
X155035056Y-71798195D01*
X155035056Y-71798195D02*
X155130294Y-71798195D01*
X155130294Y-71798195D02*
X155173151Y-71836290D01*
X155173151Y-71836290D02*
X155192199Y-71874385D01*
X155192199Y-71874385D02*
X155206484Y-71950576D01*
X155206484Y-71950576D02*
X155201722Y-71988671D01*
X155201722Y-71988671D02*
X155168389Y-72064861D01*
X155168389Y-72064861D02*
X155139818Y-72102957D01*
X155139818Y-72102957D02*
X155087437Y-72141052D01*
X155087437Y-72141052D02*
X154992199Y-72141052D01*
X154992199Y-72141052D02*
X154939818Y-72179147D01*
X154939818Y-72179147D02*
X154911246Y-72217242D01*
X154911246Y-72217242D02*
X154877913Y-72293433D01*
X154877913Y-72293433D02*
X154858865Y-72445814D01*
X154858865Y-72445814D02*
X154873151Y-72522004D01*
X154873151Y-72522004D02*
X154892199Y-72560100D01*
X154892199Y-72560100D02*
X154935056Y-72598195D01*
X154935056Y-72598195D02*
X155030294Y-72598195D01*
X155030294Y-72598195D02*
X155082675Y-72560100D01*
X155082675Y-72560100D02*
X155111246Y-72522004D01*
X155111246Y-72522004D02*
X155144580Y-72445814D01*
X155144580Y-72445814D02*
X155163627Y-72293433D01*
X155163627Y-72293433D02*
X155149342Y-72217242D01*
X155149342Y-72217242D02*
X155130294Y-72179147D01*
X155130294Y-72179147D02*
X155087437Y-72141052D01*
X155720769Y-72598195D02*
X155820769Y-71798195D01*
X155820769Y-71798195D02*
X155939817Y-71798195D01*
X155939817Y-71798195D02*
X156006484Y-71836290D01*
X156006484Y-71836290D02*
X156044579Y-71912480D01*
X156044579Y-71912480D02*
X156058864Y-71988671D01*
X156058864Y-71988671D02*
X156063626Y-72141052D01*
X156063626Y-72141052D02*
X156049341Y-72255338D01*
X156049341Y-72255338D02*
X156006484Y-72407719D01*
X156006484Y-72407719D02*
X155973150Y-72483909D01*
X155973150Y-72483909D02*
X155916007Y-72560100D01*
X155916007Y-72560100D02*
X155839817Y-72598195D01*
X155839817Y-72598195D02*
X155720769Y-72598195D01*
X156244579Y-72598195D02*
X156339817Y-72598195D01*
X156339817Y-72598195D02*
X156392198Y-72560100D01*
X156392198Y-72560100D02*
X156420769Y-72522004D01*
X156420769Y-72522004D02*
X156482674Y-72407719D01*
X156482674Y-72407719D02*
X156525531Y-72255338D01*
X156525531Y-72255338D02*
X156563626Y-71950576D01*
X156563626Y-71950576D02*
X156549341Y-71874385D01*
X156549341Y-71874385D02*
X156530293Y-71836290D01*
X156530293Y-71836290D02*
X156487436Y-71798195D01*
X156487436Y-71798195D02*
X156392198Y-71798195D01*
X156392198Y-71798195D02*
X156339817Y-71836290D01*
X156339817Y-71836290D02*
X156311245Y-71874385D01*
X156311245Y-71874385D02*
X156277912Y-71950576D01*
X156277912Y-71950576D02*
X156254103Y-72141052D01*
X156254103Y-72141052D02*
X156268388Y-72217242D01*
X156268388Y-72217242D02*
X156287436Y-72255338D01*
X156287436Y-72255338D02*
X156330293Y-72293433D01*
X156330293Y-72293433D02*
X156425531Y-72293433D01*
X156425531Y-72293433D02*
X156477912Y-72255338D01*
X156477912Y-72255338D02*
X156506484Y-72217242D01*
X156506484Y-72217242D02*
X156539817Y-72141052D01*
X157077911Y-72598195D02*
X157177911Y-71798195D01*
X157177911Y-71798195D02*
X157296959Y-71798195D01*
X157296959Y-71798195D02*
X157363626Y-71836290D01*
X157363626Y-71836290D02*
X157401721Y-71912480D01*
X157401721Y-71912480D02*
X157416006Y-71988671D01*
X157416006Y-71988671D02*
X157420768Y-72141052D01*
X157420768Y-72141052D02*
X157406483Y-72255338D01*
X157406483Y-72255338D02*
X157363626Y-72407719D01*
X157363626Y-72407719D02*
X157330292Y-72483909D01*
X157330292Y-72483909D02*
X157273149Y-72560100D01*
X157273149Y-72560100D02*
X157196959Y-72598195D01*
X157196959Y-72598195D02*
X157077911Y-72598195D01*
X157839816Y-72598195D02*
X157554102Y-72598195D01*
X157696959Y-72598195D02*
X157796959Y-71798195D01*
X157796959Y-71798195D02*
X157735054Y-71912480D01*
X157735054Y-71912480D02*
X157677911Y-71988671D01*
X157677911Y-71988671D02*
X157625530Y-72026766D01*
X158249339Y-71798195D02*
X158296958Y-71798195D01*
X158296958Y-71798195D02*
X158339816Y-71836290D01*
X158339816Y-71836290D02*
X158358863Y-71874385D01*
X158358863Y-71874385D02*
X158373149Y-71950576D01*
X158373149Y-71950576D02*
X158377911Y-72102957D01*
X158377911Y-72102957D02*
X158354101Y-72293433D01*
X158354101Y-72293433D02*
X158311244Y-72445814D01*
X158311244Y-72445814D02*
X158277911Y-72522004D01*
X158277911Y-72522004D02*
X158249339Y-72560100D01*
X158249339Y-72560100D02*
X158196958Y-72598195D01*
X158196958Y-72598195D02*
X158149339Y-72598195D01*
X158149339Y-72598195D02*
X158106482Y-72560100D01*
X158106482Y-72560100D02*
X158087435Y-72522004D01*
X158087435Y-72522004D02*
X158073149Y-72445814D01*
X158073149Y-72445814D02*
X158068387Y-72293433D01*
X158068387Y-72293433D02*
X158092196Y-72102957D01*
X158092196Y-72102957D02*
X158135054Y-71950576D01*
X158135054Y-71950576D02*
X158168387Y-71874385D01*
X158168387Y-71874385D02*
X158196958Y-71836290D01*
X158196958Y-71836290D02*
X158249339Y-71798195D01*
D12*
X154242856Y-103549942D02*
X154214285Y-103521371D01*
X154214285Y-103521371D02*
X154157142Y-103435657D01*
X154157142Y-103435657D02*
X154128571Y-103378514D01*
X154128571Y-103378514D02*
X154099999Y-103292800D01*
X154099999Y-103292800D02*
X154071428Y-103149942D01*
X154071428Y-103149942D02*
X154071428Y-103035657D01*
X154071428Y-103035657D02*
X154099999Y-102892800D01*
X154099999Y-102892800D02*
X154128571Y-102807085D01*
X154128571Y-102807085D02*
X154157142Y-102749942D01*
X154157142Y-102749942D02*
X154214285Y-102664228D01*
X154214285Y-102664228D02*
X154242856Y-102635657D01*
X154728571Y-102721371D02*
X154614285Y-102721371D01*
X154614285Y-102721371D02*
X154557142Y-102749942D01*
X154557142Y-102749942D02*
X154528571Y-102778514D01*
X154528571Y-102778514D02*
X154471428Y-102864228D01*
X154471428Y-102864228D02*
X154442856Y-102978514D01*
X154442856Y-102978514D02*
X154442856Y-103207085D01*
X154442856Y-103207085D02*
X154471428Y-103264228D01*
X154471428Y-103264228D02*
X154499999Y-103292800D01*
X154499999Y-103292800D02*
X154557142Y-103321371D01*
X154557142Y-103321371D02*
X154671428Y-103321371D01*
X154671428Y-103321371D02*
X154728571Y-103292800D01*
X154728571Y-103292800D02*
X154757142Y-103264228D01*
X154757142Y-103264228D02*
X154785713Y-103207085D01*
X154785713Y-103207085D02*
X154785713Y-103064228D01*
X154785713Y-103064228D02*
X154757142Y-103007085D01*
X154757142Y-103007085D02*
X154728571Y-102978514D01*
X154728571Y-102978514D02*
X154671428Y-102949942D01*
X154671428Y-102949942D02*
X154557142Y-102949942D01*
X154557142Y-102949942D02*
X154499999Y-102978514D01*
X154499999Y-102978514D02*
X154471428Y-103007085D01*
X154471428Y-103007085D02*
X154442856Y-103064228D01*
X155357142Y-103321371D02*
X155014285Y-103321371D01*
X155185714Y-103321371D02*
X155185714Y-102721371D01*
X155185714Y-102721371D02*
X155128571Y-102807085D01*
X155128571Y-102807085D02*
X155071428Y-102864228D01*
X155071428Y-102864228D02*
X155014285Y-102892800D01*
X155614286Y-103321371D02*
X155614286Y-102921371D01*
X155614286Y-102978514D02*
X155642857Y-102949942D01*
X155642857Y-102949942D02*
X155700000Y-102921371D01*
X155700000Y-102921371D02*
X155785714Y-102921371D01*
X155785714Y-102921371D02*
X155842857Y-102949942D01*
X155842857Y-102949942D02*
X155871429Y-103007085D01*
X155871429Y-103007085D02*
X155871429Y-103321371D01*
X155871429Y-103007085D02*
X155900000Y-102949942D01*
X155900000Y-102949942D02*
X155957143Y-102921371D01*
X155957143Y-102921371D02*
X156042857Y-102921371D01*
X156042857Y-102921371D02*
X156100000Y-102949942D01*
X156100000Y-102949942D02*
X156128571Y-103007085D01*
X156128571Y-103007085D02*
X156128571Y-103321371D01*
X156414286Y-103321371D02*
X156414286Y-102921371D01*
X156414286Y-102978514D02*
X156442857Y-102949942D01*
X156442857Y-102949942D02*
X156500000Y-102921371D01*
X156500000Y-102921371D02*
X156585714Y-102921371D01*
X156585714Y-102921371D02*
X156642857Y-102949942D01*
X156642857Y-102949942D02*
X156671429Y-103007085D01*
X156671429Y-103007085D02*
X156671429Y-103321371D01*
X156671429Y-103007085D02*
X156700000Y-102949942D01*
X156700000Y-102949942D02*
X156757143Y-102921371D01*
X156757143Y-102921371D02*
X156842857Y-102921371D01*
X156842857Y-102921371D02*
X156900000Y-102949942D01*
X156900000Y-102949942D02*
X156928571Y-103007085D01*
X156928571Y-103007085D02*
X156928571Y-103321371D01*
X157157143Y-103549942D02*
X157185714Y-103521371D01*
X157185714Y-103521371D02*
X157242857Y-103435657D01*
X157242857Y-103435657D02*
X157271429Y-103378514D01*
X157271429Y-103378514D02*
X157300000Y-103292800D01*
X157300000Y-103292800D02*
X157328571Y-103149942D01*
X157328571Y-103149942D02*
X157328571Y-103035657D01*
X157328571Y-103035657D02*
X157300000Y-102892800D01*
X157300000Y-102892800D02*
X157271429Y-102807085D01*
X157271429Y-102807085D02*
X157242857Y-102749942D01*
X157242857Y-102749942D02*
X157185714Y-102664228D01*
X157185714Y-102664228D02*
X157157143Y-102635657D01*
D15*
X150116918Y-66985213D02*
X150069299Y-67061403D01*
X150069299Y-67061403D02*
X150069299Y-67175689D01*
X150069299Y-67175689D02*
X150116918Y-67289975D01*
X150116918Y-67289975D02*
X150212156Y-67366165D01*
X150212156Y-67366165D02*
X150307394Y-67404260D01*
X150307394Y-67404260D02*
X150497870Y-67442356D01*
X150497870Y-67442356D02*
X150640727Y-67442356D01*
X150640727Y-67442356D02*
X150831203Y-67404260D01*
X150831203Y-67404260D02*
X150926441Y-67366165D01*
X150926441Y-67366165D02*
X151021680Y-67289975D01*
X151021680Y-67289975D02*
X151069299Y-67175689D01*
X151069299Y-67175689D02*
X151069299Y-67099498D01*
X151069299Y-67099498D02*
X151021680Y-66985213D01*
X151021680Y-66985213D02*
X150974060Y-66947117D01*
X150974060Y-66947117D02*
X150640727Y-66947117D01*
X150640727Y-66947117D02*
X150640727Y-67099498D01*
X151069299Y-66604260D02*
X150069299Y-66604260D01*
X150069299Y-66604260D02*
X151069299Y-66147117D01*
X151069299Y-66147117D02*
X150069299Y-66147117D01*
X151069299Y-65766165D02*
X150069299Y-65766165D01*
X150069299Y-65766165D02*
X150069299Y-65575689D01*
X150069299Y-65575689D02*
X150116918Y-65461403D01*
X150116918Y-65461403D02*
X150212156Y-65385213D01*
X150212156Y-65385213D02*
X150307394Y-65347118D01*
X150307394Y-65347118D02*
X150497870Y-65309022D01*
X150497870Y-65309022D02*
X150640727Y-65309022D01*
X150640727Y-65309022D02*
X150831203Y-65347118D01*
X150831203Y-65347118D02*
X150926441Y-65385213D01*
X150926441Y-65385213D02*
X151021680Y-65461403D01*
X151021680Y-65461403D02*
X151069299Y-65575689D01*
X151069299Y-65575689D02*
X151069299Y-65766165D01*
X151019299Y-69804260D02*
X150019299Y-69804260D01*
X150019299Y-69804260D02*
X151019299Y-69347117D01*
X151019299Y-69347117D02*
X150019299Y-69347117D01*
X150924060Y-68509022D02*
X150971680Y-68547118D01*
X150971680Y-68547118D02*
X151019299Y-68661403D01*
X151019299Y-68661403D02*
X151019299Y-68737594D01*
X151019299Y-68737594D02*
X150971680Y-68851880D01*
X150971680Y-68851880D02*
X150876441Y-68928070D01*
X150876441Y-68928070D02*
X150781203Y-68966165D01*
X150781203Y-68966165D02*
X150590727Y-69004261D01*
X150590727Y-69004261D02*
X150447870Y-69004261D01*
X150447870Y-69004261D02*
X150257394Y-68966165D01*
X150257394Y-68966165D02*
X150162156Y-68928070D01*
X150162156Y-68928070D02*
X150066918Y-68851880D01*
X150066918Y-68851880D02*
X150019299Y-68737594D01*
X150019299Y-68737594D02*
X150019299Y-68661403D01*
X150019299Y-68661403D02*
X150066918Y-68547118D01*
X150066918Y-68547118D02*
X150114537Y-68509022D01*
X152826691Y-87239299D02*
X152445739Y-87239299D01*
X152445739Y-87239299D02*
X152407643Y-87715489D01*
X152407643Y-87715489D02*
X152445739Y-87667870D01*
X152445739Y-87667870D02*
X152521929Y-87620251D01*
X152521929Y-87620251D02*
X152712405Y-87620251D01*
X152712405Y-87620251D02*
X152788596Y-87667870D01*
X152788596Y-87667870D02*
X152826691Y-87715489D01*
X152826691Y-87715489D02*
X152864786Y-87810727D01*
X152864786Y-87810727D02*
X152864786Y-88048822D01*
X152864786Y-88048822D02*
X152826691Y-88144060D01*
X152826691Y-88144060D02*
X152788596Y-88191680D01*
X152788596Y-88191680D02*
X152712405Y-88239299D01*
X152712405Y-88239299D02*
X152521929Y-88239299D01*
X152521929Y-88239299D02*
X152445739Y-88191680D01*
X152445739Y-88191680D02*
X152407643Y-88144060D01*
X153093358Y-87239299D02*
X153360025Y-88239299D01*
X153360025Y-88239299D02*
X153626691Y-87239299D01*
X156695739Y-69269299D02*
X156695739Y-68269299D01*
X157076691Y-69269299D02*
X157076691Y-68269299D01*
X157076691Y-68269299D02*
X157533834Y-69269299D01*
X157533834Y-69269299D02*
X157533834Y-68269299D01*
X157800500Y-68269299D02*
X158257643Y-68269299D01*
X158029071Y-69269299D02*
X158029071Y-68269299D01*
D12*
X160049942Y-102157143D02*
X160021371Y-102185714D01*
X160021371Y-102185714D02*
X159935657Y-102242857D01*
X159935657Y-102242857D02*
X159878514Y-102271429D01*
X159878514Y-102271429D02*
X159792800Y-102300000D01*
X159792800Y-102300000D02*
X159649942Y-102328571D01*
X159649942Y-102328571D02*
X159535657Y-102328571D01*
X159535657Y-102328571D02*
X159392800Y-102300000D01*
X159392800Y-102300000D02*
X159307085Y-102271429D01*
X159307085Y-102271429D02*
X159249942Y-102242857D01*
X159249942Y-102242857D02*
X159164228Y-102185714D01*
X159164228Y-102185714D02*
X159135657Y-102157143D01*
X159421371Y-101671429D02*
X159821371Y-101671429D01*
X159192800Y-101814286D02*
X159621371Y-101957143D01*
X159621371Y-101957143D02*
X159621371Y-101585714D01*
X159221371Y-101100000D02*
X159221371Y-101214285D01*
X159221371Y-101214285D02*
X159249942Y-101271428D01*
X159249942Y-101271428D02*
X159278514Y-101300000D01*
X159278514Y-101300000D02*
X159364228Y-101357142D01*
X159364228Y-101357142D02*
X159478514Y-101385714D01*
X159478514Y-101385714D02*
X159707085Y-101385714D01*
X159707085Y-101385714D02*
X159764228Y-101357142D01*
X159764228Y-101357142D02*
X159792800Y-101328571D01*
X159792800Y-101328571D02*
X159821371Y-101271428D01*
X159821371Y-101271428D02*
X159821371Y-101157142D01*
X159821371Y-101157142D02*
X159792800Y-101100000D01*
X159792800Y-101100000D02*
X159764228Y-101071428D01*
X159764228Y-101071428D02*
X159707085Y-101042857D01*
X159707085Y-101042857D02*
X159564228Y-101042857D01*
X159564228Y-101042857D02*
X159507085Y-101071428D01*
X159507085Y-101071428D02*
X159478514Y-101100000D01*
X159478514Y-101100000D02*
X159449942Y-101157142D01*
X159449942Y-101157142D02*
X159449942Y-101271428D01*
X159449942Y-101271428D02*
X159478514Y-101328571D01*
X159478514Y-101328571D02*
X159507085Y-101357142D01*
X159507085Y-101357142D02*
X159564228Y-101385714D01*
X159821371Y-100785713D02*
X159421371Y-100785713D01*
X159478514Y-100785713D02*
X159449942Y-100757142D01*
X159449942Y-100757142D02*
X159421371Y-100699999D01*
X159421371Y-100699999D02*
X159421371Y-100614285D01*
X159421371Y-100614285D02*
X159449942Y-100557142D01*
X159449942Y-100557142D02*
X159507085Y-100528571D01*
X159507085Y-100528571D02*
X159821371Y-100528571D01*
X159507085Y-100528571D02*
X159449942Y-100499999D01*
X159449942Y-100499999D02*
X159421371Y-100442856D01*
X159421371Y-100442856D02*
X159421371Y-100357142D01*
X159421371Y-100357142D02*
X159449942Y-100299999D01*
X159449942Y-100299999D02*
X159507085Y-100271428D01*
X159507085Y-100271428D02*
X159821371Y-100271428D01*
X159821371Y-99985713D02*
X159421371Y-99985713D01*
X159478514Y-99985713D02*
X159449942Y-99957142D01*
X159449942Y-99957142D02*
X159421371Y-99899999D01*
X159421371Y-99899999D02*
X159421371Y-99814285D01*
X159421371Y-99814285D02*
X159449942Y-99757142D01*
X159449942Y-99757142D02*
X159507085Y-99728571D01*
X159507085Y-99728571D02*
X159821371Y-99728571D01*
X159507085Y-99728571D02*
X159449942Y-99699999D01*
X159449942Y-99699999D02*
X159421371Y-99642856D01*
X159421371Y-99642856D02*
X159421371Y-99557142D01*
X159421371Y-99557142D02*
X159449942Y-99499999D01*
X159449942Y-99499999D02*
X159507085Y-99471428D01*
X159507085Y-99471428D02*
X159821371Y-99471428D01*
X160049942Y-99242856D02*
X160021371Y-99214285D01*
X160021371Y-99214285D02*
X159935657Y-99157142D01*
X159935657Y-99157142D02*
X159878514Y-99128571D01*
X159878514Y-99128571D02*
X159792800Y-99099999D01*
X159792800Y-99099999D02*
X159649942Y-99071428D01*
X159649942Y-99071428D02*
X159535657Y-99071428D01*
X159535657Y-99071428D02*
X159392800Y-99099999D01*
X159392800Y-99099999D02*
X159307085Y-99128571D01*
X159307085Y-99128571D02*
X159249942Y-99157142D01*
X159249942Y-99157142D02*
X159164228Y-99214285D01*
X159164228Y-99214285D02*
X159135657Y-99242856D01*
D17*
X113317219Y-60242231D02*
X114317219Y-59975564D01*
X114317219Y-59975564D02*
X113317219Y-59708898D01*
X114269600Y-59480327D02*
X114317219Y-59366041D01*
X114317219Y-59366041D02*
X114317219Y-59175565D01*
X114317219Y-59175565D02*
X114269600Y-59099374D01*
X114269600Y-59099374D02*
X114221980Y-59061279D01*
X114221980Y-59061279D02*
X114126742Y-59023184D01*
X114126742Y-59023184D02*
X114031504Y-59023184D01*
X114031504Y-59023184D02*
X113936266Y-59061279D01*
X113936266Y-59061279D02*
X113888647Y-59099374D01*
X113888647Y-59099374D02*
X113841028Y-59175565D01*
X113841028Y-59175565D02*
X113793409Y-59327946D01*
X113793409Y-59327946D02*
X113745790Y-59404136D01*
X113745790Y-59404136D02*
X113698171Y-59442231D01*
X113698171Y-59442231D02*
X113602933Y-59480327D01*
X113602933Y-59480327D02*
X113507695Y-59480327D01*
X113507695Y-59480327D02*
X113412457Y-59442231D01*
X113412457Y-59442231D02*
X113364838Y-59404136D01*
X113364838Y-59404136D02*
X113317219Y-59327946D01*
X113317219Y-59327946D02*
X113317219Y-59137469D01*
X113317219Y-59137469D02*
X113364838Y-59023184D01*
X114317219Y-58680326D02*
X113317219Y-58680326D01*
X113317219Y-58680326D02*
X113317219Y-58375564D01*
X113317219Y-58375564D02*
X113364838Y-58299374D01*
X113364838Y-58299374D02*
X113412457Y-58261279D01*
X113412457Y-58261279D02*
X113507695Y-58223183D01*
X113507695Y-58223183D02*
X113650552Y-58223183D01*
X113650552Y-58223183D02*
X113745790Y-58261279D01*
X113745790Y-58261279D02*
X113793409Y-58299374D01*
X113793409Y-58299374D02*
X113841028Y-58375564D01*
X113841028Y-58375564D02*
X113841028Y-58680326D01*
X113650552Y-56661279D02*
X113936266Y-57270802D01*
X113936266Y-57270802D02*
X114221980Y-56661279D01*
X113936266Y-56280326D02*
X113936266Y-55670803D01*
X113650552Y-55289850D02*
X113936266Y-54680327D01*
X113936266Y-54680327D02*
X114221980Y-55289850D01*
X113317219Y-53308898D02*
X113317219Y-53689850D01*
X113317219Y-53689850D02*
X113793409Y-53727946D01*
X113793409Y-53727946D02*
X113745790Y-53689850D01*
X113745790Y-53689850D02*
X113698171Y-53613660D01*
X113698171Y-53613660D02*
X113698171Y-53423184D01*
X113698171Y-53423184D02*
X113745790Y-53346993D01*
X113745790Y-53346993D02*
X113793409Y-53308898D01*
X113793409Y-53308898D02*
X113888647Y-53270803D01*
X113888647Y-53270803D02*
X114126742Y-53270803D01*
X114126742Y-53270803D02*
X114221980Y-53308898D01*
X114221980Y-53308898D02*
X114269600Y-53346993D01*
X114269600Y-53346993D02*
X114317219Y-53423184D01*
X114317219Y-53423184D02*
X114317219Y-53613660D01*
X114317219Y-53613660D02*
X114269600Y-53689850D01*
X114269600Y-53689850D02*
X114221980Y-53727946D01*
X113317219Y-53042231D02*
X114317219Y-52775564D01*
X114317219Y-52775564D02*
X113317219Y-52508898D01*
D18*
X159952381Y-104194815D02*
X159952381Y-103394815D01*
X159952381Y-103394815D02*
X160219047Y-103966243D01*
X160219047Y-103966243D02*
X160485714Y-103394815D01*
X160485714Y-103394815D02*
X160485714Y-104194815D01*
X160790476Y-103394815D02*
X161285714Y-103394815D01*
X161285714Y-103394815D02*
X161019048Y-103699577D01*
X161019048Y-103699577D02*
X161133333Y-103699577D01*
X161133333Y-103699577D02*
X161209524Y-103737672D01*
X161209524Y-103737672D02*
X161247619Y-103775767D01*
X161247619Y-103775767D02*
X161285714Y-103851958D01*
X161285714Y-103851958D02*
X161285714Y-104042434D01*
X161285714Y-104042434D02*
X161247619Y-104118624D01*
X161247619Y-104118624D02*
X161209524Y-104156720D01*
X161209524Y-104156720D02*
X161133333Y-104194815D01*
X161133333Y-104194815D02*
X160904762Y-104194815D01*
X160904762Y-104194815D02*
X160828571Y-104156720D01*
X160828571Y-104156720D02*
X160790476Y-104118624D01*
D15*
X156107643Y-79471680D02*
X156221929Y-79519299D01*
X156221929Y-79519299D02*
X156412405Y-79519299D01*
X156412405Y-79519299D02*
X156488596Y-79471680D01*
X156488596Y-79471680D02*
X156526691Y-79424060D01*
X156526691Y-79424060D02*
X156564786Y-79328822D01*
X156564786Y-79328822D02*
X156564786Y-79233584D01*
X156564786Y-79233584D02*
X156526691Y-79138346D01*
X156526691Y-79138346D02*
X156488596Y-79090727D01*
X156488596Y-79090727D02*
X156412405Y-79043108D01*
X156412405Y-79043108D02*
X156260024Y-78995489D01*
X156260024Y-78995489D02*
X156183834Y-78947870D01*
X156183834Y-78947870D02*
X156145739Y-78900251D01*
X156145739Y-78900251D02*
X156107643Y-78805013D01*
X156107643Y-78805013D02*
X156107643Y-78709775D01*
X156107643Y-78709775D02*
X156145739Y-78614537D01*
X156145739Y-78614537D02*
X156183834Y-78566918D01*
X156183834Y-78566918D02*
X156260024Y-78519299D01*
X156260024Y-78519299D02*
X156450501Y-78519299D01*
X156450501Y-78519299D02*
X156564786Y-78566918D01*
X157364787Y-79424060D02*
X157326691Y-79471680D01*
X157326691Y-79471680D02*
X157212406Y-79519299D01*
X157212406Y-79519299D02*
X157136215Y-79519299D01*
X157136215Y-79519299D02*
X157021929Y-79471680D01*
X157021929Y-79471680D02*
X156945739Y-79376441D01*
X156945739Y-79376441D02*
X156907644Y-79281203D01*
X156907644Y-79281203D02*
X156869548Y-79090727D01*
X156869548Y-79090727D02*
X156869548Y-78947870D01*
X156869548Y-78947870D02*
X156907644Y-78757394D01*
X156907644Y-78757394D02*
X156945739Y-78662156D01*
X156945739Y-78662156D02*
X157021929Y-78566918D01*
X157021929Y-78566918D02*
X157136215Y-78519299D01*
X157136215Y-78519299D02*
X157212406Y-78519299D01*
X157212406Y-78519299D02*
X157326691Y-78566918D01*
X157326691Y-78566918D02*
X157364787Y-78614537D01*
X157707644Y-79519299D02*
X157707644Y-78519299D01*
X158164787Y-79519299D02*
X157821929Y-78947870D01*
X158164787Y-78519299D02*
X157707644Y-79090727D01*
D12*
X108077071Y-102183609D02*
X108077071Y-101683609D01*
X108529452Y-102183609D02*
X108529452Y-101683609D01*
X108529452Y-102159800D02*
X108481833Y-102183609D01*
X108481833Y-102183609D02*
X108386595Y-102183609D01*
X108386595Y-102183609D02*
X108338976Y-102159800D01*
X108338976Y-102159800D02*
X108315166Y-102135990D01*
X108315166Y-102135990D02*
X108291357Y-102088371D01*
X108291357Y-102088371D02*
X108291357Y-101945514D01*
X108291357Y-101945514D02*
X108315166Y-101897895D01*
X108315166Y-101897895D02*
X108338976Y-101874085D01*
X108338976Y-101874085D02*
X108386595Y-101850276D01*
X108386595Y-101850276D02*
X108481833Y-101850276D01*
X108481833Y-101850276D02*
X108529452Y-101874085D01*
X108958023Y-102159800D02*
X108910404Y-102183609D01*
X108910404Y-102183609D02*
X108815166Y-102183609D01*
X108815166Y-102183609D02*
X108767547Y-102159800D01*
X108767547Y-102159800D02*
X108743738Y-102112180D01*
X108743738Y-102112180D02*
X108743738Y-101921704D01*
X108743738Y-101921704D02*
X108767547Y-101874085D01*
X108767547Y-101874085D02*
X108815166Y-101850276D01*
X108815166Y-101850276D02*
X108910404Y-101850276D01*
X108910404Y-101850276D02*
X108958023Y-101874085D01*
X108958023Y-101874085D02*
X108981833Y-101921704D01*
X108981833Y-101921704D02*
X108981833Y-101969323D01*
X108981833Y-101969323D02*
X108743738Y-102016942D01*
X109410404Y-102183609D02*
X109410404Y-101921704D01*
X109410404Y-101921704D02*
X109386594Y-101874085D01*
X109386594Y-101874085D02*
X109338975Y-101850276D01*
X109338975Y-101850276D02*
X109243737Y-101850276D01*
X109243737Y-101850276D02*
X109196118Y-101874085D01*
X109410404Y-102159800D02*
X109362785Y-102183609D01*
X109362785Y-102183609D02*
X109243737Y-102183609D01*
X109243737Y-102183609D02*
X109196118Y-102159800D01*
X109196118Y-102159800D02*
X109172309Y-102112180D01*
X109172309Y-102112180D02*
X109172309Y-102064561D01*
X109172309Y-102064561D02*
X109196118Y-102016942D01*
X109196118Y-102016942D02*
X109243737Y-101993133D01*
X109243737Y-101993133D02*
X109362785Y-101993133D01*
X109362785Y-101993133D02*
X109410404Y-101969323D01*
X109719928Y-102183609D02*
X109672309Y-102159800D01*
X109672309Y-102159800D02*
X109648499Y-102112180D01*
X109648499Y-102112180D02*
X109648499Y-101683609D01*
X109910404Y-102135990D02*
X109934214Y-102159800D01*
X109934214Y-102159800D02*
X109910404Y-102183609D01*
X109910404Y-102183609D02*
X109886595Y-102159800D01*
X109886595Y-102159800D02*
X109910404Y-102135990D01*
X109910404Y-102135990D02*
X109910404Y-102183609D01*
X109910404Y-101874085D02*
X109934214Y-101897895D01*
X109934214Y-101897895D02*
X109910404Y-101921704D01*
X109910404Y-101921704D02*
X109886595Y-101897895D01*
X109886595Y-101897895D02*
X109910404Y-101874085D01*
X109910404Y-101874085D02*
X109910404Y-101921704D01*
X111243736Y-101683609D02*
X111577069Y-101683609D01*
X111577069Y-101683609D02*
X111362784Y-102183609D01*
X112148497Y-101993133D02*
X112529450Y-101993133D01*
X113172307Y-102183609D02*
X113267545Y-102183609D01*
X113267545Y-102183609D02*
X113315164Y-102159800D01*
X113315164Y-102159800D02*
X113338973Y-102135990D01*
X113338973Y-102135990D02*
X113386592Y-102064561D01*
X113386592Y-102064561D02*
X113410402Y-101969323D01*
X113410402Y-101969323D02*
X113410402Y-101778847D01*
X113410402Y-101778847D02*
X113386592Y-101731228D01*
X113386592Y-101731228D02*
X113362783Y-101707419D01*
X113362783Y-101707419D02*
X113315164Y-101683609D01*
X113315164Y-101683609D02*
X113219926Y-101683609D01*
X113219926Y-101683609D02*
X113172307Y-101707419D01*
X113172307Y-101707419D02*
X113148497Y-101731228D01*
X113148497Y-101731228D02*
X113124688Y-101778847D01*
X113124688Y-101778847D02*
X113124688Y-101897895D01*
X113124688Y-101897895D02*
X113148497Y-101945514D01*
X113148497Y-101945514D02*
X113172307Y-101969323D01*
X113172307Y-101969323D02*
X113219926Y-101993133D01*
X113219926Y-101993133D02*
X113315164Y-101993133D01*
X113315164Y-101993133D02*
X113362783Y-101969323D01*
X113362783Y-101969323D02*
X113386592Y-101945514D01*
X113386592Y-101945514D02*
X113410402Y-101897895D01*
X113553259Y-101683609D02*
X113719925Y-102183609D01*
X113719925Y-102183609D02*
X113886592Y-101683609D01*
D15*
X145306691Y-99779299D02*
X144925739Y-99779299D01*
X144925739Y-99779299D02*
X144887643Y-100255489D01*
X144887643Y-100255489D02*
X144925739Y-100207870D01*
X144925739Y-100207870D02*
X145001929Y-100160251D01*
X145001929Y-100160251D02*
X145192405Y-100160251D01*
X145192405Y-100160251D02*
X145268596Y-100207870D01*
X145268596Y-100207870D02*
X145306691Y-100255489D01*
X145306691Y-100255489D02*
X145344786Y-100350727D01*
X145344786Y-100350727D02*
X145344786Y-100588822D01*
X145344786Y-100588822D02*
X145306691Y-100684060D01*
X145306691Y-100684060D02*
X145268596Y-100731680D01*
X145268596Y-100731680D02*
X145192405Y-100779299D01*
X145192405Y-100779299D02*
X145001929Y-100779299D01*
X145001929Y-100779299D02*
X144925739Y-100731680D01*
X144925739Y-100731680D02*
X144887643Y-100684060D01*
X145573358Y-99779299D02*
X145840025Y-100779299D01*
X145840025Y-100779299D02*
X146106691Y-99779299D01*
D12*
X109008646Y-100683609D02*
X108751503Y-100683609D01*
X108880074Y-100683609D02*
X108880074Y-100183609D01*
X108880074Y-100183609D02*
X108837217Y-100255038D01*
X108837217Y-100255038D02*
X108794360Y-100302657D01*
X108794360Y-100302657D02*
X108751503Y-100326466D01*
X109180074Y-100231228D02*
X109201502Y-100207419D01*
X109201502Y-100207419D02*
X109244360Y-100183609D01*
X109244360Y-100183609D02*
X109351502Y-100183609D01*
X109351502Y-100183609D02*
X109394360Y-100207419D01*
X109394360Y-100207419D02*
X109415788Y-100231228D01*
X109415788Y-100231228D02*
X109437217Y-100278847D01*
X109437217Y-100278847D02*
X109437217Y-100326466D01*
X109437217Y-100326466D02*
X109415788Y-100397895D01*
X109415788Y-100397895D02*
X109158645Y-100683609D01*
X109158645Y-100683609D02*
X109437217Y-100683609D01*
X109565788Y-100183609D02*
X109715788Y-100683609D01*
X109715788Y-100683609D02*
X109865788Y-100183609D01*
X110508644Y-100421704D02*
X110572930Y-100445514D01*
X110572930Y-100445514D02*
X110594359Y-100469323D01*
X110594359Y-100469323D02*
X110615787Y-100516942D01*
X110615787Y-100516942D02*
X110615787Y-100588371D01*
X110615787Y-100588371D02*
X110594359Y-100635990D01*
X110594359Y-100635990D02*
X110572930Y-100659800D01*
X110572930Y-100659800D02*
X110530073Y-100683609D01*
X110530073Y-100683609D02*
X110358644Y-100683609D01*
X110358644Y-100683609D02*
X110358644Y-100183609D01*
X110358644Y-100183609D02*
X110508644Y-100183609D01*
X110508644Y-100183609D02*
X110551502Y-100207419D01*
X110551502Y-100207419D02*
X110572930Y-100231228D01*
X110572930Y-100231228D02*
X110594359Y-100278847D01*
X110594359Y-100278847D02*
X110594359Y-100326466D01*
X110594359Y-100326466D02*
X110572930Y-100374085D01*
X110572930Y-100374085D02*
X110551502Y-100397895D01*
X110551502Y-100397895D02*
X110508644Y-100421704D01*
X110508644Y-100421704D02*
X110358644Y-100421704D01*
X111001502Y-100683609D02*
X111001502Y-100421704D01*
X111001502Y-100421704D02*
X110980073Y-100374085D01*
X110980073Y-100374085D02*
X110937216Y-100350276D01*
X110937216Y-100350276D02*
X110851502Y-100350276D01*
X110851502Y-100350276D02*
X110808644Y-100374085D01*
X111001502Y-100659800D02*
X110958644Y-100683609D01*
X110958644Y-100683609D02*
X110851502Y-100683609D01*
X110851502Y-100683609D02*
X110808644Y-100659800D01*
X110808644Y-100659800D02*
X110787216Y-100612180D01*
X110787216Y-100612180D02*
X110787216Y-100564561D01*
X110787216Y-100564561D02*
X110808644Y-100516942D01*
X110808644Y-100516942D02*
X110851502Y-100493133D01*
X110851502Y-100493133D02*
X110958644Y-100493133D01*
X110958644Y-100493133D02*
X111001502Y-100469323D01*
X111215787Y-100683609D02*
X111215787Y-100350276D01*
X111215787Y-100445514D02*
X111237216Y-100397895D01*
X111237216Y-100397895D02*
X111258645Y-100374085D01*
X111258645Y-100374085D02*
X111301502Y-100350276D01*
X111301502Y-100350276D02*
X111344359Y-100350276D01*
X111494358Y-100683609D02*
X111494358Y-100350276D01*
X111494358Y-100445514D02*
X111515787Y-100397895D01*
X111515787Y-100397895D02*
X111537216Y-100374085D01*
X111537216Y-100374085D02*
X111580073Y-100350276D01*
X111580073Y-100350276D02*
X111622930Y-100350276D01*
X111944358Y-100659800D02*
X111901501Y-100683609D01*
X111901501Y-100683609D02*
X111815787Y-100683609D01*
X111815787Y-100683609D02*
X111772929Y-100659800D01*
X111772929Y-100659800D02*
X111751501Y-100612180D01*
X111751501Y-100612180D02*
X111751501Y-100421704D01*
X111751501Y-100421704D02*
X111772929Y-100374085D01*
X111772929Y-100374085D02*
X111815787Y-100350276D01*
X111815787Y-100350276D02*
X111901501Y-100350276D01*
X111901501Y-100350276D02*
X111944358Y-100374085D01*
X111944358Y-100374085D02*
X111965787Y-100421704D01*
X111965787Y-100421704D02*
X111965787Y-100469323D01*
X111965787Y-100469323D02*
X111751501Y-100516942D01*
X112222929Y-100683609D02*
X112180072Y-100659800D01*
X112180072Y-100659800D02*
X112158643Y-100612180D01*
X112158643Y-100612180D02*
X112158643Y-100183609D01*
X112865786Y-100183609D02*
X112865786Y-100540752D01*
X112865786Y-100540752D02*
X112844357Y-100612180D01*
X112844357Y-100612180D02*
X112801500Y-100659800D01*
X112801500Y-100659800D02*
X112737214Y-100683609D01*
X112737214Y-100683609D02*
X112694357Y-100683609D01*
X113272929Y-100683609D02*
X113272929Y-100421704D01*
X113272929Y-100421704D02*
X113251500Y-100374085D01*
X113251500Y-100374085D02*
X113208643Y-100350276D01*
X113208643Y-100350276D02*
X113122929Y-100350276D01*
X113122929Y-100350276D02*
X113080071Y-100374085D01*
X113272929Y-100659800D02*
X113230071Y-100683609D01*
X113230071Y-100683609D02*
X113122929Y-100683609D01*
X113122929Y-100683609D02*
X113080071Y-100659800D01*
X113080071Y-100659800D02*
X113058643Y-100612180D01*
X113058643Y-100612180D02*
X113058643Y-100564561D01*
X113058643Y-100564561D02*
X113080071Y-100516942D01*
X113080071Y-100516942D02*
X113122929Y-100493133D01*
X113122929Y-100493133D02*
X113230071Y-100493133D01*
X113230071Y-100493133D02*
X113272929Y-100469323D01*
X113680072Y-100659800D02*
X113637214Y-100683609D01*
X113637214Y-100683609D02*
X113551500Y-100683609D01*
X113551500Y-100683609D02*
X113508643Y-100659800D01*
X113508643Y-100659800D02*
X113487214Y-100635990D01*
X113487214Y-100635990D02*
X113465786Y-100588371D01*
X113465786Y-100588371D02*
X113465786Y-100445514D01*
X113465786Y-100445514D02*
X113487214Y-100397895D01*
X113487214Y-100397895D02*
X113508643Y-100374085D01*
X113508643Y-100374085D02*
X113551500Y-100350276D01*
X113551500Y-100350276D02*
X113637214Y-100350276D01*
X113637214Y-100350276D02*
X113680072Y-100374085D01*
X113872928Y-100683609D02*
X113872928Y-100183609D01*
X113915786Y-100493133D02*
X114044357Y-100683609D01*
X114044357Y-100350276D02*
X113872928Y-100540752D01*
D15*
X125695739Y-62269299D02*
X125695739Y-61269299D01*
X125695739Y-61269299D02*
X125886215Y-61269299D01*
X125886215Y-61269299D02*
X126000501Y-61316918D01*
X126000501Y-61316918D02*
X126076691Y-61412156D01*
X126076691Y-61412156D02*
X126114786Y-61507394D01*
X126114786Y-61507394D02*
X126152882Y-61697870D01*
X126152882Y-61697870D02*
X126152882Y-61840727D01*
X126152882Y-61840727D02*
X126114786Y-62031203D01*
X126114786Y-62031203D02*
X126076691Y-62126441D01*
X126076691Y-62126441D02*
X126000501Y-62221680D01*
X126000501Y-62221680D02*
X125886215Y-62269299D01*
X125886215Y-62269299D02*
X125695739Y-62269299D01*
X126914786Y-62269299D02*
X126457643Y-62269299D01*
X126686215Y-62269299D02*
X126686215Y-61269299D01*
X126686215Y-61269299D02*
X126610024Y-61412156D01*
X126610024Y-61412156D02*
X126533834Y-61507394D01*
X126533834Y-61507394D02*
X126457643Y-61555013D01*
X127676691Y-62269299D02*
X127219548Y-62269299D01*
X127448120Y-62269299D02*
X127448120Y-61269299D01*
X127448120Y-61269299D02*
X127371929Y-61412156D01*
X127371929Y-61412156D02*
X127295739Y-61507394D01*
X127295739Y-61507394D02*
X127219548Y-61555013D01*
X128629073Y-62269299D02*
X128629073Y-61269299D01*
X128629073Y-61269299D02*
X128819549Y-61269299D01*
X128819549Y-61269299D02*
X128933835Y-61316918D01*
X128933835Y-61316918D02*
X129010025Y-61412156D01*
X129010025Y-61412156D02*
X129048120Y-61507394D01*
X129048120Y-61507394D02*
X129086216Y-61697870D01*
X129086216Y-61697870D02*
X129086216Y-61840727D01*
X129086216Y-61840727D02*
X129048120Y-62031203D01*
X129048120Y-62031203D02*
X129010025Y-62126441D01*
X129010025Y-62126441D02*
X128933835Y-62221680D01*
X128933835Y-62221680D02*
X128819549Y-62269299D01*
X128819549Y-62269299D02*
X128629073Y-62269299D01*
X129848120Y-62269299D02*
X129390977Y-62269299D01*
X129619549Y-62269299D02*
X129619549Y-61269299D01*
X129619549Y-61269299D02*
X129543358Y-61412156D01*
X129543358Y-61412156D02*
X129467168Y-61507394D01*
X129467168Y-61507394D02*
X129390977Y-61555013D01*
X130343359Y-61269299D02*
X130419549Y-61269299D01*
X130419549Y-61269299D02*
X130495740Y-61316918D01*
X130495740Y-61316918D02*
X130533835Y-61364537D01*
X130533835Y-61364537D02*
X130571930Y-61459775D01*
X130571930Y-61459775D02*
X130610025Y-61650251D01*
X130610025Y-61650251D02*
X130610025Y-61888346D01*
X130610025Y-61888346D02*
X130571930Y-62078822D01*
X130571930Y-62078822D02*
X130533835Y-62174060D01*
X130533835Y-62174060D02*
X130495740Y-62221680D01*
X130495740Y-62221680D02*
X130419549Y-62269299D01*
X130419549Y-62269299D02*
X130343359Y-62269299D01*
X130343359Y-62269299D02*
X130267168Y-62221680D01*
X130267168Y-62221680D02*
X130229073Y-62174060D01*
X130229073Y-62174060D02*
X130190978Y-62078822D01*
X130190978Y-62078822D02*
X130152882Y-61888346D01*
X130152882Y-61888346D02*
X130152882Y-61650251D01*
X130152882Y-61650251D02*
X130190978Y-61459775D01*
X130190978Y-61459775D02*
X130229073Y-61364537D01*
X130229073Y-61364537D02*
X130267168Y-61316918D01*
X130267168Y-61316918D02*
X130343359Y-61269299D01*
X131562407Y-62269299D02*
X131562407Y-61269299D01*
X131562407Y-61269299D02*
X131752883Y-61269299D01*
X131752883Y-61269299D02*
X131867169Y-61316918D01*
X131867169Y-61316918D02*
X131943359Y-61412156D01*
X131943359Y-61412156D02*
X131981454Y-61507394D01*
X131981454Y-61507394D02*
X132019550Y-61697870D01*
X132019550Y-61697870D02*
X132019550Y-61840727D01*
X132019550Y-61840727D02*
X131981454Y-62031203D01*
X131981454Y-62031203D02*
X131943359Y-62126441D01*
X131943359Y-62126441D02*
X131867169Y-62221680D01*
X131867169Y-62221680D02*
X131752883Y-62269299D01*
X131752883Y-62269299D02*
X131562407Y-62269299D01*
X132400502Y-62269299D02*
X132552883Y-62269299D01*
X132552883Y-62269299D02*
X132629073Y-62221680D01*
X132629073Y-62221680D02*
X132667169Y-62174060D01*
X132667169Y-62174060D02*
X132743359Y-62031203D01*
X132743359Y-62031203D02*
X132781454Y-61840727D01*
X132781454Y-61840727D02*
X132781454Y-61459775D01*
X132781454Y-61459775D02*
X132743359Y-61364537D01*
X132743359Y-61364537D02*
X132705264Y-61316918D01*
X132705264Y-61316918D02*
X132629073Y-61269299D01*
X132629073Y-61269299D02*
X132476692Y-61269299D01*
X132476692Y-61269299D02*
X132400502Y-61316918D01*
X132400502Y-61316918D02*
X132362407Y-61364537D01*
X132362407Y-61364537D02*
X132324311Y-61459775D01*
X132324311Y-61459775D02*
X132324311Y-61697870D01*
X132324311Y-61697870D02*
X132362407Y-61793108D01*
X132362407Y-61793108D02*
X132400502Y-61840727D01*
X132400502Y-61840727D02*
X132476692Y-61888346D01*
X132476692Y-61888346D02*
X132629073Y-61888346D01*
X132629073Y-61888346D02*
X132705264Y-61840727D01*
X132705264Y-61840727D02*
X132743359Y-61793108D01*
X132743359Y-61793108D02*
X132781454Y-61697870D01*
X133733836Y-62269299D02*
X133733836Y-61269299D01*
X133733836Y-61269299D02*
X133924312Y-61269299D01*
X133924312Y-61269299D02*
X134038598Y-61316918D01*
X134038598Y-61316918D02*
X134114788Y-61412156D01*
X134114788Y-61412156D02*
X134152883Y-61507394D01*
X134152883Y-61507394D02*
X134190979Y-61697870D01*
X134190979Y-61697870D02*
X134190979Y-61840727D01*
X134190979Y-61840727D02*
X134152883Y-62031203D01*
X134152883Y-62031203D02*
X134114788Y-62126441D01*
X134114788Y-62126441D02*
X134038598Y-62221680D01*
X134038598Y-62221680D02*
X133924312Y-62269299D01*
X133924312Y-62269299D02*
X133733836Y-62269299D01*
X134648121Y-61697870D02*
X134571931Y-61650251D01*
X134571931Y-61650251D02*
X134533836Y-61602632D01*
X134533836Y-61602632D02*
X134495740Y-61507394D01*
X134495740Y-61507394D02*
X134495740Y-61459775D01*
X134495740Y-61459775D02*
X134533836Y-61364537D01*
X134533836Y-61364537D02*
X134571931Y-61316918D01*
X134571931Y-61316918D02*
X134648121Y-61269299D01*
X134648121Y-61269299D02*
X134800502Y-61269299D01*
X134800502Y-61269299D02*
X134876693Y-61316918D01*
X134876693Y-61316918D02*
X134914788Y-61364537D01*
X134914788Y-61364537D02*
X134952883Y-61459775D01*
X134952883Y-61459775D02*
X134952883Y-61507394D01*
X134952883Y-61507394D02*
X134914788Y-61602632D01*
X134914788Y-61602632D02*
X134876693Y-61650251D01*
X134876693Y-61650251D02*
X134800502Y-61697870D01*
X134800502Y-61697870D02*
X134648121Y-61697870D01*
X134648121Y-61697870D02*
X134571931Y-61745489D01*
X134571931Y-61745489D02*
X134533836Y-61793108D01*
X134533836Y-61793108D02*
X134495740Y-61888346D01*
X134495740Y-61888346D02*
X134495740Y-62078822D01*
X134495740Y-62078822D02*
X134533836Y-62174060D01*
X134533836Y-62174060D02*
X134571931Y-62221680D01*
X134571931Y-62221680D02*
X134648121Y-62269299D01*
X134648121Y-62269299D02*
X134800502Y-62269299D01*
X134800502Y-62269299D02*
X134876693Y-62221680D01*
X134876693Y-62221680D02*
X134914788Y-62174060D01*
X134914788Y-62174060D02*
X134952883Y-62078822D01*
X134952883Y-62078822D02*
X134952883Y-61888346D01*
X134952883Y-61888346D02*
X134914788Y-61793108D01*
X134914788Y-61793108D02*
X134876693Y-61745489D01*
X134876693Y-61745489D02*
X134800502Y-61697870D01*
X155695739Y-74519299D02*
X155695739Y-73519299D01*
X155695739Y-73519299D02*
X155962405Y-74233584D01*
X155962405Y-74233584D02*
X156229072Y-73519299D01*
X156229072Y-73519299D02*
X156229072Y-74519299D01*
X156762406Y-73519299D02*
X156914787Y-73519299D01*
X156914787Y-73519299D02*
X156990977Y-73566918D01*
X156990977Y-73566918D02*
X157067168Y-73662156D01*
X157067168Y-73662156D02*
X157105263Y-73852632D01*
X157105263Y-73852632D02*
X157105263Y-74185965D01*
X157105263Y-74185965D02*
X157067168Y-74376441D01*
X157067168Y-74376441D02*
X156990977Y-74471680D01*
X156990977Y-74471680D02*
X156914787Y-74519299D01*
X156914787Y-74519299D02*
X156762406Y-74519299D01*
X156762406Y-74519299D02*
X156686215Y-74471680D01*
X156686215Y-74471680D02*
X156610025Y-74376441D01*
X156610025Y-74376441D02*
X156571929Y-74185965D01*
X156571929Y-74185965D02*
X156571929Y-73852632D01*
X156571929Y-73852632D02*
X156610025Y-73662156D01*
X156610025Y-73662156D02*
X156686215Y-73566918D01*
X156686215Y-73566918D02*
X156762406Y-73519299D01*
X157410024Y-74471680D02*
X157524310Y-74519299D01*
X157524310Y-74519299D02*
X157714786Y-74519299D01*
X157714786Y-74519299D02*
X157790977Y-74471680D01*
X157790977Y-74471680D02*
X157829072Y-74424060D01*
X157829072Y-74424060D02*
X157867167Y-74328822D01*
X157867167Y-74328822D02*
X157867167Y-74233584D01*
X157867167Y-74233584D02*
X157829072Y-74138346D01*
X157829072Y-74138346D02*
X157790977Y-74090727D01*
X157790977Y-74090727D02*
X157714786Y-74043108D01*
X157714786Y-74043108D02*
X157562405Y-73995489D01*
X157562405Y-73995489D02*
X157486215Y-73947870D01*
X157486215Y-73947870D02*
X157448120Y-73900251D01*
X157448120Y-73900251D02*
X157410024Y-73805013D01*
X157410024Y-73805013D02*
X157410024Y-73709775D01*
X157410024Y-73709775D02*
X157448120Y-73614537D01*
X157448120Y-73614537D02*
X157486215Y-73566918D01*
X157486215Y-73566918D02*
X157562405Y-73519299D01*
X157562405Y-73519299D02*
X157752882Y-73519299D01*
X157752882Y-73519299D02*
X157867167Y-73566918D01*
X158210025Y-74519299D02*
X158210025Y-73519299D01*
D19*
X111604762Y-97990142D02*
X111938095Y-99190142D01*
X111938095Y-99190142D02*
X112271428Y-97990142D01*
X112604762Y-99190142D02*
X112604762Y-97990142D01*
X113080952Y-99190142D02*
X113080952Y-97990142D01*
X113080952Y-97990142D02*
X113652380Y-99190142D01*
X113652380Y-99190142D02*
X113652380Y-97990142D01*
D17*
X112495863Y-80965504D02*
X112443482Y-81003600D01*
X112443482Y-81003600D02*
X112295863Y-81041695D01*
X112295863Y-81041695D02*
X112200625Y-81041695D01*
X112200625Y-81041695D02*
X112062530Y-81003600D01*
X112062530Y-81003600D02*
X111976816Y-80927409D01*
X111976816Y-80927409D02*
X111938720Y-80851219D01*
X111938720Y-80851219D02*
X111910149Y-80698838D01*
X111910149Y-80698838D02*
X111924435Y-80584552D01*
X111924435Y-80584552D02*
X111991101Y-80432171D01*
X111991101Y-80432171D02*
X112048244Y-80355980D01*
X112048244Y-80355980D02*
X112153006Y-80279790D01*
X112153006Y-80279790D02*
X112300625Y-80241695D01*
X112300625Y-80241695D02*
X112395863Y-80241695D01*
X112395863Y-80241695D02*
X112533958Y-80279790D01*
X112533958Y-80279790D02*
X112576816Y-80317885D01*
X113343482Y-81041695D02*
X113395863Y-80622647D01*
X113395863Y-80622647D02*
X113357768Y-80546457D01*
X113357768Y-80546457D02*
X113267292Y-80508361D01*
X113267292Y-80508361D02*
X113076816Y-80508361D01*
X113076816Y-80508361D02*
X112976816Y-80546457D01*
X113348244Y-81003600D02*
X113248244Y-81041695D01*
X113248244Y-81041695D02*
X113010149Y-81041695D01*
X113010149Y-81041695D02*
X112919673Y-81003600D01*
X112919673Y-81003600D02*
X112881578Y-80927409D01*
X112881578Y-80927409D02*
X112891101Y-80851219D01*
X112891101Y-80851219D02*
X112948244Y-80775028D01*
X112948244Y-80775028D02*
X113048244Y-80736933D01*
X113048244Y-80736933D02*
X113286339Y-80736933D01*
X113286339Y-80736933D02*
X113386339Y-80698838D01*
X113819673Y-81041695D02*
X113886340Y-80508361D01*
X113876816Y-80584552D02*
X113929197Y-80546457D01*
X113929197Y-80546457D02*
X114029197Y-80508361D01*
X114029197Y-80508361D02*
X114172054Y-80508361D01*
X114172054Y-80508361D02*
X114262530Y-80546457D01*
X114262530Y-80546457D02*
X114300625Y-80622647D01*
X114300625Y-80622647D02*
X114248244Y-81041695D01*
X114300625Y-80622647D02*
X114357768Y-80546457D01*
X114357768Y-80546457D02*
X114457768Y-80508361D01*
X114457768Y-80508361D02*
X114600625Y-80508361D01*
X114600625Y-80508361D02*
X114691101Y-80546457D01*
X114691101Y-80546457D02*
X114729197Y-80622647D01*
X114729197Y-80622647D02*
X114676816Y-81041695D01*
X115538720Y-81003600D02*
X115438720Y-81041695D01*
X115438720Y-81041695D02*
X115248244Y-81041695D01*
X115248244Y-81041695D02*
X115157768Y-81003600D01*
X115157768Y-81003600D02*
X115119673Y-80927409D01*
X115119673Y-80927409D02*
X115157768Y-80622647D01*
X115157768Y-80622647D02*
X115214911Y-80546457D01*
X115214911Y-80546457D02*
X115314911Y-80508361D01*
X115314911Y-80508361D02*
X115505387Y-80508361D01*
X115505387Y-80508361D02*
X115595863Y-80546457D01*
X115595863Y-80546457D02*
X115633958Y-80622647D01*
X115633958Y-80622647D02*
X115624434Y-80698838D01*
X115624434Y-80698838D02*
X115138720Y-80775028D01*
X116010149Y-81041695D02*
X116076816Y-80508361D01*
X116057768Y-80660742D02*
X116114911Y-80584552D01*
X116114911Y-80584552D02*
X116167292Y-80546457D01*
X116167292Y-80546457D02*
X116267292Y-80508361D01*
X116267292Y-80508361D02*
X116362530Y-80508361D01*
X116772054Y-81041695D02*
X116681578Y-81003600D01*
X116681578Y-81003600D02*
X116638721Y-80965504D01*
X116638721Y-80965504D02*
X116600625Y-80889314D01*
X116600625Y-80889314D02*
X116629197Y-80660742D01*
X116629197Y-80660742D02*
X116686340Y-80584552D01*
X116686340Y-80584552D02*
X116738721Y-80546457D01*
X116738721Y-80546457D02*
X116838721Y-80508361D01*
X116838721Y-80508361D02*
X116981578Y-80508361D01*
X116981578Y-80508361D02*
X117072054Y-80546457D01*
X117072054Y-80546457D02*
X117114911Y-80584552D01*
X117114911Y-80584552D02*
X117153006Y-80660742D01*
X117153006Y-80660742D02*
X117124435Y-80889314D01*
X117124435Y-80889314D02*
X117067292Y-80965504D01*
X117067292Y-80965504D02*
X117014911Y-81003600D01*
X117014911Y-81003600D02*
X116914911Y-81041695D01*
X116914911Y-81041695D02*
X116772054Y-81041695D01*
X117600626Y-80508361D02*
X117533959Y-81041695D01*
X117591102Y-80584552D02*
X117643483Y-80546457D01*
X117643483Y-80546457D02*
X117743483Y-80508361D01*
X117743483Y-80508361D02*
X117886340Y-80508361D01*
X117886340Y-80508361D02*
X117976816Y-80546457D01*
X117976816Y-80546457D02*
X118014911Y-80622647D01*
X118014911Y-80622647D02*
X117962530Y-81041695D01*
X119586340Y-80622647D02*
X119724435Y-80660742D01*
X119724435Y-80660742D02*
X119767293Y-80698838D01*
X119767293Y-80698838D02*
X119805388Y-80775028D01*
X119805388Y-80775028D02*
X119791102Y-80889314D01*
X119791102Y-80889314D02*
X119733959Y-80965504D01*
X119733959Y-80965504D02*
X119681578Y-81003600D01*
X119681578Y-81003600D02*
X119581578Y-81041695D01*
X119581578Y-81041695D02*
X119200626Y-81041695D01*
X119200626Y-81041695D02*
X119300626Y-80241695D01*
X119300626Y-80241695D02*
X119633959Y-80241695D01*
X119633959Y-80241695D02*
X119724435Y-80279790D01*
X119724435Y-80279790D02*
X119767293Y-80317885D01*
X119767293Y-80317885D02*
X119805388Y-80394076D01*
X119805388Y-80394076D02*
X119795864Y-80470266D01*
X119795864Y-80470266D02*
X119738721Y-80546457D01*
X119738721Y-80546457D02*
X119686340Y-80584552D01*
X119686340Y-80584552D02*
X119586340Y-80622647D01*
X119586340Y-80622647D02*
X119253007Y-80622647D01*
X120200626Y-81041695D02*
X120267293Y-80508361D01*
X120248245Y-80660742D02*
X120305388Y-80584552D01*
X120305388Y-80584552D02*
X120357769Y-80546457D01*
X120357769Y-80546457D02*
X120457769Y-80508361D01*
X120457769Y-80508361D02*
X120553007Y-80508361D01*
X120962531Y-81041695D02*
X120872055Y-81003600D01*
X120872055Y-81003600D02*
X120829198Y-80965504D01*
X120829198Y-80965504D02*
X120791102Y-80889314D01*
X120791102Y-80889314D02*
X120819674Y-80660742D01*
X120819674Y-80660742D02*
X120876817Y-80584552D01*
X120876817Y-80584552D02*
X120929198Y-80546457D01*
X120929198Y-80546457D02*
X121029198Y-80508361D01*
X121029198Y-80508361D02*
X121172055Y-80508361D01*
X121172055Y-80508361D02*
X121262531Y-80546457D01*
X121262531Y-80546457D02*
X121305388Y-80584552D01*
X121305388Y-80584552D02*
X121343483Y-80660742D01*
X121343483Y-80660742D02*
X121314912Y-80889314D01*
X121314912Y-80889314D02*
X121257769Y-80965504D01*
X121257769Y-80965504D02*
X121205388Y-81003600D01*
X121205388Y-81003600D02*
X121105388Y-81041695D01*
X121105388Y-81041695D02*
X120962531Y-81041695D01*
X121867293Y-81041695D02*
X121776817Y-81003600D01*
X121776817Y-81003600D02*
X121733960Y-80965504D01*
X121733960Y-80965504D02*
X121695864Y-80889314D01*
X121695864Y-80889314D02*
X121724436Y-80660742D01*
X121724436Y-80660742D02*
X121781579Y-80584552D01*
X121781579Y-80584552D02*
X121833960Y-80546457D01*
X121833960Y-80546457D02*
X121933960Y-80508361D01*
X121933960Y-80508361D02*
X122076817Y-80508361D01*
X122076817Y-80508361D02*
X122167293Y-80546457D01*
X122167293Y-80546457D02*
X122210150Y-80584552D01*
X122210150Y-80584552D02*
X122248245Y-80660742D01*
X122248245Y-80660742D02*
X122219674Y-80889314D01*
X122219674Y-80889314D02*
X122162531Y-80965504D01*
X122162531Y-80965504D02*
X122110150Y-81003600D01*
X122110150Y-81003600D02*
X122010150Y-81041695D01*
X122010150Y-81041695D02*
X121867293Y-81041695D01*
X122629198Y-81041695D02*
X122729198Y-80241695D01*
X122762531Y-80736933D02*
X123010150Y-81041695D01*
X123076817Y-80508361D02*
X122657769Y-80813123D01*
X123395865Y-81003600D02*
X123486341Y-81041695D01*
X123486341Y-81041695D02*
X123676817Y-81041695D01*
X123676817Y-81041695D02*
X123776817Y-81003600D01*
X123776817Y-81003600D02*
X123833960Y-80927409D01*
X123833960Y-80927409D02*
X123838722Y-80889314D01*
X123838722Y-80889314D02*
X123800627Y-80813123D01*
X123800627Y-80813123D02*
X123710150Y-80775028D01*
X123710150Y-80775028D02*
X123567293Y-80775028D01*
X123567293Y-80775028D02*
X123476817Y-80736933D01*
X123476817Y-80736933D02*
X123438722Y-80660742D01*
X123438722Y-80660742D02*
X123443484Y-80622647D01*
X123443484Y-80622647D02*
X123500627Y-80546457D01*
X123500627Y-80546457D02*
X123600627Y-80508361D01*
X123600627Y-80508361D02*
X123743484Y-80508361D01*
X123743484Y-80508361D02*
X123833960Y-80546457D01*
X125053008Y-80317885D02*
X125105389Y-80279790D01*
X125105389Y-80279790D02*
X125205389Y-80241695D01*
X125205389Y-80241695D02*
X125443484Y-80241695D01*
X125443484Y-80241695D02*
X125533960Y-80279790D01*
X125533960Y-80279790D02*
X125576818Y-80317885D01*
X125576818Y-80317885D02*
X125614913Y-80394076D01*
X125614913Y-80394076D02*
X125605389Y-80470266D01*
X125605389Y-80470266D02*
X125543484Y-80584552D01*
X125543484Y-80584552D02*
X124914913Y-81041695D01*
X124914913Y-81041695D02*
X125533960Y-81041695D01*
X126253008Y-80241695D02*
X126348246Y-80241695D01*
X126348246Y-80241695D02*
X126438722Y-80279790D01*
X126438722Y-80279790D02*
X126481579Y-80317885D01*
X126481579Y-80317885D02*
X126519675Y-80394076D01*
X126519675Y-80394076D02*
X126548246Y-80546457D01*
X126548246Y-80546457D02*
X126524437Y-80736933D01*
X126524437Y-80736933D02*
X126457770Y-80889314D01*
X126457770Y-80889314D02*
X126400627Y-80965504D01*
X126400627Y-80965504D02*
X126348246Y-81003600D01*
X126348246Y-81003600D02*
X126248246Y-81041695D01*
X126248246Y-81041695D02*
X126153008Y-81041695D01*
X126153008Y-81041695D02*
X126062532Y-81003600D01*
X126062532Y-81003600D02*
X126019675Y-80965504D01*
X126019675Y-80965504D02*
X125981579Y-80889314D01*
X125981579Y-80889314D02*
X125953008Y-80736933D01*
X125953008Y-80736933D02*
X125976818Y-80546457D01*
X125976818Y-80546457D02*
X126043484Y-80394076D01*
X126043484Y-80394076D02*
X126100627Y-80317885D01*
X126100627Y-80317885D02*
X126153008Y-80279790D01*
X126153008Y-80279790D02*
X126253008Y-80241695D01*
X126957770Y-80317885D02*
X127010151Y-80279790D01*
X127010151Y-80279790D02*
X127110151Y-80241695D01*
X127110151Y-80241695D02*
X127348246Y-80241695D01*
X127348246Y-80241695D02*
X127438722Y-80279790D01*
X127438722Y-80279790D02*
X127481580Y-80317885D01*
X127481580Y-80317885D02*
X127519675Y-80394076D01*
X127519675Y-80394076D02*
X127510151Y-80470266D01*
X127510151Y-80470266D02*
X127448246Y-80584552D01*
X127448246Y-80584552D02*
X126819675Y-81041695D01*
X126819675Y-81041695D02*
X127438722Y-81041695D01*
X128443484Y-80241695D02*
X127967294Y-80241695D01*
X127967294Y-80241695D02*
X127872056Y-80622647D01*
X127872056Y-80622647D02*
X127924437Y-80584552D01*
X127924437Y-80584552D02*
X128024437Y-80546457D01*
X128024437Y-80546457D02*
X128262532Y-80546457D01*
X128262532Y-80546457D02*
X128353008Y-80584552D01*
X128353008Y-80584552D02*
X128395865Y-80622647D01*
X128395865Y-80622647D02*
X128433961Y-80698838D01*
X128433961Y-80698838D02*
X128410151Y-80889314D01*
X128410151Y-80889314D02*
X128353008Y-80965504D01*
X128353008Y-80965504D02*
X128300627Y-81003600D01*
X128300627Y-81003600D02*
X128200627Y-81041695D01*
X128200627Y-81041695D02*
X127962532Y-81041695D01*
X127962532Y-81041695D02*
X127872056Y-81003600D01*
X127872056Y-81003600D02*
X127829199Y-80965504D01*
D15*
X156131453Y-81169299D02*
X156398120Y-82169299D01*
X156398120Y-82169299D02*
X156664786Y-81169299D01*
X157388596Y-82074060D02*
X157350500Y-82121680D01*
X157350500Y-82121680D02*
X157236215Y-82169299D01*
X157236215Y-82169299D02*
X157160024Y-82169299D01*
X157160024Y-82169299D02*
X157045738Y-82121680D01*
X157045738Y-82121680D02*
X156969548Y-82026441D01*
X156969548Y-82026441D02*
X156931453Y-81931203D01*
X156931453Y-81931203D02*
X156893357Y-81740727D01*
X156893357Y-81740727D02*
X156893357Y-81597870D01*
X156893357Y-81597870D02*
X156931453Y-81407394D01*
X156931453Y-81407394D02*
X156969548Y-81312156D01*
X156969548Y-81312156D02*
X157045738Y-81216918D01*
X157045738Y-81216918D02*
X157160024Y-81169299D01*
X157160024Y-81169299D02*
X157236215Y-81169299D01*
X157236215Y-81169299D02*
X157350500Y-81216918D01*
X157350500Y-81216918D02*
X157388596Y-81264537D01*
X158188596Y-82074060D02*
X158150500Y-82121680D01*
X158150500Y-82121680D02*
X158036215Y-82169299D01*
X158036215Y-82169299D02*
X157960024Y-82169299D01*
X157960024Y-82169299D02*
X157845738Y-82121680D01*
X157845738Y-82121680D02*
X157769548Y-82026441D01*
X157769548Y-82026441D02*
X157731453Y-81931203D01*
X157731453Y-81931203D02*
X157693357Y-81740727D01*
X157693357Y-81740727D02*
X157693357Y-81597870D01*
X157693357Y-81597870D02*
X157731453Y-81407394D01*
X157731453Y-81407394D02*
X157769548Y-81312156D01*
X157769548Y-81312156D02*
X157845738Y-81216918D01*
X157845738Y-81216918D02*
X157960024Y-81169299D01*
X157960024Y-81169299D02*
X158036215Y-81169299D01*
X158036215Y-81169299D02*
X158150500Y-81216918D01*
X158150500Y-81216918D02*
X158188596Y-81264537D01*
X151069299Y-76647117D02*
X150593108Y-76913784D01*
X151069299Y-77104260D02*
X150069299Y-77104260D01*
X150069299Y-77104260D02*
X150069299Y-76799498D01*
X150069299Y-76799498D02*
X150116918Y-76723308D01*
X150116918Y-76723308D02*
X150164537Y-76685213D01*
X150164537Y-76685213D02*
X150259775Y-76647117D01*
X150259775Y-76647117D02*
X150402632Y-76647117D01*
X150402632Y-76647117D02*
X150497870Y-76685213D01*
X150497870Y-76685213D02*
X150545489Y-76723308D01*
X150545489Y-76723308D02*
X150593108Y-76799498D01*
X150593108Y-76799498D02*
X150593108Y-77104260D01*
X150069299Y-76380451D02*
X151069299Y-75847117D01*
X150069299Y-75847117D02*
X151069299Y-76380451D01*
D13*
X154298195Y-85386372D02*
X154945814Y-85467324D01*
X154945814Y-85467324D02*
X155022004Y-85453038D01*
X155022004Y-85453038D02*
X155060100Y-85433991D01*
X155060100Y-85433991D02*
X155098195Y-85391134D01*
X155098195Y-85391134D02*
X155098195Y-85295896D01*
X155098195Y-85295896D02*
X155060100Y-85243515D01*
X155060100Y-85243515D02*
X155022004Y-85214943D01*
X155022004Y-85214943D02*
X154945814Y-85181610D01*
X154945814Y-85181610D02*
X154298195Y-85100658D01*
X154869623Y-84957800D02*
X154869623Y-84719705D01*
X155098195Y-85033990D02*
X154298195Y-84767324D01*
X154298195Y-84767324D02*
X155098195Y-84700657D01*
X155098195Y-84248277D02*
X154717242Y-84367324D01*
X155098195Y-84533991D02*
X154298195Y-84433991D01*
X154298195Y-84433991D02*
X154298195Y-84243515D01*
X154298195Y-84243515D02*
X154336290Y-84200657D01*
X154336290Y-84200657D02*
X154374385Y-84181610D01*
X154374385Y-84181610D02*
X154450576Y-84167324D01*
X154450576Y-84167324D02*
X154564861Y-84181610D01*
X154564861Y-84181610D02*
X154641052Y-84214943D01*
X154641052Y-84214943D02*
X154679147Y-84243515D01*
X154679147Y-84243515D02*
X154717242Y-84295896D01*
X154717242Y-84295896D02*
X154717242Y-84486372D01*
X154298195Y-84005419D02*
X154298195Y-83719705D01*
X155098195Y-83962562D02*
X154298195Y-83862562D01*
X154374385Y-83586372D02*
X154336290Y-83557801D01*
X154336290Y-83557801D02*
X154298195Y-83505420D01*
X154298195Y-83505420D02*
X154298195Y-83386372D01*
X154298195Y-83386372D02*
X154336290Y-83343515D01*
X154336290Y-83343515D02*
X154374385Y-83324467D01*
X154374385Y-83324467D02*
X154450576Y-83310182D01*
X154450576Y-83310182D02*
X154526766Y-83319705D01*
X154526766Y-83319705D02*
X154641052Y-83357801D01*
X154641052Y-83357801D02*
X155098195Y-83700658D01*
X155098195Y-83700658D02*
X155098195Y-83391134D01*
D10*
X137383333Y-89359580D02*
X137335714Y-89407200D01*
X137335714Y-89407200D02*
X137192857Y-89454819D01*
X137192857Y-89454819D02*
X137097619Y-89454819D01*
X137097619Y-89454819D02*
X136954762Y-89407200D01*
X136954762Y-89407200D02*
X136859524Y-89311961D01*
X136859524Y-89311961D02*
X136811905Y-89216723D01*
X136811905Y-89216723D02*
X136764286Y-89026247D01*
X136764286Y-89026247D02*
X136764286Y-88883390D01*
X136764286Y-88883390D02*
X136811905Y-88692914D01*
X136811905Y-88692914D02*
X136859524Y-88597676D01*
X136859524Y-88597676D02*
X136954762Y-88502438D01*
X136954762Y-88502438D02*
X137097619Y-88454819D01*
X137097619Y-88454819D02*
X137192857Y-88454819D01*
X137192857Y-88454819D02*
X137335714Y-88502438D01*
X137335714Y-88502438D02*
X137383333Y-88550057D01*
X138240476Y-88788152D02*
X138240476Y-89454819D01*
X138002381Y-88407200D02*
X137764286Y-89121485D01*
X137764286Y-89121485D02*
X138383333Y-89121485D01*
X144533333Y-79534819D02*
X144200000Y-79058628D01*
X143961905Y-79534819D02*
X143961905Y-78534819D01*
X143961905Y-78534819D02*
X144342857Y-78534819D01*
X144342857Y-78534819D02*
X144438095Y-78582438D01*
X144438095Y-78582438D02*
X144485714Y-78630057D01*
X144485714Y-78630057D02*
X144533333Y-78725295D01*
X144533333Y-78725295D02*
X144533333Y-78868152D01*
X144533333Y-78868152D02*
X144485714Y-78963390D01*
X144485714Y-78963390D02*
X144438095Y-79011009D01*
X144438095Y-79011009D02*
X144342857Y-79058628D01*
X144342857Y-79058628D02*
X143961905Y-79058628D01*
X145485714Y-79534819D02*
X144914286Y-79534819D01*
X145200000Y-79534819D02*
X145200000Y-78534819D01*
X145200000Y-78534819D02*
X145104762Y-78677676D01*
X145104762Y-78677676D02*
X145009524Y-78772914D01*
X145009524Y-78772914D02*
X144914286Y-78820533D01*
X104535180Y-76748095D02*
X103725657Y-76748095D01*
X103725657Y-76748095D02*
X103630419Y-76795714D01*
X103630419Y-76795714D02*
X103582800Y-76843333D01*
X103582800Y-76843333D02*
X103535180Y-76938571D01*
X103535180Y-76938571D02*
X103535180Y-77129047D01*
X103535180Y-77129047D02*
X103582800Y-77224285D01*
X103582800Y-77224285D02*
X103630419Y-77271904D01*
X103630419Y-77271904D02*
X103725657Y-77319523D01*
X103725657Y-77319523D02*
X104535180Y-77319523D01*
X103582800Y-77748095D02*
X103535180Y-77890952D01*
X103535180Y-77890952D02*
X103535180Y-78129047D01*
X103535180Y-78129047D02*
X103582800Y-78224285D01*
X103582800Y-78224285D02*
X103630419Y-78271904D01*
X103630419Y-78271904D02*
X103725657Y-78319523D01*
X103725657Y-78319523D02*
X103820895Y-78319523D01*
X103820895Y-78319523D02*
X103916133Y-78271904D01*
X103916133Y-78271904D02*
X103963752Y-78224285D01*
X103963752Y-78224285D02*
X104011371Y-78129047D01*
X104011371Y-78129047D02*
X104058990Y-77938571D01*
X104058990Y-77938571D02*
X104106609Y-77843333D01*
X104106609Y-77843333D02*
X104154228Y-77795714D01*
X104154228Y-77795714D02*
X104249466Y-77748095D01*
X104249466Y-77748095D02*
X104344704Y-77748095D01*
X104344704Y-77748095D02*
X104439942Y-77795714D01*
X104439942Y-77795714D02*
X104487561Y-77843333D01*
X104487561Y-77843333D02*
X104535180Y-77938571D01*
X104535180Y-77938571D02*
X104535180Y-78176666D01*
X104535180Y-78176666D02*
X104487561Y-78319523D01*
X104058990Y-79081428D02*
X104011371Y-79224285D01*
X104011371Y-79224285D02*
X103963752Y-79271904D01*
X103963752Y-79271904D02*
X103868514Y-79319523D01*
X103868514Y-79319523D02*
X103725657Y-79319523D01*
X103725657Y-79319523D02*
X103630419Y-79271904D01*
X103630419Y-79271904D02*
X103582800Y-79224285D01*
X103582800Y-79224285D02*
X103535180Y-79129047D01*
X103535180Y-79129047D02*
X103535180Y-78748095D01*
X103535180Y-78748095D02*
X104535180Y-78748095D01*
X104535180Y-78748095D02*
X104535180Y-79081428D01*
X104535180Y-79081428D02*
X104487561Y-79176666D01*
X104487561Y-79176666D02*
X104439942Y-79224285D01*
X104439942Y-79224285D02*
X104344704Y-79271904D01*
X104344704Y-79271904D02*
X104249466Y-79271904D01*
X104249466Y-79271904D02*
X104154228Y-79224285D01*
X104154228Y-79224285D02*
X104106609Y-79176666D01*
X104106609Y-79176666D02*
X104058990Y-79081428D01*
X104058990Y-79081428D02*
X104058990Y-78748095D01*
X113653333Y-65539580D02*
X113605714Y-65587200D01*
X113605714Y-65587200D02*
X113462857Y-65634819D01*
X113462857Y-65634819D02*
X113367619Y-65634819D01*
X113367619Y-65634819D02*
X113224762Y-65587200D01*
X113224762Y-65587200D02*
X113129524Y-65491961D01*
X113129524Y-65491961D02*
X113081905Y-65396723D01*
X113081905Y-65396723D02*
X113034286Y-65206247D01*
X113034286Y-65206247D02*
X113034286Y-65063390D01*
X113034286Y-65063390D02*
X113081905Y-64872914D01*
X113081905Y-64872914D02*
X113129524Y-64777676D01*
X113129524Y-64777676D02*
X113224762Y-64682438D01*
X113224762Y-64682438D02*
X113367619Y-64634819D01*
X113367619Y-64634819D02*
X113462857Y-64634819D01*
X113462857Y-64634819D02*
X113605714Y-64682438D01*
X113605714Y-64682438D02*
X113653333Y-64730057D01*
X114034286Y-64730057D02*
X114081905Y-64682438D01*
X114081905Y-64682438D02*
X114177143Y-64634819D01*
X114177143Y-64634819D02*
X114415238Y-64634819D01*
X114415238Y-64634819D02*
X114510476Y-64682438D01*
X114510476Y-64682438D02*
X114558095Y-64730057D01*
X114558095Y-64730057D02*
X114605714Y-64825295D01*
X114605714Y-64825295D02*
X114605714Y-64920533D01*
X114605714Y-64920533D02*
X114558095Y-65063390D01*
X114558095Y-65063390D02*
X113986667Y-65634819D01*
X113986667Y-65634819D02*
X114605714Y-65634819D01*
X149790833Y-99154580D02*
X149743214Y-99202200D01*
X149743214Y-99202200D02*
X149600357Y-99249819D01*
X149600357Y-99249819D02*
X149505119Y-99249819D01*
X149505119Y-99249819D02*
X149362262Y-99202200D01*
X149362262Y-99202200D02*
X149267024Y-99106961D01*
X149267024Y-99106961D02*
X149219405Y-99011723D01*
X149219405Y-99011723D02*
X149171786Y-98821247D01*
X149171786Y-98821247D02*
X149171786Y-98678390D01*
X149171786Y-98678390D02*
X149219405Y-98487914D01*
X149219405Y-98487914D02*
X149267024Y-98392676D01*
X149267024Y-98392676D02*
X149362262Y-98297438D01*
X149362262Y-98297438D02*
X149505119Y-98249819D01*
X149505119Y-98249819D02*
X149600357Y-98249819D01*
X149600357Y-98249819D02*
X149743214Y-98297438D01*
X149743214Y-98297438D02*
X149790833Y-98345057D01*
X150362262Y-98678390D02*
X150267024Y-98630771D01*
X150267024Y-98630771D02*
X150219405Y-98583152D01*
X150219405Y-98583152D02*
X150171786Y-98487914D01*
X150171786Y-98487914D02*
X150171786Y-98440295D01*
X150171786Y-98440295D02*
X150219405Y-98345057D01*
X150219405Y-98345057D02*
X150267024Y-98297438D01*
X150267024Y-98297438D02*
X150362262Y-98249819D01*
X150362262Y-98249819D02*
X150552738Y-98249819D01*
X150552738Y-98249819D02*
X150647976Y-98297438D01*
X150647976Y-98297438D02*
X150695595Y-98345057D01*
X150695595Y-98345057D02*
X150743214Y-98440295D01*
X150743214Y-98440295D02*
X150743214Y-98487914D01*
X150743214Y-98487914D02*
X150695595Y-98583152D01*
X150695595Y-98583152D02*
X150647976Y-98630771D01*
X150647976Y-98630771D02*
X150552738Y-98678390D01*
X150552738Y-98678390D02*
X150362262Y-98678390D01*
X150362262Y-98678390D02*
X150267024Y-98726009D01*
X150267024Y-98726009D02*
X150219405Y-98773628D01*
X150219405Y-98773628D02*
X150171786Y-98868866D01*
X150171786Y-98868866D02*
X150171786Y-99059342D01*
X150171786Y-99059342D02*
X150219405Y-99154580D01*
X150219405Y-99154580D02*
X150267024Y-99202200D01*
X150267024Y-99202200D02*
X150362262Y-99249819D01*
X150362262Y-99249819D02*
X150552738Y-99249819D01*
X150552738Y-99249819D02*
X150647976Y-99202200D01*
X150647976Y-99202200D02*
X150695595Y-99154580D01*
X150695595Y-99154580D02*
X150743214Y-99059342D01*
X150743214Y-99059342D02*
X150743214Y-98868866D01*
X150743214Y-98868866D02*
X150695595Y-98773628D01*
X150695595Y-98773628D02*
X150647976Y-98726009D01*
X150647976Y-98726009D02*
X150552738Y-98678390D01*
X109516667Y-58797200D02*
X109659524Y-58844819D01*
X109659524Y-58844819D02*
X109897619Y-58844819D01*
X109897619Y-58844819D02*
X109992857Y-58797200D01*
X109992857Y-58797200D02*
X110040476Y-58749580D01*
X110040476Y-58749580D02*
X110088095Y-58654342D01*
X110088095Y-58654342D02*
X110088095Y-58559104D01*
X110088095Y-58559104D02*
X110040476Y-58463866D01*
X110040476Y-58463866D02*
X109992857Y-58416247D01*
X109992857Y-58416247D02*
X109897619Y-58368628D01*
X109897619Y-58368628D02*
X109707143Y-58321009D01*
X109707143Y-58321009D02*
X109611905Y-58273390D01*
X109611905Y-58273390D02*
X109564286Y-58225771D01*
X109564286Y-58225771D02*
X109516667Y-58130533D01*
X109516667Y-58130533D02*
X109516667Y-58035295D01*
X109516667Y-58035295D02*
X109564286Y-57940057D01*
X109564286Y-57940057D02*
X109611905Y-57892438D01*
X109611905Y-57892438D02*
X109707143Y-57844819D01*
X109707143Y-57844819D02*
X109945238Y-57844819D01*
X109945238Y-57844819D02*
X110088095Y-57892438D01*
X110421429Y-57844819D02*
X110659524Y-58844819D01*
X110659524Y-58844819D02*
X110850000Y-58130533D01*
X110850000Y-58130533D02*
X111040476Y-58844819D01*
X111040476Y-58844819D02*
X111278572Y-57844819D01*
X112183333Y-58844819D02*
X111611905Y-58844819D01*
X111897619Y-58844819D02*
X111897619Y-57844819D01*
X111897619Y-57844819D02*
X111802381Y-57987676D01*
X111802381Y-57987676D02*
X111707143Y-58082914D01*
X111707143Y-58082914D02*
X111611905Y-58130533D01*
X147680833Y-99152080D02*
X147633214Y-99199700D01*
X147633214Y-99199700D02*
X147490357Y-99247319D01*
X147490357Y-99247319D02*
X147395119Y-99247319D01*
X147395119Y-99247319D02*
X147252262Y-99199700D01*
X147252262Y-99199700D02*
X147157024Y-99104461D01*
X147157024Y-99104461D02*
X147109405Y-99009223D01*
X147109405Y-99009223D02*
X147061786Y-98818747D01*
X147061786Y-98818747D02*
X147061786Y-98675890D01*
X147061786Y-98675890D02*
X147109405Y-98485414D01*
X147109405Y-98485414D02*
X147157024Y-98390176D01*
X147157024Y-98390176D02*
X147252262Y-98294938D01*
X147252262Y-98294938D02*
X147395119Y-98247319D01*
X147395119Y-98247319D02*
X147490357Y-98247319D01*
X147490357Y-98247319D02*
X147633214Y-98294938D01*
X147633214Y-98294938D02*
X147680833Y-98342557D01*
X148014167Y-98247319D02*
X148680833Y-98247319D01*
X148680833Y-98247319D02*
X148252262Y-99247319D01*
X113653333Y-63419580D02*
X113605714Y-63467200D01*
X113605714Y-63467200D02*
X113462857Y-63514819D01*
X113462857Y-63514819D02*
X113367619Y-63514819D01*
X113367619Y-63514819D02*
X113224762Y-63467200D01*
X113224762Y-63467200D02*
X113129524Y-63371961D01*
X113129524Y-63371961D02*
X113081905Y-63276723D01*
X113081905Y-63276723D02*
X113034286Y-63086247D01*
X113034286Y-63086247D02*
X113034286Y-62943390D01*
X113034286Y-62943390D02*
X113081905Y-62752914D01*
X113081905Y-62752914D02*
X113129524Y-62657676D01*
X113129524Y-62657676D02*
X113224762Y-62562438D01*
X113224762Y-62562438D02*
X113367619Y-62514819D01*
X113367619Y-62514819D02*
X113462857Y-62514819D01*
X113462857Y-62514819D02*
X113605714Y-62562438D01*
X113605714Y-62562438D02*
X113653333Y-62610057D01*
X114605714Y-63514819D02*
X114034286Y-63514819D01*
X114320000Y-63514819D02*
X114320000Y-62514819D01*
X114320000Y-62514819D02*
X114224762Y-62657676D01*
X114224762Y-62657676D02*
X114129524Y-62752914D01*
X114129524Y-62752914D02*
X114034286Y-62800533D01*
X137383333Y-91609580D02*
X137335714Y-91657200D01*
X137335714Y-91657200D02*
X137192857Y-91704819D01*
X137192857Y-91704819D02*
X137097619Y-91704819D01*
X137097619Y-91704819D02*
X136954762Y-91657200D01*
X136954762Y-91657200D02*
X136859524Y-91561961D01*
X136859524Y-91561961D02*
X136811905Y-91466723D01*
X136811905Y-91466723D02*
X136764286Y-91276247D01*
X136764286Y-91276247D02*
X136764286Y-91133390D01*
X136764286Y-91133390D02*
X136811905Y-90942914D01*
X136811905Y-90942914D02*
X136859524Y-90847676D01*
X136859524Y-90847676D02*
X136954762Y-90752438D01*
X136954762Y-90752438D02*
X137097619Y-90704819D01*
X137097619Y-90704819D02*
X137192857Y-90704819D01*
X137192857Y-90704819D02*
X137335714Y-90752438D01*
X137335714Y-90752438D02*
X137383333Y-90800057D01*
X138288095Y-90704819D02*
X137811905Y-90704819D01*
X137811905Y-90704819D02*
X137764286Y-91181009D01*
X137764286Y-91181009D02*
X137811905Y-91133390D01*
X137811905Y-91133390D02*
X137907143Y-91085771D01*
X137907143Y-91085771D02*
X138145238Y-91085771D01*
X138145238Y-91085771D02*
X138240476Y-91133390D01*
X138240476Y-91133390D02*
X138288095Y-91181009D01*
X138288095Y-91181009D02*
X138335714Y-91276247D01*
X138335714Y-91276247D02*
X138335714Y-91514342D01*
X138335714Y-91514342D02*
X138288095Y-91609580D01*
X138288095Y-91609580D02*
X138240476Y-91657200D01*
X138240476Y-91657200D02*
X138145238Y-91704819D01*
X138145238Y-91704819D02*
X137907143Y-91704819D01*
X137907143Y-91704819D02*
X137811905Y-91657200D01*
X137811905Y-91657200D02*
X137764286Y-91609580D01*
X144533333Y-88274819D02*
X144200000Y-87798628D01*
X143961905Y-88274819D02*
X143961905Y-87274819D01*
X143961905Y-87274819D02*
X144342857Y-87274819D01*
X144342857Y-87274819D02*
X144438095Y-87322438D01*
X144438095Y-87322438D02*
X144485714Y-87370057D01*
X144485714Y-87370057D02*
X144533333Y-87465295D01*
X144533333Y-87465295D02*
X144533333Y-87608152D01*
X144533333Y-87608152D02*
X144485714Y-87703390D01*
X144485714Y-87703390D02*
X144438095Y-87751009D01*
X144438095Y-87751009D02*
X144342857Y-87798628D01*
X144342857Y-87798628D02*
X143961905Y-87798628D01*
X144914286Y-87370057D02*
X144961905Y-87322438D01*
X144961905Y-87322438D02*
X145057143Y-87274819D01*
X145057143Y-87274819D02*
X145295238Y-87274819D01*
X145295238Y-87274819D02*
X145390476Y-87322438D01*
X145390476Y-87322438D02*
X145438095Y-87370057D01*
X145438095Y-87370057D02*
X145485714Y-87465295D01*
X145485714Y-87465295D02*
X145485714Y-87560533D01*
X145485714Y-87560533D02*
X145438095Y-87703390D01*
X145438095Y-87703390D02*
X144866667Y-88274819D01*
X144866667Y-88274819D02*
X145485714Y-88274819D01*
X119473333Y-88429580D02*
X119425714Y-88477200D01*
X119425714Y-88477200D02*
X119282857Y-88524819D01*
X119282857Y-88524819D02*
X119187619Y-88524819D01*
X119187619Y-88524819D02*
X119044762Y-88477200D01*
X119044762Y-88477200D02*
X118949524Y-88381961D01*
X118949524Y-88381961D02*
X118901905Y-88286723D01*
X118901905Y-88286723D02*
X118854286Y-88096247D01*
X118854286Y-88096247D02*
X118854286Y-87953390D01*
X118854286Y-87953390D02*
X118901905Y-87762914D01*
X118901905Y-87762914D02*
X118949524Y-87667676D01*
X118949524Y-87667676D02*
X119044762Y-87572438D01*
X119044762Y-87572438D02*
X119187619Y-87524819D01*
X119187619Y-87524819D02*
X119282857Y-87524819D01*
X119282857Y-87524819D02*
X119425714Y-87572438D01*
X119425714Y-87572438D02*
X119473333Y-87620057D01*
X119806667Y-87524819D02*
X120425714Y-87524819D01*
X120425714Y-87524819D02*
X120092381Y-87905771D01*
X120092381Y-87905771D02*
X120235238Y-87905771D01*
X120235238Y-87905771D02*
X120330476Y-87953390D01*
X120330476Y-87953390D02*
X120378095Y-88001009D01*
X120378095Y-88001009D02*
X120425714Y-88096247D01*
X120425714Y-88096247D02*
X120425714Y-88334342D01*
X120425714Y-88334342D02*
X120378095Y-88429580D01*
X120378095Y-88429580D02*
X120330476Y-88477200D01*
X120330476Y-88477200D02*
X120235238Y-88524819D01*
X120235238Y-88524819D02*
X119949524Y-88524819D01*
X119949524Y-88524819D02*
X119854286Y-88477200D01*
X119854286Y-88477200D02*
X119806667Y-88429580D01*
X146196667Y-75907200D02*
X146339524Y-75954819D01*
X146339524Y-75954819D02*
X146577619Y-75954819D01*
X146577619Y-75954819D02*
X146672857Y-75907200D01*
X146672857Y-75907200D02*
X146720476Y-75859580D01*
X146720476Y-75859580D02*
X146768095Y-75764342D01*
X146768095Y-75764342D02*
X146768095Y-75669104D01*
X146768095Y-75669104D02*
X146720476Y-75573866D01*
X146720476Y-75573866D02*
X146672857Y-75526247D01*
X146672857Y-75526247D02*
X146577619Y-75478628D01*
X146577619Y-75478628D02*
X146387143Y-75431009D01*
X146387143Y-75431009D02*
X146291905Y-75383390D01*
X146291905Y-75383390D02*
X146244286Y-75335771D01*
X146244286Y-75335771D02*
X146196667Y-75240533D01*
X146196667Y-75240533D02*
X146196667Y-75145295D01*
X146196667Y-75145295D02*
X146244286Y-75050057D01*
X146244286Y-75050057D02*
X146291905Y-75002438D01*
X146291905Y-75002438D02*
X146387143Y-74954819D01*
X146387143Y-74954819D02*
X146625238Y-74954819D01*
X146625238Y-74954819D02*
X146768095Y-75002438D01*
X147101429Y-74954819D02*
X147339524Y-75954819D01*
X147339524Y-75954819D02*
X147530000Y-75240533D01*
X147530000Y-75240533D02*
X147720476Y-75954819D01*
X147720476Y-75954819D02*
X147958572Y-74954819D01*
X148291905Y-75050057D02*
X148339524Y-75002438D01*
X148339524Y-75002438D02*
X148434762Y-74954819D01*
X148434762Y-74954819D02*
X148672857Y-74954819D01*
X148672857Y-74954819D02*
X148768095Y-75002438D01*
X148768095Y-75002438D02*
X148815714Y-75050057D01*
X148815714Y-75050057D02*
X148863333Y-75145295D01*
X148863333Y-75145295D02*
X148863333Y-75240533D01*
X148863333Y-75240533D02*
X148815714Y-75383390D01*
X148815714Y-75383390D02*
X148244286Y-75954819D01*
X148244286Y-75954819D02*
X148863333Y-75954819D01*
X147593333Y-77559580D02*
X147545714Y-77607200D01*
X147545714Y-77607200D02*
X147402857Y-77654819D01*
X147402857Y-77654819D02*
X147307619Y-77654819D01*
X147307619Y-77654819D02*
X147164762Y-77607200D01*
X147164762Y-77607200D02*
X147069524Y-77511961D01*
X147069524Y-77511961D02*
X147021905Y-77416723D01*
X147021905Y-77416723D02*
X146974286Y-77226247D01*
X146974286Y-77226247D02*
X146974286Y-77083390D01*
X146974286Y-77083390D02*
X147021905Y-76892914D01*
X147021905Y-76892914D02*
X147069524Y-76797676D01*
X147069524Y-76797676D02*
X147164762Y-76702438D01*
X147164762Y-76702438D02*
X147307619Y-76654819D01*
X147307619Y-76654819D02*
X147402857Y-76654819D01*
X147402857Y-76654819D02*
X147545714Y-76702438D01*
X147545714Y-76702438D02*
X147593333Y-76750057D01*
X148450476Y-76654819D02*
X148260000Y-76654819D01*
X148260000Y-76654819D02*
X148164762Y-76702438D01*
X148164762Y-76702438D02*
X148117143Y-76750057D01*
X148117143Y-76750057D02*
X148021905Y-76892914D01*
X148021905Y-76892914D02*
X147974286Y-77083390D01*
X147974286Y-77083390D02*
X147974286Y-77464342D01*
X147974286Y-77464342D02*
X148021905Y-77559580D01*
X148021905Y-77559580D02*
X148069524Y-77607200D01*
X148069524Y-77607200D02*
X148164762Y-77654819D01*
X148164762Y-77654819D02*
X148355238Y-77654819D01*
X148355238Y-77654819D02*
X148450476Y-77607200D01*
X148450476Y-77607200D02*
X148498095Y-77559580D01*
X148498095Y-77559580D02*
X148545714Y-77464342D01*
X148545714Y-77464342D02*
X148545714Y-77226247D01*
X148545714Y-77226247D02*
X148498095Y-77131009D01*
X148498095Y-77131009D02*
X148450476Y-77083390D01*
X148450476Y-77083390D02*
X148355238Y-77035771D01*
X148355238Y-77035771D02*
X148164762Y-77035771D01*
X148164762Y-77035771D02*
X148069524Y-77083390D01*
X148069524Y-77083390D02*
X148021905Y-77131009D01*
X148021905Y-77131009D02*
X147974286Y-77226247D01*
X115011905Y-88854819D02*
X115011905Y-87854819D01*
X115011905Y-87854819D02*
X115250000Y-87854819D01*
X115250000Y-87854819D02*
X115392857Y-87902438D01*
X115392857Y-87902438D02*
X115488095Y-87997676D01*
X115488095Y-87997676D02*
X115535714Y-88092914D01*
X115535714Y-88092914D02*
X115583333Y-88283390D01*
X115583333Y-88283390D02*
X115583333Y-88426247D01*
X115583333Y-88426247D02*
X115535714Y-88616723D01*
X115535714Y-88616723D02*
X115488095Y-88711961D01*
X115488095Y-88711961D02*
X115392857Y-88807200D01*
X115392857Y-88807200D02*
X115250000Y-88854819D01*
X115250000Y-88854819D02*
X115011905Y-88854819D01*
X116535714Y-88854819D02*
X115964286Y-88854819D01*
X116250000Y-88854819D02*
X116250000Y-87854819D01*
X116250000Y-87854819D02*
X116154762Y-87997676D01*
X116154762Y-87997676D02*
X116059524Y-88092914D01*
X116059524Y-88092914D02*
X115964286Y-88140533D01*
D20*
%TO.C,J15*%
X135905000Y-58225000D02*
X135905000Y-60985000D01*
X143635000Y-58225000D02*
X135905000Y-58225000D01*
X143635000Y-58225000D02*
X143635000Y-60985000D01*
X143635000Y-60985000D02*
X135905000Y-60985000D01*
X144905000Y-58225000D02*
X146285000Y-58225000D01*
X146285000Y-58225000D02*
X146285000Y-59605000D01*
%TO.C,C4*%
X140201248Y-88265000D02*
X140723752Y-88265000D01*
X140201248Y-89735000D02*
X140723752Y-89735000D01*
%TO.C,J4*%
X114620000Y-52415000D02*
X114620000Y-55175000D01*
X122350000Y-52415000D02*
X114620000Y-52415000D01*
X122350000Y-52415000D02*
X122350000Y-55175000D01*
X122350000Y-55175000D02*
X114620000Y-55175000D01*
X123620000Y-52415000D02*
X125000000Y-52415000D01*
X125000000Y-52415000D02*
X125000000Y-53795000D01*
%TO.C,J24*%
X153910000Y-86210000D02*
X153910000Y-88970000D01*
X164180000Y-86210000D02*
X153910000Y-86210000D01*
X164180000Y-86210000D02*
X164180000Y-88970000D01*
X164180000Y-88970000D02*
X153910000Y-88970000D01*
X165450000Y-86210000D02*
X166830000Y-86210000D01*
X166830000Y-86210000D02*
X166830000Y-87590000D01*
%TO.C,J27*%
X123440000Y-98770000D02*
X123440000Y-97390000D01*
X124820000Y-98770000D02*
X123440000Y-98770000D01*
X126090000Y-96010000D02*
X133820000Y-96010000D01*
X126090000Y-98770000D02*
X126090000Y-96010000D01*
X126090000Y-98770000D02*
X133820000Y-98770000D01*
X133820000Y-98770000D02*
X133820000Y-96010000D01*
%TO.C,R1*%
X144065000Y-81272936D02*
X144065000Y-81727064D01*
X145535000Y-81272936D02*
X145535000Y-81727064D01*
%TO.C,J21*%
X153910000Y-89120000D02*
X153910000Y-91880000D01*
X164180000Y-89120000D02*
X153910000Y-89120000D01*
X164180000Y-89120000D02*
X164180000Y-91880000D01*
X164180000Y-91880000D02*
X153910000Y-91880000D01*
X165450000Y-89120000D02*
X166830000Y-89120000D01*
X166830000Y-89120000D02*
X166830000Y-90500000D01*
%TO.C,A1*%
X97510000Y-74070000D02*
X107930000Y-74070000D01*
X97510000Y-81950000D02*
X97510000Y-74070000D01*
X100050000Y-68990000D02*
X100050000Y-74070000D01*
X100050000Y-87030000D02*
X100050000Y-81950000D01*
X100050000Y-87030000D02*
X143490000Y-87030000D01*
X102720000Y-71660000D02*
X102720000Y-68990000D01*
X102720000Y-84360000D02*
X102720000Y-87030000D01*
X107930000Y-74070000D02*
X107930000Y-81950000D01*
X107930000Y-81950000D02*
X97510000Y-81950000D01*
X138280000Y-68990000D02*
X100050000Y-68990000D01*
X138280000Y-71660000D02*
X102720000Y-71660000D01*
X138280000Y-71660000D02*
X138280000Y-68990000D01*
X138280000Y-71660000D02*
X140820000Y-71660000D01*
X140820000Y-71660000D02*
X140820000Y-68990000D01*
X140820000Y-84360000D02*
X102720000Y-84360000D01*
X140820000Y-84360000D02*
X140820000Y-87030000D01*
X143490000Y-68990000D02*
X140820000Y-68990000D01*
X143490000Y-87030000D02*
X143490000Y-68990000D01*
%TO.C,J6*%
X164220000Y-62190000D02*
X164220000Y-59540000D01*
X166980000Y-59540000D02*
X164220000Y-59540000D01*
X166980000Y-62190000D02*
X164220000Y-62190000D01*
X166980000Y-62190000D02*
X166980000Y-59540000D01*
X166980000Y-63460000D02*
X166980000Y-64840000D01*
X166980000Y-64840000D02*
X165600000Y-64840000D01*
%TO.C,C2*%
X110758748Y-64465000D02*
X111281252Y-64465000D01*
X110758748Y-65935000D02*
X111281252Y-65935000D01*
%TO.C,J35*%
X123420000Y-104590000D02*
X123420000Y-103210000D01*
X124800000Y-104590000D02*
X123420000Y-104590000D01*
X126070000Y-101830000D02*
X133800000Y-101830000D01*
X126070000Y-104590000D02*
X126070000Y-101830000D01*
X126070000Y-104590000D02*
X133800000Y-104590000D01*
X133800000Y-104590000D02*
X133800000Y-101830000D01*
%TO.C,C8*%
X149215000Y-101116248D02*
X149215000Y-101638752D01*
X150685000Y-101116248D02*
X150685000Y-101638752D01*
%TO.C,J36*%
X134120000Y-104540000D02*
X134120000Y-103160000D01*
X135500000Y-104540000D02*
X134120000Y-104540000D01*
X136770000Y-101780000D02*
X144500000Y-101780000D01*
X136770000Y-104540000D02*
X136770000Y-101780000D01*
X136770000Y-104540000D02*
X144500000Y-104540000D01*
X144500000Y-104540000D02*
X144500000Y-101780000D01*
%TO.C,SW1*%
X108940000Y-52490000D02*
X108940000Y-53840000D01*
X108940000Y-52490000D02*
X112760000Y-52490000D01*
X108940000Y-55360000D02*
X108940000Y-56340000D01*
X108940000Y-57860000D02*
X108940000Y-58840000D01*
X108940000Y-60360000D02*
X108940000Y-61710000D01*
X108940000Y-61710000D02*
X112760000Y-61710000D01*
X112760000Y-52490000D02*
X112760000Y-53840000D01*
X112760000Y-55360000D02*
X112760000Y-56340000D01*
X112760000Y-57860000D02*
X112760000Y-58840000D01*
X112760000Y-61710000D02*
X112760000Y-60360000D01*
%TO.C,J32*%
X134120000Y-101630000D02*
X134120000Y-100250000D01*
X135500000Y-101630000D02*
X134120000Y-101630000D01*
X136770000Y-98870000D02*
X144500000Y-98870000D01*
X136770000Y-101630000D02*
X136770000Y-98870000D01*
X136770000Y-101630000D02*
X144500000Y-101630000D01*
X144500000Y-101630000D02*
X144500000Y-98870000D01*
%TO.C,C7*%
X147105000Y-101116248D02*
X147105000Y-101638752D01*
X148575000Y-101116248D02*
X148575000Y-101638752D01*
%TO.C,J18*%
X161380000Y-82950000D02*
X161380000Y-65110000D01*
X161380000Y-85550000D02*
X161380000Y-84220000D01*
X162710000Y-85550000D02*
X161380000Y-85550000D01*
X164040000Y-65110000D02*
X161380000Y-65110000D01*
X164040000Y-82950000D02*
X161380000Y-82950000D01*
X164040000Y-82950000D02*
X164040000Y-65110000D01*
%TO.C,J33*%
X114930000Y-104852500D02*
X114930000Y-97612500D01*
X120350000Y-97612500D02*
X114930000Y-97612500D01*
X122870000Y-97612500D02*
X120950000Y-97612500D01*
X122870000Y-99232500D02*
X114930000Y-99232500D01*
X122870000Y-104852500D02*
X114930000Y-104852500D01*
X122870000Y-104852500D02*
X122870000Y-97612500D01*
X120650000Y-97612500D02*
X120210000Y-97002500D01*
X121090000Y-97002500D01*
X120650000Y-97612500D01*
G36*
X120650000Y-97612500D02*
G01*
X120210000Y-97002500D01*
X121090000Y-97002500D01*
X120650000Y-97612500D01*
G37*
%TO.C,J3*%
X125255000Y-52425000D02*
X125255000Y-55185000D01*
X132985000Y-52425000D02*
X125255000Y-52425000D01*
X132985000Y-52425000D02*
X132985000Y-55185000D01*
X132985000Y-55185000D02*
X125255000Y-55185000D01*
X134255000Y-52425000D02*
X135635000Y-52425000D01*
X135635000Y-52425000D02*
X135635000Y-53805000D01*
%TO.C,J2*%
X135905000Y-52425000D02*
X135905000Y-55185000D01*
X143635000Y-52425000D02*
X135905000Y-52425000D01*
X143635000Y-52425000D02*
X143635000Y-55185000D01*
X143635000Y-55185000D02*
X135905000Y-55185000D01*
X144905000Y-52425000D02*
X146285000Y-52425000D01*
X146285000Y-52425000D02*
X146285000Y-53805000D01*
%TO.C,J22*%
X145920000Y-85750000D02*
X145920000Y-84370000D01*
X147300000Y-85750000D02*
X145920000Y-85750000D01*
X148570000Y-82990000D02*
X151220000Y-82990000D01*
X148570000Y-85750000D02*
X148570000Y-82990000D01*
X148570000Y-85750000D02*
X151220000Y-85750000D01*
X151220000Y-85750000D02*
X151220000Y-82990000D01*
%TO.C,J12*%
X164210000Y-82950000D02*
X164210000Y-65110000D01*
X164210000Y-85550000D02*
X164210000Y-84220000D01*
X165540000Y-85550000D02*
X164210000Y-85550000D01*
X166870000Y-65110000D02*
X164210000Y-65110000D01*
X166870000Y-82950000D02*
X164210000Y-82950000D01*
X166870000Y-82950000D02*
X166870000Y-65110000D01*
%TO.C,J34*%
X153900000Y-92030000D02*
X153900000Y-94790000D01*
X164170000Y-92030000D02*
X153900000Y-92030000D01*
X164170000Y-92030000D02*
X164170000Y-94790000D01*
X164170000Y-94790000D02*
X153900000Y-94790000D01*
X165440000Y-92030000D02*
X166820000Y-92030000D01*
X166820000Y-92030000D02*
X166820000Y-93410000D01*
%TO.C,J10*%
X125250000Y-55325000D02*
X125250000Y-58085000D01*
X132980000Y-55325000D02*
X125250000Y-55325000D01*
X132980000Y-55325000D02*
X132980000Y-58085000D01*
X132980000Y-58085000D02*
X125250000Y-58085000D01*
X134250000Y-55325000D02*
X135630000Y-55325000D01*
X135630000Y-55325000D02*
X135630000Y-56705000D01*
%TO.C,C1*%
X110758748Y-62345000D02*
X111281252Y-62345000D01*
X110758748Y-63815000D02*
X111281252Y-63815000D01*
%TO.C,C5*%
X140201248Y-90515000D02*
X140723752Y-90515000D01*
X140201248Y-91985000D02*
X140723752Y-91985000D01*
%TO.C,R2*%
X144065000Y-85517064D02*
X144065000Y-85062936D01*
X145535000Y-85517064D02*
X145535000Y-85062936D01*
%TO.C,C3*%
X118380000Y-89974437D02*
X118380000Y-95730000D01*
X118380000Y-95730000D02*
X120730000Y-95730000D01*
X119444437Y-88910000D02*
X118380000Y-89974437D01*
X119444437Y-88910000D02*
X120730000Y-88910000D01*
X123637500Y-87882500D02*
X123637500Y-88670000D01*
X124031250Y-88276250D02*
X123243750Y-88276250D01*
X124135563Y-88910000D02*
X122850000Y-88910000D01*
X124135563Y-88910000D02*
X125200000Y-89974437D01*
X125200000Y-89974437D02*
X125200000Y-95730000D01*
X125200000Y-95730000D02*
X122850000Y-95730000D01*
%TO.C,J20*%
X158550000Y-82950000D02*
X158550000Y-65110000D01*
X158550000Y-85550000D02*
X158550000Y-84220000D01*
X159880000Y-85550000D02*
X158550000Y-85550000D01*
X161210000Y-65110000D02*
X158550000Y-65110000D01*
X161210000Y-82950000D02*
X158550000Y-82950000D01*
X161210000Y-82950000D02*
X161210000Y-65110000D01*
%TO.C,J25*%
X126420000Y-91480000D02*
X126420000Y-90100000D01*
X127800000Y-91480000D02*
X126420000Y-91480000D01*
X129070000Y-88720000D02*
X131720000Y-88720000D01*
X129070000Y-91480000D02*
X129070000Y-88720000D01*
X129070000Y-91480000D02*
X131720000Y-91480000D01*
X131720000Y-91480000D02*
X131720000Y-88720000D01*
%TO.C,J14*%
X146555000Y-58225000D02*
X146555000Y-60985000D01*
X154285000Y-58225000D02*
X146555000Y-58225000D01*
X154285000Y-58225000D02*
X154285000Y-60985000D01*
X154285000Y-60985000D02*
X146555000Y-60985000D01*
X155555000Y-58225000D02*
X156935000Y-58225000D01*
X156935000Y-58225000D02*
X156935000Y-59605000D01*
%TO.C,J7*%
X98200000Y-88200000D02*
X112900000Y-88200000D01*
X98200000Y-97400000D02*
X98200000Y-88200000D01*
X107000000Y-97400000D02*
X98200000Y-97400000D01*
X112050000Y-88000000D02*
X113100000Y-88000000D01*
X112900000Y-88200000D02*
X112900000Y-90800000D01*
X112900000Y-94700000D02*
X112900000Y-97400000D01*
X112900000Y-97400000D02*
X111000000Y-97400000D01*
X113100000Y-89050000D02*
X113100000Y-88000000D01*
%TO.C,SW2*%
X145650000Y-67120000D02*
X145650000Y-68470000D01*
X145650000Y-67120000D02*
X149470000Y-67120000D01*
X145650000Y-69990000D02*
X145650000Y-70970000D01*
X145650000Y-72490000D02*
X145650000Y-73470000D01*
X145650000Y-74990000D02*
X145650000Y-76340000D01*
X145650000Y-76340000D02*
X149470000Y-76340000D01*
X149470000Y-67120000D02*
X149470000Y-68470000D01*
X149470000Y-69990000D02*
X149470000Y-70970000D01*
X149470000Y-72490000D02*
X149470000Y-73470000D01*
X149470000Y-76340000D02*
X149470000Y-74990000D01*
%TO.C,J31*%
X123430000Y-101680000D02*
X123430000Y-100300000D01*
X124810000Y-101680000D02*
X123430000Y-101680000D01*
X126080000Y-98920000D02*
X133810000Y-98920000D01*
X126080000Y-101680000D02*
X126080000Y-98920000D01*
X126080000Y-101680000D02*
X133810000Y-101680000D01*
X133810000Y-101680000D02*
X133810000Y-98920000D01*
%TO.C,J19*%
X158430000Y-62180000D02*
X158430000Y-59530000D01*
X161190000Y-59530000D02*
X158430000Y-59530000D01*
X161190000Y-62180000D02*
X158430000Y-62180000D01*
X161190000Y-62180000D02*
X161190000Y-59530000D01*
X161190000Y-63450000D02*
X161190000Y-64830000D01*
X161190000Y-64830000D02*
X159810000Y-64830000D01*
%TO.C,C6*%
X147488748Y-78115000D02*
X148011252Y-78115000D01*
X147488748Y-79585000D02*
X148011252Y-79585000D01*
%TO.C,J28*%
X134130000Y-98720000D02*
X134130000Y-97340000D01*
X135510000Y-98720000D02*
X134130000Y-98720000D01*
X136780000Y-95960000D02*
X144510000Y-95960000D01*
X136780000Y-98720000D02*
X136780000Y-95960000D01*
X136780000Y-98720000D02*
X144510000Y-98720000D01*
X144510000Y-98720000D02*
X144510000Y-95960000D01*
%TO.C,J1*%
X146565000Y-52425000D02*
X146565000Y-55185000D01*
X154295000Y-52425000D02*
X146565000Y-52425000D01*
X154295000Y-52425000D02*
X154295000Y-55185000D01*
X154295000Y-55185000D02*
X146565000Y-55185000D01*
X155565000Y-52425000D02*
X156945000Y-52425000D01*
X156945000Y-52425000D02*
X156945000Y-53805000D01*
%TO.C,J26*%
X126400000Y-94480000D02*
X126400000Y-93100000D01*
X127780000Y-94480000D02*
X126400000Y-94480000D01*
X129050000Y-91720000D02*
X131700000Y-91720000D01*
X129050000Y-94480000D02*
X129050000Y-91720000D01*
X129050000Y-94480000D02*
X131700000Y-94480000D01*
X131700000Y-94480000D02*
X131700000Y-91720000D01*
%TO.C,J23*%
X145930000Y-82790000D02*
X145930000Y-81410000D01*
X147310000Y-82790000D02*
X145930000Y-82790000D01*
X148580000Y-80030000D02*
X151230000Y-80030000D01*
X148580000Y-82790000D02*
X148580000Y-80030000D01*
X148580000Y-82790000D02*
X151230000Y-82790000D01*
X151230000Y-82790000D02*
X151230000Y-80030000D01*
%TO.C,J17*%
X114610000Y-58235000D02*
X114610000Y-60995000D01*
X122340000Y-58235000D02*
X114610000Y-58235000D01*
X122340000Y-58235000D02*
X122340000Y-60995000D01*
X122340000Y-60995000D02*
X114610000Y-60995000D01*
X123610000Y-58235000D02*
X124990000Y-58235000D01*
X124990000Y-58235000D02*
X124990000Y-59615000D01*
%TO.C,J16*%
X125250000Y-58230000D02*
X125250000Y-60990000D01*
X132980000Y-58230000D02*
X125250000Y-58230000D01*
X132980000Y-58230000D02*
X132980000Y-60990000D01*
X132980000Y-60990000D02*
X125250000Y-60990000D01*
X134250000Y-58230000D02*
X135630000Y-58230000D01*
X135630000Y-58230000D02*
X135630000Y-59610000D01*
%TO.C,J11*%
X114610000Y-55325000D02*
X114610000Y-58085000D01*
X122340000Y-55325000D02*
X114610000Y-55325000D01*
X122340000Y-55325000D02*
X122340000Y-58085000D01*
X122340000Y-58085000D02*
X114610000Y-58085000D01*
X123610000Y-55325000D02*
X124990000Y-55325000D01*
X124990000Y-55325000D02*
X124990000Y-56705000D01*
%TO.C,J30*%
X153890000Y-94940000D02*
X153890000Y-97700000D01*
X164160000Y-94940000D02*
X153890000Y-94940000D01*
X164160000Y-94940000D02*
X164160000Y-97700000D01*
X164160000Y-97700000D02*
X153890000Y-97700000D01*
X165430000Y-94940000D02*
X166810000Y-94940000D01*
X166810000Y-94940000D02*
X166810000Y-96320000D01*
%TO.C,J29*%
X151450000Y-67910000D02*
X151450000Y-85750000D01*
X151450000Y-67910000D02*
X154110000Y-67910000D01*
X151450000Y-85750000D02*
X154110000Y-85750000D01*
X152780000Y-65310000D02*
X154110000Y-65310000D01*
X154110000Y-65310000D02*
X154110000Y-66640000D01*
X154110000Y-67910000D02*
X154110000Y-85750000D01*
%TO.C,D1*%
X114750000Y-89140000D02*
X114750000Y-93000000D01*
X116750000Y-89140000D02*
X114750000Y-89140000D01*
X116750000Y-89140000D02*
X116750000Y-93000000D01*
%TO.C,J8*%
X146565000Y-55325000D02*
X146565000Y-58085000D01*
X154295000Y-55325000D02*
X146565000Y-55325000D01*
X154295000Y-55325000D02*
X154295000Y-58085000D01*
X154295000Y-58085000D02*
X146565000Y-58085000D01*
X155565000Y-55325000D02*
X156945000Y-55325000D01*
X156945000Y-55325000D02*
X156945000Y-56705000D01*
%TO.C,J13*%
X161330000Y-62190000D02*
X161330000Y-59540000D01*
X164090000Y-59540000D02*
X161330000Y-59540000D01*
X164090000Y-62190000D02*
X161330000Y-62190000D01*
X164090000Y-62190000D02*
X164090000Y-59540000D01*
X164090000Y-63460000D02*
X164090000Y-64840000D01*
X164090000Y-64840000D02*
X162710000Y-64840000D01*
%TO.C,J5*%
X100180000Y-59530000D02*
X107420000Y-59530000D01*
X100180000Y-67470000D02*
X100180000Y-59530000D01*
X100180000Y-67470000D02*
X107420000Y-67470000D01*
X105800000Y-67470000D02*
X105800000Y-59530000D01*
X107420000Y-64950000D02*
X107420000Y-59530000D01*
X107420000Y-67470000D02*
X107420000Y-65550000D01*
X108030000Y-65690000D02*
X107420000Y-65250000D01*
X108030000Y-64810000D01*
X108030000Y-65690000D01*
G36*
X108030000Y-65690000D02*
G01*
X107420000Y-65250000D01*
X108030000Y-64810000D01*
X108030000Y-65690000D01*
G37*
%TO.C,J9*%
X135915000Y-55325000D02*
X135915000Y-58085000D01*
X143645000Y-55325000D02*
X135915000Y-55325000D01*
X143645000Y-55325000D02*
X143645000Y-58085000D01*
X143645000Y-58085000D02*
X135915000Y-58085000D01*
X144915000Y-55325000D02*
X146295000Y-55325000D01*
X146295000Y-55325000D02*
X146295000Y-56705000D01*
%TD*%
%LPC*%
D21*
%TO.C,J15*%
X144905000Y-59605000D03*
D22*
X142365000Y-59605000D03*
X139825000Y-59605000D03*
X137285000Y-59605000D03*
%TD*%
D23*
%TO.C,C4*%
X139425000Y-89000000D03*
X141500000Y-89000000D03*
%TD*%
D21*
%TO.C,J4*%
X123620000Y-53795000D03*
D22*
X121080000Y-53795000D03*
X118540000Y-53795000D03*
X116000000Y-53795000D03*
%TD*%
D21*
%TO.C,J24*%
X165450000Y-87590000D03*
D22*
X162910000Y-87590000D03*
X160370000Y-87590000D03*
X157830000Y-87590000D03*
X155290000Y-87590000D03*
%TD*%
D21*
%TO.C,J27*%
X124820000Y-97390000D03*
D22*
X127360000Y-97390000D03*
X129900000Y-97390000D03*
X132440000Y-97390000D03*
%TD*%
D24*
%TO.C,R1*%
X144800000Y-80500000D03*
X144800000Y-82500000D03*
%TD*%
D21*
%TO.C,J21*%
X165450000Y-90500000D03*
D22*
X162910000Y-90500000D03*
X160370000Y-90500000D03*
X157830000Y-90500000D03*
X155290000Y-90500000D03*
%TD*%
D25*
%TO.C,A1*%
X139550000Y-70390000D03*
D26*
X137010000Y-70390000D03*
X134470000Y-70390000D03*
X131930000Y-70390000D03*
X129390000Y-70390000D03*
X126850000Y-70390000D03*
X124310000Y-70390000D03*
X121770000Y-70390000D03*
X119230000Y-70390000D03*
X116690000Y-70390000D03*
X114150000Y-70390000D03*
X111610000Y-70390000D03*
X109070000Y-70390000D03*
X106530000Y-70390000D03*
X103990000Y-70390000D03*
X103990000Y-85630000D03*
X106530000Y-85630000D03*
X109070000Y-85630000D03*
X111610000Y-85630000D03*
X114150000Y-85630000D03*
X116690000Y-85630000D03*
X119230000Y-85630000D03*
X121770000Y-85630000D03*
X124310000Y-85630000D03*
X126850000Y-85630000D03*
X129390000Y-85630000D03*
X131930000Y-85630000D03*
X134470000Y-85630000D03*
X137010000Y-85630000D03*
X139550000Y-85630000D03*
%TD*%
D21*
%TO.C,J6*%
X165600000Y-63460000D03*
D22*
X165600000Y-60920000D03*
%TD*%
D23*
%TO.C,C2*%
X109982500Y-65200000D03*
X112057500Y-65200000D03*
%TD*%
D27*
%TO.C,REF\u002A\u002A*%
X103500000Y-101500000D03*
%TD*%
D21*
%TO.C,J35*%
X124800000Y-103210000D03*
D22*
X127340000Y-103210000D03*
X129880000Y-103210000D03*
X132420000Y-103210000D03*
%TD*%
D28*
%TO.C,C8*%
X149950000Y-100340000D03*
X149950000Y-102415000D03*
%TD*%
D21*
%TO.C,J36*%
X135500000Y-103160000D03*
D22*
X138040000Y-103160000D03*
X140580000Y-103160000D03*
X143120000Y-103160000D03*
%TD*%
D29*
%TO.C,SW1*%
X109650000Y-59600000D03*
X109650000Y-57100000D03*
X109650000Y-54600000D03*
X112050000Y-59600000D03*
X112050000Y-57100000D03*
X112050000Y-54600000D03*
%TD*%
D21*
%TO.C,J32*%
X135500000Y-100250000D03*
D22*
X138040000Y-100250000D03*
X140580000Y-100250000D03*
X143120000Y-100250000D03*
%TD*%
D28*
%TO.C,C7*%
X147840000Y-100340000D03*
X147840000Y-102415000D03*
%TD*%
D21*
%TO.C,J18*%
X162710000Y-84220000D03*
D22*
X162710000Y-81680000D03*
X162710000Y-79140000D03*
X162710000Y-76600000D03*
X162710000Y-74060000D03*
X162710000Y-71520000D03*
X162710000Y-68980000D03*
X162710000Y-66440000D03*
%TD*%
D30*
%TO.C,J33*%
X120650000Y-101332500D03*
D31*
X117150000Y-101332500D03*
%TD*%
D21*
%TO.C,J3*%
X134255000Y-53805000D03*
D22*
X131715000Y-53805000D03*
X129175000Y-53805000D03*
X126635000Y-53805000D03*
%TD*%
D21*
%TO.C,J2*%
X144905000Y-53805000D03*
D22*
X142365000Y-53805000D03*
X139825000Y-53805000D03*
X137285000Y-53805000D03*
%TD*%
D21*
%TO.C,J22*%
X147300000Y-84370000D03*
D22*
X149840000Y-84370000D03*
%TD*%
D27*
%TO.C,REF\u002A\u002A*%
X164500000Y-101500000D03*
%TD*%
D21*
%TO.C,J12*%
X165540000Y-84220000D03*
D22*
X165540000Y-81680000D03*
X165540000Y-79140000D03*
X165540000Y-76600000D03*
X165540000Y-74060000D03*
X165540000Y-71520000D03*
X165540000Y-68980000D03*
X165540000Y-66440000D03*
%TD*%
D21*
%TO.C,J34*%
X165440000Y-93410000D03*
D22*
X162900000Y-93410000D03*
X160360000Y-93410000D03*
X157820000Y-93410000D03*
X155280000Y-93410000D03*
%TD*%
D21*
%TO.C,J10*%
X134250000Y-56705000D03*
D22*
X131710000Y-56705000D03*
X129170000Y-56705000D03*
X126630000Y-56705000D03*
%TD*%
D23*
%TO.C,C1*%
X109982500Y-63080000D03*
X112057500Y-63080000D03*
%TD*%
%TO.C,C5*%
X139425000Y-91250000D03*
X141500000Y-91250000D03*
%TD*%
D32*
%TO.C,R2*%
X144800000Y-86290000D03*
X144800000Y-84290000D03*
%TD*%
D33*
%TO.C,C3*%
X121790000Y-89620000D03*
X121790000Y-95020000D03*
%TD*%
D21*
%TO.C,J20*%
X159880000Y-84220000D03*
D22*
X159880000Y-81680000D03*
X159880000Y-79140000D03*
X159880000Y-76600000D03*
X159880000Y-74060000D03*
X159880000Y-71520000D03*
X159880000Y-68980000D03*
X159880000Y-66440000D03*
%TD*%
D21*
%TO.C,J25*%
X127800000Y-90100000D03*
D22*
X130340000Y-90100000D03*
%TD*%
D21*
%TO.C,J14*%
X155555000Y-59605000D03*
D22*
X153015000Y-59605000D03*
X150475000Y-59605000D03*
X147935000Y-59605000D03*
%TD*%
D34*
%TO.C,J7*%
X112000000Y-92800000D03*
D35*
X106000000Y-92800000D03*
D36*
X109000000Y-97500000D03*
%TD*%
D29*
%TO.C,SW2*%
X146360000Y-74230000D03*
X146360000Y-71730000D03*
X146360000Y-69230000D03*
X148760000Y-74230000D03*
X148760000Y-71730000D03*
X148760000Y-69230000D03*
%TD*%
D21*
%TO.C,J31*%
X124810000Y-100300000D03*
D22*
X127350000Y-100300000D03*
X129890000Y-100300000D03*
X132430000Y-100300000D03*
%TD*%
D21*
%TO.C,J19*%
X159810000Y-63450000D03*
D22*
X159810000Y-60910000D03*
%TD*%
D27*
%TO.C,REF\u002A\u002A*%
X164510000Y-55490000D03*
%TD*%
D23*
%TO.C,C6*%
X146712500Y-78850000D03*
X148787500Y-78850000D03*
%TD*%
D21*
%TO.C,J28*%
X135510000Y-97340000D03*
D22*
X138050000Y-97340000D03*
X140590000Y-97340000D03*
X143130000Y-97340000D03*
%TD*%
D27*
%TO.C,REF\u002A\u002A*%
X103500000Y-55500000D03*
%TD*%
D21*
%TO.C,J1*%
X155565000Y-53805000D03*
D22*
X153025000Y-53805000D03*
X150485000Y-53805000D03*
X147945000Y-53805000D03*
%TD*%
D21*
%TO.C,J26*%
X127780000Y-93100000D03*
D22*
X130320000Y-93100000D03*
%TD*%
D21*
%TO.C,J23*%
X147310000Y-81410000D03*
D22*
X149850000Y-81410000D03*
%TD*%
D21*
%TO.C,J17*%
X123610000Y-59615000D03*
D22*
X121070000Y-59615000D03*
X118530000Y-59615000D03*
X115990000Y-59615000D03*
%TD*%
D21*
%TO.C,J16*%
X134250000Y-59610000D03*
D22*
X131710000Y-59610000D03*
X129170000Y-59610000D03*
X126630000Y-59610000D03*
%TD*%
D21*
%TO.C,J11*%
X123610000Y-56705000D03*
D22*
X121070000Y-56705000D03*
X118530000Y-56705000D03*
X115990000Y-56705000D03*
%TD*%
D21*
%TO.C,J30*%
X165430000Y-96320000D03*
D22*
X162890000Y-96320000D03*
X160350000Y-96320000D03*
X157810000Y-96320000D03*
X155270000Y-96320000D03*
%TD*%
D21*
%TO.C,J29*%
X152780000Y-66640000D03*
D22*
X152780000Y-69180000D03*
X152780000Y-71720000D03*
X152780000Y-74260000D03*
X152780000Y-76800000D03*
X152780000Y-79340000D03*
X152780000Y-81880000D03*
X152780000Y-84420000D03*
%TD*%
D37*
%TO.C,D1*%
X115750000Y-89950000D03*
X115750000Y-92750000D03*
%TD*%
D21*
%TO.C,J8*%
X155565000Y-56705000D03*
D22*
X153025000Y-56705000D03*
X150485000Y-56705000D03*
X147945000Y-56705000D03*
%TD*%
D21*
%TO.C,J13*%
X162710000Y-63460000D03*
D22*
X162710000Y-60920000D03*
%TD*%
D38*
%TO.C,J5*%
X103700000Y-65250000D03*
D31*
X103700000Y-61750000D03*
%TD*%
D21*
%TO.C,J9*%
X144915000Y-56705000D03*
D22*
X142375000Y-56705000D03*
X139835000Y-56705000D03*
X137295000Y-56705000D03*
%TD*%
%LPD*%
M02*
