M48
; DRILL file {KiCad 9.0.1} date 2025-05-07T00:20:08-0400
; FORMAT={-:-/ absolute / inch / decimal}
; #@! TF.CreationDate,2025-05-07T00:20:08-04:00
; #@! TF.GenerationSoftware,Kicad,Pcbnew,9.0.1
; #@! TF.FileFunction,Plated,1,2,PTH
FMAT,2
INCH
; #@! TA.AperFunction,Plated,PTH,ViaDrill
T1C0.0157
; #@! TA.AperFunction,Plated,PTH,ViaDrill
T2C0.0197
; #@! TA.AperFunction,Plated,PTH,ComponentDrill
T3C0.0394
; #@! TA.AperFunction,Plated,PTH,ComponentDrill
T4C0.0472
%
G90
G05
T1
X4.2626Y-3.2697
X5.5996Y-2.7713
X5.7772Y-2.7764
X5.8496Y-2.4724
X6.061Y-2.4724
X6.1764Y-2.5878
X6.224Y-2.7579
T2
X4.7087Y-3.7933
X5.5717Y-3.685
X5.8205Y-3.9504
T3
X4.0941Y-2.7713
X4.0941Y-3.3713
X4.1941Y-2.7713
X4.1941Y-3.3713
X4.2941Y-2.7713
X4.2941Y-3.3713
X4.3941Y-2.7713
X4.3941Y-3.3713
X4.4941Y-2.7713
X4.4941Y-3.3713
X4.5665Y-2.2325
X4.5665Y-2.347
X4.5669Y-2.1179
X4.5941Y-2.7713
X4.5941Y-3.3713
X4.6665Y-2.2325
X4.6665Y-2.347
X4.6669Y-2.1179
X4.6941Y-2.7713
X4.6941Y-3.3713
X4.7665Y-2.2325
X4.7665Y-2.347
X4.7669Y-2.1179
X4.7941Y-2.7713
X4.7941Y-3.3713
X4.8665Y-2.2325
X4.8665Y-2.347
X4.8669Y-2.1179
X4.8941Y-2.7713
X4.8941Y-3.3713
X4.9134Y-4.0634
X4.9138Y-3.9488
X4.9142Y-3.8343
X4.9854Y-2.2325
X4.9854Y-2.3469
X4.9856Y-2.1183
X4.9941Y-2.7713
X4.9941Y-3.3713
X5.0134Y-4.0634
X5.0138Y-3.9488
X5.0142Y-3.8343
X5.0307Y-3.6654
X5.0315Y-3.5472
X5.0854Y-2.2325
X5.0854Y-2.3469
X5.0856Y-2.1183
X5.0941Y-2.7713
X5.0941Y-3.3713
X5.1134Y-4.0634
X5.1138Y-3.9488
X5.1142Y-3.8343
X5.1307Y-3.6654
X5.1315Y-3.5472
X5.1854Y-2.2325
X5.1854Y-2.3469
X5.1856Y-2.1183
X5.1941Y-2.7713
X5.1941Y-3.3713
X5.2134Y-4.0634
X5.2138Y-3.9488
X5.2142Y-3.8343
X5.2854Y-2.2325
X5.2854Y-2.3469
X5.2856Y-2.1183
X5.2941Y-2.7713
X5.2941Y-3.3713
X5.3346Y-3.9469
X5.3346Y-4.0614
X5.335Y-3.8323
X5.3941Y-2.7713
X5.3941Y-3.3713
X5.4049Y-2.1183
X5.4049Y-2.3467
X5.4053Y-2.2325
X5.4346Y-3.9469
X5.4346Y-4.0614
X5.435Y-3.8323
X5.4941Y-2.7713
X5.4941Y-3.3713
X5.5049Y-2.1183
X5.5049Y-2.3467
X5.5053Y-2.2325
X5.5346Y-3.9469
X5.5346Y-4.0614
X5.535Y-3.8323
X5.6049Y-2.1183
X5.6049Y-2.3467
X5.6053Y-2.2325
X5.6346Y-3.9469
X5.6346Y-4.0614
X5.635Y-3.8323
X5.7049Y-2.1183
X5.7049Y-2.3467
X5.7053Y-2.2325
X5.7992Y-3.3217
X5.7996Y-3.2051
X5.8242Y-2.3467
X5.8246Y-2.1183
X5.8246Y-2.2325
X5.8992Y-3.3217
X5.8996Y-3.2051
X5.9242Y-2.3467
X5.9246Y-2.1183
X5.9246Y-2.2325
X6.015Y-2.6236
X6.015Y-2.7236
X6.015Y-2.8236
X6.015Y-2.9236
X6.015Y-3.0236
X6.015Y-3.1236
X6.015Y-3.2236
X6.015Y-3.3236
X6.0242Y-2.3467
X6.0246Y-2.1183
X6.0246Y-2.2325
X6.113Y-3.7921
X6.1134Y-3.6776
X6.1138Y-3.4484
X6.1138Y-3.563
X6.1242Y-2.3467
X6.1246Y-2.1183
X6.1246Y-2.2325
X6.213Y-3.7921
X6.2134Y-3.6776
X6.2138Y-3.4484
X6.2138Y-3.563
X6.2917Y-2.398
X6.2917Y-2.498
X6.2945Y-2.6157
X6.2945Y-2.7157
X6.2945Y-2.8157
X6.2945Y-2.9157
X6.2945Y-3.0157
X6.2945Y-3.1157
X6.2945Y-3.2157
X6.2945Y-3.3157
X6.313Y-3.7921
X6.3134Y-3.6776
X6.3138Y-3.4484
X6.3138Y-3.563
X6.4059Y-2.3984
X6.4059Y-2.4984
X6.4059Y-2.6157
X6.4059Y-2.7157
X6.4059Y-2.8157
X6.4059Y-2.9157
X6.4059Y-3.0157
X6.4059Y-3.1157
X6.4059Y-3.2157
X6.4059Y-3.3157
X6.413Y-3.7921
X6.4134Y-3.6776
X6.4138Y-3.4484
X6.4138Y-3.563
X6.513Y-3.7921
X6.5134Y-3.6776
X6.5138Y-3.4484
X6.5138Y-3.563
X6.5173Y-2.6157
X6.5173Y-2.7157
X6.5173Y-2.8157
X6.5173Y-2.9157
X6.5173Y-3.0157
X6.5173Y-3.1157
X6.5173Y-3.2157
X6.5173Y-3.3157
X6.5197Y-2.3984
X6.5197Y-2.4984
T4
X4.0827Y-2.4311
X4.0827Y-2.5689
X4.6122Y-3.9895
X4.75Y-3.9895
T3
G00X4.1732Y-3.6142
M15
G01X4.1732Y-3.6929
M16
G05
G00X4.252Y-3.8386
M15
G01X4.3307Y-3.8386
M16
G05
G00X4.4094Y-3.6142
M15
G01X4.4094Y-3.6929
M16
G05
M30
