%TF.GenerationSoftware,KiCad,Pcbnew,9.0.1*%
%TF.CreationDate,2025-05-07T00:20:05-04:00*%
%TF.ProjectId,nano-shield,6e616e6f-2d73-4686-9965-6c642e6b6963,rev?*%
%TF.SameCoordinates,Original*%
%TF.FileFunction,Copper,L1,Top*%
%TF.FilePolarity,Positive*%
%FSLAX46Y46*%
G04 Gerber Fmt 4.6, Leading zero omitted, Abs format (unit mm)*
G04 Created by KiCad (PCBNEW 9.0.1) date 2025-05-07 00:20:05*
%MOMM*%
%LPD*%
G01*
G04 APERTURE LIST*
G04 Aperture macros list*
%AMRoundRect*
0 Rectangle with rounded corners*
0 $1 Rounding radius*
0 $2 $3 $4 $5 $6 $7 $8 $9 X,Y pos of 4 corners*
0 Add a 4 corners polygon primitive as box body*
4,1,4,$2,$3,$4,$5,$6,$7,$8,$9,$2,$3,0*
0 Add four circle primitives for the rounded corners*
1,1,$1+$1,$2,$3*
1,1,$1+$1,$4,$5*
1,1,$1+$1,$6,$7*
1,1,$1+$1,$8,$9*
0 Add four rect primitives between the rounded corners*
20,1,$1+$1,$2,$3,$4,$5,0*
20,1,$1+$1,$4,$5,$6,$7,0*
20,1,$1+$1,$6,$7,$8,$9,0*
20,1,$1+$1,$8,$9,$2,$3,0*%
G04 Aperture macros list end*
%TA.AperFunction,ComponentPad*%
%ADD10R,1.700000X1.700000*%
%TD*%
%TA.AperFunction,ComponentPad*%
%ADD11C,1.700000*%
%TD*%
%TA.AperFunction,SMDPad,CuDef*%
%ADD12RoundRect,0.250000X-0.337500X-0.475000X0.337500X-0.475000X0.337500X0.475000X-0.337500X0.475000X0*%
%TD*%
%TA.AperFunction,SMDPad,CuDef*%
%ADD13RoundRect,0.250000X-0.450000X0.350000X-0.450000X-0.350000X0.450000X-0.350000X0.450000X0.350000X0*%
%TD*%
%TA.AperFunction,ComponentPad*%
%ADD14R,1.600000X1.600000*%
%TD*%
%TA.AperFunction,ComponentPad*%
%ADD15O,1.600000X1.600000*%
%TD*%
%TA.AperFunction,SMDPad,CuDef*%
%ADD16RoundRect,0.250000X-0.475000X0.337500X-0.475000X-0.337500X0.475000X-0.337500X0.475000X0.337500X0*%
%TD*%
%TA.AperFunction,SMDPad,CuDef*%
%ADD17R,1.600000X1.000000*%
%TD*%
%TA.AperFunction,ComponentPad*%
%ADD18RoundRect,0.250001X0.949999X0.949999X-0.949999X0.949999X-0.949999X-0.949999X0.949999X-0.949999X0*%
%TD*%
%TA.AperFunction,ComponentPad*%
%ADD19C,2.400000*%
%TD*%
%TA.AperFunction,SMDPad,CuDef*%
%ADD20RoundRect,0.250000X0.450000X-0.350000X0.450000X0.350000X-0.450000X0.350000X-0.450000X-0.350000X0*%
%TD*%
%TA.AperFunction,SMDPad,CuDef*%
%ADD21RoundRect,0.250000X-0.550000X1.500000X-0.550000X-1.500000X0.550000X-1.500000X0.550000X1.500000X0*%
%TD*%
%TA.AperFunction,ComponentPad*%
%ADD22R,3.500000X3.500000*%
%TD*%
%TA.AperFunction,ComponentPad*%
%ADD23RoundRect,0.750000X-0.750000X-1.000000X0.750000X-1.000000X0.750000X1.000000X-0.750000X1.000000X0*%
%TD*%
%TA.AperFunction,ComponentPad*%
%ADD24RoundRect,0.875000X-0.875000X-0.875000X0.875000X-0.875000X0.875000X0.875000X-0.875000X0.875000X0*%
%TD*%
%TA.AperFunction,SMDPad,CuDef*%
%ADD25RoundRect,0.250000X-0.300000X0.300000X-0.300000X-0.300000X0.300000X-0.300000X0.300000X0.300000X0*%
%TD*%
%TA.AperFunction,ComponentPad*%
%ADD26RoundRect,0.250001X0.949999X-0.949999X0.949999X0.949999X-0.949999X0.949999X-0.949999X-0.949999X0*%
%TD*%
%TA.AperFunction,ViaPad*%
%ADD27C,1.000000*%
%TD*%
%TA.AperFunction,ViaPad*%
%ADD28C,0.800000*%
%TD*%
%TA.AperFunction,Conductor*%
%ADD29C,0.800000*%
%TD*%
%TA.AperFunction,Conductor*%
%ADD30C,0.250000*%
%TD*%
%TA.AperFunction,Conductor*%
%ADD31C,0.400000*%
%TD*%
%TA.AperFunction,Conductor*%
%ADD32C,0.600000*%
%TD*%
%TA.AperFunction,Conductor*%
%ADD33C,1.500000*%
%TD*%
%TA.AperFunction,Conductor*%
%ADD34C,1.000000*%
%TD*%
G04 APERTURE END LIST*
D10*
%TO.P,J15,1,Pin_1*%
%TO.N,/D4*%
X144905000Y-59605000D03*
D11*
%TO.P,J15,2,Pin_2*%
%TO.N,/D5*%
X142365000Y-59605000D03*
%TO.P,J15,3,Pin_3*%
%TO.N,/D6*%
X139825000Y-59605000D03*
%TO.P,J15,4,Pin_4*%
%TO.N,/D7*%
X137285000Y-59605000D03*
%TD*%
D12*
%TO.P,C4,1*%
%TO.N,+VIN*%
X139425000Y-89000000D03*
%TO.P,C4,2*%
%TO.N,GND*%
X141500000Y-89000000D03*
%TD*%
D10*
%TO.P,J4,1,Pin_1*%
%TO.N,GND*%
X123620000Y-53795000D03*
D11*
%TO.P,J4,2,Pin_2*%
X121080000Y-53795000D03*
%TO.P,J4,3,Pin_3*%
X118540000Y-53795000D03*
%TO.P,J4,4,Pin_4*%
X116000000Y-53795000D03*
%TD*%
D10*
%TO.P,J24,1,Pin_1*%
%TO.N,+5V*%
X165450000Y-87590000D03*
D11*
%TO.P,J24,2,Pin_2*%
X162910000Y-87590000D03*
%TO.P,J24,3,Pin_3*%
X160370000Y-87590000D03*
%TO.P,J24,4,Pin_4*%
X157830000Y-87590000D03*
%TO.P,J24,5,Pin_5*%
X155290000Y-87590000D03*
%TD*%
D10*
%TO.P,J27,1,Pin_1*%
%TO.N,/A0*%
X124820000Y-97390000D03*
D11*
%TO.P,J27,2,Pin_2*%
%TO.N,/A1*%
X127360000Y-97390000D03*
%TO.P,J27,3,Pin_3*%
%TO.N,/A2*%
X129900000Y-97390000D03*
%TO.P,J27,4,Pin_4*%
%TO.N,/A3*%
X132440000Y-97390000D03*
%TD*%
D13*
%TO.P,R1,1*%
%TO.N,/RESET*%
X144800000Y-80500000D03*
%TO.P,R1,2*%
%TO.N,Net-(J22-Pin_1)*%
X144800000Y-82500000D03*
%TD*%
D10*
%TO.P,J21,1,Pin_1*%
%TO.N,GND*%
X165450000Y-90500000D03*
D11*
%TO.P,J21,2,Pin_2*%
X162910000Y-90500000D03*
%TO.P,J21,3,Pin_3*%
X160370000Y-90500000D03*
%TO.P,J21,4,Pin_4*%
X157830000Y-90500000D03*
%TO.P,J21,5,Pin_5*%
X155290000Y-90500000D03*
%TD*%
D14*
%TO.P,A1,1,D1/TX*%
%TO.N,/D1{slash}TX*%
X139550000Y-70390000D03*
D15*
%TO.P,A1,2,D0/RX*%
%TO.N,/D0{slash}RX*%
X137010000Y-70390000D03*
%TO.P,A1,3,~{RESET}*%
%TO.N,unconnected-(A1-~{RESET}-Pad3)*%
X134470000Y-70390000D03*
%TO.P,A1,4,GND*%
%TO.N,GND*%
X131930000Y-70390000D03*
%TO.P,A1,5,D2*%
%TO.N,/D2*%
X129390000Y-70390000D03*
%TO.P,A1,6,D3*%
%TO.N,/D3*%
X126850000Y-70390000D03*
%TO.P,A1,7,D4*%
%TO.N,/D4*%
X124310000Y-70390000D03*
%TO.P,A1,8,D5*%
%TO.N,/D5*%
X121770000Y-70390000D03*
%TO.P,A1,9,D6*%
%TO.N,/D6*%
X119230000Y-70390000D03*
%TO.P,A1,10,D7*%
%TO.N,/D7*%
X116690000Y-70390000D03*
%TO.P,A1,11,D8*%
%TO.N,/D8{slash}CS3{slash}SS*%
X114150000Y-70390000D03*
%TO.P,A1,12,D9*%
%TO.N,/D9{slash}CS2*%
X111610000Y-70390000D03*
%TO.P,A1,13,D10*%
%TO.N,/D10{slash}CS1*%
X109070000Y-70390000D03*
%TO.P,A1,14,D11*%
%TO.N,/D11{slash}MOSI*%
X106530000Y-70390000D03*
%TO.P,A1,15,D12*%
%TO.N,/D12{slash}MISO*%
X103990000Y-70390000D03*
%TO.P,A1,16,D13*%
%TO.N,/D13{slash}SCK*%
X103990000Y-85630000D03*
%TO.P,A1,17,3V3*%
%TO.N,+3.3V*%
X106530000Y-85630000D03*
%TO.P,A1,18,AREF*%
%TO.N,/AREF*%
X109070000Y-85630000D03*
%TO.P,A1,19,A0*%
%TO.N,/A0*%
X111610000Y-85630000D03*
%TO.P,A1,20,A1*%
%TO.N,/A1*%
X114150000Y-85630000D03*
%TO.P,A1,21,A2*%
%TO.N,/A2*%
X116690000Y-85630000D03*
%TO.P,A1,22,A3*%
%TO.N,/A3*%
X119230000Y-85630000D03*
%TO.P,A1,23,A4*%
%TO.N,/A4{slash}SDA*%
X121770000Y-85630000D03*
%TO.P,A1,24,A5*%
%TO.N,/A5{slash}SCL*%
X124310000Y-85630000D03*
%TO.P,A1,25,A6*%
%TO.N,/A6*%
X126850000Y-85630000D03*
%TO.P,A1,26,A7*%
%TO.N,/A7*%
X129390000Y-85630000D03*
%TO.P,A1,27,+5V*%
%TO.N,+5V*%
X131930000Y-85630000D03*
%TO.P,A1,28,~{RESET}*%
%TO.N,/RESET*%
X134470000Y-85630000D03*
%TO.P,A1,29,GND*%
%TO.N,GND*%
X137010000Y-85630000D03*
%TO.P,A1,30,VIN*%
%TO.N,+VIN*%
X139550000Y-85630000D03*
%TD*%
D10*
%TO.P,J6,1,Pin_1*%
%TO.N,/SPI_IO1*%
X165600000Y-63460000D03*
D11*
%TO.P,J6,2,Pin_2*%
%TO.N,/SPI_INT1*%
X165600000Y-60920000D03*
%TD*%
D12*
%TO.P,C2,1*%
%TO.N,/VSP_IN*%
X109982500Y-65200000D03*
%TO.P,C2,2*%
%TO.N,GND*%
X112057500Y-65200000D03*
%TD*%
D10*
%TO.P,J35,1,Pin_1*%
%TO.N,GND*%
X124800000Y-103210000D03*
D11*
%TO.P,J35,2,Pin_2*%
X127340000Y-103210000D03*
%TO.P,J35,3,Pin_3*%
X129880000Y-103210000D03*
%TO.P,J35,4,Pin_4*%
X132420000Y-103210000D03*
%TD*%
D16*
%TO.P,C8,1*%
%TO.N,+5V*%
X149950000Y-100340000D03*
%TO.P,C8,2*%
%TO.N,GND*%
X149950000Y-102415000D03*
%TD*%
D10*
%TO.P,J36,1,Pin_1*%
%TO.N,GND*%
X135500000Y-103160000D03*
D11*
%TO.P,J36,2,Pin_2*%
X138040000Y-103160000D03*
%TO.P,J36,3,Pin_3*%
X140580000Y-103160000D03*
%TO.P,J36,4,Pin_4*%
X143120000Y-103160000D03*
%TD*%
D17*
%TO.P,SW1,1,A*%
%TO.N,/VSP_IN*%
X109650000Y-59600000D03*
%TO.P,SW1,2,B*%
%TO.N,VSP*%
X109650000Y-57100000D03*
%TO.P,SW1,3,C*%
%TO.N,unconnected-(SW1-C-Pad3)*%
X109650000Y-54600000D03*
%TO.P,SW1,4,A*%
%TO.N,+5V*%
X112050000Y-59600000D03*
%TO.P,SW1,5,B*%
%TO.N,VSP*%
X112050000Y-57100000D03*
%TO.P,SW1,6,C*%
%TO.N,unconnected-(SW1-C-Pad6)*%
X112050000Y-54600000D03*
%TD*%
D10*
%TO.P,J32,1,Pin_1*%
%TO.N,+5V*%
X135500000Y-100250000D03*
D11*
%TO.P,J32,2,Pin_2*%
X138040000Y-100250000D03*
%TO.P,J32,3,Pin_3*%
X140580000Y-100250000D03*
%TO.P,J32,4,Pin_4*%
X143120000Y-100250000D03*
%TD*%
D16*
%TO.P,C7,1*%
%TO.N,+5V*%
X147840000Y-100340000D03*
%TO.P,C7,2*%
%TO.N,GND*%
X147840000Y-102415000D03*
%TD*%
D10*
%TO.P,J18,1,Pin_1*%
%TO.N,GND*%
X162710000Y-84220000D03*
D11*
%TO.P,J18,2,Pin_2*%
%TO.N,VCC*%
X162710000Y-81680000D03*
%TO.P,J18,3,Pin_3*%
%TO.N,/D13{slash}SCK*%
X162710000Y-79140000D03*
%TO.P,J18,4,Pin_4*%
%TO.N,/D12{slash}MISO*%
X162710000Y-76600000D03*
%TO.P,J18,5,Pin_5*%
%TO.N,/D11{slash}MOSI*%
X162710000Y-74060000D03*
%TO.P,J18,6,Pin_6*%
%TO.N,/D9{slash}CS2*%
X162710000Y-71520000D03*
%TO.P,J18,7,Pin_7*%
%TO.N,/SPI_INT2*%
X162710000Y-68980000D03*
%TO.P,J18,8,Pin_8*%
%TO.N,/SPI_IO2*%
X162710000Y-66440000D03*
%TD*%
D18*
%TO.P,J33,1,Pin_1*%
%TO.N,+VIN*%
X120650000Y-101332500D03*
D19*
%TO.P,J33,2,Pin_2*%
%TO.N,GND*%
X117150000Y-101332500D03*
%TD*%
D10*
%TO.P,J3,1,Pin_1*%
%TO.N,GND*%
X134255000Y-53805000D03*
D11*
%TO.P,J3,2,Pin_2*%
X131715000Y-53805000D03*
%TO.P,J3,3,Pin_3*%
X129175000Y-53805000D03*
%TO.P,J3,4,Pin_4*%
X126635000Y-53805000D03*
%TD*%
D10*
%TO.P,J2,1,Pin_1*%
%TO.N,GND*%
X144905000Y-53805000D03*
D11*
%TO.P,J2,2,Pin_2*%
X142365000Y-53805000D03*
%TO.P,J2,3,Pin_3*%
X139825000Y-53805000D03*
%TO.P,J2,4,Pin_4*%
X137285000Y-53805000D03*
%TD*%
D10*
%TO.P,J22,1,Pin_1*%
%TO.N,Net-(J22-Pin_1)*%
X147300000Y-84370000D03*
D11*
%TO.P,J22,2,Pin_2*%
%TO.N,/UART_IO2*%
X149840000Y-84370000D03*
%TD*%
D10*
%TO.P,J12,1,Pin_1*%
%TO.N,GND*%
X165540000Y-84220000D03*
D11*
%TO.P,J12,2,Pin_2*%
%TO.N,VCC*%
X165540000Y-81680000D03*
%TO.P,J12,3,Pin_3*%
%TO.N,/D13{slash}SCK*%
X165540000Y-79140000D03*
%TO.P,J12,4,Pin_4*%
%TO.N,/D12{slash}MISO*%
X165540000Y-76600000D03*
%TO.P,J12,5,Pin_5*%
%TO.N,/D11{slash}MOSI*%
X165540000Y-74060000D03*
%TO.P,J12,6,Pin_6*%
%TO.N,/D10{slash}CS1*%
X165540000Y-71520000D03*
%TO.P,J12,7,Pin_7*%
%TO.N,/SPI_INT1*%
X165540000Y-68980000D03*
%TO.P,J12,8,Pin_8*%
%TO.N,/SPI_IO1*%
X165540000Y-66440000D03*
%TD*%
D10*
%TO.P,J34,1,Pin_1*%
%TO.N,/A5{slash}SCL*%
X165440000Y-93410000D03*
D11*
%TO.P,J34,2,Pin_2*%
X162900000Y-93410000D03*
%TO.P,J34,3,Pin_3*%
X160360000Y-93410000D03*
%TO.P,J34,4,Pin_4*%
X157820000Y-93410000D03*
%TO.P,J34,5,Pin_5*%
X155280000Y-93410000D03*
%TD*%
D10*
%TO.P,J10,1,Pin_1*%
%TO.N,VSP*%
X134250000Y-56705000D03*
D11*
%TO.P,J10,2,Pin_2*%
X131710000Y-56705000D03*
%TO.P,J10,3,Pin_3*%
X129170000Y-56705000D03*
%TO.P,J10,4,Pin_4*%
X126630000Y-56705000D03*
%TD*%
D12*
%TO.P,C1,1*%
%TO.N,/VSP_IN*%
X109982500Y-63080000D03*
%TO.P,C1,2*%
%TO.N,GND*%
X112057500Y-63080000D03*
%TD*%
%TO.P,C5,1*%
%TO.N,+VIN*%
X139425000Y-91250000D03*
%TO.P,C5,2*%
%TO.N,GND*%
X141500000Y-91250000D03*
%TD*%
D20*
%TO.P,R2,1*%
%TO.N,GND*%
X144800000Y-86290000D03*
%TO.P,R2,2*%
%TO.N,Net-(J22-Pin_1)*%
X144800000Y-84290000D03*
%TD*%
D21*
%TO.P,C3,1*%
%TO.N,+VIN*%
X121790000Y-89620000D03*
%TO.P,C3,2*%
%TO.N,GND*%
X121790000Y-95020000D03*
%TD*%
D10*
%TO.P,J20,1,Pin_1*%
%TO.N,GND*%
X159880000Y-84220000D03*
D11*
%TO.P,J20,2,Pin_2*%
%TO.N,VCC*%
X159880000Y-81680000D03*
%TO.P,J20,3,Pin_3*%
%TO.N,/D13{slash}SCK*%
X159880000Y-79140000D03*
%TO.P,J20,4,Pin_4*%
%TO.N,/D12{slash}MISO*%
X159880000Y-76600000D03*
%TO.P,J20,5,Pin_5*%
%TO.N,/D11{slash}MOSI*%
X159880000Y-74060000D03*
%TO.P,J20,6,Pin_6*%
%TO.N,/D8{slash}CS3{slash}SS*%
X159880000Y-71520000D03*
%TO.P,J20,7,Pin_7*%
%TO.N,/SPI_INT3*%
X159880000Y-68980000D03*
%TO.P,J20,8,Pin_8*%
%TO.N,/SPI_IO3*%
X159880000Y-66440000D03*
%TD*%
D10*
%TO.P,J25,1,Pin_1*%
%TO.N,+VIN*%
X127800000Y-90100000D03*
D11*
%TO.P,J25,2,Pin_2*%
X130340000Y-90100000D03*
%TD*%
D10*
%TO.P,J14,1,Pin_1*%
%TO.N,/D0{slash}RX*%
X155555000Y-59605000D03*
D11*
%TO.P,J14,2,Pin_2*%
%TO.N,/D1{slash}TX*%
X153015000Y-59605000D03*
%TO.P,J14,3,Pin_3*%
%TO.N,/D2*%
X150475000Y-59605000D03*
%TO.P,J14,4,Pin_4*%
%TO.N,/D3*%
X147935000Y-59605000D03*
%TD*%
D22*
%TO.P,J7,1*%
%TO.N,Net-(D1-A)*%
X112000000Y-92800000D03*
D23*
%TO.P,J7,2*%
%TO.N,GND*%
X106000000Y-92800000D03*
D24*
%TO.P,J7,3*%
X109000000Y-97500000D03*
%TD*%
D17*
%TO.P,SW2,1,A*%
%TO.N,+5V*%
X146360000Y-74230000D03*
%TO.P,SW2,2,B*%
%TO.N,VCC*%
X146360000Y-71730000D03*
%TO.P,SW2,3,C*%
%TO.N,unconnected-(SW2-C-Pad3)*%
X146360000Y-69230000D03*
%TO.P,SW2,4,A*%
%TO.N,+3.3V*%
X148760000Y-74230000D03*
%TO.P,SW2,5,B*%
%TO.N,VCC*%
X148760000Y-71730000D03*
%TO.P,SW2,6,C*%
%TO.N,unconnected-(SW2-C-Pad6)*%
X148760000Y-69230000D03*
%TD*%
D10*
%TO.P,J31,1,Pin_1*%
%TO.N,+5V*%
X124810000Y-100300000D03*
D11*
%TO.P,J31,2,Pin_2*%
X127350000Y-100300000D03*
%TO.P,J31,3,Pin_3*%
X129890000Y-100300000D03*
%TO.P,J31,4,Pin_4*%
X132430000Y-100300000D03*
%TD*%
D10*
%TO.P,J19,1,Pin_1*%
%TO.N,/SPI_IO3*%
X159810000Y-63450000D03*
D11*
%TO.P,J19,2,Pin_2*%
%TO.N,/SPI_INT3*%
X159810000Y-60910000D03*
%TD*%
D12*
%TO.P,C6,1*%
%TO.N,/RESET*%
X146712500Y-78850000D03*
%TO.P,C6,2*%
%TO.N,/DTR*%
X148787500Y-78850000D03*
%TD*%
D10*
%TO.P,J28,1,Pin_1*%
%TO.N,/A4{slash}SDA*%
X135510000Y-97340000D03*
D11*
%TO.P,J28,2,Pin_2*%
%TO.N,/A5{slash}SCL*%
X138050000Y-97340000D03*
%TO.P,J28,3,Pin_3*%
%TO.N,/A6*%
X140590000Y-97340000D03*
%TO.P,J28,4,Pin_4*%
%TO.N,/A7*%
X143130000Y-97340000D03*
%TD*%
D10*
%TO.P,J1,1,Pin_1*%
%TO.N,GND*%
X155565000Y-53805000D03*
D11*
%TO.P,J1,2,Pin_2*%
X153025000Y-53805000D03*
%TO.P,J1,3,Pin_3*%
X150485000Y-53805000D03*
%TO.P,J1,4,Pin_4*%
X147945000Y-53805000D03*
%TD*%
D10*
%TO.P,J26,1,Pin_1*%
%TO.N,GND*%
X127780000Y-93100000D03*
D11*
%TO.P,J26,2,Pin_2*%
X130320000Y-93100000D03*
%TD*%
D10*
%TO.P,J23,1,Pin_1*%
%TO.N,/UART_IO1*%
X147310000Y-81410000D03*
D11*
%TO.P,J23,2,Pin_2*%
X149850000Y-81410000D03*
%TD*%
D10*
%TO.P,J17,1,Pin_1*%
%TO.N,/D12{slash}MISO*%
X123610000Y-59615000D03*
D11*
%TO.P,J17,2,Pin_2*%
%TO.N,/D13{slash}SCK*%
X121070000Y-59615000D03*
%TO.P,J17,3,Pin_3*%
%TO.N,/AREF*%
X118530000Y-59615000D03*
%TO.P,J17,4,Pin_4*%
%TO.N,+3.3V*%
X115990000Y-59615000D03*
%TD*%
D10*
%TO.P,J16,1,Pin_1*%
%TO.N,/D8{slash}CS3{slash}SS*%
X134250000Y-59610000D03*
D11*
%TO.P,J16,2,Pin_2*%
%TO.N,/D9{slash}CS2*%
X131710000Y-59610000D03*
%TO.P,J16,3,Pin_3*%
%TO.N,/D10{slash}CS1*%
X129170000Y-59610000D03*
%TO.P,J16,4,Pin_4*%
%TO.N,/D11{slash}MOSI*%
X126630000Y-59610000D03*
%TD*%
D10*
%TO.P,J11,1,Pin_1*%
%TO.N,VSP*%
X123610000Y-56705000D03*
D11*
%TO.P,J11,2,Pin_2*%
X121070000Y-56705000D03*
%TO.P,J11,3,Pin_3*%
X118530000Y-56705000D03*
%TO.P,J11,4,Pin_4*%
X115990000Y-56705000D03*
%TD*%
D10*
%TO.P,J30,1,Pin_1*%
%TO.N,/A4{slash}SDA*%
X165430000Y-96320000D03*
D11*
%TO.P,J30,2,Pin_2*%
X162890000Y-96320000D03*
%TO.P,J30,3,Pin_3*%
X160350000Y-96320000D03*
%TO.P,J30,4,Pin_4*%
X157810000Y-96320000D03*
%TO.P,J30,5,Pin_5*%
X155270000Y-96320000D03*
%TD*%
D10*
%TO.P,J29,1,Pin_1*%
%TO.N,GND*%
X152780000Y-66640000D03*
D11*
%TO.P,J29,2,Pin_2*%
%TO.N,/CTS*%
X152780000Y-69180000D03*
%TO.P,J29,3,Pin_3*%
%TO.N,VCC*%
X152780000Y-71720000D03*
%TO.P,J29,4,Pin_4*%
%TO.N,/D1{slash}TX*%
X152780000Y-74260000D03*
%TO.P,J29,5,Pin_5*%
%TO.N,/D0{slash}RX*%
X152780000Y-76800000D03*
%TO.P,J29,6,Pin_6*%
%TO.N,/DTR*%
X152780000Y-79340000D03*
%TO.P,J29,7,Pin_7*%
%TO.N,/UART_IO1*%
X152780000Y-81880000D03*
%TO.P,J29,8,Pin_8*%
%TO.N,/UART_IO2*%
X152780000Y-84420000D03*
%TD*%
D25*
%TO.P,D1,1,K*%
%TO.N,+VIN*%
X115750000Y-89950000D03*
%TO.P,D1,2,A*%
%TO.N,Net-(D1-A)*%
X115750000Y-92750000D03*
%TD*%
D10*
%TO.P,J8,1,Pin_1*%
%TO.N,VSP*%
X155565000Y-56705000D03*
D11*
%TO.P,J8,2,Pin_2*%
X153025000Y-56705000D03*
%TO.P,J8,3,Pin_3*%
X150485000Y-56705000D03*
%TO.P,J8,4,Pin_4*%
X147945000Y-56705000D03*
%TD*%
D10*
%TO.P,J13,1,Pin_1*%
%TO.N,/SPI_IO2*%
X162710000Y-63460000D03*
D11*
%TO.P,J13,2,Pin_2*%
%TO.N,/SPI_INT2*%
X162710000Y-60920000D03*
%TD*%
D26*
%TO.P,J5,1,Pin_1*%
%TO.N,GND*%
X103700000Y-65250000D03*
D19*
%TO.P,J5,2,Pin_2*%
%TO.N,/VSP_IN*%
X103700000Y-61750000D03*
%TD*%
D10*
%TO.P,J9,1,Pin_1*%
%TO.N,VSP*%
X144915000Y-56705000D03*
D11*
%TO.P,J9,2,Pin_2*%
X142375000Y-56705000D03*
%TO.P,J9,3,Pin_3*%
X139835000Y-56705000D03*
%TO.P,J9,4,Pin_4*%
X137295000Y-56705000D03*
%TD*%
D27*
%TO.N,+5V*%
X147840000Y-100340000D03*
D28*
%TO.N,+3.3V*%
X108270000Y-83050000D03*
%TO.N,/D8{slash}CS3{slash}SS*%
X158090000Y-70050000D03*
X156880463Y-65729537D03*
D27*
%TO.N,GND*%
X141520000Y-93600000D03*
X119600000Y-96350000D03*
D28*
X148580000Y-62800000D03*
X153950000Y-62800000D03*
%TO.N,/D1{slash}TX*%
X146740000Y-70520000D03*
X142230000Y-70390000D03*
%TD*%
D29*
%TO.N,+5V*%
X147850000Y-100330000D02*
X147860000Y-100330000D01*
X112530000Y-59600000D02*
X113246000Y-60316000D01*
X113246000Y-60316000D02*
X113246000Y-66103000D01*
X113246000Y-66103000D02*
X111660000Y-67689000D01*
X101309000Y-69158215D02*
X101309000Y-85929000D01*
X155290000Y-87590000D02*
X165450000Y-87590000D01*
X130361000Y-87199000D02*
X131930000Y-85630000D01*
X147775000Y-100275000D02*
X147840000Y-100340000D01*
X149935000Y-100330000D02*
X149940000Y-100335000D01*
X102778214Y-67689000D02*
X101309000Y-69158215D01*
X102579000Y-87199000D02*
X130361000Y-87199000D01*
X143330000Y-74230000D02*
X146360000Y-74230000D01*
X101309000Y-85929000D02*
X102579000Y-87199000D01*
X112050000Y-59600000D02*
X112530000Y-59600000D01*
X124810000Y-100300000D02*
X147800000Y-100300000D01*
X147800000Y-100300000D02*
X147840000Y-100340000D01*
X147850000Y-100330000D02*
X149935000Y-100330000D01*
X147840000Y-100340000D02*
X147850000Y-100330000D01*
X147767500Y-100267500D02*
X147840000Y-100340000D01*
X111660000Y-67689000D02*
X102778214Y-67689000D01*
X131930000Y-85630000D02*
X143330000Y-74230000D01*
D30*
%TO.N,/D9{slash}CS2*%
X159406000Y-70156000D02*
X159392884Y-70156000D01*
X161430000Y-70240000D02*
X159490000Y-70240000D01*
X159490000Y-70240000D02*
X159406000Y-70156000D01*
X157670000Y-67544380D02*
X154293620Y-64168000D01*
X158704000Y-69454000D02*
X157670000Y-68420000D01*
X136268000Y-64168000D02*
X131710000Y-59610000D01*
X162710000Y-71520000D02*
X161430000Y-70240000D01*
X159392884Y-70156000D02*
X158704000Y-69467116D01*
X157670000Y-68420000D02*
X157670000Y-67544380D01*
X154293620Y-64168000D02*
X136268000Y-64168000D01*
X158704000Y-69467116D02*
X158704000Y-69454000D01*
%TO.N,/RESET*%
X144800000Y-80500000D02*
X144800000Y-79160000D01*
X144800000Y-79160000D02*
X145110000Y-78850000D01*
X144800000Y-79160000D02*
X144520000Y-78880000D01*
X140398306Y-78880000D02*
X144520000Y-78880000D01*
X134470000Y-84808306D02*
X140398306Y-78880000D01*
X134470000Y-85630000D02*
X134470000Y-84808306D01*
X145110000Y-78850000D02*
X146712500Y-78850000D01*
D31*
%TO.N,+3.3V*%
X103110000Y-68490000D02*
X113470000Y-68490000D01*
D32*
X108300000Y-83050000D02*
X118121000Y-73229000D01*
D31*
X102110000Y-81210000D02*
X102110000Y-69490000D01*
X115990000Y-65970000D02*
X115990000Y-59615000D01*
X113470000Y-68490000D02*
X115990000Y-65970000D01*
D32*
X108270000Y-83050000D02*
X108300000Y-83050000D01*
D31*
X106530000Y-85630000D02*
X102110000Y-81210000D01*
D32*
X118121000Y-73229000D02*
X147759000Y-73229000D01*
D31*
X102110000Y-69490000D02*
X103110000Y-68490000D01*
D32*
X147759000Y-73229000D02*
X148760000Y-74230000D01*
D30*
%TO.N,/D8{slash}CS3{slash}SS*%
X138350000Y-63710000D02*
X134250000Y-59610000D01*
X154860926Y-63710000D02*
X138350000Y-63710000D01*
X156880463Y-65729537D02*
X154860926Y-63710000D01*
X158090000Y-70050000D02*
X158090000Y-70810000D01*
X158090000Y-70810000D02*
X158800000Y-71520000D01*
X158800000Y-71520000D02*
X159880000Y-71520000D01*
%TO.N,/D12{slash}MISO*%
X158360000Y-76600000D02*
X156317000Y-74557000D01*
X156317000Y-70777000D02*
X153356000Y-67816000D01*
X165540000Y-76600000D02*
X159880000Y-76600000D01*
X131811000Y-67816000D02*
X123610000Y-59615000D01*
X156317000Y-74557000D02*
X156317000Y-70777000D01*
X153356000Y-67816000D02*
X131811000Y-67816000D01*
X159880000Y-76600000D02*
X158360000Y-76600000D01*
%TO.N,/AREF*%
X102770000Y-79330000D02*
X109070000Y-85630000D01*
X102770000Y-69900000D02*
X102770000Y-79330000D01*
X103650000Y-69020000D02*
X102770000Y-69900000D01*
X118530000Y-59615000D02*
X118530000Y-64850000D01*
X118530000Y-64850000D02*
X114360000Y-69020000D01*
X114360000Y-69020000D02*
X103650000Y-69020000D01*
%TO.N,/D13{slash}SCK*%
X155866000Y-75866000D02*
X155866000Y-72406000D01*
X149842000Y-68360000D02*
X129815000Y-68360000D01*
X151932000Y-70450000D02*
X149842000Y-68360000D01*
X159140000Y-79140000D02*
X155866000Y-75866000D01*
X165540000Y-79140000D02*
X159880000Y-79140000D01*
X155866000Y-72406000D02*
X153910000Y-70450000D01*
X153910000Y-70450000D02*
X151932000Y-70450000D01*
X129815000Y-68360000D02*
X121070000Y-59615000D01*
X159880000Y-79140000D02*
X159140000Y-79140000D01*
D33*
%TO.N,GND*%
X137010000Y-84840000D02*
X137010000Y-85630000D01*
X138320000Y-83530000D02*
X137010000Y-84840000D01*
X127780000Y-93100000D02*
X123600000Y-93100000D01*
D29*
X112057500Y-64150000D02*
X112057500Y-63080000D01*
X143120000Y-103160000D02*
X124850000Y-103160000D01*
X149935000Y-102405000D02*
X147860000Y-102405000D01*
D33*
X141500000Y-84620000D02*
X140410000Y-83530000D01*
D29*
X124850000Y-103160000D02*
X124800000Y-103210000D01*
X112057500Y-65200000D02*
X112057500Y-65862500D01*
X162910000Y-90500000D02*
X155290000Y-90500000D01*
X155555000Y-53795000D02*
X155565000Y-53805000D01*
X112057500Y-65200000D02*
X112057500Y-64150000D01*
D33*
X123600000Y-93100000D02*
X121750000Y-94950000D01*
D30*
X144800000Y-86320000D02*
X144790000Y-86330000D01*
D33*
X141500000Y-91250000D02*
X141500000Y-89000000D01*
D29*
X111350000Y-66570000D02*
X105020000Y-66570000D01*
X112057500Y-65862500D02*
X111350000Y-66570000D01*
D33*
X141500000Y-89000000D02*
X141500000Y-84620000D01*
D34*
X141520000Y-93600000D02*
X141500000Y-93580000D01*
D30*
X144790000Y-86330000D02*
X141500000Y-86330000D01*
D29*
X147130000Y-103135000D02*
X147105000Y-103160000D01*
X112047500Y-64160000D02*
X112057500Y-64150000D01*
X147860000Y-102405000D02*
X147137500Y-103127500D01*
X147105000Y-103160000D02*
X143120000Y-103160000D01*
X116000000Y-53795000D02*
X155555000Y-53795000D01*
D33*
X140410000Y-83530000D02*
X138320000Y-83530000D01*
D34*
X141500000Y-93580000D02*
X141500000Y-91250000D01*
D33*
X120350000Y-96350000D02*
X119600000Y-96350000D01*
X121750000Y-94950000D02*
X120350000Y-96350000D01*
D29*
X105020000Y-66570000D02*
X103700000Y-65250000D01*
X149940000Y-102410000D02*
X149935000Y-102405000D01*
D31*
X153935000Y-62800000D02*
X148565000Y-62800000D01*
D29*
X147137500Y-103127500D02*
X147130000Y-103135000D01*
D30*
%TO.N,/D10{slash}CS1*%
X164364000Y-72696000D02*
X165540000Y-71520000D01*
X157219000Y-67731190D02*
X157219000Y-71520000D01*
X157219000Y-71520000D02*
X158395000Y-72696000D01*
X158395000Y-72696000D02*
X164364000Y-72696000D01*
X134179000Y-64619000D02*
X154106810Y-64619000D01*
X129170000Y-59610000D02*
X134179000Y-64619000D01*
X154106810Y-64619000D02*
X157219000Y-67731190D01*
%TO.N,/D11{slash}MOSI*%
X165540000Y-74060000D02*
X159880000Y-74060000D01*
X153920000Y-65070000D02*
X132090000Y-65070000D01*
X159880000Y-74060000D02*
X157480000Y-74060000D01*
X132090000Y-65070000D02*
X126630000Y-59610000D01*
X157480000Y-74060000D02*
X156768000Y-73348000D01*
X156768000Y-73348000D02*
X156768000Y-67918000D01*
X156768000Y-67918000D02*
X153920000Y-65070000D01*
%TO.N,/D1{slash}TX*%
X146740000Y-70520000D02*
X142360000Y-70520000D01*
X142360000Y-70520000D02*
X142230000Y-70390000D01*
D33*
%TO.N,+VIN*%
X139425000Y-89000000D02*
X139425000Y-85755000D01*
X122300000Y-90100000D02*
X127800000Y-90100000D01*
X117600000Y-93700000D02*
X121750000Y-89550000D01*
X121750000Y-89550000D02*
X122300000Y-90100000D01*
X117600000Y-98282500D02*
X117600000Y-93700000D01*
X130340000Y-90100000D02*
X138325000Y-90100000D01*
X139425000Y-85755000D02*
X139550000Y-85630000D01*
X138325000Y-90100000D02*
X139425000Y-89000000D01*
X139425000Y-91250000D02*
X139425000Y-89000000D01*
X115750000Y-89950000D02*
X121350000Y-89950000D01*
X121350000Y-89950000D02*
X121750000Y-89550000D01*
X120650000Y-101332500D02*
X117600000Y-98282500D01*
X127800000Y-90100000D02*
X130340000Y-90100000D01*
D29*
%TO.N,VSP*%
X110160000Y-57130000D02*
X112560000Y-57130000D01*
X112560000Y-57130000D02*
X115565000Y-57130000D01*
X115990000Y-56705000D02*
X155565000Y-56705000D01*
X115565000Y-57130000D02*
X115990000Y-56705000D01*
D30*
%TO.N,/DTR*%
X148787500Y-78850000D02*
X152290000Y-78850000D01*
X152290000Y-78850000D02*
X152780000Y-79340000D01*
D33*
%TO.N,Net-(D1-A)*%
X112250000Y-92750000D02*
X115750000Y-92750000D01*
D30*
%TO.N,/SPI_IO1*%
X165600000Y-66380000D02*
X165540000Y-66440000D01*
X165600000Y-63460000D02*
X165600000Y-66380000D01*
%TO.N,/SPI_INT1*%
X165600000Y-61030000D02*
X165710000Y-61030000D01*
X166776000Y-67744000D02*
X165540000Y-68980000D01*
X166776000Y-62096000D02*
X166776000Y-67744000D01*
X165710000Y-61030000D02*
X166776000Y-62096000D01*
D29*
%TO.N,VCC*%
X146360000Y-71730000D02*
X148760000Y-71730000D01*
X155140000Y-73810000D02*
X155140000Y-79160000D01*
X148760000Y-71730000D02*
X152770000Y-71730000D01*
X155140000Y-79160000D02*
X157660000Y-81680000D01*
X153050000Y-71720000D02*
X155140000Y-73810000D01*
X157660000Y-81680000D02*
X159880000Y-81680000D01*
X152770000Y-71730000D02*
X152780000Y-71720000D01*
X159880000Y-81680000D02*
X165540000Y-81680000D01*
X152780000Y-71720000D02*
X153050000Y-71720000D01*
D30*
%TO.N,/SPI_IO2*%
X162710000Y-63460000D02*
X162710000Y-66440000D01*
%TO.N,/SPI_INT2*%
X162710000Y-61030000D02*
X162820000Y-61030000D01*
X163886000Y-62096000D02*
X163886000Y-67804000D01*
X163886000Y-67804000D02*
X162710000Y-68980000D01*
X162820000Y-61030000D02*
X163886000Y-62096000D01*
%TO.N,/SPI_INT3*%
X158570000Y-62260000D02*
X159810000Y-61020000D01*
X159810000Y-61020000D02*
X159810000Y-60910000D01*
X159880000Y-68980000D02*
X158570000Y-67670000D01*
X158570000Y-67670000D02*
X158570000Y-62260000D01*
%TO.N,/SPI_IO3*%
X159810000Y-63560000D02*
X159810000Y-66370000D01*
X159810000Y-66370000D02*
X159880000Y-66440000D01*
%TO.N,Net-(J22-Pin_1)*%
X144880000Y-84370000D02*
X144800000Y-84290000D01*
X144860000Y-84310000D02*
X144850000Y-84300000D01*
X147300000Y-84370000D02*
X144880000Y-84370000D01*
X144800000Y-84290000D02*
X144800000Y-82500000D01*
%TO.N,/UART_IO2*%
X152780000Y-84420000D02*
X149890000Y-84420000D01*
X149890000Y-84420000D02*
X149840000Y-84370000D01*
%TO.N,/UART_IO1*%
X152310000Y-81410000D02*
X152780000Y-81880000D01*
X147310000Y-81410000D02*
X149850000Y-81410000D01*
X149850000Y-81410000D02*
X152310000Y-81410000D01*
D29*
%TO.N,/VSP_IN*%
X108652500Y-61750000D02*
X109982500Y-63080000D01*
X103700000Y-61750000D02*
X108652500Y-61750000D01*
X109982500Y-63080000D02*
X109982500Y-59932500D01*
X109982500Y-59932500D02*
X109650000Y-59600000D01*
X109982500Y-65200000D02*
X109982500Y-63080000D01*
D30*
%TO.N,/A5{slash}SCL*%
X155280000Y-93410000D02*
X165440000Y-93410000D01*
X139620000Y-95770000D02*
X152920000Y-95770000D01*
X152920000Y-95770000D02*
X155280000Y-93410000D01*
X138050000Y-97340000D02*
X139620000Y-95770000D01*
%TO.N,/A4{slash}SDA*%
X135510000Y-97340000D02*
X136960000Y-98790000D01*
X136960000Y-98790000D02*
X152800000Y-98790000D01*
X152800000Y-98790000D02*
X155270000Y-96320000D01*
X165430000Y-96320000D02*
X155270000Y-96320000D01*
%TD*%
M02*
