%TF.GenerationSoftware,KiCad,Pcbnew,9.0.1*%
%TF.CreationDate,2025-05-07T00:20:05-04:00*%
%TF.ProjectId,nano-shield,6e616e6f-2d73-4686-9965-6c642e6b6963,rev?*%
%TF.SameCoordinates,Original*%
%TF.FileFunction,Soldermask,Top*%
%TF.FilePolarity,Negative*%
%FSLAX46Y46*%
G04 Gerber Fmt 4.6, Leading zero omitted, Abs format (unit mm)*
G04 Created by KiCad (PCBNEW 9.0.1) date 2025-05-07 00:20:05*
%MOMM*%
%LPD*%
G01*
G04 APERTURE LIST*
G04 Aperture macros list*
%AMRoundRect*
0 Rectangle with rounded corners*
0 $1 Rounding radius*
0 $2 $3 $4 $5 $6 $7 $8 $9 X,Y pos of 4 corners*
0 Add a 4 corners polygon primitive as box body*
4,1,4,$2,$3,$4,$5,$6,$7,$8,$9,$2,$3,0*
0 Add four circle primitives for the rounded corners*
1,1,$1+$1,$2,$3*
1,1,$1+$1,$4,$5*
1,1,$1+$1,$6,$7*
1,1,$1+$1,$8,$9*
0 Add four rect primitives between the rounded corners*
20,1,$1+$1,$2,$3,$4,$5,0*
20,1,$1+$1,$4,$5,$6,$7,0*
20,1,$1+$1,$6,$7,$8,$9,0*
20,1,$1+$1,$8,$9,$2,$3,0*%
G04 Aperture macros list end*
%ADD10R,1.700000X1.700000*%
%ADD11C,1.700000*%
%ADD12RoundRect,0.250000X-0.337500X-0.475000X0.337500X-0.475000X0.337500X0.475000X-0.337500X0.475000X0*%
%ADD13RoundRect,0.250000X-0.450000X0.350000X-0.450000X-0.350000X0.450000X-0.350000X0.450000X0.350000X0*%
%ADD14R,1.600000X1.600000*%
%ADD15O,1.600000X1.600000*%
%ADD16C,3.200000*%
%ADD17RoundRect,0.250000X-0.475000X0.337500X-0.475000X-0.337500X0.475000X-0.337500X0.475000X0.337500X0*%
%ADD18R,1.600000X1.000000*%
%ADD19RoundRect,0.250001X0.949999X0.949999X-0.949999X0.949999X-0.949999X-0.949999X0.949999X-0.949999X0*%
%ADD20C,2.400000*%
%ADD21RoundRect,0.250000X0.450000X-0.350000X0.450000X0.350000X-0.450000X0.350000X-0.450000X-0.350000X0*%
%ADD22RoundRect,0.250000X-0.550000X1.500000X-0.550000X-1.500000X0.550000X-1.500000X0.550000X1.500000X0*%
%ADD23R,3.500000X3.500000*%
%ADD24RoundRect,0.750000X-0.750000X-1.000000X0.750000X-1.000000X0.750000X1.000000X-0.750000X1.000000X0*%
%ADD25RoundRect,0.875000X-0.875000X-0.875000X0.875000X-0.875000X0.875000X0.875000X-0.875000X0.875000X0*%
%ADD26RoundRect,0.250000X-0.300000X0.300000X-0.300000X-0.300000X0.300000X-0.300000X0.300000X0.300000X0*%
%ADD27RoundRect,0.250001X0.949999X-0.949999X0.949999X0.949999X-0.949999X0.949999X-0.949999X-0.949999X0*%
G04 APERTURE END LIST*
D10*
%TO.C,J15*%
X144905000Y-59605000D03*
D11*
X142365000Y-59605000D03*
X139825000Y-59605000D03*
X137285000Y-59605000D03*
%TD*%
D12*
%TO.C,C4*%
X139425000Y-89000000D03*
X141500000Y-89000000D03*
%TD*%
D10*
%TO.C,J4*%
X123620000Y-53795000D03*
D11*
X121080000Y-53795000D03*
X118540000Y-53795000D03*
X116000000Y-53795000D03*
%TD*%
D10*
%TO.C,J24*%
X165450000Y-87590000D03*
D11*
X162910000Y-87590000D03*
X160370000Y-87590000D03*
X157830000Y-87590000D03*
X155290000Y-87590000D03*
%TD*%
D10*
%TO.C,J27*%
X124820000Y-97390000D03*
D11*
X127360000Y-97390000D03*
X129900000Y-97390000D03*
X132440000Y-97390000D03*
%TD*%
D13*
%TO.C,R1*%
X144800000Y-80500000D03*
X144800000Y-82500000D03*
%TD*%
D10*
%TO.C,J21*%
X165450000Y-90500000D03*
D11*
X162910000Y-90500000D03*
X160370000Y-90500000D03*
X157830000Y-90500000D03*
X155290000Y-90500000D03*
%TD*%
D14*
%TO.C,A1*%
X139550000Y-70390000D03*
D15*
X137010000Y-70390000D03*
X134470000Y-70390000D03*
X131930000Y-70390000D03*
X129390000Y-70390000D03*
X126850000Y-70390000D03*
X124310000Y-70390000D03*
X121770000Y-70390000D03*
X119230000Y-70390000D03*
X116690000Y-70390000D03*
X114150000Y-70390000D03*
X111610000Y-70390000D03*
X109070000Y-70390000D03*
X106530000Y-70390000D03*
X103990000Y-70390000D03*
X103990000Y-85630000D03*
X106530000Y-85630000D03*
X109070000Y-85630000D03*
X111610000Y-85630000D03*
X114150000Y-85630000D03*
X116690000Y-85630000D03*
X119230000Y-85630000D03*
X121770000Y-85630000D03*
X124310000Y-85630000D03*
X126850000Y-85630000D03*
X129390000Y-85630000D03*
X131930000Y-85630000D03*
X134470000Y-85630000D03*
X137010000Y-85630000D03*
X139550000Y-85630000D03*
%TD*%
D10*
%TO.C,J6*%
X165600000Y-63460000D03*
D11*
X165600000Y-60920000D03*
%TD*%
D12*
%TO.C,C2*%
X109982500Y-65200000D03*
X112057500Y-65200000D03*
%TD*%
D16*
%TO.C,REF\u002A\u002A*%
X103500000Y-101500000D03*
%TD*%
D10*
%TO.C,J35*%
X124800000Y-103210000D03*
D11*
X127340000Y-103210000D03*
X129880000Y-103210000D03*
X132420000Y-103210000D03*
%TD*%
D17*
%TO.C,C8*%
X149950000Y-100340000D03*
X149950000Y-102415000D03*
%TD*%
D10*
%TO.C,J36*%
X135500000Y-103160000D03*
D11*
X138040000Y-103160000D03*
X140580000Y-103160000D03*
X143120000Y-103160000D03*
%TD*%
D18*
%TO.C,SW1*%
X109650000Y-59600000D03*
X109650000Y-57100000D03*
X109650000Y-54600000D03*
X112050000Y-59600000D03*
X112050000Y-57100000D03*
X112050000Y-54600000D03*
%TD*%
D10*
%TO.C,J32*%
X135500000Y-100250000D03*
D11*
X138040000Y-100250000D03*
X140580000Y-100250000D03*
X143120000Y-100250000D03*
%TD*%
D17*
%TO.C,C7*%
X147840000Y-100340000D03*
X147840000Y-102415000D03*
%TD*%
D10*
%TO.C,J18*%
X162710000Y-84220000D03*
D11*
X162710000Y-81680000D03*
X162710000Y-79140000D03*
X162710000Y-76600000D03*
X162710000Y-74060000D03*
X162710000Y-71520000D03*
X162710000Y-68980000D03*
X162710000Y-66440000D03*
%TD*%
D19*
%TO.C,J33*%
X120650000Y-101332500D03*
D20*
X117150000Y-101332500D03*
%TD*%
D10*
%TO.C,J3*%
X134255000Y-53805000D03*
D11*
X131715000Y-53805000D03*
X129175000Y-53805000D03*
X126635000Y-53805000D03*
%TD*%
D10*
%TO.C,J2*%
X144905000Y-53805000D03*
D11*
X142365000Y-53805000D03*
X139825000Y-53805000D03*
X137285000Y-53805000D03*
%TD*%
D10*
%TO.C,J22*%
X147300000Y-84370000D03*
D11*
X149840000Y-84370000D03*
%TD*%
D16*
%TO.C,REF\u002A\u002A*%
X164500000Y-101500000D03*
%TD*%
D10*
%TO.C,J12*%
X165540000Y-84220000D03*
D11*
X165540000Y-81680000D03*
X165540000Y-79140000D03*
X165540000Y-76600000D03*
X165540000Y-74060000D03*
X165540000Y-71520000D03*
X165540000Y-68980000D03*
X165540000Y-66440000D03*
%TD*%
D10*
%TO.C,J34*%
X165440000Y-93410000D03*
D11*
X162900000Y-93410000D03*
X160360000Y-93410000D03*
X157820000Y-93410000D03*
X155280000Y-93410000D03*
%TD*%
D10*
%TO.C,J10*%
X134250000Y-56705000D03*
D11*
X131710000Y-56705000D03*
X129170000Y-56705000D03*
X126630000Y-56705000D03*
%TD*%
D12*
%TO.C,C1*%
X109982500Y-63080000D03*
X112057500Y-63080000D03*
%TD*%
%TO.C,C5*%
X139425000Y-91250000D03*
X141500000Y-91250000D03*
%TD*%
D21*
%TO.C,R2*%
X144800000Y-86290000D03*
X144800000Y-84290000D03*
%TD*%
D22*
%TO.C,C3*%
X121790000Y-89620000D03*
X121790000Y-95020000D03*
%TD*%
D10*
%TO.C,J20*%
X159880000Y-84220000D03*
D11*
X159880000Y-81680000D03*
X159880000Y-79140000D03*
X159880000Y-76600000D03*
X159880000Y-74060000D03*
X159880000Y-71520000D03*
X159880000Y-68980000D03*
X159880000Y-66440000D03*
%TD*%
D10*
%TO.C,J25*%
X127800000Y-90100000D03*
D11*
X130340000Y-90100000D03*
%TD*%
D10*
%TO.C,J14*%
X155555000Y-59605000D03*
D11*
X153015000Y-59605000D03*
X150475000Y-59605000D03*
X147935000Y-59605000D03*
%TD*%
D23*
%TO.C,J7*%
X112000000Y-92800000D03*
D24*
X106000000Y-92800000D03*
D25*
X109000000Y-97500000D03*
%TD*%
D18*
%TO.C,SW2*%
X146360000Y-74230000D03*
X146360000Y-71730000D03*
X146360000Y-69230000D03*
X148760000Y-74230000D03*
X148760000Y-71730000D03*
X148760000Y-69230000D03*
%TD*%
D10*
%TO.C,J31*%
X124810000Y-100300000D03*
D11*
X127350000Y-100300000D03*
X129890000Y-100300000D03*
X132430000Y-100300000D03*
%TD*%
D10*
%TO.C,J19*%
X159810000Y-63450000D03*
D11*
X159810000Y-60910000D03*
%TD*%
D16*
%TO.C,REF\u002A\u002A*%
X164510000Y-55490000D03*
%TD*%
D12*
%TO.C,C6*%
X146712500Y-78850000D03*
X148787500Y-78850000D03*
%TD*%
D10*
%TO.C,J28*%
X135510000Y-97340000D03*
D11*
X138050000Y-97340000D03*
X140590000Y-97340000D03*
X143130000Y-97340000D03*
%TD*%
D16*
%TO.C,REF\u002A\u002A*%
X103500000Y-55500000D03*
%TD*%
D10*
%TO.C,J1*%
X155565000Y-53805000D03*
D11*
X153025000Y-53805000D03*
X150485000Y-53805000D03*
X147945000Y-53805000D03*
%TD*%
D10*
%TO.C,J26*%
X127780000Y-93100000D03*
D11*
X130320000Y-93100000D03*
%TD*%
D10*
%TO.C,J23*%
X147310000Y-81410000D03*
D11*
X149850000Y-81410000D03*
%TD*%
D10*
%TO.C,J17*%
X123610000Y-59615000D03*
D11*
X121070000Y-59615000D03*
X118530000Y-59615000D03*
X115990000Y-59615000D03*
%TD*%
D10*
%TO.C,J16*%
X134250000Y-59610000D03*
D11*
X131710000Y-59610000D03*
X129170000Y-59610000D03*
X126630000Y-59610000D03*
%TD*%
D10*
%TO.C,J11*%
X123610000Y-56705000D03*
D11*
X121070000Y-56705000D03*
X118530000Y-56705000D03*
X115990000Y-56705000D03*
%TD*%
D10*
%TO.C,J30*%
X165430000Y-96320000D03*
D11*
X162890000Y-96320000D03*
X160350000Y-96320000D03*
X157810000Y-96320000D03*
X155270000Y-96320000D03*
%TD*%
D10*
%TO.C,J29*%
X152780000Y-66640000D03*
D11*
X152780000Y-69180000D03*
X152780000Y-71720000D03*
X152780000Y-74260000D03*
X152780000Y-76800000D03*
X152780000Y-79340000D03*
X152780000Y-81880000D03*
X152780000Y-84420000D03*
%TD*%
D26*
%TO.C,D1*%
X115750000Y-89950000D03*
X115750000Y-92750000D03*
%TD*%
D10*
%TO.C,J8*%
X155565000Y-56705000D03*
D11*
X153025000Y-56705000D03*
X150485000Y-56705000D03*
X147945000Y-56705000D03*
%TD*%
D10*
%TO.C,J13*%
X162710000Y-63460000D03*
D11*
X162710000Y-60920000D03*
%TD*%
D27*
%TO.C,J5*%
X103700000Y-65250000D03*
D20*
X103700000Y-61750000D03*
%TD*%
D10*
%TO.C,J9*%
X144915000Y-56705000D03*
D11*
X142375000Y-56705000D03*
X139835000Y-56705000D03*
X137295000Y-56705000D03*
%TD*%
M02*
