M48
; DRILL file {KiCad 9.0.1} date 2025-04-21T22:05:39-0400
; FORMAT={-:-/ absolute / inch / decimal}
; #@! TF.CreationDate,2025-04-21T22:05:39-04:00
; #@! TF.GenerationSoftware,Kicad,Pcbnew,9.0.1
; #@! TF.FileFunction,Plated,1,2,PTH
FMAT,2
INCH
; #@! TA.AperFunction,Plated,PTH,ViaDrill
T1C0.0118
; #@! TA.AperFunction,Plated,PTH,ViaDrill
T2C0.0157
; #@! TA.AperFunction,Plated,PTH,ViaDrill
T3C0.0197
; #@! TA.AperFunction,Plated,PTH,ComponentDrill
T4C0.0197
; #@! TA.AperFunction,Plated,PTH,ComponentDrill
T5C0.0394
%
G90
G05
T1
X2.4425Y-3.1608
X2.4462Y-3.0669
X2.4898Y-3.1372
X2.5203Y-3.1901
X2.565Y-3.2982
X2.5928Y-3.17
X2.5941Y-3.2327
X2.6476Y-3.1083
X2.6762Y-3.3002
X2.6997Y-3.4783
X2.748Y-3.2185
X2.7687Y-3.4793
X2.7795Y-3.2677
X2.8178Y-3.4184
X2.831Y-3.497
X2.9395Y-3.2608
X3.0327Y-3.1771
X3.0596Y-3.4081
X3.0724Y-3.1717
X3.0748Y-3.2726
X3.0903Y-3.4173
X3.1161Y-3.1476
X3.125Y-3.3947
X3.1417Y-3.2638
X3.187Y-3.4567
X3.2138Y-3.19
X3.2491Y-3.2459
X3.2748Y-3.4469
X3.2795Y-3.2223
X3.2924Y-3.3016
X3.2943Y-3.2697
X3.3Y-3.4183
X3.3238Y-3.1683
X3.3364Y-3.0797
X3.3426Y-3.3947
X3.3642Y-3.4567
X3.4764Y-3.4638
X3.5236Y-3.2283
X3.5886Y-3.4646
X3.5984Y-3.3553
X3.6732Y-3.4587
X3.6772Y-3.3514
X3.7322Y-3.0729
X3.81Y-3.1378
X3.8223Y-3.0507
X3.8499Y-3.0817
X3.9469Y-3.06
X3.9764Y-3.4587
T2
X3.6345Y-3.2971
T3
X2.4355Y-3.5111
X2.7942Y-3.3267
T5
X2.4795Y-2.9681
X2.4795Y-3.5681
X2.5795Y-2.9681
X2.5795Y-3.5681
X2.6795Y-2.9681
X2.6795Y-3.5681
X2.7795Y-2.9681
X2.7795Y-3.5681
X2.8795Y-2.9681
X2.8795Y-3.5681
X2.9795Y-2.9681
X2.9795Y-3.5681
X3.0795Y-2.9681
X3.0795Y-3.5681
X3.1795Y-2.9681
X3.1795Y-3.5681
X3.2795Y-2.9681
X3.2795Y-3.5681
X3.3795Y-2.9681
X3.3795Y-3.5681
X3.4795Y-2.9681
X3.4795Y-3.5681
X3.5795Y-2.9681
X3.5795Y-3.5681
X3.6795Y-2.9681
X3.6795Y-3.5681
X3.7795Y-2.9681
X3.7795Y-3.5681
X3.8596Y-3.1697
X3.8596Y-3.2697
X3.8596Y-3.3697
X3.8795Y-2.9681
X3.8795Y-3.5681
X3.9596Y-3.1697
X3.9596Y-3.2697
X3.9596Y-3.3697
T4
G00X2.3795Y-3.1333
M15
G01X2.4071Y-3.1333
M16
G05
G00X2.3795Y-3.3931
M15
G01X2.4071Y-3.3931
M16
G05
M30
