%TF.GenerationSoftware,KiCad,Pcbnew,9.0.1*%
%TF.CreationDate,2025-04-21T22:05:37-04:00*%
%TF.ProjectId,nano_original,6e616e6f-5f6f-4726-9967-696e616c2e6b,rev?*%
%TF.SameCoordinates,Original*%
%TF.FileFunction,Paste,Bot*%
%TF.FilePolarity,Positive*%
%FSLAX46Y46*%
G04 Gerber Fmt 4.6, Leading zero omitted, Abs format (unit mm)*
G04 Created by KiCad (PCBNEW 9.0.1) date 2025-04-21 22:05:37*
%MOMM*%
%LPD*%
G01*
G04 APERTURE LIST*
G04 Aperture macros list*
%AMRoundRect*
0 Rectangle with rounded corners*
0 $1 Rounding radius*
0 $2 $3 $4 $5 $6 $7 $8 $9 X,Y pos of 4 corners*
0 Add a 4 corners polygon primitive as box body*
4,1,4,$2,$3,$4,$5,$6,$7,$8,$9,$2,$3,0*
0 Add four circle primitives for the rounded corners*
1,1,$1+$1,$2,$3*
1,1,$1+$1,$4,$5*
1,1,$1+$1,$6,$7*
1,1,$1+$1,$8,$9*
0 Add four rect primitives between the rounded corners*
20,1,$1+$1,$2,$3,$4,$5,0*
20,1,$1+$1,$4,$5,$6,$7,0*
20,1,$1+$1,$6,$7,$8,$9,0*
20,1,$1+$1,$8,$9,$2,$3,0*%
G04 Aperture macros list end*
%ADD10RoundRect,0.375000X0.625000X0.375000X-0.625000X0.375000X-0.625000X-0.375000X0.625000X-0.375000X0*%
%ADD11RoundRect,0.500000X0.500000X1.400000X-0.500000X1.400000X-0.500000X-1.400000X0.500000X-1.400000X0*%
%ADD12RoundRect,0.250000X0.475000X-0.337500X0.475000X0.337500X-0.475000X0.337500X-0.475000X-0.337500X0*%
%ADD13RoundRect,0.076200X0.558800X-0.304800X0.558800X0.304800X-0.558800X0.304800X-0.558800X-0.304800X0*%
%ADD14RoundRect,0.127000X1.143000X-1.208000X1.143000X1.208000X-1.143000X1.208000X-1.143000X-1.208000X0*%
%ADD15RoundRect,0.250000X0.445000X-0.545000X0.445000X0.545000X-0.445000X0.545000X-0.445000X-0.545000X0*%
%ADD16RoundRect,0.250000X0.337500X0.475000X-0.337500X0.475000X-0.337500X-0.475000X0.337500X-0.475000X0*%
%ADD17RoundRect,0.250000X-0.337500X-0.475000X0.337500X-0.475000X0.337500X0.475000X-0.337500X0.475000X0*%
%ADD18R,0.760000X0.430000*%
%ADD19RoundRect,0.237500X0.287500X0.237500X-0.287500X0.237500X-0.287500X-0.237500X0.287500X-0.237500X0*%
%ADD20R,0.400000X1.200000*%
%ADD21RoundRect,0.250000X-0.545000X-0.445000X0.545000X-0.445000X0.545000X0.445000X-0.545000X0.445000X0*%
G04 APERTURE END LIST*
D10*
%TO.C,U1*%
X95300000Y-87700000D03*
D11*
X89000000Y-85400000D03*
D10*
X95300000Y-85400000D03*
X95300000Y-83100000D03*
%TD*%
D12*
%TO.C,C1*%
X86725000Y-86125000D03*
X86725000Y-84050000D03*
%TD*%
D13*
%TO.C,D2*%
X87725000Y-77799000D03*
D14*
X87725000Y-80150000D03*
%TD*%
D15*
%TO.C,C5*%
X60800000Y-84275000D03*
X60800000Y-81395000D03*
%TD*%
D16*
%TO.C,C8*%
X67162500Y-87850000D03*
X65087500Y-87850000D03*
%TD*%
D17*
%TO.C,C7*%
X78600000Y-85575000D03*
X80675000Y-85575000D03*
%TD*%
D18*
%TO.C,RN1*%
X83820000Y-85225000D03*
X83820000Y-86025000D03*
X83820000Y-86825000D03*
X83820000Y-87625000D03*
X82300000Y-87625000D03*
X82300000Y-86825000D03*
X82300000Y-86025000D03*
X82300000Y-85225000D03*
%TD*%
D19*
%TO.C,F1*%
X62715000Y-87685000D03*
X60965000Y-87685000D03*
%TD*%
D16*
%TO.C,C9*%
X76900000Y-85575000D03*
X74825000Y-85575000D03*
%TD*%
D18*
%TO.C,RN2*%
X82030000Y-81025000D03*
X82030000Y-80225000D03*
X82030000Y-79425000D03*
X82030000Y-78625000D03*
X83550000Y-78625000D03*
X83550000Y-79425000D03*
X83550000Y-80225000D03*
X83550000Y-81025000D03*
%TD*%
D12*
%TO.C,C2*%
X63650000Y-85475000D03*
X63650000Y-83400000D03*
%TD*%
%TO.C,C4*%
X85225000Y-81525000D03*
X85225000Y-79450000D03*
%TD*%
D17*
%TO.C,C6*%
X90225000Y-78275000D03*
X92300000Y-78275000D03*
%TD*%
D20*
%TO.C,U2*%
X72190000Y-85700000D03*
X71555000Y-85700000D03*
X70920000Y-85700000D03*
X70285000Y-85700000D03*
X69650000Y-85700000D03*
X69015000Y-85700000D03*
X68380000Y-85700000D03*
X67745000Y-85700000D03*
X67110000Y-85700000D03*
X66475000Y-85700000D03*
X66475000Y-80500000D03*
X67110000Y-80500000D03*
X67745000Y-80500000D03*
X68380000Y-80500000D03*
X69015000Y-80500000D03*
X69650000Y-80500000D03*
X70285000Y-80500000D03*
X70920000Y-80500000D03*
X71555000Y-80500000D03*
X72190000Y-80500000D03*
%TD*%
D21*
%TO.C,C3*%
X91025000Y-80650000D03*
X93905000Y-80650000D03*
%TD*%
M02*
